<?xml version="1.0" encoding="UTF-8"?>
<svg xmlns="http://www.w3.org/2000/svg" viewBox="0 0 1210.4 313" width="1210.4" height="313">
  <defs>
    <marker id="arrowFilled" viewBox="0 0 10 10" refX="0" refY="5" markerWidth="8" markerHeight="8" orient="auto-start-reverse">
      <path d="M0,1.5 L10,5 L0,8.5 L2.5,5 Z" fill="#424242"/>
    </marker>
    <marker id="arrowOpen" viewBox="0 0 10 10" refX="0" refY="5" markerWidth="8" markerHeight="8" orient="auto-start-reverse">
      <path d="M0,1.5 L10,5 L0,8.5" fill="none" stroke="#424242" stroke-width="1.25"/>
    </marker>
    <marker id="arrowHof" viewBox="0 0 10 10" refX="0" refY="5" markerWidth="8" markerHeight="8" orient="auto-start-reverse">
      <path d="M0,1.5 L10,5 L0,8.5 L2.5,5 Z" fill="#00796b"/>
    </marker>
  </defs>
  <rect width="1210.4" height="313" fill="white"/>
  <text x="605.2" y="18" text-anchor="middle" font-size="14" font-weight="bold" font-family="sans-serif" fill="#222">Parser bind: thread rest to f(a)  |  Nothing → Nothing  (f skipped)</text>
  <text x="605.2" y="35" text-anchor="middle" font-size="11" font-weight="normal" font-family="sans-serif" fill="#555">also called: flatMap, Bind, &gt;&gt;=</text>
  <g transform="translate(0,44)">
    <rect x="0" y="0" width="1210.4" height="269" fill="#fafafa" stroke="#9e9e9e" stroke-width="1.5"/>
    <g class="diagram-frame-tab tab-activity">
      <path d="M0,0 L109,0 L109,12 L99,22 L0,22 Z" fill="#e0e0e0" stroke="#9e9e9e" stroke-width="1"/>
      <text x="54.5" y="12" text-anchor="middle" font-size="10" font-family="sans-serif" dominant-baseline="middle" fill="#333">«activity» bind</text>
    </g>
    <g class="edge">
      <path d="M156.8,140.0 L188.8,140.0" fill="none" stroke="#424242" stroke-width="1.5" stroke-linejoin="round" stroke-linecap="round" marker-end="url(#arrowFilled)"/>
    </g>
    <g class="edge">
      <path d="M156.8,192.0 L161.8,192.0 Q166.8,192.0 166.8,187.0 L166.8,164.0 Q166.8,158.0 172.8,158.0 L188.8,158.0" fill="none" stroke="#424242" stroke-width="1.5" stroke-linejoin="round" stroke-linecap="round" marker-end="url(#arrowFilled)"/>
    </g>
    <g class="edge">
      <path d="M328.8,135.0 L373.4,135.0" fill="none" stroke="#424242" stroke-width="1.5" stroke-linejoin="round" stroke-linecap="round" marker-end="url(#arrowFilled)"/>
    </g>
    <g class="edge">
      <path d="M328.8,147.0 L346.8,147.0 Q352.8,147.0 352.8,153.0 L352.8,216.0 Q352.8,222.0 358.8,222.0 L517.0,222.0 Q518.0,222.0 518.0,221.0 L518.0,221.0 Q518.0,220.0 519.0,220.0 L547.2,220.0" fill="none" stroke="#424242" stroke-width="1.5" stroke-linejoin="round" stroke-linecap="round" marker-end="url(#arrowFilled)"/>
    </g>
    <g class="edge">
      <path d="M495.4,135.0 L540.0,135.0" fill="none" stroke="#424242" stroke-width="1.5" stroke-linejoin="round" stroke-linecap="round" marker-end="url(#arrowFilled)"/>
    </g>
    <g class="edge hof-edge">
      <path d="M508.0,187.0 L513.0,187.0 Q518.0,187.0 518.0,182.0 L518.0,156.0 Q518.0,150.0 524.0,150.0 L540.0,150.0" fill="none" stroke="#00796b" stroke-width="1.5" stroke-linejoin="round" stroke-linecap="round" marker-end="url(#arrowHof)"/>
    </g>
    <g class="edge">
      <path d="M680.0,133.0 L688.0,133.0 Q694.0,133.0 694.0,139.0 L694.0,179.0 Q694.0,185.0 700.0,185.0 L712.0,185.0" fill="none" stroke="#424242" stroke-width="1.5" stroke-linejoin="round" stroke-linecap="round" marker-end="url(#arrowFilled)"/>
    </g>
    <g class="edge">
      <path d="M837.6,185.0 L869.6,185.0" fill="none" stroke="#424242" stroke-width="1.5" stroke-linejoin="round" stroke-linecap="round" marker-end="url(#arrowFilled)"/>
    </g>
    <g class="edge">
      <path d="M672.8,220.0 L841.6,220.0 Q847.6,220.0 847.6,214.0 L847.6,206.0 Q847.6,200.0 853.6,200.0 L869.6,200.0" fill="none" stroke="#424242" stroke-width="1.5" stroke-linejoin="round" stroke-linecap="round" marker-end="url(#arrowFilled)"/>
    </g>
    <g class="edge">
      <path d="M1009.6,180.0 L1041.6,180.0" fill="none" stroke="#424242" stroke-width="1.5" stroke-linejoin="round" stroke-linecap="round" marker-end="url(#arrowFilled)"/>
    </g>
    <g class="edge">
      <path d="M1009.6,198.0 L1017.6,198.0 Q1023.6,198.0 1023.6,204.0 L1023.6,226.0 Q1023.6,232.0 1029.6,232.0 L1041.6,232.0" fill="none" stroke="#424242" stroke-width="1.5" stroke-linejoin="round" stroke-linecap="round" marker-end="url(#arrowFilled)"/>
    </g>
    <g class="edge">
      <path d="M178.4,59.0 L295.4,59.0" fill="none" stroke="#424242" stroke-width="1.5" stroke-linejoin="round" stroke-linecap="round" marker-end="url(#arrowFilled)"/>
      <text x="242.89999999999998" y="53" text-anchor="middle" dominant-baseline="middle" font-size="9" font-family="sans-serif" fill="#333" stroke="white" stroke-width="3" paint-order="stroke fill">f skipped</text>
    </g>
    <g class="edge">
      <path d="M324.8,167.0 L336.8,167.0 Q342.8,167.0 342.8,161.0 L342.8,105.0 Q342.8,99.0 348.8,99.0 L512.0,99.0 Q518.0,99.0 518.0,105.0 L518.0,118.0 Q518.0,124.0 524.0,124.0 L544.0,124.0" fill="none" stroke="#424242" stroke-width="1.5" stroke-linejoin="round" stroke-linecap="round" marker-end="url(#arrowOpen)" stroke-dasharray="6,4"/>
    </g>
    <g class="edge">
      <path d="M676.0,149.0 L841.6,149.0 Q847.6,149.0 847.6,155.0 L847.6,168.0 Q847.6,174.0 853.6,174.0 L873.6,174.0" fill="none" stroke="#424242" stroke-width="1.5" stroke-linejoin="round" stroke-linecap="round" marker-end="url(#arrowOpen)" stroke-dasharray="6,4"/>
    </g>
    <g class="action-node">
      <title>Run pa(input): on success produces (a, rest); on failure produces Nothing</title>
      <rect x="204.8" y="127" width="120" height="44" rx="12" fill="#e8f5e9" stroke="#388e3c" stroke-width="1.5"/>
      <text class="action-label" x="264.8" y="149" text-anchor="middle" font-size="11" font-family="sans-serif" dominant-baseline="middle" fill="#333">run_pa</text>
      <g class="pin pin-in">
        <rect x="200.8" y="137.66666666666666" width="8" height="8" fill="#e0e0e0" stroke="#424242" stroke-width="1"/>
        <text x="210.8" y="141.66666666666666" text-anchor="start" font-size="8" font-family="sans-serif" dominant-baseline="middle" fill="#555" stroke="white" stroke-width="2" paint-order="stroke fill">pa</text>
      </g>
      <g class="pin pin-in">
        <rect x="200.8" y="152.33333333333334" width="8" height="8" fill="#e0e0e0" stroke="#424242" stroke-width="1"/>
        <text x="210.8" y="156.33333333333334" text-anchor="start" font-size="8" font-family="sans-serif" dominant-baseline="middle" fill="#555" stroke="white" stroke-width="2" paint-order="stroke fill">input</text>
      </g>
      <g class="pin pin-out">
        <rect x="320.8" y="134" width="8" height="8" fill="#e0e0e0" stroke="#424242" stroke-width="1"/>
        <text x="318.8" y="138" text-anchor="end" font-size="8" font-family="sans-serif" dominant-baseline="middle" fill="#555" stroke="white" stroke-width="2" paint-order="stroke fill">a_val</text>
      </g>
      <g class="pin pin-out">
        <rect x="320.8" y="145" width="8" height="8" fill="#e0e0e0" stroke="#424242" stroke-width="1"/>
        <text x="318.8" y="149" text-anchor="end" font-size="8" font-family="sans-serif" dominant-baseline="middle" fill="#555" stroke="white" stroke-width="2" paint-order="stroke fill">rest</text>
      </g>
      <g class="pin pin-out">
        <rect x="320.8" y="156" width="8" height="8" fill="#e0e0e0" stroke="#424242" stroke-width="1"/>
        <text x="318.8" y="160" text-anchor="end" font-size="8" font-family="sans-serif" dominant-baseline="middle" fill="#555" stroke="white" stroke-width="2" paint-order="stroke fill">fail</text>
      </g>
    </g>
    <g class="action-node">
      <title>Apply f(a): build Parser b from the parsed value a</title>
      <rect x="556" y="117" width="120" height="44" rx="12" fill="#e8f5e9" stroke="#388e3c" stroke-width="1.5"/>
      <text class="action-label" x="616" y="139" text-anchor="middle" font-size="11" font-family="sans-serif" dominant-baseline="middle" fill="#333">apply_f</text>
      <g class="pin pin-in">
        <rect x="552" y="127.66666666666666" width="8" height="8" fill="#e0e0e0" stroke="#424242" stroke-width="1"/>
        <text x="562" y="131.66666666666666" text-anchor="start" font-size="8" font-family="sans-serif" dominant-baseline="middle" fill="#555" stroke="white" stroke-width="2" paint-order="stroke fill">a_val</text>
      </g>
      <g class="pin pin-in">
        <rect x="552" y="142.33333333333334" width="8" height="8" fill="#e0e0e0" stroke="#424242" stroke-width="1"/>
        <text x="562" y="146.33333333333334" text-anchor="start" font-size="8" font-family="sans-serif" dominant-baseline="middle" fill="#555" stroke="white" stroke-width="2" paint-order="stroke fill">f</text>
      </g>
      <g class="pin pin-out">
        <rect x="672" y="135" width="8" height="8" fill="#e0e0e0" stroke="#424242" stroke-width="1"/>
        <text x="670" y="139" text-anchor="end" font-size="8" font-family="sans-serif" dominant-baseline="middle" fill="#555" stroke="white" stroke-width="2" paint-order="stroke fill">pb</text>
      </g>
    </g>
    <g class="action-node">
      <title>Run pb(rest): parse b from the REMAINING input, not from the original input</title>
      <rect x="885.6" y="167" width="120" height="44" rx="12" fill="#e8f5e9" stroke="#388e3c" stroke-width="1.5"/>
      <text class="action-label" x="945.6" y="189" text-anchor="middle" font-size="11" font-family="sans-serif" dominant-baseline="middle" fill="#333">run_pb</text>
      <g class="pin pin-in">
        <rect x="881.6" y="177.66666666666666" width="8" height="8" fill="#e0e0e0" stroke="#424242" stroke-width="1"/>
        <text x="891.6" y="181.66666666666666" text-anchor="start" font-size="8" font-family="sans-serif" dominant-baseline="middle" fill="#555" stroke="white" stroke-width="2" paint-order="stroke fill">pb</text>
      </g>
      <g class="pin pin-in">
        <rect x="881.6" y="192.33333333333334" width="8" height="8" fill="#e0e0e0" stroke="#424242" stroke-width="1"/>
        <text x="891.6" y="196.33333333333334" text-anchor="start" font-size="8" font-family="sans-serif" dominant-baseline="middle" fill="#555" stroke="white" stroke-width="2" paint-order="stroke fill">rest</text>
      </g>
      <g class="pin pin-out">
        <rect x="1001.6" y="177.66666666666666" width="8" height="8" fill="#e0e0e0" stroke="#424242" stroke-width="1"/>
        <text x="999.6" y="181.66666666666666" text-anchor="end" font-size="8" font-family="sans-serif" dominant-baseline="middle" fill="#555" stroke="white" stroke-width="2" paint-order="stroke fill">b</text>
      </g>
      <g class="pin pin-out">
        <rect x="1001.6" y="192.33333333333334" width="8" height="8" fill="#e0e0e0" stroke="#424242" stroke-width="1"/>
        <text x="999.6" y="196.33333333333334" text-anchor="end" font-size="8" font-family="sans-serif" dominant-baseline="middle" fill="#555" stroke="white" stroke-width="2" paint-order="stroke fill">rest2</text>
      </g>
    </g>
    <g class="object-node">
      <title>Parser a — a function String ⟶ Maybe (a, String): consumes a prefix, returns (a, rest) or Nothing</title>
      <rect x="43.199999999999996" y="121" width="113.60000000000001" height="38" fill="#f5f5f5" stroke="#616161" stroke-width="1.5"/>
      <text x="100" y="140" text-anchor="middle" font-size="11" font-family="sans-serif" dominant-baseline="middle" fill="#333">pa : Parser a</text>
    </g>
    <g class="object-node hof">
      <title>(a ⟶ Parser b) — the next parser, built from the parsed value a</title>
      <rect x="372.79999999999995" y="168" width="135.2" height="38" fill="#e0f2f1" stroke="#00796b" stroke-width="1.5"/>
      <text x="440.4" y="180" text-anchor="middle" font-size="9" font-style="italic" font-family="sans-serif" dominant-baseline="middle" fill="#00796b">«function»</text>
      <text x="440.4" y="194" text-anchor="middle" font-size="11" font-family="sans-serif" dominant-baseline="middle" fill="#333">f : a ⟶ Parser b</text>
    </g>
    <g class="object-node">
      <title>String — the full input. pa consumes a prefix; rest is passed forward (like State monad).</title>
      <rect x="36.00000000000001" y="173" width="120.8" height="38" fill="#f5f5f5" stroke="#616161" stroke-width="1.5"/>
      <text x="96.4" y="192" text-anchor="middle" font-size="11" font-family="sans-serif" dominant-baseline="middle" fill="#333">input : String</text>
    </g>
    <g class="object-node">
      <title>a — the parsed value. Passed to f to build the next parser.</title>
      <rect x="385.4" y="116" width="110" height="38" fill="#f5f5f5" stroke="#616161" stroke-width="1.5"/>
      <text x="440.4" y="135" text-anchor="middle" font-size="11" font-family="sans-serif" dominant-baseline="middle" fill="#333">a_val : a</text>
    </g>
    <g class="object-node">
      <title>String — unconsumed input after pa ran. Flows to run_pb (not input). This is the State-like threading.</title>
      <rect x="559.2" y="201" width="113.60000000000001" height="38" fill="#f5f5f5" stroke="#616161" stroke-width="1.5"/>
      <text x="616" y="220" text-anchor="middle" font-size="11" font-family="sans-serif" dominant-baseline="middle" fill="#333">rest : String</text>
    </g>
    <g class="object-node">
      <title>Parser b — the second parser</title>
      <rect x="724" y="166" width="113.60000000000001" height="38" fill="#f5f5f5" stroke="#616161" stroke-width="1.5"/>
      <text x="780.8" y="185" text-anchor="middle" font-size="11" font-family="sans-serif" dominant-baseline="middle" fill="#333">pb : Parser b</text>
    </g>
    <g class="object-node">
      <title>b — the final parsed value</title>
      <rect x="1053.6" y="161" width="110" height="38" fill="#f5f5f5" stroke="#616161" stroke-width="1.5"/>
      <text x="1108.6" y="180" text-anchor="middle" font-size="11" font-family="sans-serif" dominant-baseline="middle" fill="#333">b : b</text>
    </g>
    <g class="object-node">
      <title>String — input still unconsumed after both parsers ran</title>
      <rect x="1053.6" y="213" width="120.8" height="38" fill="#f5f5f5" stroke="#616161" stroke-width="1.5"/>
      <text x="1114" y="232" text-anchor="middle" font-size="11" font-family="sans-serif" dominant-baseline="middle" fill="#333">rest2 : String</text>
    </g>
    <g class="object-node">
      <title>Nothing — pa failed. No (a, rest) was produced.</title>
      <rect x="36" y="40" width="142.4" height="38" fill="#f5f5f5" stroke="#616161" stroke-width="1.5"/>
      <text x="107.2" y="59" text-anchor="middle" font-size="11" font-family="sans-serif" dominant-baseline="middle" fill="#333">fail_in : Nothing</text>
    </g>
    <g class="object-node">
      <title>Nothing — propagated unchanged. f is never called. (Same short-circuit as Maybe bind.)</title>
      <rect x="307.4" y="40" width="149.6" height="38" fill="#f5f5f5" stroke="#616161" stroke-width="1.5"/>
      <text x="382.2" y="59" text-anchor="middle" font-size="11" font-family="sans-serif" dominant-baseline="middle" fill="#333">fail_out : Nothing</text>
    </g>
  </g>
</svg>
