<?xml version="1.0" encoding="UTF-8"?>
<svg xmlns="http://www.w3.org/2000/svg" viewBox="0 0 760 223" width="760" height="223">
  <defs>
    <marker id="arrowFilled" viewBox="0 0 10 10" refX="0" refY="5" markerWidth="8" markerHeight="8" orient="auto-start-reverse">
      <path d="M0,1.5 L10,5 L0,8.5 L2.5,5 Z" fill="#424242"/>
    </marker>
    <marker id="arrowOpen" viewBox="0 0 10 10" refX="0" refY="5" markerWidth="8" markerHeight="8" orient="auto-start-reverse">
      <path d="M0,1.5 L10,5 L0,8.5" fill="none" stroke="#424242" stroke-width="1.25"/>
    </marker>
    <marker id="arrowHof" viewBox="0 0 10 10" refX="0" refY="5" markerWidth="8" markerHeight="8" orient="auto-start-reverse">
      <path d="M0,1.5 L10,5 L0,8.5 L2.5,5 Z" fill="#00796b"/>
    </marker>
  </defs>
  <rect width="760" height="223" fill="white"/>
  <text x="380" y="18" text-anchor="middle" font-size="14" font-weight="bold" font-family="sans-serif" fill="#222">Monad: Ma &gt;&gt;= (a ⟶ Mb) &gt;&gt;= (b ⟶ Mc)</text>
  <g transform="translate(0,28)">
    <rect x="0" y="0" width="760" height="195" fill="#fafafa" stroke="#9e9e9e" stroke-width="1.5"/>
    <g class="diagram-frame-tab tab-activity">
      <path d="M0,0 L102.8,0 L102.8,12 L92.8,22 L0,22 Z" fill="#e0e0e0" stroke="#9e9e9e" stroke-width="1"/>
      <text x="51.4" y="12" text-anchor="middle" font-size="10" font-family="sans-serif" dominant-baseline="middle" fill="#333">«activity» &gt;&gt;=</text>
    </g>
    <g class="edge">
      <path d="M146.0,59.0 L158.0,59.0" fill="none" stroke="#424242" stroke-width="1.5" stroke-linejoin="round" stroke-linecap="round" marker-end="url(#arrowFilled)"/>
    </g>
    <g class="edge hof-edge">
      <path d="M146.0,111.0 L151.0,111.0 Q156.0,111.0 156.0,106.0 L156.0,78.0 Q156.0,77.0 157.0,77.0 L158.0,77.0" fill="none" stroke="#00796b" stroke-width="1.5" stroke-linejoin="round" stroke-linecap="round" marker-end="url(#arrowHof)"/>
    </g>
    <g class="edge">
      <path d="M298.0,62.0 L306.0,62.0 Q312.0,62.0 312.0,68.0 L312.0,106.0 L312.0,106.0" fill="none" stroke="#424242" stroke-width="1.5" stroke-linejoin="round" stroke-linecap="round" marker-end="url(#arrowFilled)"/>
    </g>
    <g class="edge">
      <path d="M432.0,106.0 L437.0,106.0 Q442.0,106.0 442.0,101.0 L442.0,95.0 Q442.0,89.0 448.0,89.0 L454.0,89.0" fill="none" stroke="#424242" stroke-width="1.5" stroke-linejoin="round" stroke-linecap="round" marker-end="url(#arrowFilled)"/>
    </g>
    <g class="edge hof-edge">
      <path d="M432.0,158.0 L446.0,158.0 Q452.0,158.0 452.0,152.0 L452.0,105.0 Q452.0,104.0 453.0,104.0 L454.0,104.0" fill="none" stroke="#00796b" stroke-width="1.5" stroke-linejoin="round" stroke-linecap="round" marker-end="url(#arrowHof)"/>
    </g>
    <g class="edge">
      <path d="M594.0,93.0 L602.0,93.0" fill="none" stroke="#424242" stroke-width="1.5" stroke-linejoin="round" stroke-linecap="round" marker-end="url(#arrowFilled)"/>
    </g>
    <g class="edge">
      <path d="M294.0,78.0 L458.0,78.0" fill="none" stroke="#424242" stroke-width="1.5" stroke-linejoin="round" stroke-linecap="round" marker-end="url(#arrowOpen)" stroke-dasharray="6,4"/>
    </g>
    <g class="action-node">
      <title>&gt;&gt;= : unwraps Ma, applies f, produces Mb</title>
      <rect x="174" y="46" width="120" height="44" rx="12" fill="#e8f5e9" stroke="#388e3c" stroke-width="1.5"/>
      <text class="action-label" x="234" y="68" text-anchor="middle" font-size="11" font-family="sans-serif" dominant-baseline="middle" fill="#333">bind1</text>
      <g class="pin pin-in">
        <rect x="170" y="56.666666666666664" width="8" height="8" fill="#e0e0e0" stroke="#424242" stroke-width="1"/>
        <text x="180" y="60.666666666666664" text-anchor="start" font-size="8" font-family="sans-serif" dominant-baseline="middle" fill="#555">ma</text>
      </g>
      <g class="pin pin-in">
        <rect x="170" y="71.33333333333333" width="8" height="8" fill="#e0e0e0" stroke="#424242" stroke-width="1"/>
        <text x="180" y="75.33333333333333" text-anchor="start" font-size="8" font-family="sans-serif" dominant-baseline="middle" fill="#555">f</text>
      </g>
      <g class="pin pin-out">
        <rect x="290" y="64" width="8" height="8" fill="#e0e0e0" stroke="#424242" stroke-width="1"/>
        <text x="288" y="68" text-anchor="end" font-size="8" font-family="sans-serif" dominant-baseline="middle" fill="#555">mb</text>
      </g>
    </g>
    <g class="action-node">
      <title>&gt;&gt;= : unwraps Mb, applies g, produces Mc</title>
      <rect x="470" y="71" width="120" height="44" rx="12" fill="#e8f5e9" stroke="#388e3c" stroke-width="1.5"/>
      <text class="action-label" x="530" y="93" text-anchor="middle" font-size="11" font-family="sans-serif" dominant-baseline="middle" fill="#333">bind2</text>
      <g class="pin pin-in">
        <rect x="466" y="81.66666666666667" width="8" height="8" fill="#e0e0e0" stroke="#424242" stroke-width="1"/>
        <text x="476" y="85.66666666666667" text-anchor="start" font-size="8" font-family="sans-serif" dominant-baseline="middle" fill="#555">ma</text>
      </g>
      <g class="pin pin-in">
        <rect x="466" y="96.33333333333333" width="8" height="8" fill="#e0e0e0" stroke="#424242" stroke-width="1"/>
        <text x="476" y="100.33333333333333" text-anchor="start" font-size="8" font-family="sans-serif" dominant-baseline="middle" fill="#555">f</text>
      </g>
      <g class="pin pin-out">
        <rect x="586" y="89" width="8" height="8" fill="#e0e0e0" stroke="#424242" stroke-width="1"/>
        <text x="584" y="93" text-anchor="end" font-size="8" font-family="sans-serif" dominant-baseline="middle" fill="#555">mb</text>
      </g>
    </g>
    <g class="object-node">
      <title>Ma — the initial wrapped value</title>
      <rect x="36" y="40" width="110" height="38" fill="#f5f5f5" stroke="#616161" stroke-width="1.5"/>
      <text x="91" y="59" text-anchor="middle" font-size="11" font-family="sans-serif" dominant-baseline="middle" fill="#333">Ma : Ma</text>
    </g>
    <g class="object-node hof">
      <title>(a ⟶ Mb) — effectful function, received as a data token (HOF)</title>
      <rect x="36" y="92" width="110" height="38" fill="#e0f2f1" stroke="#00796b" stroke-width="1.5"/>
      <text x="91" y="104" text-anchor="middle" font-size="9" font-style="italic" font-family="sans-serif" dominant-baseline="middle" fill="#00796b">«function»</text>
      <text x="91" y="118" text-anchor="middle" font-size="11" font-family="sans-serif" dominant-baseline="middle" fill="#333">f : a ⟶ Mb</text>
    </g>
    <g class="object-node hof">
      <title>(b ⟶ Mc) — second step function, also a HOF input</title>
      <rect x="322" y="139" width="110" height="38" fill="#e0f2f1" stroke="#00796b" stroke-width="1.5"/>
      <text x="377" y="151" text-anchor="middle" font-size="9" font-style="italic" font-family="sans-serif" dominant-baseline="middle" fill="#00796b">«function»</text>
      <text x="377" y="165" text-anchor="middle" font-size="11" font-family="sans-serif" dominant-baseline="middle" fill="#333">g : b ⟶ Mc</text>
    </g>
    <g class="object-node">
      <rect x="322" y="87" width="110" height="38" fill="#f5f5f5" stroke="#616161" stroke-width="1.5"/>
      <text x="377" y="106" text-anchor="middle" font-size="11" font-family="sans-serif" dominant-baseline="middle" fill="#333">Mb : Mb</text>
    </g>
    <g class="object-node">
      <title>Mc — final result, effects from all steps collected</title>
      <rect x="614" y="74" width="110" height="38" fill="#f5f5f5" stroke="#616161" stroke-width="1.5"/>
      <text x="669" y="93" text-anchor="middle" font-size="11" font-family="sans-serif" dominant-baseline="middle" fill="#333">Mc : Mc</text>
    </g>
  </g>
</svg>
