<?xml version="1.0" encoding="UTF-8"?>
<svg xmlns="http://www.w3.org/2000/svg" viewBox="0 0 1155.4 286" width="1155.4" height="286">
  <defs>
    <marker id="arrowFilled" viewBox="0 0 10 10" refX="0" refY="5" markerWidth="8" markerHeight="8" orient="auto-start-reverse">
      <path d="M0,1.5 L10,5 L0,8.5 L2.5,5 Z" fill="#424242"/>
    </marker>
    <marker id="arrowOpen" viewBox="0 0 10 10" refX="0" refY="5" markerWidth="8" markerHeight="8" orient="auto-start-reverse">
      <path d="M0,1.5 L10,5 L0,8.5" fill="none" stroke="#424242" stroke-width="1.25"/>
    </marker>
    <marker id="arrowHof" viewBox="0 0 10 10" refX="0" refY="5" markerWidth="8" markerHeight="8" orient="auto-start-reverse">
      <path d="M0,1.5 L10,5 L0,8.5 L2.5,5 Z" fill="#00796b"/>
    </marker>
  </defs>
  <rect width="1155.4" height="286" fill="white"/>
  <text x="577.7" y="18" text-anchor="middle" font-size="14" font-weight="bold" font-family="sans-serif" fill="#222">With callCC + bind: linear steps via bind; exit short-circuits straight to runCont</text>
  <g transform="translate(0,28) scale(1)">
    <rect x="0" y="0" width="1155.4" height="258" fill="#fafafa" stroke="#9e9e9e" stroke-width="1.5"/>
    <g class="diagram-frame-tab tab-activity">
      <path d="M0,0 L140,0 L140,12 L130,22 L0,22 Z" fill="#e0e0e0" stroke="#9e9e9e" stroke-width="1"/>
      <text x="70" y="12" text-anchor="middle" font-size="10" font-family="sans-serif" dominant-baseline="middle" fill="#333">«activity» contChain</text>
    </g>
    <g class="edge">
      <path d="M210.4,62.0 L218.4,62.0 Q224.4,62.0 224.4,68.0 L224.4,83.0 Q224.4,89.0 230.4,89.0 L293.4,89.0 Q298.4,89.0 298.4,94.0 L298.4,98.0 Q298.4,99.0 299.4,99.0 L300.4,99.0" fill="none" stroke="#424242" stroke-width="1.5" stroke-linejoin="round" stroke-linecap="round" marker-end="url(#arrowFilled)"/>
      <text x="261.4" y="83" text-anchor="middle" dominant-baseline="middle" font-size="9" font-family="sans-serif" fill="#333">Cont r b</text>
    </g>
    <g class="edge">
      <path d="M440.4,108.0 L508.4,108.0 Q514.4,108.0 514.4,114.0 L514.4,114.0 Q514.4,120.0 520.4,120.0 L535.7,120.0" fill="none" stroke="#424242" stroke-width="1.5" stroke-linejoin="round" stroke-linecap="round" marker-end="url(#arrowFilled)"/>
      <text x="479.4" y="102" text-anchor="middle" dominant-baseline="middle" font-size="9" font-family="sans-serif" fill="#333">Cont r c</text>
    </g>
    <g class="edge">
      <path d="M675.7,129.0 L790.4,129.0" fill="none" stroke="#424242" stroke-width="1.5" stroke-linejoin="round" stroke-linecap="round" marker-end="url(#arrowFilled)"/>
      <text x="739.0666666666666" y="123" text-anchor="middle" dominant-baseline="middle" font-size="9" font-family="sans-serif" fill="#333">Cont r d</text>
    </g>
    <g class="edge">
      <path d="M930.4,138.0 L993.4,138.0 Q999.4,138.0 999.4,132.0 L999.4,73.0 L999.4,73.0" fill="none" stroke="#424242" stroke-width="1.5" stroke-linejoin="round" stroke-linecap="round" marker-end="url(#arrowFilled)"/>
      <text x="966.9" y="132" text-anchor="middle" dominant-baseline="middle" font-size="9" font-family="sans-serif" fill="#333">runCont</text>
    </g>
    <g class="edge hof-edge">
      <path d="M214.4,117.0 L300.4,117.0" fill="none" stroke="#00796b" stroke-width="1.5" stroke-linejoin="round" stroke-linecap="round" marker-end="url(#arrowHof)"/>
    </g>
    <g class="edge hof-edge">
      <path d="M214.4,169.0 L219.4,169.0 Q224.4,169.0 224.4,164.0 L224.4,144.0 Q224.4,138.0 230.4,138.0 L535.7,138.0" fill="none" stroke="#00796b" stroke-width="1.5" stroke-linejoin="round" stroke-linecap="round" marker-end="url(#arrowHof)"/>
    </g>
    <g class="edge hof-edge">
      <path d="M214.4,221.0 L228.4,221.0 Q234.4,221.0 234.4,215.0 L234.4,165.0 Q234.4,159.0 240.4,159.0 L782.4,159.0 Q788.4,159.0 788.4,153.0 L788.4,148.0 Q788.4,147.0 789.4,147.0 L790.4,147.0" fill="none" stroke="#00796b" stroke-width="1.5" stroke-linejoin="round" stroke-linecap="round" marker-end="url(#arrowHof)"/>
    </g>
    <g class="edge">
      <path d="M210.4,62.0 L218.9,62.0 Q224.4,62.0 224.4,67.5 L224.4,67.5 Q224.4,73.0 229.9,73.0 L997.4,73.0" fill="none" stroke="#424242" stroke-width="1.5" stroke-linejoin="round" stroke-linecap="round" marker-end="url(#arrowFilled)"/>
      <text x="616.9" y="67" text-anchor="middle" dominant-baseline="middle" font-size="9" font-family="sans-serif" fill="#333">exit a — direct jump (skips all binds)</text>
    </g>
    <g class="action-node">
      <title>callCC : ((b → Cont r b) → Cont r b) → Cont r b. Captures the current continuation as exit and seeds the chain.</title>
      <rect x="86.4" y="40" width="120" height="44" rx="12" fill="#e8f5e9" stroke="#388e3c" stroke-width="1.5"/>
      <text class="action-label" x="146.4" y="62" text-anchor="middle" font-size="11" font-family="sans-serif" dominant-baseline="middle" fill="#333">callCC</text>
      <g class="pin pin-in">
        <rect x="82.4" y="58" width="8" height="8" fill="#e0e0e0" stroke="#424242" stroke-width="1"/>
        <text x="92.4" y="62" text-anchor="start" font-size="8" font-family="sans-serif" dominant-baseline="middle" fill="#555">body</text>
      </g>
      <g class="pin pin-out">
        <rect x="202.4" y="58" width="8" height="8" fill="#e0e0e0" stroke="#424242" stroke-width="1"/>
      </g>
    </g>
    <g class="action-node">
      <title>&gt;&gt;= : sequences step1 after callCC. Skipped if exit was already called.</title>
      <rect x="316.4" y="86" width="120" height="44" rx="12" fill="#e8f5e9" stroke="#388e3c" stroke-width="1.5"/>
      <text class="action-label" x="376.4" y="108" text-anchor="middle" font-size="11" font-family="sans-serif" dominant-baseline="middle" fill="#333">bindStep1</text>
      <g class="pin pin-in">
        <rect x="312.4" y="96.66666666666667" width="8" height="8" fill="#e0e0e0" stroke="#424242" stroke-width="1"/>
        <text x="322.4" y="100.66666666666667" text-anchor="start" font-size="8" font-family="sans-serif" dominant-baseline="middle" fill="#555">ma</text>
      </g>
      <g class="pin pin-in">
        <rect x="312.4" y="111.33333333333333" width="8" height="8" fill="#e0e0e0" stroke="#424242" stroke-width="1"/>
        <text x="322.4" y="115.33333333333333" text-anchor="start" font-size="8" font-family="sans-serif" dominant-baseline="middle" fill="#555">f</text>
      </g>
      <g class="pin pin-out">
        <rect x="432.4" y="104" width="8" height="8" fill="#e0e0e0" stroke="#424242" stroke-width="1"/>
      </g>
    </g>
    <g class="action-node">
      <title>&gt;&gt;= : sequences step2. Same pattern.</title>
      <rect x="551.7333333333333" y="107" width="120" height="44" rx="12" fill="#e8f5e9" stroke="#388e3c" stroke-width="1.5"/>
      <text class="action-label" x="611.7333333333333" y="129" text-anchor="middle" font-size="11" font-family="sans-serif" dominant-baseline="middle" fill="#333">bindStep2</text>
      <g class="pin pin-in">
        <rect x="547.7333333333333" y="117.66666666666667" width="8" height="8" fill="#e0e0e0" stroke="#424242" stroke-width="1"/>
        <text x="557.7333333333333" y="121.66666666666667" text-anchor="start" font-size="8" font-family="sans-serif" dominant-baseline="middle" fill="#555">ma</text>
      </g>
      <g class="pin pin-in">
        <rect x="547.7333333333333" y="132.33333333333334" width="8" height="8" fill="#e0e0e0" stroke="#424242" stroke-width="1"/>
        <text x="557.7333333333333" y="136.33333333333334" text-anchor="start" font-size="8" font-family="sans-serif" dominant-baseline="middle" fill="#555">f</text>
      </g>
      <g class="pin pin-out">
        <rect x="667.7333333333333" y="125" width="8" height="8" fill="#e0e0e0" stroke="#424242" stroke-width="1"/>
      </g>
    </g>
    <g class="action-node">
      <title>&gt;&gt;= : sequences step3. Same pattern.</title>
      <rect x="806.4" y="116" width="120" height="44" rx="12" fill="#e8f5e9" stroke="#388e3c" stroke-width="1.5"/>
      <text class="action-label" x="866.4" y="138" text-anchor="middle" font-size="11" font-family="sans-serif" dominant-baseline="middle" fill="#333">bindStep3</text>
      <g class="pin pin-in">
        <rect x="802.4" y="126.66666666666666" width="8" height="8" fill="#e0e0e0" stroke="#424242" stroke-width="1"/>
        <text x="812.4" y="130.66666666666666" text-anchor="start" font-size="8" font-family="sans-serif" dominant-baseline="middle" fill="#555">ma</text>
      </g>
      <g class="pin pin-in">
        <rect x="802.4" y="141.33333333333334" width="8" height="8" fill="#e0e0e0" stroke="#424242" stroke-width="1"/>
        <text x="812.4" y="145.33333333333334" text-anchor="start" font-size="8" font-family="sans-serif" dominant-baseline="middle" fill="#555">f</text>
      </g>
      <g class="pin pin-out">
        <rect x="922.4" y="134" width="8" height="8" fill="#e0e0e0" stroke="#424242" stroke-width="1"/>
      </g>
    </g>
    <g class="object-node hof">
      <title>step1 : b → Cont r c. HOF argument — input is b, not Cont r b.</title>
      <rect x="36" y="98" width="178.4" height="38" fill="#e0f2f1" stroke="#00796b" stroke-width="1.5"/>
      <text x="125.2" y="110" text-anchor="middle" font-size="9" font-style="italic" font-family="sans-serif" dominant-baseline="middle" fill="#00796b">«function»</text>
      <text x="125.2" y="124" text-anchor="middle" font-size="11" font-family="sans-serif" dominant-baseline="middle" fill="#333">step1Fn : b ⟶ Cont r c</text>
    </g>
    <g class="object-node hof">
      <title>step2 : c → Cont r d. HOF argument.</title>
      <rect x="36" y="150" width="178.4" height="38" fill="#e0f2f1" stroke="#00796b" stroke-width="1.5"/>
      <text x="125.2" y="162" text-anchor="middle" font-size="9" font-style="italic" font-family="sans-serif" dominant-baseline="middle" fill="#00796b">«function»</text>
      <text x="125.2" y="176" text-anchor="middle" font-size="11" font-family="sans-serif" dominant-baseline="middle" fill="#333">step2Fn : c ⟶ Cont r d</text>
    </g>
    <g class="object-node hof">
      <title>step3 : d → Cont r e. HOF argument.</title>
      <rect x="36" y="202" width="178.4" height="38" fill="#e0f2f1" stroke="#00796b" stroke-width="1.5"/>
      <text x="125.2" y="214" text-anchor="middle" font-size="9" font-style="italic" font-family="sans-serif" dominant-baseline="middle" fill="#00796b">«function»</text>
      <text x="125.2" y="228" text-anchor="middle" font-size="11" font-family="sans-serif" dominant-baseline="middle" fill="#333">step3Fn : d ⟶ Cont r e</text>
    </g>
    <g class="object-node">
      <title>r — the final continuation result. Reached either by completing the chain or by the exit shortcut.</title>
      <rect x="1009.4000000000001" y="54" width="110" height="38" fill="#f5f5f5" stroke="#616161" stroke-width="1.5"/>
      <text x="1064.4" y="73" text-anchor="middle" font-size="11" font-family="sans-serif" dominant-baseline="middle" fill="#333">outVal : r</text>
    </g>
  </g>
</svg>
