<?xml version="1.0" encoding="UTF-8"?>
<svg xmlns="http://www.w3.org/2000/svg" viewBox="0 0 1254.6 365" width="1254.6" height="365">
  <defs>
    <marker id="arrowFilled" viewBox="0 0 10 10" refX="0" refY="5" markerWidth="8" markerHeight="8" orient="auto-start-reverse">
      <path d="M0,1.5 L10,5 L0,8.5 L2.5,5 Z" fill="#424242"/>
    </marker>
    <marker id="arrowOpen" viewBox="0 0 10 10" refX="0" refY="5" markerWidth="8" markerHeight="8" orient="auto-start-reverse">
      <path d="M0,1.5 L10,5 L0,8.5" fill="none" stroke="#424242" stroke-width="1.25"/>
    </marker>
    <marker id="arrowHof" viewBox="0 0 10 10" refX="0" refY="5" markerWidth="8" markerHeight="8" orient="auto-start-reverse">
      <path d="M0,1.5 L10,5 L0,8.5 L2.5,5 Z" fill="#00796b"/>
    </marker>
  </defs>
  <rect width="1254.6" height="365" fill="white"/>
  <text x="627.3" y="18" text-anchor="middle" font-size="14" font-weight="bold" font-family="sans-serif" fill="#222">Prob bind: apply f per outcome, weight by pa, merge</text>
  <text x="627.3" y="35" text-anchor="middle" font-size="11" font-weight="normal" font-family="sans-serif" fill="#555">law of total probability</text>
  <text x="627.3" y="51" text-anchor="middle" font-size="11" font-weight="normal" font-family="sans-serif" fill="#555">also called: flatMap, SelectMany, &gt;&gt;=</text>
  <g transform="translate(0,60) scale(1)">
    <rect x="0" y="0" width="1254.6" height="305" fill="#fafafa" stroke="#9e9e9e" stroke-width="1.5"/>
    <g class="diagram-frame-tab tab-activity">
      <path d="M0,0 L109,0 L109,12 L99,22 L0,22 Z" fill="#e0e0e0" stroke="#9e9e9e" stroke-width="1"/>
      <text x="54.5" y="12" text-anchor="middle" font-size="10" font-family="sans-serif" dominant-baseline="middle" fill="#333">«activity» bind</text>
    </g>
    <g class="edge">
      <path d="M146.0,111.0 L151.0,111.0 Q156.0,111.0 156.0,106.0 L156.0,65.0 Q156.0,59.0 162.0,59.0 L189.0,59.0" fill="none" stroke="#424242" stroke-width="1.5" stroke-linejoin="round" stroke-linecap="round" marker-end="url(#arrowFilled)"/>
      <text x="156" y="79" text-anchor="middle" dominant-baseline="middle" font-size="9" font-family="sans-serif" fill="#333">∀ a</text>
    </g>
    <g class="edge">
      <path d="M146.0,111.0 L189.0,111.0" fill="none" stroke="#424242" stroke-width="1.5" stroke-linejoin="round" stroke-linecap="round" marker-end="url(#arrowFilled)"/>
      <text x="173.5" y="105" text-anchor="middle" dominant-baseline="middle" font-size="9" font-family="sans-serif" fill="#333">∀ a</text>
    </g>
    <g class="edge">
      <path d="M146.0,111.0 L151.0,111.0 Q156.0,111.0 156.0,116.0 L156.0,209.0 Q156.0,215.0 162.0,215.0 L189.0,215.0" fill="none" stroke="#424242" stroke-width="1.5" stroke-linejoin="round" stroke-linecap="round" marker-end="url(#arrowFilled)"/>
      <text x="156" y="157" text-anchor="middle" dominant-baseline="middle" font-size="9" font-family="sans-serif" fill="#333">∀ a</text>
    </g>
    <g class="edge">
      <path d="M146.0,111.0 L151.0,111.0 Q156.0,111.0 156.0,116.0 L156.0,261.0 Q156.0,267.0 162.0,267.0 L189.0,267.0" fill="none" stroke="#424242" stroke-width="1.5" stroke-linejoin="round" stroke-linecap="round" marker-end="url(#arrowFilled)"/>
      <text x="156" y="183" text-anchor="middle" dominant-baseline="middle" font-size="9" font-family="sans-serif" fill="#333">∀ a</text>
    </g>
    <g class="edge">
      <path d="M311.0,59.0 L329.0,59.0" fill="none" stroke="#424242" stroke-width="1.5" stroke-linejoin="round" stroke-linecap="round" marker-end="url(#arrowFilled)"/>
    </g>
    <g class="edge">
      <path d="M311.0,111.0 L316.0,111.0 Q321.0,111.0 321.0,106.0 L321.0,76.0 Q321.0,72.0 325.0,72.0 L329.0,72.0" fill="none" stroke="#424242" stroke-width="1.5" stroke-linejoin="round" stroke-linecap="round" marker-end="url(#arrowFilled)"/>
    </g>
    <g class="edge hof-edge">
      <path d="M311.0,163.0 L325.0,163.0 Q331.0,163.0 331.0,157.0 L331.0,85.0 L331.0,85.0" fill="none" stroke="#00796b" stroke-width="1.5" stroke-linejoin="round" stroke-linecap="round" marker-end="url(#arrowHof)"/>
    </g>
    <g class="edge">
      <path d="M473.0,66.0 L481.0,66.0 Q487.0,66.0 487.0,72.0 L487.0,106.0 Q487.0,110.0 491.0,110.0 L495.0,110.0" fill="none" stroke="#424242" stroke-width="1.5" stroke-linejoin="round" stroke-linecap="round" marker-end="url(#arrowFilled)"/>
    </g>
    <g class="edge">
      <path d="M617.0,110.0 L622.0,110.0 Q627.0,110.0 627.0,115.0 L627.0,118.0 Q627.0,122.0 631.0,122.0 L635.0,122.0" fill="none" stroke="#424242" stroke-width="1.5" stroke-linejoin="round" stroke-linecap="round" marker-end="url(#arrowFilled)"/>
    </g>
    <g class="edge">
      <path d="M311.0,111.0 L316.0,111.0 Q321.0,111.0 321.0,116.0 L321.0,131.0 Q321.0,137.0 327.0,137.0 L635.0,137.0" fill="none" stroke="#424242" stroke-width="1.5" stroke-linejoin="round" stroke-linecap="round" marker-end="url(#arrowFilled)"/>
    </g>
    <g class="edge">
      <path d="M779.0,120.0 L797.0,120.0 Q803.0,120.0 803.0,126.0 L803.0,164.0 L803.0,164.0" fill="none" stroke="#424242" stroke-width="1.5" stroke-linejoin="round" stroke-linecap="round" marker-end="url(#arrowFilled)"/>
    </g>
    <g class="edge">
      <path d="M311.0,215.0 L329.0,215.0" fill="none" stroke="#424242" stroke-width="1.5" stroke-linejoin="round" stroke-linecap="round" marker-end="url(#arrowFilled)"/>
    </g>
    <g class="edge">
      <path d="M311.0,267.0 L316.0,267.0 Q321.0,267.0 321.0,262.0 L321.0,232.0 Q321.0,228.0 325.0,228.0 L329.0,228.0" fill="none" stroke="#424242" stroke-width="1.5" stroke-linejoin="round" stroke-linecap="round" marker-end="url(#arrowFilled)"/>
    </g>
    <g class="edge hof-edge">
      <path d="M311.0,163.0 L325.0,163.0 Q331.0,163.0 331.0,169.0 L331.0,241.0 L331.0,241.0" fill="none" stroke="#00796b" stroke-width="1.5" stroke-linejoin="round" stroke-linecap="round" marker-end="url(#arrowHof)"/>
    </g>
    <g class="edge">
      <path d="M473.0,222.0 L491.0,222.0 Q497.0,222.0 497.0,228.0 L497.0,240.0 L497.0,240.0" fill="none" stroke="#424242" stroke-width="1.5" stroke-linejoin="round" stroke-linecap="round" marker-end="url(#arrowFilled)"/>
    </g>
    <g class="edge">
      <path d="M617.0,240.0 L622.0,240.0 Q627.0,240.0 627.0,235.0 L627.0,227.0 Q627.0,223.0 631.0,223.0 L635.0,223.0" fill="none" stroke="#424242" stroke-width="1.5" stroke-linejoin="round" stroke-linecap="round" marker-end="url(#arrowFilled)"/>
    </g>
    <g class="edge">
      <path d="M311.0,267.0 L631.0,267.0 Q637.0,267.0 637.0,261.0 L637.0,238.0 L637.0,238.0" fill="none" stroke="#424242" stroke-width="1.5" stroke-linejoin="round" stroke-linecap="round" marker-end="url(#arrowFilled)"/>
    </g>
    <g class="edge">
      <path d="M779.0,221.0 L801.0,221.0" fill="none" stroke="#424242" stroke-width="1.5" stroke-linejoin="round" stroke-linecap="round" marker-end="url(#arrowFilled)"/>
    </g>
    <g class="edge">
      <path d="M926.6,164.0 L931.6,164.0 Q936.6,164.0 936.6,159.0 L936.6,150.0 Q936.6,146.0 940.6,146.0 L944.6,146.0" fill="none" stroke="#424242" stroke-width="1.5" stroke-linejoin="round" stroke-linecap="round" marker-end="url(#arrowFilled)"/>
    </g>
    <g class="edge">
      <path d="M926.6,221.0 L940.6,221.0 Q946.6,221.0 946.6,215.0 L946.6,159.0 L946.6,159.0" fill="none" stroke="#424242" stroke-width="1.5" stroke-linejoin="round" stroke-linecap="round" marker-end="url(#arrowFilled)"/>
    </g>
    <g class="edge">
      <path d="M1088.6,147.0 L1096.6,147.0" fill="none" stroke="#424242" stroke-width="1.5" stroke-linejoin="round" stroke-linecap="round" marker-end="url(#arrowFilled)"/>
    </g>
    <g class="edge">
      <path d="M469.0,82.0 L631.0,82.0 Q637.0,82.0 637.0,88.0 L637.0,108.0 Q637.0,111.0 640.0,111.0 L643.0,111.0" fill="none" stroke="#424242" stroke-width="1.5" stroke-linejoin="round" stroke-linecap="round" marker-end="url(#arrowOpen)" stroke-dasharray="6,4"/>
    </g>
    <g class="edge">
      <path d="M469.0,238.0 L481.0,238.0 Q487.0,238.0 487.0,232.0 L487.0,218.0 Q487.0,212.0 493.0,212.0 L643.0,212.0" fill="none" stroke="#424242" stroke-width="1.5" stroke-linejoin="round" stroke-linecap="round" marker-end="url(#arrowOpen)" stroke-dasharray="6,4"/>
    </g>
    <g class="edge">
      <path d="M775.0,136.0 L952.6,136.0" fill="none" stroke="#424242" stroke-width="1.5" stroke-linejoin="round" stroke-linecap="round" marker-end="url(#arrowOpen)" stroke-dasharray="6,4"/>
    </g>
    <g class="edge">
      <path d="M775.0,237.0 L787.0,237.0 Q793.0,237.0 793.0,231.0 L793.0,131.0 Q793.0,125.0 799.0,125.0 L933.6,125.0 Q936.6,125.0 936.6,128.0 L936.6,128.0 Q936.6,131.0 939.6,131.0 L952.6,131.0" fill="none" stroke="#424242" stroke-width="1.5" stroke-linejoin="round" stroke-linecap="round" marker-end="url(#arrowOpen)" stroke-dasharray="6,4"/>
    </g>
    <g class="action-node">
      <title>Apply f(a1): get the conditional distribution Prob b given A = a1</title>
      <rect x="349" y="50" width="120" height="44" rx="12" fill="#e8f5e9" stroke="#388e3c" stroke-width="1.5"/>
      <text class="action-label" x="409" y="72" text-anchor="middle" font-size="11" font-family="sans-serif" dominant-baseline="middle" fill="#333">branch1</text>
      <g class="pin pin-in">
        <rect x="345" y="57" width="8" height="8" fill="#e0e0e0" stroke="#424242" stroke-width="1"/>
        <text x="355" y="61" text-anchor="start" dominant-baseline="middle" font-size="8" font-family="sans-serif" fill="#555">a_val</text>
      </g>
      <g class="pin pin-in">
        <rect x="345" y="68" width="8" height="8" fill="#e0e0e0" stroke="#424242" stroke-width="1"/>
        <text x="355" y="72" text-anchor="start" dominant-baseline="middle" font-size="8" font-family="sans-serif" fill="#555">pa</text>
      </g>
      <g class="pin pin-in">
        <rect x="345" y="79" width="8" height="8" fill="#e0e0e0" stroke="#424242" stroke-width="1"/>
        <text x="355" y="83" text-anchor="start" dominant-baseline="middle" font-size="8" font-family="sans-serif" fill="#555">f</text>
      </g>
      <g class="pin pin-out">
        <rect x="465" y="68" width="8" height="8" fill="#e0e0e0" stroke="#424242" stroke-width="1"/>
        <text x="463" y="72" text-anchor="end" dominant-baseline="middle" font-size="8" font-family="sans-serif" fill="#555">sub_b</text>
      </g>
    </g>
    <g class="action-node">
      <title>Apply f(a2): get the conditional distribution Prob b given A = a2</title>
      <rect x="349" y="206" width="120" height="44" rx="12" fill="#e8f5e9" stroke="#388e3c" stroke-width="1.5"/>
      <text class="action-label" x="409" y="228" text-anchor="middle" font-size="11" font-family="sans-serif" dominant-baseline="middle" fill="#333">branch2</text>
      <g class="pin pin-in">
        <rect x="345" y="213" width="8" height="8" fill="#e0e0e0" stroke="#424242" stroke-width="1"/>
        <text x="355" y="217" text-anchor="start" dominant-baseline="middle" font-size="8" font-family="sans-serif" fill="#555">a_val</text>
      </g>
      <g class="pin pin-in">
        <rect x="345" y="224" width="8" height="8" fill="#e0e0e0" stroke="#424242" stroke-width="1"/>
        <text x="355" y="228" text-anchor="start" dominant-baseline="middle" font-size="8" font-family="sans-serif" fill="#555">pa</text>
      </g>
      <g class="pin pin-in">
        <rect x="345" y="235" width="8" height="8" fill="#e0e0e0" stroke="#424242" stroke-width="1"/>
        <text x="355" y="239" text-anchor="start" dominant-baseline="middle" font-size="8" font-family="sans-serif" fill="#555">f</text>
      </g>
      <g class="pin pin-out">
        <rect x="465" y="224" width="8" height="8" fill="#e0e0e0" stroke="#424242" stroke-width="1"/>
        <text x="463" y="228" text-anchor="end" dominant-baseline="middle" font-size="8" font-family="sans-serif" fill="#555">sub_b</text>
      </g>
    </g>
    <g class="action-node">
      <title>Scale: each (b, pb) in sub1 gets weight pa1 * pb — P(B=b | A=a1) * P(A=a1)</title>
      <rect x="655" y="104" width="120" height="44" rx="12" fill="#e8f5e9" stroke="#388e3c" stroke-width="1.5"/>
      <text class="action-label" x="715" y="126" text-anchor="middle" font-size="11" font-family="sans-serif" dominant-baseline="middle" fill="#333">weight1</text>
      <g class="pin pin-in">
        <rect x="651" y="114.66666666666667" width="8" height="8" fill="#e0e0e0" stroke="#424242" stroke-width="1"/>
        <text x="661" y="118.66666666666667" text-anchor="start" dominant-baseline="middle" font-size="8" font-family="sans-serif" fill="#555">sub_b</text>
      </g>
      <g class="pin pin-in">
        <rect x="651" y="129.33333333333334" width="8" height="8" fill="#e0e0e0" stroke="#424242" stroke-width="1"/>
        <text x="661" y="133.33333333333334" text-anchor="start" dominant-baseline="middle" font-size="8" font-family="sans-serif" fill="#555">pa</text>
      </g>
      <g class="pin pin-out">
        <rect x="771" y="122" width="8" height="8" fill="#e0e0e0" stroke="#424242" stroke-width="1"/>
        <text x="769" y="126" text-anchor="end" dominant-baseline="middle" font-size="8" font-family="sans-serif" fill="#555">weighted</text>
      </g>
    </g>
    <g class="action-node">
      <title>Scale: each (b, pb) in sub2 gets weight pa2 * pb — P(B=b | A=a2) * P(A=a2)</title>
      <rect x="655" y="205" width="120" height="44" rx="12" fill="#e8f5e9" stroke="#388e3c" stroke-width="1.5"/>
      <text class="action-label" x="715" y="227" text-anchor="middle" font-size="11" font-family="sans-serif" dominant-baseline="middle" fill="#333">weight2</text>
      <g class="pin pin-in">
        <rect x="651" y="215.66666666666666" width="8" height="8" fill="#e0e0e0" stroke="#424242" stroke-width="1"/>
        <text x="661" y="219.66666666666666" text-anchor="start" dominant-baseline="middle" font-size="8" font-family="sans-serif" fill="#555">sub_b</text>
      </g>
      <g class="pin pin-in">
        <rect x="651" y="230.33333333333334" width="8" height="8" fill="#e0e0e0" stroke="#424242" stroke-width="1"/>
        <text x="661" y="234.33333333333334" text-anchor="start" dominant-baseline="middle" font-size="8" font-family="sans-serif" fill="#555">pa</text>
      </g>
      <g class="pin pin-out">
        <rect x="771" y="223" width="8" height="8" fill="#e0e0e0" stroke="#424242" stroke-width="1"/>
        <text x="769" y="227" text-anchor="end" dominant-baseline="middle" font-size="8" font-family="sans-serif" fill="#555">weighted</text>
      </g>
    </g>
    <g class="action-node">
      <title>Concatenate: w1 ++ w2 (and repeat for all other branches). Result is the marginal distribution P(B).</title>
      <rect x="964.5999999999999" y="125" width="120" height="44" rx="12" fill="#e8f5e9" stroke="#388e3c" stroke-width="1.5"/>
      <text class="action-label" x="1024.6" y="147" text-anchor="middle" font-size="11" font-family="sans-serif" dominant-baseline="middle" fill="#333">merge</text>
      <g class="pin pin-in">
        <rect x="960.5999999999999" y="135.66666666666666" width="8" height="8" fill="#e0e0e0" stroke="#424242" stroke-width="1"/>
        <text x="970.5999999999999" y="139.66666666666666" text-anchor="start" dominant-baseline="middle" font-size="8" font-family="sans-serif" fill="#555">w1</text>
      </g>
      <g class="pin pin-in">
        <rect x="960.5999999999999" y="150.33333333333334" width="8" height="8" fill="#e0e0e0" stroke="#424242" stroke-width="1"/>
        <text x="970.5999999999999" y="154.33333333333334" text-anchor="start" dominant-baseline="middle" font-size="8" font-family="sans-serif" fill="#555">w2</text>
      </g>
      <g class="pin pin-out">
        <rect x="1080.6" y="143" width="8" height="8" fill="#e0e0e0" stroke="#424242" stroke-width="1"/>
        <text x="1078.6" y="147" text-anchor="end" dominant-baseline="middle" font-size="8" font-family="sans-serif" fill="#555">dist_b</text>
      </g>
    </g>
    <g class="object-node">
      <title>Prob a = [(a, p)] — each (a, pa) is an outcome with probability pa. Repeats for every element (∀ a).</title>
      <rect x="36" y="92" width="110" height="38" fill="#f5f5f5" stroke="#616161" stroke-width="1.5"/>
      <text x="91" y="111" text-anchor="middle" font-size="11" font-family="sans-serif" dominant-baseline="middle" fill="#333">Prob a</text>
    </g>
    <g class="object-node hof">
      <title>(a ⟶ Prob b) — conditional distribution: given each outcome a, returns a distribution over b</title>
      <rect x="201" y="144" width="110" height="38" fill="#e0f2f1" stroke="#00796b" stroke-width="1.5"/>
      <text x="256" y="156" text-anchor="middle" font-size="9" font-style="italic" font-family="sans-serif" dominant-baseline="middle" fill="#00796b">«function»</text>
      <text x="256" y="170" text-anchor="middle" font-size="11" font-family="sans-serif" dominant-baseline="middle" fill="#333">a ⟶ Prob b</text>
    </g>
    <g class="object-node">
      <title>Outcome a1 from Prob a</title>
      <rect x="201" y="40" width="110" height="38" fill="#f5f5f5" stroke="#616161" stroke-width="1.5"/>
      <text x="256" y="59" text-anchor="middle" font-size="11" font-family="sans-serif" dominant-baseline="middle" fill="#333">a</text>
    </g>
    <g class="object-node">
      <title>P(A = a1) — probability of outcome a1</title>
      <rect x="201" y="92" width="110" height="38" fill="#f5f5f5" stroke="#616161" stroke-width="1.5"/>
      <text x="256" y="111" text-anchor="middle" font-size="11" font-family="sans-serif" dominant-baseline="middle" fill="#333">Double</text>
    </g>
    <g class="object-node">
      <title>Outcome a2 from Prob a</title>
      <rect x="201" y="196" width="110" height="38" fill="#f5f5f5" stroke="#616161" stroke-width="1.5"/>
      <text x="256" y="215" text-anchor="middle" font-size="11" font-family="sans-serif" dominant-baseline="middle" fill="#333">a</text>
    </g>
    <g class="object-node">
      <title>P(A = a2) — probability of outcome a2</title>
      <rect x="201" y="248" width="110" height="38" fill="#f5f5f5" stroke="#616161" stroke-width="1.5"/>
      <text x="256" y="267" text-anchor="middle" font-size="11" font-family="sans-serif" dominant-baseline="middle" fill="#333">Double</text>
    </g>
    <g class="object-node">
      <title>Prob b — conditional distribution for branch a1</title>
      <rect x="507" y="91" width="110" height="38" fill="#f5f5f5" stroke="#616161" stroke-width="1.5"/>
      <text x="562" y="110" text-anchor="middle" font-size="11" font-family="sans-serif" dominant-baseline="middle" fill="#333">Prob b</text>
    </g>
    <g class="object-node">
      <title>Prob b — conditional distribution for branch a2</title>
      <rect x="507" y="221" width="110" height="38" fill="#f5f5f5" stroke="#616161" stroke-width="1.5"/>
      <text x="562" y="240" text-anchor="middle" font-size="11" font-family="sans-serif" dominant-baseline="middle" fill="#333">Prob b</text>
    </g>
    <g class="object-node">
      <title>[(b, pa1·pb)] — weighted outcomes for branch a1</title>
      <rect x="813" y="145" width="113.60000000000001" height="38" fill="#f5f5f5" stroke="#616161" stroke-width="1.5"/>
      <text x="869.8" y="164" text-anchor="middle" font-size="11" font-family="sans-serif" dominant-baseline="middle" fill="#333">[(b, pa1·pb)]</text>
    </g>
    <g class="object-node">
      <title>[(b, pa2·pb)] — weighted outcomes for branch a2</title>
      <rect x="813" y="202" width="113.60000000000001" height="38" fill="#f5f5f5" stroke="#616161" stroke-width="1.5"/>
      <text x="869.8" y="221" text-anchor="middle" font-size="11" font-family="sans-serif" dominant-baseline="middle" fill="#333">[(b, pa2·pb)]</text>
    </g>
    <g class="object-node">
      <title>Prob b — the marginal distribution: P(B=b) = Σ_a P(B=b|A=a)·P(A=a)</title>
      <rect x="1108.6" y="128" width="110" height="38" fill="#f5f5f5" stroke="#616161" stroke-width="1.5"/>
      <text x="1163.6" y="147" text-anchor="middle" font-size="11" font-family="sans-serif" dominant-baseline="middle" fill="#333">Prob b</text>
    </g>
  </g>
</svg>
