<?xml version="1.0" encoding="UTF-8"?>
<svg xmlns="http://www.w3.org/2000/svg" viewBox="0 0 1479 365" width="1479" height="365">
  <defs>
    <marker id="arrowFilled" viewBox="0 0 10 10" refX="0" refY="5" markerWidth="8" markerHeight="8" orient="auto-start-reverse">
      <path d="M0,1.5 L10,5 L0,8.5 L2.5,5 Z" fill="#424242"/>
    </marker>
    <marker id="arrowOpen" viewBox="0 0 10 10" refX="0" refY="5" markerWidth="8" markerHeight="8" orient="auto-start-reverse">
      <path d="M0,1.5 L10,5 L0,8.5" fill="none" stroke="#424242" stroke-width="1.25"/>
    </marker>
    <marker id="arrowHof" viewBox="0 0 10 10" refX="0" refY="5" markerWidth="8" markerHeight="8" orient="auto-start-reverse">
      <path d="M0,1.5 L10,5 L0,8.5 L2.5,5 Z" fill="#00796b"/>
    </marker>
  </defs>
  <rect width="1479" height="365" fill="white"/>
  <text x="739.5" y="18" text-anchor="middle" font-size="14" font-weight="bold" font-family="sans-serif" fill="#222">Prob bind: apply f per outcome, weight by pa, merge</text>
  <text x="739.5" y="35" text-anchor="middle" font-size="11" font-weight="normal" font-family="sans-serif" fill="#555">law of total probability</text>
  <text x="739.5" y="51" text-anchor="middle" font-size="11" font-weight="normal" font-family="sans-serif" fill="#555">also called: flatMap, SelectMany, &gt;&gt;=</text>
  <g transform="translate(0,60)">
    <rect x="0" y="0" width="1479" height="305" fill="#fafafa" stroke="#9e9e9e" stroke-width="1.5"/>
    <g class="diagram-frame-tab tab-activity">
      <path d="M0,0 L109,0 L109,12 L99,22 L0,22 Z" fill="#e0e0e0" stroke="#9e9e9e" stroke-width="1"/>
      <text x="54.5" y="12" text-anchor="middle" font-size="10" font-family="sans-serif" dominant-baseline="middle" fill="#333">«activity» bind</text>
    </g>
    <g class="edge">
      <path d="M164.0,104.0 L169.0,104.0 Q174.0,104.0 174.0,99.0 L174.0,65.0 Q174.0,59.0 180.0,59.0 L266.4,59.0" fill="none" stroke="#424242" stroke-width="1.5" stroke-linejoin="round" stroke-linecap="round" marker-end="url(#arrowFilled)"/>
      <text x="226.2" y="53" text-anchor="middle" dominant-baseline="middle" font-size="9" font-family="sans-serif" fill="#333" stroke="white" stroke-width="3" paint-order="stroke fill">∀ a</text>
    </g>
    <g class="edge">
      <path d="M164.0,111.0 L268.2,111.0" fill="none" stroke="#424242" stroke-width="1.5" stroke-linejoin="round" stroke-linecap="round" marker-end="url(#arrowFilled)"/>
      <text x="222.1" y="105" text-anchor="middle" dominant-baseline="middle" font-size="9" font-family="sans-serif" fill="#333" stroke="white" stroke-width="3" paint-order="stroke fill">∀ a</text>
    </g>
    <g class="edge">
      <path d="M164.0,119.0 L178.0,119.0 Q184.0,119.0 184.0,125.0 L184.0,157.0 Q184.0,163.0 190.0,163.0 L266.4,163.0" fill="none" stroke="#424242" stroke-width="1.5" stroke-linejoin="round" stroke-linecap="round" marker-end="url(#arrowFilled)"/>
      <text x="231.2" y="157" text-anchor="middle" dominant-baseline="middle" font-size="9" font-family="sans-serif" fill="#333" stroke="white" stroke-width="3" paint-order="stroke fill">∀ a</text>
    </g>
    <g class="edge">
      <path d="M164.0,126.0 L169.0,126.0 Q174.0,126.0 174.0,131.0 L174.0,261.0 Q174.0,267.0 180.0,267.0 L268.2,267.0" fill="none" stroke="#424242" stroke-width="1.5" stroke-linejoin="round" stroke-linecap="round" marker-end="url(#arrowFilled)"/>
      <text x="174" y="190.5" text-anchor="middle" dominant-baseline="middle" font-size="9" font-family="sans-serif" fill="#333" stroke="white" stroke-width="3" paint-order="stroke fill">∀ a</text>
    </g>
    <g class="edge">
      <path d="M388.4,59.0 L435.8,59.0" fill="none" stroke="#424242" stroke-width="1.5" stroke-linejoin="round" stroke-linecap="round" marker-end="url(#arrowFilled)"/>
    </g>
    <g class="edge">
      <path d="M390.2,105.0 L397.8,105.0 Q403.8,105.0 403.8,99.0 L403.8,78.0 Q403.8,72.0 409.8,72.0 L435.8,72.0" fill="none" stroke="#424242" stroke-width="1.5" stroke-linejoin="round" stroke-linecap="round" marker-end="url(#arrowFilled)"/>
    </g>
    <g class="edge hof-edge">
      <path d="M393.8,209.0 L407.8,209.0 Q413.8,209.0 413.8,203.0 L413.8,91.0 Q413.8,85.0 419.8,85.0 L435.8,85.0" fill="none" stroke="#00796b" stroke-width="1.5" stroke-linejoin="round" stroke-linecap="round" marker-end="url(#arrowHof)"/>
    </g>
    <g class="edge">
      <path d="M575.8,66.0 L583.8,66.0 Q589.8,66.0 589.8,72.0 L589.8,96.0 Q589.8,102.0 595.8,102.0 L607.8,102.0" fill="none" stroke="#424242" stroke-width="1.5" stroke-linejoin="round" stroke-linecap="round" marker-end="url(#arrowFilled)"/>
    </g>
    <g class="edge">
      <path d="M733.4,102.0 L738.4,102.0 Q743.4,102.0 743.4,107.0 L743.4,116.0 Q743.4,122.0 749.4,122.0 L765.4,122.0" fill="none" stroke="#424242" stroke-width="1.5" stroke-linejoin="round" stroke-linecap="round" marker-end="url(#arrowFilled)"/>
    </g>
    <g class="edge">
      <path d="M390.2,117.0 L417.8,117.0 Q423.8,117.0 423.8,123.0 L423.8,131.0 Q423.8,137.0 429.8,137.0 L765.4,137.0" fill="none" stroke="#424242" stroke-width="1.5" stroke-linejoin="round" stroke-linecap="round" marker-end="url(#arrowFilled)"/>
    </g>
    <g class="edge">
      <path d="M905.4,120.0 L923.4,120.0 Q929.4,120.0 929.4,126.0 L929.4,168.0 Q929.4,172.0 933.4,172.0 L937.4,172.0" fill="none" stroke="#424242" stroke-width="1.5" stroke-linejoin="round" stroke-linecap="round" marker-end="url(#arrowFilled)"/>
    </g>
    <g class="edge">
      <path d="M388.4,163.0 L435.8,163.0" fill="none" stroke="#424242" stroke-width="1.5" stroke-linejoin="round" stroke-linecap="round" marker-end="url(#arrowFilled)"/>
    </g>
    <g class="edge">
      <path d="M390.2,261.0 L417.8,261.0 Q423.8,261.0 423.8,255.0 L423.8,182.0 Q423.8,176.0 429.8,176.0 L435.8,176.0" fill="none" stroke="#424242" stroke-width="1.5" stroke-linejoin="round" stroke-linecap="round" marker-end="url(#arrowFilled)"/>
    </g>
    <g class="edge hof-edge">
      <path d="M393.8,221.0 L427.8,221.0 Q433.8,221.0 433.8,215.0 L433.8,190.0 Q433.8,189.0 434.8,189.0 L435.8,189.0" fill="none" stroke="#00796b" stroke-width="1.5" stroke-linejoin="round" stroke-linecap="round" marker-end="url(#arrowHof)"/>
    </g>
    <g class="edge">
      <path d="M575.8,170.0 L583.8,170.0 Q589.8,170.0 589.8,176.0 L589.8,216.0 Q589.8,222.0 595.8,222.0 L607.8,222.0" fill="none" stroke="#424242" stroke-width="1.5" stroke-linejoin="round" stroke-linecap="round" marker-end="url(#arrowFilled)"/>
    </g>
    <g class="edge">
      <path d="M733.4,222.0 L738.4,222.0 Q743.4,222.0 743.4,217.0 L743.4,203.0 Q743.4,197.0 749.4,197.0 L765.4,197.0" fill="none" stroke="#424242" stroke-width="1.5" stroke-linejoin="round" stroke-linecap="round" marker-end="url(#arrowFilled)"/>
    </g>
    <g class="edge">
      <path d="M390.2,273.0 L427.8,273.0 Q433.8,273.0 433.8,267.0 L433.8,263.0 Q433.8,257.0 439.8,257.0 L747.4,257.0 Q753.4,257.0 753.4,251.0 L753.4,218.0 Q753.4,212.0 759.4,212.0 L765.4,212.0" fill="none" stroke="#424242" stroke-width="1.5" stroke-linejoin="round" stroke-linecap="round" marker-end="url(#arrowFilled)"/>
    </g>
    <g class="edge">
      <path d="M905.4,195.0 L923.4,195.0 Q929.4,195.0 929.4,201.0 L929.4,220.0 Q929.4,224.0 933.4,224.0 L937.4,224.0" fill="none" stroke="#424242" stroke-width="1.5" stroke-linejoin="round" stroke-linecap="round" marker-end="url(#arrowFilled)"/>
    </g>
    <g class="edge">
      <path d="M1099.0,172.0 L1104.0,172.0 Q1109.0,172.0 1109.0,167.0 L1109.0,152.0 Q1109.0,146.0 1115.0,146.0 L1131.0,146.0" fill="none" stroke="#424242" stroke-width="1.5" stroke-linejoin="round" stroke-linecap="round" marker-end="url(#arrowFilled)"/>
    </g>
    <g class="edge">
      <path d="M1099.0,224.0 L1113.0,224.0 Q1119.0,224.0 1119.0,218.0 L1119.0,165.0 Q1119.0,159.0 1125.0,159.0 L1131.0,159.0" fill="none" stroke="#424242" stroke-width="1.5" stroke-linejoin="round" stroke-linecap="round" marker-end="url(#arrowFilled)"/>
    </g>
    <g class="edge">
      <path d="M1271.0,147.0 L1303.0,147.0" fill="none" stroke="#424242" stroke-width="1.5" stroke-linejoin="round" stroke-linecap="round" marker-end="url(#arrowFilled)"/>
    </g>
    <g class="edge">
      <path d="M571.8,82.0 L593.8,82.0 Q599.8,82.0 599.8,76.0 L599.8,72.0 Q599.8,66.0 605.8,66.0 L747.4,66.0 Q753.4,66.0 753.4,72.0 L753.4,105.0 Q753.4,111.0 759.4,111.0 L769.4,111.0" fill="none" stroke="#424242" stroke-width="1.5" stroke-linejoin="round" stroke-linecap="round" marker-end="url(#arrowOpen)" stroke-dasharray="6,4"/>
    </g>
    <g class="edge">
      <path d="M571.8,186.0 L769.4,186.0" fill="none" stroke="#424242" stroke-width="1.5" stroke-linejoin="round" stroke-linecap="round" marker-end="url(#arrowOpen)" stroke-dasharray="6,4"/>
    </g>
    <g class="edge">
      <path d="M901.4,136.0 L1135.0,136.0" fill="none" stroke="#424242" stroke-width="1.5" stroke-linejoin="round" stroke-linecap="round" marker-end="url(#arrowOpen)" stroke-dasharray="6,4"/>
    </g>
    <g class="edge">
      <path d="M901.4,211.0 L913.4,211.0 Q919.4,211.0 919.4,205.0 L919.4,131.0 Q919.4,125.0 925.4,125.0 L1106.0,125.0 Q1109.0,125.0 1109.0,128.0 L1109.0,128.0 Q1109.0,131.0 1112.0,131.0 L1135.0,131.0" fill="none" stroke="#424242" stroke-width="1.5" stroke-linejoin="round" stroke-linecap="round" marker-end="url(#arrowOpen)" stroke-dasharray="6,4"/>
    </g>
    <g class="action-node">
      <title>Apply f(a1): get the conditional distribution Prob b given A = a1</title>
      <rect x="451.8" y="50" width="120" height="44" rx="12" fill="#e8f5e9" stroke="#388e3c" stroke-width="1.5"/>
      <text class="action-label" x="511.8" y="72" text-anchor="middle" font-size="11" font-family="sans-serif" dominant-baseline="middle" fill="#333">branch1</text>
      <g class="pin pin-in">
        <rect x="447.8" y="57" width="8" height="8" fill="#e0e0e0" stroke="#424242" stroke-width="1"/>
        <text x="457.8" y="61" text-anchor="start" font-size="8" font-family="sans-serif" dominant-baseline="middle" fill="#555" stroke="white" stroke-width="2" paint-order="stroke fill">a_val</text>
      </g>
      <g class="pin pin-in">
        <rect x="447.8" y="68" width="8" height="8" fill="#e0e0e0" stroke="#424242" stroke-width="1"/>
        <text x="457.8" y="72" text-anchor="start" font-size="8" font-family="sans-serif" dominant-baseline="middle" fill="#555" stroke="white" stroke-width="2" paint-order="stroke fill">pa</text>
      </g>
      <g class="pin pin-in">
        <rect x="447.8" y="79" width="8" height="8" fill="#e0e0e0" stroke="#424242" stroke-width="1"/>
        <text x="457.8" y="83" text-anchor="start" font-size="8" font-family="sans-serif" dominant-baseline="middle" fill="#555" stroke="white" stroke-width="2" paint-order="stroke fill">f</text>
      </g>
      <g class="pin pin-out">
        <rect x="567.8" y="68" width="8" height="8" fill="#e0e0e0" stroke="#424242" stroke-width="1"/>
        <text x="565.8" y="72" text-anchor="end" font-size="8" font-family="sans-serif" dominant-baseline="middle" fill="#555" stroke="white" stroke-width="2" paint-order="stroke fill">sub_b</text>
      </g>
    </g>
    <g class="action-node">
      <title>Apply f(a2): get the conditional distribution Prob b given A = a2</title>
      <rect x="451.8" y="154" width="120" height="44" rx="12" fill="#e8f5e9" stroke="#388e3c" stroke-width="1.5"/>
      <text class="action-label" x="511.8" y="176" text-anchor="middle" font-size="11" font-family="sans-serif" dominant-baseline="middle" fill="#333">branch2</text>
      <g class="pin pin-in">
        <rect x="447.8" y="161" width="8" height="8" fill="#e0e0e0" stroke="#424242" stroke-width="1"/>
        <text x="457.8" y="165" text-anchor="start" font-size="8" font-family="sans-serif" dominant-baseline="middle" fill="#555" stroke="white" stroke-width="2" paint-order="stroke fill">a_val</text>
      </g>
      <g class="pin pin-in">
        <rect x="447.8" y="172" width="8" height="8" fill="#e0e0e0" stroke="#424242" stroke-width="1"/>
        <text x="457.8" y="176" text-anchor="start" font-size="8" font-family="sans-serif" dominant-baseline="middle" fill="#555" stroke="white" stroke-width="2" paint-order="stroke fill">pa</text>
      </g>
      <g class="pin pin-in">
        <rect x="447.8" y="183" width="8" height="8" fill="#e0e0e0" stroke="#424242" stroke-width="1"/>
        <text x="457.8" y="187" text-anchor="start" font-size="8" font-family="sans-serif" dominant-baseline="middle" fill="#555" stroke="white" stroke-width="2" paint-order="stroke fill">f</text>
      </g>
      <g class="pin pin-out">
        <rect x="567.8" y="172" width="8" height="8" fill="#e0e0e0" stroke="#424242" stroke-width="1"/>
        <text x="565.8" y="176" text-anchor="end" font-size="8" font-family="sans-serif" dominant-baseline="middle" fill="#555" stroke="white" stroke-width="2" paint-order="stroke fill">sub_b</text>
      </g>
    </g>
    <g class="action-node">
      <title>Scale: each (b, pb) in sub1 gets weight pa1 * pb — P(B=b | A=a1) * P(A=a1)</title>
      <rect x="781.4" y="104" width="120" height="44" rx="12" fill="#e8f5e9" stroke="#388e3c" stroke-width="1.5"/>
      <text class="action-label" x="841.4" y="126" text-anchor="middle" font-size="11" font-family="sans-serif" dominant-baseline="middle" fill="#333">weight1</text>
      <g class="pin pin-in">
        <rect x="777.4" y="114.66666666666667" width="8" height="8" fill="#e0e0e0" stroke="#424242" stroke-width="1"/>
        <text x="787.4" y="118.66666666666667" text-anchor="start" font-size="8" font-family="sans-serif" dominant-baseline="middle" fill="#555" stroke="white" stroke-width="2" paint-order="stroke fill">sub_b</text>
      </g>
      <g class="pin pin-in">
        <rect x="777.4" y="129.33333333333334" width="8" height="8" fill="#e0e0e0" stroke="#424242" stroke-width="1"/>
        <text x="787.4" y="133.33333333333334" text-anchor="start" font-size="8" font-family="sans-serif" dominant-baseline="middle" fill="#555" stroke="white" stroke-width="2" paint-order="stroke fill">pa</text>
      </g>
      <g class="pin pin-out">
        <rect x="897.4" y="122" width="8" height="8" fill="#e0e0e0" stroke="#424242" stroke-width="1"/>
        <text x="895.4" y="126" text-anchor="end" font-size="8" font-family="sans-serif" dominant-baseline="middle" fill="#555" stroke="white" stroke-width="2" paint-order="stroke fill">weighted</text>
      </g>
    </g>
    <g class="action-node">
      <title>Scale: each (b, pb) in sub2 gets weight pa2 * pb — P(B=b | A=a2) * P(A=a2)</title>
      <rect x="781.4" y="179" width="120" height="44" rx="12" fill="#e8f5e9" stroke="#388e3c" stroke-width="1.5"/>
      <text class="action-label" x="841.4" y="201" text-anchor="middle" font-size="11" font-family="sans-serif" dominant-baseline="middle" fill="#333">weight2</text>
      <g class="pin pin-in">
        <rect x="777.4" y="189.66666666666666" width="8" height="8" fill="#e0e0e0" stroke="#424242" stroke-width="1"/>
        <text x="787.4" y="193.66666666666666" text-anchor="start" font-size="8" font-family="sans-serif" dominant-baseline="middle" fill="#555" stroke="white" stroke-width="2" paint-order="stroke fill">sub_b</text>
      </g>
      <g class="pin pin-in">
        <rect x="777.4" y="204.33333333333334" width="8" height="8" fill="#e0e0e0" stroke="#424242" stroke-width="1"/>
        <text x="787.4" y="208.33333333333334" text-anchor="start" font-size="8" font-family="sans-serif" dominant-baseline="middle" fill="#555" stroke="white" stroke-width="2" paint-order="stroke fill">pa</text>
      </g>
      <g class="pin pin-out">
        <rect x="897.4" y="197" width="8" height="8" fill="#e0e0e0" stroke="#424242" stroke-width="1"/>
        <text x="895.4" y="201" text-anchor="end" font-size="8" font-family="sans-serif" dominant-baseline="middle" fill="#555" stroke="white" stroke-width="2" paint-order="stroke fill">weighted</text>
      </g>
    </g>
    <g class="action-node">
      <title>Concatenate: w1 ++ w2 (and repeat for all other branches). Result is the marginal distribution P(B).</title>
      <rect x="1147" y="125" width="120" height="44" rx="12" fill="#e8f5e9" stroke="#388e3c" stroke-width="1.5"/>
      <text class="action-label" x="1207" y="147" text-anchor="middle" font-size="11" font-family="sans-serif" dominant-baseline="middle" fill="#333">merge</text>
      <g class="pin pin-in">
        <rect x="1143" y="135.66666666666666" width="8" height="8" fill="#e0e0e0" stroke="#424242" stroke-width="1"/>
        <text x="1153" y="139.66666666666666" text-anchor="start" font-size="8" font-family="sans-serif" dominant-baseline="middle" fill="#555" stroke="white" stroke-width="2" paint-order="stroke fill">w1</text>
      </g>
      <g class="pin pin-in">
        <rect x="1143" y="150.33333333333334" width="8" height="8" fill="#e0e0e0" stroke="#424242" stroke-width="1"/>
        <text x="1153" y="154.33333333333334" text-anchor="start" font-size="8" font-family="sans-serif" dominant-baseline="middle" fill="#555" stroke="white" stroke-width="2" paint-order="stroke fill">w2</text>
      </g>
      <g class="pin pin-out">
        <rect x="1263" y="143" width="8" height="8" fill="#e0e0e0" stroke="#424242" stroke-width="1"/>
        <text x="1261" y="147" text-anchor="end" font-size="8" font-family="sans-serif" dominant-baseline="middle" fill="#555" stroke="white" stroke-width="2" paint-order="stroke fill">dist_b</text>
      </g>
    </g>
    <g class="object-node">
      <title>Prob a = [(a, p)] — each (a, pa) is an outcome with probability pa. Repeats for every element (∀ a).</title>
      <rect x="36" y="96" width="128" height="38" fill="#f5f5f5" stroke="#616161" stroke-width="1.5"/>
      <text x="100" y="115" text-anchor="middle" font-size="11" font-family="sans-serif" dominant-baseline="middle" fill="#333">dist_a : Prob a</text>
    </g>
    <g class="object-node hof">
      <title>(a ⟶ Prob b) — conditional distribution: given each outcome a, returns a distribution over b</title>
      <rect x="273" y="196" width="120.8" height="38" fill="#e0f2f1" stroke="#00796b" stroke-width="1.5"/>
      <text x="333.4" y="208" text-anchor="middle" font-size="9" font-style="italic" font-family="sans-serif" dominant-baseline="middle" fill="#00796b">«function»</text>
      <text x="333.4" y="222" text-anchor="middle" font-size="11" font-family="sans-serif" dominant-baseline="middle" fill="#333">f : a ⟶ Prob b</text>
    </g>
    <g class="object-node">
      <title>Outcome a1 from Prob a</title>
      <rect x="278.4" y="40" width="110" height="38" fill="#f5f5f5" stroke="#616161" stroke-width="1.5"/>
      <text x="333.4" y="59" text-anchor="middle" font-size="11" font-family="sans-serif" dominant-baseline="middle" fill="#333">a1 : a</text>
    </g>
    <g class="object-node">
      <title>P(A = a1) — probability of outcome a1</title>
      <rect x="280.2" y="92" width="110" height="38" fill="#f5f5f5" stroke="#616161" stroke-width="1.5"/>
      <text x="335.2" y="111" text-anchor="middle" font-size="11" font-family="sans-serif" dominant-baseline="middle" fill="#333">pa1 : Double</text>
    </g>
    <g class="object-node">
      <title>Outcome a2 from Prob a</title>
      <rect x="278.4" y="144" width="110" height="38" fill="#f5f5f5" stroke="#616161" stroke-width="1.5"/>
      <text x="333.4" y="163" text-anchor="middle" font-size="11" font-family="sans-serif" dominant-baseline="middle" fill="#333">a2 : a</text>
    </g>
    <g class="object-node">
      <title>P(A = a2) — probability of outcome a2</title>
      <rect x="280.2" y="248" width="110" height="38" fill="#f5f5f5" stroke="#616161" stroke-width="1.5"/>
      <text x="335.2" y="267" text-anchor="middle" font-size="11" font-family="sans-serif" dominant-baseline="middle" fill="#333">pa2 : Double</text>
    </g>
    <g class="object-node">
      <title>Prob b — conditional distribution for branch a1</title>
      <rect x="619.8" y="83" width="113.60000000000001" height="38" fill="#f5f5f5" stroke="#616161" stroke-width="1.5"/>
      <text x="676.5999999999999" y="102" text-anchor="middle" font-size="11" font-family="sans-serif" dominant-baseline="middle" fill="#333">sub1 : Prob b</text>
    </g>
    <g class="object-node">
      <title>Prob b — conditional distribution for branch a2</title>
      <rect x="619.8" y="203" width="113.60000000000001" height="38" fill="#f5f5f5" stroke="#616161" stroke-width="1.5"/>
      <text x="676.5999999999999" y="222" text-anchor="middle" font-size="11" font-family="sans-serif" dominant-baseline="middle" fill="#333">sub2 : Prob b</text>
    </g>
    <g class="object-node">
      <title>[(b, pa1·pb)] — weighted outcomes for branch a1</title>
      <rect x="949.3999999999999" y="153" width="149.6" height="38" fill="#f5f5f5" stroke="#616161" stroke-width="1.5"/>
      <text x="1024.1999999999998" y="172" text-anchor="middle" font-size="11" font-family="sans-serif" dominant-baseline="middle" fill="#333">w1 : [(b, pa1·pb)]</text>
    </g>
    <g class="object-node">
      <title>[(b, pa2·pb)] — weighted outcomes for branch a2</title>
      <rect x="949.3999999999999" y="205" width="149.6" height="38" fill="#f5f5f5" stroke="#616161" stroke-width="1.5"/>
      <text x="1024.1999999999998" y="224" text-anchor="middle" font-size="11" font-family="sans-serif" dominant-baseline="middle" fill="#333">w2 : [(b, pa2·pb)]</text>
    </g>
    <g class="object-node">
      <title>Prob b — the marginal distribution: P(B=b) = Σ_a P(B=b|A=a)·P(A=a)</title>
      <rect x="1315" y="128" width="128" height="38" fill="#f5f5f5" stroke="#616161" stroke-width="1.5"/>
      <text x="1379" y="147" text-anchor="middle" font-size="11" font-family="sans-serif" dominant-baseline="middle" fill="#333">dist_b : Prob b</text>
    </g>
  </g>
</svg>
