<?xml version="1.0" encoding="UTF-8"?>
<svg xmlns="http://www.w3.org/2000/svg" viewBox="0 0 570.8 178" width="570.8" height="178">
  <defs>
    <marker id="arrowFilled" viewBox="0 0 10 10" refX="0" refY="5" markerWidth="8" markerHeight="8" orient="auto-start-reverse">
      <path d="M0,1.5 L10,5 L0,8.5 L2.5,5 Z" fill="#424242"/>
    </marker>
    <marker id="arrowOpen" viewBox="0 0 10 10" refX="0" refY="5" markerWidth="8" markerHeight="8" orient="auto-start-reverse">
      <path d="M0,1.5 L10,5 L0,8.5" fill="none" stroke="#424242" stroke-width="1.25"/>
    </marker>
    <marker id="arrowHof" viewBox="0 0 10 10" refX="0" refY="5" markerWidth="8" markerHeight="8" orient="auto-start-reverse">
      <path d="M0,1.5 L10,5 L0,8.5 L2.5,5 Z" fill="#00796b"/>
    </marker>
  </defs>
  <rect width="570.8" height="178" fill="white"/>
  <text x="285.4" y="20" text-anchor="middle" font-size="14" font-weight="bold" font-family="sans-serif" fill="#222">(&gt;&gt;=) :: Ma ⟶ (a ⟶ Mb) ⟶ Mb</text>
  <g transform="translate(0,28)">
    <rect x="0" y="0" width="570.8" height="150" rx="8" fill="#fafafa" stroke="#9e9e9e" stroke-width="1.5"/>
    <g class="diagram-frame-tab tab-block">
      <path d="M0,0 L133.8,0 L133.8,12 L123.80000000000001,22 L0,22 Z" fill="#e0e0e0" stroke="#9e9e9e" stroke-width="1"/>
      <text x="66.9" y="12" text-anchor="middle" font-size="10" font-family="sans-serif" dominant-baseline="middle" fill="#333">«block» BindContext</text>
    </g>
    <g class="edge">
      <path d="M190.8,101.0 L195.8,101.0 Q200.8,101.0 200.8,96.0 L200.8,69.0 Q200.8,63.0 206.8,63.0 L218.8,63.0" fill="none" stroke="#424242" stroke-width="1.5" stroke-linejoin="round" stroke-linecap="round" marker-end="url(#arrowFilled)"/>
    </g>
    <g class="edge hof-edge">
      <path d="M190.8,49.0 L218.8,49.0" fill="none" stroke="#00796b" stroke-width="1.5" stroke-linejoin="round" stroke-linecap="round" marker-end="url(#arrowHof)"/>
    </g>
    <g class="edge">
      <path d="M350.8,56.0 L378.8,56.0" fill="none" stroke="#424242" stroke-width="1.5" stroke-linejoin="round" stroke-linecap="round" marker-end="url(#arrowFilled)"/>
    </g>
    <g class="object-node">
      <title>Ma — monadic value, provides unwrapped a to the continuation</title>
      <rect x="80.80000000000001" y="82" width="110" height="38" fill="#f5f5f5" stroke="#616161" stroke-width="1.5"/>
      <text x="135.8" y="101" text-anchor="middle" font-size="11" font-family="sans-serif" dominant-baseline="middle" fill="#333">ma_val : Ma</text>
    </g>
    <g class="object-node hof">
      <title>(a ⟶ Mb) — the continuation: maps each a to a new monadic Mb</title>
      <rect x="70" y="30" width="120.8" height="38" fill="#e0f2f1" stroke="#00796b" stroke-width="1.5"/>
      <text x="130.4" y="42" text-anchor="middle" font-size="9" font-style="italic" font-family="sans-serif" dominant-baseline="middle" fill="#00796b">«function»</text>
      <text x="130.4" y="56" text-anchor="middle" font-size="11" font-family="sans-serif" dominant-baseline="middle" fill="#333">f_val : a ⟶ Mb</text>
    </g>
    <g class="action-node">
      <title>&gt;&gt;= (bind): sequences two monadic actions, threading the value</title>
      <rect x="230.8" y="34" width="120" height="44" rx="12" fill="#e8f5e9" stroke="#388e3c" stroke-width="1.5"/>
      <text class="action-label" x="290.8" y="56" text-anchor="middle" font-size="11" font-family="sans-serif" dominant-baseline="middle" fill="#333">bind : BindOp</text>
    </g>
    <g class="object-node">
      <title>Mb — final monadic result</title>
      <rect x="390.8" y="37" width="110" height="38" fill="#f5f5f5" stroke="#616161" stroke-width="1.5"/>
      <text x="445.8" y="56" text-anchor="middle" font-size="11" font-family="sans-serif" dominant-baseline="middle" fill="#333">mb_val : Mb</text>
    </g>
  </g>
</svg>
