<?xml version="1.0" encoding="UTF-8"?>
<svg xmlns="http://www.w3.org/2000/svg" viewBox="0 0 822 260" width="822" height="260">
<defs>
  <marker id="arrowFilled" viewBox="0 0 10 10" refX="9" refY="5" markerWidth="7" markerHeight="7" orient="auto-start-reverse">
    <path d="M0,0 L10,5 L0,10 z" fill="#424242"/>
  </marker>
  <marker id="arrowOpen" viewBox="0 0 10 10" refX="9" refY="5" markerWidth="7" markerHeight="7" orient="auto-start-reverse">
    <path d="M0,0 L10,5 L0,10" fill="none" stroke="#424242" stroke-width="1.5"/>
  </marker>
  <marker id="arrowHof" viewBox="0 0 10 10" refX="9" refY="5" markerWidth="7" markerHeight="7" orient="auto-start-reverse">
    <path d="M0,0 L10,5 L0,10 z" fill="#00796b"/>
  </marker>
</defs>
<rect width="822" height="260" fill="white"/>
<text x="411.0" y="20" text-anchor="middle" font-size="14" font-weight="bold" font-family="sans-serif" fill="#222">Monad: Ma &gt;&gt;= (a ⟶ Mb) &gt;&gt;= (b ⟶ Mc)</text>
<g transform="translate(0,28)">
  <rect x="0" y="0" width="822" height="232" rx="8" fill="#fafafa" stroke="#9e9e9e" stroke-width="1.5"/>
  <g class="activity-frame-tab">
    <path d="M0,0 L92.8,0 L102.8,22 L0,22 Z" fill="#e0e0e0" stroke="#9e9e9e" stroke-width="1"/>
    <text x="51.4" y="12.0" text-anchor="middle" font-size="10" font-family="sans-serif" dominant-baseline="middle" fill="#333">«activity» &gt;&gt;=</text>
  </g>
  <g class="edge">
    <path d="M156.0,157.8 C156.0,157.8 196.0,148.3 196.0,148.3" fill="none" stroke="#424242" stroke-width="1.5" marker-end="url(#arrowFilled)"/>
    
  </g>
  <g class="edge hof-edge">
    <path d="M156.0,124.2 C156.0,124.2 196.0,133.7 196.0,133.7" fill="none" stroke="#00796b" stroke-width="1.5" marker-end="url(#arrowHof)"/>
    
  </g>
  <g class="edge">
    <path d="M316.0,141.0 C316.0,141.0 356.0,152.6 356.0,152.6" fill="none" stroke="#424242" stroke-width="1.5" marker-end="url(#arrowFilled)"/>
    
  </g>
  <g class="edge">
    <path d="M466.0,146.2 C480.0,146.2 492.0,130.3 506.0,130.3" fill="none" stroke="#424242" stroke-width="1.5" marker-end="url(#arrowFilled)"/>
    
  </g>
  <g class="edge hof-edge">
    <path d="M466.0,99.8 C480.0,99.8 492.0,115.7 506.0,115.7" fill="none" stroke="#00796b" stroke-width="1.5" marker-end="url(#arrowHof)"/>
    
  </g>
  <g class="edge">
    <path d="M626.0,123.0 C626.0,123.0 666.0,123.0 666.0,123.0" fill="none" stroke="#424242" stroke-width="1.5" marker-end="url(#arrowFilled)"/>
    
  </g>
  <g class="edge">
    <path d="M316.0,141.0 C382.5,141.0 439.5,123.0 506.0,123.0" fill="none" stroke="#424242" stroke-width="1.5" stroke-dasharray="6,4" marker-end="url(#arrowOpen)"/>
    
  </g>
  <g class="action-node"><title>&gt;&gt;= : unwraps Ma, applies f, produces Mb</title>
    <rect x="196.0" y="119.0" width="120" height="44" rx="12" fill="#e8f5e9" stroke="#388e3c" stroke-width="1.5"/>
    <text x="256.0" y="141.0" text-anchor="middle" font-size="11" font-family="sans-serif" dominant-baseline="middle" fill="#333">bind1</text>
    <rect x="192.0" y="129.7" width="8" height="8" fill="#e0e0e0" stroke="#424242" stroke-width="1"/>
    <text x="202.0" y="133.7" text-anchor="start" font-size="8" font-family="sans-serif" dominant-baseline="middle" fill="#555" stroke="white" stroke-width="2" paint-order="stroke fill">ma</text>
    <rect x="192.0" y="144.3" width="8" height="8" fill="#e0e0e0" stroke="#424242" stroke-width="1"/>
    <text x="202.0" y="148.3" text-anchor="start" font-size="8" font-family="sans-serif" dominant-baseline="middle" fill="#555" stroke="white" stroke-width="2" paint-order="stroke fill">f</text>
    <rect x="312.0" y="137.0" width="8" height="8" fill="#e0e0e0" stroke="#424242" stroke-width="1"/>
    <text x="310.0" y="141.0" text-anchor="end" font-size="8" font-family="sans-serif" dominant-baseline="middle" fill="#555" stroke="white" stroke-width="2" paint-order="stroke fill">mb</text>
  </g>
  <g class="action-node"><title>&gt;&gt;= : unwraps Mb, applies g, produces Mc</title>
    <rect x="506.0" y="101.0" width="120" height="44" rx="12" fill="#e8f5e9" stroke="#388e3c" stroke-width="1.5"/>
    <text x="566.0" y="123.0" text-anchor="middle" font-size="11" font-family="sans-serif" dominant-baseline="middle" fill="#333">bind2</text>
    <rect x="502.0" y="111.7" width="8" height="8" fill="#e0e0e0" stroke="#424242" stroke-width="1"/>
    <text x="512.0" y="115.7" text-anchor="start" font-size="8" font-family="sans-serif" dominant-baseline="middle" fill="#555" stroke="white" stroke-width="2" paint-order="stroke fill">ma</text>
    <rect x="502.0" y="126.3" width="8" height="8" fill="#e0e0e0" stroke="#424242" stroke-width="1"/>
    <text x="512.0" y="130.3" text-anchor="start" font-size="8" font-family="sans-serif" dominant-baseline="middle" fill="#555" stroke="white" stroke-width="2" paint-order="stroke fill">f</text>
    <rect x="622.0" y="119.0" width="8" height="8" fill="#e0e0e0" stroke="#424242" stroke-width="1"/>
    <text x="620.0" y="123.0" text-anchor="end" font-size="8" font-family="sans-serif" dominant-baseline="middle" fill="#555" stroke="white" stroke-width="2" paint-order="stroke fill">mb</text>
  </g>
  <g class="object-node"><title>Ma — the initial wrapped value</title>
    <rect x="46.0" y="148.0" width="110" height="38" fill="#f5f5f5" stroke="#616161" stroke-width="1.5"/>
    <text x="101.0" y="167.0" text-anchor="middle" font-size="11" font-family="sans-serif" dominant-baseline="middle" fill="#333">Ma : Ma</text>
  </g>
  <g class="object-node hof"><title>(a ⟶ Mb) — effectful function, received as a data token (HOF)</title>
    <rect x="46.0" y="96.0" width="110" height="38" fill="#e0f2f1" stroke="#00796b" stroke-width="1.5"/>
    <text x="101.0" y="108.0" text-anchor="middle" font-size="9" font-style="italic" font-family="sans-serif" dominant-baseline="middle" fill="#00796b">«function»</text>
    <text x="101.0" y="122.0" text-anchor="middle" font-size="11" font-family="sans-serif" dominant-baseline="middle" fill="#333">f : a ⟶ Mb</text>
  </g>
  <g class="object-node hof"><title>(b ⟶ Mc) — second step function, also a HOF input</title>
    <rect x="356.0" y="68.0" width="110" height="38" fill="#e0f2f1" stroke="#00796b" stroke-width="1.5"/>
    <text x="411.0" y="80.0" text-anchor="middle" font-size="9" font-style="italic" font-family="sans-serif" dominant-baseline="middle" fill="#00796b">«function»</text>
    <text x="411.0" y="94.0" text-anchor="middle" font-size="11" font-family="sans-serif" dominant-baseline="middle" fill="#333">g : b ⟶ Mc</text>
  </g>
  <g class="object-node">
    <rect x="356.0" y="140.0" width="110" height="38" fill="#f5f5f5" stroke="#616161" stroke-width="1.5"/>
    <text x="411.0" y="159.0" text-anchor="middle" font-size="11" font-family="sans-serif" dominant-baseline="middle" fill="#333">Mb : Mb</text>
  </g>
  <g class="object-node"><title>Mc — final result, effects from all steps collected</title>
    <rect x="666.0" y="104.0" width="110" height="38" fill="#f5f5f5" stroke="#616161" stroke-width="1.5"/>
    <text x="721.0" y="123.0" text-anchor="middle" font-size="11" font-family="sans-serif" dominant-baseline="middle" fill="#333">Mc : Mc</text>
  </g>
</g>
</svg>