<?xml version="1.0" encoding="UTF-8"?>
<svg xmlns="http://www.w3.org/2000/svg" viewBox="0 0 512 232" width="512" height="232">
<defs>
  <marker id="arrowFilled" viewBox="0 0 10 10" refX="9" refY="5" markerWidth="7" markerHeight="7" orient="auto-start-reverse">
    <path d="M0,0 L10,5 L0,10 z" fill="#424242"/>
  </marker>
  <marker id="arrowOpen" viewBox="0 0 10 10" refX="9" refY="5" markerWidth="7" markerHeight="7" orient="auto-start-reverse">
    <path d="M0,0 L10,5 L0,10" fill="none" stroke="#424242" stroke-width="1.5"/>
  </marker>
  <marker id="arrowHof" viewBox="0 0 10 10" refX="9" refY="5" markerWidth="7" markerHeight="7" orient="auto-start-reverse">
    <path d="M0,0 L10,5 L0,10 z" fill="#00796b"/>
  </marker>
</defs>
<rect width="512" height="232" fill="white"/>
<text x="256.0" y="20" text-anchor="middle" font-size="14" font-weight="bold" font-family="sans-serif" fill="#222">pure :: a ⟶ Ma  |  bind :: Ma ⟶ (a ⟶ Mb) ⟶ Mb</text>
<g transform="translate(0,28)">
  <rect x="0" y="0" width="512" height="204" rx="8" fill="#fafafa" stroke="#9e9e9e" stroke-width="1.5"/>
  <g class="activity-frame-tab">
    <path d="M0,0 L99,0 L109,22 L0,22 Z" fill="#e0e0e0" stroke="#9e9e9e" stroke-width="1"/>
    <text x="54.5" y="12.0" text-anchor="middle" font-size="10" font-family="sans-serif" dominant-baseline="middle" fill="#333">«activity» bind</text>
  </g>
  <g class="edge">
    <path d="M156.0,129.8 C156.0,129.8 196.0,120.3 196.0,120.3" fill="none" stroke="#424242" stroke-width="1.5" marker-end="url(#arrowFilled)"/>
    
  </g>
  <g class="edge hof-edge">
    <path d="M156.0,96.2 C156.0,96.2 196.0,105.7 196.0,105.7" fill="none" stroke="#00796b" stroke-width="1.5" marker-end="url(#arrowHof)"/>
    
  </g>
  <g class="edge">
    <path d="M316.0,113.0 C316.0,113.0 356.0,113.0 356.0,113.0" fill="none" stroke="#424242" stroke-width="1.5" marker-end="url(#arrowFilled)"/>
    
  </g>
  <g class="action-node"><title>&gt;&gt;= (bind): unwraps a from Ma, applies f, returns Mb</title>
    <rect x="196.0" y="91.0" width="120" height="44" rx="12" fill="#e8f5e9" stroke="#388e3c" stroke-width="1.5"/>
    <text x="256.0" y="113.0" text-anchor="middle" font-size="11" font-family="sans-serif" dominant-baseline="middle" fill="#333">bind</text>
    <rect x="192.0" y="101.7" width="8" height="8" fill="#e0e0e0" stroke="#424242" stroke-width="1"/>
    <text x="202.0" y="105.7" text-anchor="start" font-size="8" font-family="sans-serif" dominant-baseline="middle" fill="#555" stroke="white" stroke-width="2" paint-order="stroke fill">f</text>
    <rect x="192.0" y="116.3" width="8" height="8" fill="#e0e0e0" stroke="#424242" stroke-width="1"/>
    <text x="202.0" y="120.3" text-anchor="start" font-size="8" font-family="sans-serif" dominant-baseline="middle" fill="#555" stroke="white" stroke-width="2" paint-order="stroke fill">Ma</text>
    <rect x="312.0" y="109.0" width="8" height="8" fill="#e0e0e0" stroke="#424242" stroke-width="1"/>
    <text x="310.0" y="113.0" text-anchor="end" font-size="8" font-family="sans-serif" dominant-baseline="middle" fill="#555" stroke="white" stroke-width="2" paint-order="stroke fill">Mb</text>
  </g>
  <g class="object-node"><title>Ma — the monadic value to unwrap</title>
    <rect x="46.0" y="120.0" width="110" height="38" fill="#f5f5f5" stroke="#616161" stroke-width="1.5"/>
    <text x="101.0" y="139.0" text-anchor="middle" font-size="11" font-family="sans-serif" dominant-baseline="middle" fill="#333">Ma : Ma</text>
  </g>
  <g class="object-node hof"><title>(a ⟶ Mb) — effectful function, passed as a data token (HOF)</title>
    <rect x="46.0" y="68.0" width="110" height="38" fill="#e0f2f1" stroke="#00796b" stroke-width="1.5"/>
    <text x="101.0" y="80.0" text-anchor="middle" font-size="9" font-style="italic" font-family="sans-serif" dominant-baseline="middle" fill="#00796b">«function»</text>
    <text x="101.0" y="94.0" text-anchor="middle" font-size="11" font-family="sans-serif" dominant-baseline="middle" fill="#333">f : a ⟶ Mb</text>
  </g>
  <g class="object-node"><title>Mb — the result of applying the effectful function</title>
    <rect x="356.0" y="94.0" width="110" height="38" fill="#f5f5f5" stroke="#616161" stroke-width="1.5"/>
    <text x="411.0" y="113.0" text-anchor="middle" font-size="11" font-family="sans-serif" dominant-baseline="middle" fill="#333">Mb : Mb</text>
  </g>
</g>
</svg>