<?xml version="1.0" encoding="UTF-8"?>
<svg xmlns="http://www.w3.org/2000/svg" viewBox="0 0 211 132" width="211" height="132">
  <defs>
    <marker id="arrowFilled" viewBox="0 0 10 10" refX="0" refY="5" markerWidth="8" markerHeight="8" orient="auto-start-reverse">
      <path d="M0,1.5 L10,5 L0,8.5 L2.5,5 Z" fill="#424242"/>
    </marker>
    <marker id="arrowOpen" viewBox="0 0 10 10" refX="0" refY="5" markerWidth="8" markerHeight="8" orient="auto-start-reverse">
      <path d="M0,1.5 L10,5 L0,8.5" fill="none" stroke="#424242" stroke-width="1.25"/>
    </marker>
    <marker id="arrowHof" viewBox="0 0 10 10" refX="0" refY="5" markerWidth="8" markerHeight="8" orient="auto-start-reverse">
      <path d="M0,1.5 L10,5 L0,8.5 L2.5,5 Z" fill="#00796b"/>
    </marker>
  </defs>
  <rect width="211" height="132" fill="white"/>
  <text x="105.5" y="18" text-anchor="middle" font-size="14" font-weight="bold" font-family="sans-serif" fill="#222">Declaration f :: a ⟶ b</text>
  <g transform="translate(0,28) scale(1.0144230769230769)">
    <rect x="0" y="0" width="208" height="102" fill="#fafafa" stroke="#9e9e9e" stroke-width="1.5"/>
    <g class="diagram-frame-tab tab-activity">
      <path d="M0,0 L152.4,0 L152.4,12 L142.4,22 L0,22 Z" fill="#e0e0e0" stroke="#9e9e9e" stroke-width="1"/>
      <text x="76.2" y="12" text-anchor="middle" font-size="10" font-family="sans-serif" dominant-baseline="middle" fill="#333">«activity» declaration</text>
    </g>
    <g class="action-node">
      <title>The function identified by the declaration f :: a ⟶ b.</title>
      <rect x="44" y="40" width="120" height="44" rx="12" fill="#e8f5e9" stroke="#388e3c" stroke-width="1.5"/>
      <text class="action-label" x="104" y="62" text-anchor="middle" font-size="11" font-family="sans-serif" dominant-baseline="middle" fill="#333">f</text>
      <g class="pin pin-in">
        <rect x="40" y="58" width="8" height="8" fill="#e0e0e0" stroke="#424242" stroke-width="1"/>
        <text x="50" y="62" text-anchor="start" dominant-baseline="middle" font-size="8" font-family="sans-serif" fill="#555">a</text>
      </g>
      <g class="pin pin-out">
        <rect x="160" y="58" width="8" height="8" fill="#e0e0e0" stroke="#424242" stroke-width="1"/>
        <text x="158" y="62" text-anchor="end" dominant-baseline="middle" font-size="8" font-family="sans-serif" fill="#555">b</text>
      </g>
    </g>
  </g>
</svg>
