<?xml version="1.0" encoding="UTF-8"?>
<svg xmlns="http://www.w3.org/2000/svg" viewBox="0 0 368 125" width="368" height="125">
  <defs>
    <marker id="arrowFilled" viewBox="0 0 10 10" refX="0" refY="5" markerWidth="8" markerHeight="8" orient="auto-start-reverse">
      <path d="M0,1.5 L10,5 L0,8.5 L2.5,5 Z" fill="#424242"/>
    </marker>
    <marker id="arrowOpen" viewBox="0 0 10 10" refX="0" refY="5" markerWidth="8" markerHeight="8" orient="auto-start-reverse">
      <path d="M0,1.5 L10,5 L0,8.5" fill="none" stroke="#424242" stroke-width="1.25"/>
    </marker>
    <marker id="arrowHof" viewBox="0 0 10 10" refX="0" refY="5" markerWidth="8" markerHeight="8" orient="auto-start-reverse">
      <path d="M0,1.5 L10,5 L0,8.5 L2.5,5 Z" fill="#00796b"/>
    </marker>
  </defs>
  <rect width="368" height="125" fill="white"/>
  <text x="184" y="18" text-anchor="middle" font-size="14" font-weight="bold" font-family="sans-serif" fill="#222">Value a0 of type a</text>
  <g transform="translate(0,28) scale(1)">
    <rect x="0" y="0" width="368" height="97" fill="#fafafa" stroke="#9e9e9e" stroke-width="1.5"/>
    <g class="diagram-frame-tab tab-activity">
      <path d="M0,0 L115.2,0 L115.2,12 L105.2,22 L0,22 Z" fill="#e0e0e0" stroke="#9e9e9e" stroke-width="1"/>
      <text x="57.6" y="12" text-anchor="middle" font-size="10" font-family="sans-serif" dominant-baseline="middle" fill="#333">«activity» value</text>
    </g>
    <g class="edge">
      <path d="M146.0,59.0 L210.0,59.0" fill="none" stroke="#424242" stroke-width="1.5" stroke-linejoin="round" stroke-linecap="round" marker-end="url(#arrowFilled)"/>
      <text x="184" y="53" text-anchor="middle" dominant-baseline="middle" font-size="9" font-family="sans-serif" fill="#333">inhabits</text>
    </g>
    <g class="object-node">
      <title>a0 — one concrete representative, or witness, of type a.</title>
      <rect x="36" y="40" width="110" height="38" fill="#f5f5f5" stroke="#616161" stroke-width="1.5"/>
      <text x="91" y="59" text-anchor="middle" font-size="11" font-family="sans-serif" dominant-baseline="middle" fill="#333">a0 : a</text>
    </g>
    <g class="object-node">
      <title>type a — the classification that a0 belongs to.</title>
      <rect x="222" y="40" width="110" height="38" fill="#f5f5f5" stroke="#616161" stroke-width="1.5"/>
      <text x="277" y="59" text-anchor="middle" font-size="11" font-family="sans-serif" dominant-baseline="middle" fill="#333">type a</text>
    </g>
  </g>
</svg>
