<?xml version="1.0" encoding="UTF-8"?>
<svg xmlns="http://www.w3.org/2000/svg" viewBox="0 0 1267 256" width="1267" height="256">
  <defs>
    <marker id="arrowFilled" viewBox="0 0 10 10" refX="0" refY="5" markerWidth="8" markerHeight="8" orient="auto-start-reverse">
      <path d="M0,1.5 L10,5 L0,8.5 L2.5,5 Z" fill="#424242"/>
    </marker>
    <marker id="arrowOpen" viewBox="0 0 10 10" refX="0" refY="5" markerWidth="8" markerHeight="8" orient="auto-start-reverse">
      <path d="M0,1.5 L10,5 L0,8.5" fill="none" stroke="#424242" stroke-width="1.25"/>
    </marker>
    <marker id="arrowHof" viewBox="0 0 10 10" refX="0" refY="5" markerWidth="8" markerHeight="8" orient="auto-start-reverse">
      <path d="M0,1.5 L10,5 L0,8.5 L2.5,5 Z" fill="#00796b"/>
    </marker>
  </defs>
  <rect width="1267" height="256" fill="white"/>
  <text x="633.5" y="18" text-anchor="middle" font-size="14" font-weight="bold" font-family="sans-serif" fill="#222">List bind (concatMap): apply f to every element, concatenate all results</text>
  <text x="633.5" y="35" text-anchor="middle" font-size="11" font-weight="normal" font-family="sans-serif" fill="#555">also called: flatMap, SelectMany, List.collect, &gt;&gt;=</text>
  <g transform="translate(0,44) scale(1)">
    <rect x="0" y="0" width="1267" height="212" fill="#fafafa" stroke="#9e9e9e" stroke-width="1.5"/>
    <g class="diagram-frame-tab tab-activity">
      <path d="M0,0 L109,0 L109,12 L99,22 L0,22 Z" fill="#e0e0e0" stroke="#9e9e9e" stroke-width="1"/>
      <text x="54.5" y="12" text-anchor="middle" font-size="10" font-family="sans-serif" dominant-baseline="middle" fill="#333">«activity» bind</text>
    </g>
    <g class="edge">
      <path d="M146.0,89.0 L189.0,89.0" fill="none" stroke="#424242" stroke-width="1.5" stroke-linejoin="round" stroke-linecap="round" marker-end="url(#arrowFilled)"/>
      <text x="173.5" y="83" text-anchor="middle" dominant-baseline="middle" font-size="9" font-family="sans-serif" fill="#333">∀ a</text>
    </g>
    <g class="edge">
      <path d="M146.0,89.0 L151.0,89.0 Q156.0,89.0 156.0,94.0 L156.0,113.0 Q156.0,119.0 162.0,119.0 L340.5,119.0 Q341.0,119.0 341.0,119.5 L341.0,119.5 Q341.0,120.0 341.5,120.0 L352.0,120.0" fill="none" stroke="#424242" stroke-width="1.5" stroke-linejoin="round" stroke-linecap="round" marker-end="url(#arrowFilled)"/>
      <text x="248.5" y="113" text-anchor="middle" dominant-baseline="middle" font-size="9" font-family="sans-serif" fill="#333">∀ a</text>
    </g>
    <g class="edge">
      <path d="M146.0,89.0 L151.0,89.0 Q156.0,89.0 156.0,94.0 L156.0,168.0 Q156.0,174.0 162.0,174.0 L320.5,174.0 Q321.0,174.0 321.0,174.5 L321.0,174.5 Q321.0,175.0 321.5,175.0 L352.0,175.0" fill="none" stroke="#424242" stroke-width="1.5" stroke-linejoin="round" stroke-linecap="round" marker-end="url(#arrowFilled)"/>
      <text x="238.5" y="168" text-anchor="middle" dominant-baseline="middle" font-size="9" font-family="sans-serif" fill="#333">∀ a</text>
    </g>
    <g class="edge">
      <path d="M311.0,89.0 L316.0,89.0 Q321.0,89.0 321.0,84.0 L321.0,62.0 Q321.0,56.0 327.0,56.0 L339.0,56.0" fill="none" stroke="#424242" stroke-width="1.5" stroke-linejoin="round" stroke-linecap="round" marker-end="url(#arrowFilled)"/>
    </g>
    <g class="edge hof-edge">
      <path d="M311.0,147.0 L325.0,147.0 Q331.0,147.0 331.0,141.0 L331.0,78.0 Q331.0,74.0 335.0,74.0 L339.0,74.0" fill="none" stroke="#00796b" stroke-width="1.5" stroke-linejoin="round" stroke-linecap="round" marker-end="url(#arrowHof)"/>
    </g>
    <g class="edge">
      <path d="M483.0,59.0 L817.0,59.0" fill="none" stroke="#424242" stroke-width="1.5" stroke-linejoin="round" stroke-linecap="round" marker-end="url(#arrowFilled)"/>
    </g>
    <g class="edge">
      <path d="M474.0,120.0 L493.5,120.0 Q497.0,120.0 497.0,116.5 L497.0,113.0 L497.0,113.0" fill="none" stroke="#424242" stroke-width="1.5" stroke-linejoin="round" stroke-linecap="round" marker-end="url(#arrowFilled)"/>
    </g>
    <g class="edge hof-edge">
      <path d="M311.0,147.0 L491.0,147.0 Q497.0,147.0 497.0,141.0 L497.0,128.0 L497.0,128.0" fill="none" stroke="#00796b" stroke-width="1.5" stroke-linejoin="round" stroke-linecap="round" marker-end="url(#arrowHof)"/>
    </g>
    <g class="edge">
      <path d="M639.0,111.0 L647.0,111.0 Q653.0,111.0 653.0,105.0 L653.0,93.0 Q653.0,87.0 659.0,87.0 L674.0,87.0" fill="none" stroke="#424242" stroke-width="1.5" stroke-linejoin="round" stroke-linecap="round" marker-end="url(#arrowFilled)"/>
    </g>
    <g class="edge">
      <path d="M474.0,175.0 L491.0,175.0 Q497.0,175.0 497.0,169.0 L497.0,164.0 Q497.0,158.0 503.0,158.0 L647.0,158.0 Q653.0,158.0 653.0,152.0 L653.0,142.0 Q653.0,138.0 657.0,138.0 L661.0,138.0" fill="none" stroke="#424242" stroke-width="1.5" stroke-linejoin="round" stroke-linecap="round" marker-end="url(#arrowFilled)"/>
    </g>
    <g class="edge hof-edge">
      <path d="M311.0,147.0 L660.0,147.0 Q663.0,147.0 663.0,150.0 L663.0,153.0 L663.0,153.0" fill="none" stroke="#00796b" stroke-width="1.5" stroke-linejoin="round" stroke-linecap="round" marker-end="url(#arrowHof)"/>
    </g>
    <g class="edge">
      <path d="M805.0,136.0 L813.0,136.0 Q819.0,136.0 819.0,130.0 L819.0,115.0 L819.0,115.0" fill="none" stroke="#424242" stroke-width="1.5" stroke-linejoin="round" stroke-linecap="round" marker-end="url(#arrowFilled)"/>
    </g>
    <g class="edge">
      <path d="M939.0,59.0 L953.0,59.0 Q959.0,59.0 959.0,65.0 L959.0,75.0 L959.0,75.0" fill="none" stroke="#424242" stroke-width="1.5" stroke-linejoin="round" stroke-linecap="round" marker-end="url(#arrowFilled)"/>
    </g>
    <g class="edge">
      <path d="M796.0,87.0 L957.0,87.0" fill="none" stroke="#424242" stroke-width="1.5" stroke-linejoin="round" stroke-linecap="round" marker-end="url(#arrowFilled)"/>
    </g>
    <g class="edge">
      <path d="M939.0,115.0 L953.0,115.0 Q959.0,115.0 959.0,109.0 L959.0,99.0 L959.0,99.0" fill="none" stroke="#424242" stroke-width="1.5" stroke-linejoin="round" stroke-linecap="round" marker-end="url(#arrowFilled)"/>
    </g>
    <g class="edge">
      <path d="M1101.0,85.0 L1109.0,85.0" fill="none" stroke="#424242" stroke-width="1.5" stroke-linejoin="round" stroke-linecap="round" marker-end="url(#arrowFilled)"/>
    </g>
    <g class="edge">
      <path d="M479.0,75.0 L491.0,75.0 Q497.0,75.0 497.0,81.0 L497.0,99.0 Q497.0,102.0 500.0,102.0 L503.0,102.0" fill="none" stroke="#424242" stroke-width="1.5" stroke-linejoin="round" stroke-linecap="round" marker-end="url(#arrowOpen)" stroke-dasharray="6,4"/>
    </g>
    <g class="edge">
      <path d="M635.0,127.0 L669.0,127.0" fill="none" stroke="#424242" stroke-width="1.5" stroke-linejoin="round" stroke-linecap="round" marker-end="url(#arrowOpen)" stroke-dasharray="6,4"/>
    </g>
    <g class="edge">
      <path d="M801.0,152.0 L943.0,152.0 Q949.0,152.0 949.0,146.0 L949.0,73.0 Q949.0,67.0 955.0,67.0 L965.0,67.0" fill="none" stroke="#424242" stroke-width="1.5" stroke-linejoin="round" stroke-linecap="round" marker-end="url(#arrowOpen)" stroke-dasharray="6,4"/>
    </g>
    <g class="action-node">
      <title>f(a1) — sub-list of b values for the first element (0 or more results)</title>
      <rect x="359" y="43" width="120" height="44" rx="12" fill="#e8f5e9" stroke="#388e3c" stroke-width="1.5"/>
      <text class="action-label" x="419" y="65" text-anchor="middle" font-size="11" font-family="sans-serif" dominant-baseline="middle" fill="#333">app1</text>
      <g class="pin pin-in">
        <rect x="355" y="53.666666666666664" width="8" height="8" fill="#e0e0e0" stroke="#424242" stroke-width="1"/>
        <text x="365" y="57.666666666666664" text-anchor="start" dominant-baseline="middle" font-size="8" font-family="sans-serif" fill="#555">a_val</text>
      </g>
      <g class="pin pin-in">
        <rect x="355" y="68.33333333333333" width="8" height="8" fill="#e0e0e0" stroke="#424242" stroke-width="1"/>
        <text x="365" y="72.33333333333333" text-anchor="start" dominant-baseline="middle" font-size="8" font-family="sans-serif" fill="#555">f</text>
      </g>
      <g class="pin pin-out">
        <rect x="475" y="61" width="8" height="8" fill="#e0e0e0" stroke="#424242" stroke-width="1"/>
        <text x="473" y="65" text-anchor="end" dominant-baseline="middle" font-size="8" font-family="sans-serif" fill="#555">sub_b</text>
      </g>
    </g>
    <g class="action-node">
      <title>f(a2) — sub-list of b values for the second element (0 or more results)</title>
      <rect x="515" y="95" width="120" height="44" rx="12" fill="#e8f5e9" stroke="#388e3c" stroke-width="1.5"/>
      <text class="action-label" x="575" y="117" text-anchor="middle" font-size="11" font-family="sans-serif" dominant-baseline="middle" fill="#333">app2</text>
      <g class="pin pin-in">
        <rect x="511" y="105.66666666666667" width="8" height="8" fill="#e0e0e0" stroke="#424242" stroke-width="1"/>
        <text x="521" y="109.66666666666667" text-anchor="start" dominant-baseline="middle" font-size="8" font-family="sans-serif" fill="#555">a_val</text>
      </g>
      <g class="pin pin-in">
        <rect x="511" y="120.33333333333333" width="8" height="8" fill="#e0e0e0" stroke="#424242" stroke-width="1"/>
        <text x="521" y="124.33333333333333" text-anchor="start" dominant-baseline="middle" font-size="8" font-family="sans-serif" fill="#555">f</text>
      </g>
      <g class="pin pin-out">
        <rect x="631" y="113" width="8" height="8" fill="#e0e0e0" stroke="#424242" stroke-width="1"/>
        <text x="629" y="117" text-anchor="end" dominant-baseline="middle" font-size="8" font-family="sans-serif" fill="#555">sub_b</text>
      </g>
    </g>
    <g class="action-node">
      <title>f(a3) — sub-list of b values for the third element (0 or more results)</title>
      <rect x="681" y="120" width="120" height="44" rx="12" fill="#e8f5e9" stroke="#388e3c" stroke-width="1.5"/>
      <text class="action-label" x="741" y="142" text-anchor="middle" font-size="11" font-family="sans-serif" dominant-baseline="middle" fill="#333">app3</text>
      <g class="pin pin-in">
        <rect x="677" y="130.66666666666666" width="8" height="8" fill="#e0e0e0" stroke="#424242" stroke-width="1"/>
        <text x="687" y="134.66666666666666" text-anchor="start" dominant-baseline="middle" font-size="8" font-family="sans-serif" fill="#555">a_val</text>
      </g>
      <g class="pin pin-in">
        <rect x="677" y="145.33333333333334" width="8" height="8" fill="#e0e0e0" stroke="#424242" stroke-width="1"/>
        <text x="687" y="149.33333333333334" text-anchor="start" dominant-baseline="middle" font-size="8" font-family="sans-serif" fill="#555">f</text>
      </g>
      <g class="pin pin-out">
        <rect x="797" y="138" width="8" height="8" fill="#e0e0e0" stroke="#424242" stroke-width="1"/>
        <text x="795" y="142" text-anchor="end" dominant-baseline="middle" font-size="8" font-family="sans-serif" fill="#555">sub_b</text>
      </g>
    </g>
    <g class="action-node">
      <title>Concatenate: sub1 ++ sub2 ++ sub3. This is the key step: all branches merged into one flat List b.</title>
      <rect x="977" y="63" width="120" height="44" rx="12" fill="#e8f5e9" stroke="#388e3c" stroke-width="1.5"/>
      <text class="action-label" x="1037" y="85" text-anchor="middle" font-size="11" font-family="sans-serif" dominant-baseline="middle" fill="#333">flatten</text>
      <g class="pin pin-in">
        <rect x="973" y="70" width="8" height="8" fill="#e0e0e0" stroke="#424242" stroke-width="1"/>
        <text x="983" y="74" text-anchor="start" dominant-baseline="middle" font-size="8" font-family="sans-serif" fill="#555">sub1</text>
      </g>
      <g class="pin pin-in">
        <rect x="973" y="81" width="8" height="8" fill="#e0e0e0" stroke="#424242" stroke-width="1"/>
        <text x="983" y="85" text-anchor="start" dominant-baseline="middle" font-size="8" font-family="sans-serif" fill="#555">sub2</text>
      </g>
      <g class="pin pin-in">
        <rect x="973" y="92" width="8" height="8" fill="#e0e0e0" stroke="#424242" stroke-width="1"/>
        <text x="983" y="96" text-anchor="start" dominant-baseline="middle" font-size="8" font-family="sans-serif" fill="#555">sub3</text>
      </g>
      <g class="pin pin-out">
        <rect x="1093" y="81" width="8" height="8" fill="#e0e0e0" stroke="#424242" stroke-width="1"/>
        <text x="1091" y="85" text-anchor="end" dominant-baseline="middle" font-size="8" font-family="sans-serif" fill="#555">flat</text>
      </g>
    </g>
    <g class="object-node">
      <title>List a — every element is independently processed. Empty list short-circuits: no elements, no calls.</title>
      <rect x="36" y="70" width="110" height="38" fill="#f5f5f5" stroke="#616161" stroke-width="1.5"/>
      <text x="91" y="89" text-anchor="middle" font-size="11" font-family="sans-serif" dominant-baseline="middle" fill="#333">List a</text>
    </g>
    <g class="object-node hof">
      <title>(a ⟶ List b) — called for EVERY element. Each call may return [], [b], or [b1, b2, ...] — any size.</title>
      <rect x="201" y="128" width="110" height="38" fill="#e0f2f1" stroke="#00796b" stroke-width="1.5"/>
      <text x="256" y="140" text-anchor="middle" font-size="9" font-style="italic" font-family="sans-serif" dominant-baseline="middle" fill="#00796b">«function»</text>
      <text x="256" y="154" text-anchor="middle" font-size="11" font-family="sans-serif" dominant-baseline="middle" fill="#333">a ⟶ List b</text>
    </g>
    <g class="object-node">
      <title>First element of List a</title>
      <rect x="201" y="70" width="110" height="38" fill="#f5f5f5" stroke="#616161" stroke-width="1.5"/>
      <text x="256" y="89" text-anchor="middle" font-size="11" font-family="sans-serif" dominant-baseline="middle" fill="#333">a</text>
    </g>
    <g class="object-node">
      <title>Second element of List a</title>
      <rect x="364" y="101" width="110" height="38" fill="#f5f5f5" stroke="#616161" stroke-width="1.5"/>
      <text x="419" y="120" text-anchor="middle" font-size="11" font-family="sans-serif" dominant-baseline="middle" fill="#333">a</text>
    </g>
    <g class="object-node">
      <title>Third element of List a</title>
      <rect x="364" y="156" width="110" height="38" fill="#f5f5f5" stroke="#616161" stroke-width="1.5"/>
      <text x="419" y="175" text-anchor="middle" font-size="11" font-family="sans-serif" dominant-baseline="middle" fill="#333">a</text>
    </g>
    <g class="object-node">
      <title>List b — all b values produced for a1. May be empty.</title>
      <rect x="829" y="40" width="110" height="38" fill="#f5f5f5" stroke="#616161" stroke-width="1.5"/>
      <text x="884" y="59" text-anchor="middle" font-size="11" font-family="sans-serif" dominant-baseline="middle" fill="#333">List b</text>
    </g>
    <g class="object-node">
      <title>List b — all b values produced for a2. May be empty.</title>
      <rect x="686" y="68" width="110" height="38" fill="#f5f5f5" stroke="#616161" stroke-width="1.5"/>
      <text x="741" y="87" text-anchor="middle" font-size="11" font-family="sans-serif" dominant-baseline="middle" fill="#333">List b</text>
    </g>
    <g class="object-node">
      <title>List b — all b values produced for a3. May be empty.</title>
      <rect x="829" y="96" width="110" height="38" fill="#f5f5f5" stroke="#616161" stroke-width="1.5"/>
      <text x="884" y="115" text-anchor="middle" font-size="11" font-family="sans-serif" dominant-baseline="middle" fill="#333">List b</text>
    </g>
    <g class="object-node">
      <title>List b — the complete output: sub1 ++ sub2 ++ sub3. Non-determinism is preserved as multiple values.</title>
      <rect x="1121" y="66" width="110" height="38" fill="#f5f5f5" stroke="#616161" stroke-width="1.5"/>
      <text x="1176" y="85" text-anchor="middle" font-size="11" font-family="sans-serif" dominant-baseline="middle" fill="#333">List b</text>
    </g>
  </g>
</svg>
