<?xml version="1.0" encoding="UTF-8"?>
<svg xmlns="http://www.w3.org/2000/svg" viewBox="0 0 1409.4 272" width="1409.4" height="272">
  <defs>
    <marker id="arrowFilled" viewBox="0 0 10 10" refX="0" refY="5" markerWidth="8" markerHeight="8" orient="auto-start-reverse">
      <path d="M0,1.5 L10,5 L0,8.5 L2.5,5 Z" fill="#424242"/>
    </marker>
    <marker id="arrowOpen" viewBox="0 0 10 10" refX="0" refY="5" markerWidth="8" markerHeight="8" orient="auto-start-reverse">
      <path d="M0,1.5 L10,5 L0,8.5" fill="none" stroke="#424242" stroke-width="1.25"/>
    </marker>
    <marker id="arrowHof" viewBox="0 0 10 10" refX="0" refY="5" markerWidth="8" markerHeight="8" orient="auto-start-reverse">
      <path d="M0,1.5 L10,5 L0,8.5 L2.5,5 Z" fill="#00796b"/>
    </marker>
  </defs>
  <rect width="1409.4" height="272" fill="white"/>
  <text x="704.7" y="18" text-anchor="middle" font-size="14" font-weight="bold" font-family="sans-serif" fill="#222">List bind (concatMap): apply f to every element, concatenate all results</text>
  <text x="704.7" y="35" text-anchor="middle" font-size="11" font-weight="normal" font-family="sans-serif" fill="#555">also called: flatMap, SelectMany, List.collect, &gt;&gt;=</text>
  <g transform="translate(0,44)">
    <rect x="0" y="0" width="1409.4" height="228" fill="#fafafa" stroke="#9e9e9e" stroke-width="1.5"/>
    <g class="diagram-frame-tab tab-activity">
      <path d="M0,0 L109,0 L109,12 L99,22 L0,22 Z" fill="#e0e0e0" stroke="#9e9e9e" stroke-width="1"/>
      <text x="54.5" y="12" text-anchor="middle" font-size="10" font-family="sans-serif" dominant-baseline="middle" fill="#333">«activity» bind</text>
    </g>
    <g class="edge">
      <path d="M146.0,84.0 L238.4,84.0" fill="none" stroke="#424242" stroke-width="1.5" stroke-linejoin="round" stroke-linecap="round" marker-end="url(#arrowFilled)"/>
      <text x="198.2" y="78" text-anchor="middle" dominant-baseline="middle" font-size="9" font-family="sans-serif" fill="#333" stroke="white" stroke-width="3" paint-order="stroke fill">∀ a</text>
    </g>
    <g class="edge">
      <path d="M146.0,84.0 L151.0,84.0 Q156.0,84.0 156.0,89.0 L156.0,113.0 Q156.0,119.0 162.0,119.0 L395.3,119.0 Q395.8,119.0 395.8,119.5 L395.8,119.5 Q395.8,120.0 396.3,120.0 L406.8,120.0" fill="none" stroke="#424242" stroke-width="1.5" stroke-linejoin="round" stroke-linecap="round" marker-end="url(#arrowFilled)"/>
      <text x="275.9" y="113" text-anchor="middle" dominant-baseline="middle" font-size="9" font-family="sans-serif" fill="#333" stroke="white" stroke-width="3" paint-order="stroke fill">∀ a</text>
    </g>
    <g class="edge">
      <path d="M146.0,84.0 L151.0,84.0 Q156.0,84.0 156.0,89.0 L156.0,184.0 Q156.0,190.0 162.0,190.0 L375.3,190.0 Q375.8,190.0 375.8,190.5 L375.8,190.5 Q375.8,191.0 376.3,191.0 L406.8,191.0" fill="none" stroke="#424242" stroke-width="1.5" stroke-linejoin="round" stroke-linecap="round" marker-end="url(#arrowFilled)"/>
      <text x="265.9" y="184" text-anchor="middle" dominant-baseline="middle" font-size="9" font-family="sans-serif" fill="#333" stroke="white" stroke-width="3" paint-order="stroke fill">∀ a</text>
    </g>
    <g class="edge">
      <path d="M360.4,84.0 L369.8,84.0 Q375.8,84.0 375.8,78.0 L375.8,62.0 Q375.8,56.0 381.8,56.0 L397.8,56.0" fill="none" stroke="#424242" stroke-width="1.5" stroke-linejoin="round" stroke-linecap="round" marker-end="url(#arrowFilled)"/>
    </g>
    <g class="edge hof-edge">
      <path d="M365.8,155.0 L379.8,155.0 Q385.8,155.0 385.8,149.0 L385.8,80.0 Q385.8,74.0 391.8,74.0 L397.8,74.0" fill="none" stroke="#00796b" stroke-width="1.5" stroke-linejoin="round" stroke-linecap="round" marker-end="url(#arrowHof)"/>
    </g>
    <g class="edge">
      <path d="M537.8,59.0 L921.8,59.0" fill="none" stroke="#424242" stroke-width="1.5" stroke-linejoin="round" stroke-linecap="round" marker-end="url(#arrowFilled)"/>
    </g>
    <g class="edge">
      <path d="M528.8,120.0 L548.3,120.0 Q551.8,120.0 551.8,116.5 L551.8,116.5 Q551.8,113.0 555.3,113.0 L573.8,113.0" fill="none" stroke="#424242" stroke-width="1.5" stroke-linejoin="round" stroke-linecap="round" marker-end="url(#arrowFilled)"/>
    </g>
    <g class="edge hof-edge">
      <path d="M365.8,155.0 L545.8,155.0 Q551.8,155.0 551.8,149.0 L551.8,134.0 Q551.8,128.0 557.8,128.0 L573.8,128.0" fill="none" stroke="#00796b" stroke-width="1.5" stroke-linejoin="round" stroke-linecap="round" marker-end="url(#arrowHof)"/>
    </g>
    <g class="edge">
      <path d="M713.8,111.0 L721.8,111.0 Q727.8,111.0 727.8,105.0 L727.8,101.0 Q727.8,95.0 733.8,95.0 L757.0,95.0" fill="none" stroke="#424242" stroke-width="1.5" stroke-linejoin="round" stroke-linecap="round" marker-end="url(#arrowFilled)"/>
    </g>
    <g class="edge">
      <path d="M528.8,191.0 L545.8,191.0 Q551.8,191.0 551.8,185.0 L551.8,172.0 Q551.8,166.0 557.8,166.0 L721.8,166.0 Q727.8,166.0 727.8,160.0 L727.8,152.0 Q727.8,146.0 733.8,146.0 L749.8,146.0" fill="none" stroke="#424242" stroke-width="1.5" stroke-linejoin="round" stroke-linecap="round" marker-end="url(#arrowFilled)"/>
    </g>
    <g class="edge hof-edge">
      <path d="M365.8,155.0 L734.8,155.0 Q737.8,155.0 737.8,158.0 L737.8,158.0 Q737.8,161.0 740.8,161.0 L749.8,161.0" fill="none" stroke="#00796b" stroke-width="1.5" stroke-linejoin="round" stroke-linecap="round" marker-end="url(#arrowHof)"/>
    </g>
    <g class="edge">
      <path d="M889.8,144.0 L897.8,144.0 Q903.8,144.0 903.8,138.0 L903.8,136.0 Q903.8,130.0 909.8,130.0 L921.8,130.0" fill="none" stroke="#424242" stroke-width="1.5" stroke-linejoin="round" stroke-linecap="round" marker-end="url(#arrowFilled)"/>
    </g>
    <g class="edge">
      <path d="M1047.4,59.0 L1061.4,59.0 Q1067.4,59.0 1067.4,65.0 L1067.4,76.0 Q1067.4,82.0 1073.4,82.0 L1079.4,82.0" fill="none" stroke="#424242" stroke-width="1.5" stroke-linejoin="round" stroke-linecap="round" marker-end="url(#arrowFilled)"/>
    </g>
    <g class="edge">
      <path d="M882.6,95.0 L903.3,95.0 Q903.8,95.0 903.8,94.5 L903.8,94.5 Q903.8,94.0 904.3,94.0 L1079.4,94.0" fill="none" stroke="#424242" stroke-width="1.5" stroke-linejoin="round" stroke-linecap="round" marker-end="url(#arrowFilled)"/>
    </g>
    <g class="edge">
      <path d="M1047.4,130.0 L1061.4,130.0 Q1067.4,130.0 1067.4,124.0 L1067.4,112.0 Q1067.4,106.0 1073.4,106.0 L1079.4,106.0" fill="none" stroke="#424242" stroke-width="1.5" stroke-linejoin="round" stroke-linecap="round" marker-end="url(#arrowFilled)"/>
    </g>
    <g class="edge">
      <path d="M1219.4,92.0 L1251.4,92.0" fill="none" stroke="#424242" stroke-width="1.5" stroke-linejoin="round" stroke-linecap="round" marker-end="url(#arrowFilled)"/>
    </g>
    <g class="edge">
      <path d="M533.8,75.0 L545.8,75.0 Q551.8,75.0 551.8,81.0 L551.8,96.0 Q551.8,102.0 557.8,102.0 L577.8,102.0" fill="none" stroke="#424242" stroke-width="1.5" stroke-linejoin="round" stroke-linecap="round" marker-end="url(#arrowOpen)" stroke-dasharray="6,4"/>
    </g>
    <g class="edge">
      <path d="M709.8,127.0 L723.8,127.0 Q727.8,127.0 727.8,131.0 L727.8,131.0 Q727.8,135.0 731.8,135.0 L753.8,135.0" fill="none" stroke="#424242" stroke-width="1.5" stroke-linejoin="round" stroke-linecap="round" marker-end="url(#arrowOpen)" stroke-dasharray="6,4"/>
    </g>
    <g class="edge">
      <path d="M885.8,160.0 L901.3,160.0 Q903.8,160.0 903.8,162.5 L903.8,162.5 Q903.8,165.0 906.3,165.0 L1051.4,165.0 Q1057.4,165.0 1057.4,159.0 L1057.4,80.0 Q1057.4,74.0 1063.4,74.0 L1083.4,74.0" fill="none" stroke="#424242" stroke-width="1.5" stroke-linejoin="round" stroke-linecap="round" marker-end="url(#arrowOpen)" stroke-dasharray="6,4"/>
    </g>
    <g class="action-node">
      <title>f(a1) — sub-list of b values for the first element (0 or more results)</title>
      <rect x="413.8" y="43" width="120" height="44" rx="12" fill="#e8f5e9" stroke="#388e3c" stroke-width="1.5"/>
      <text class="action-label" x="473.8" y="65" text-anchor="middle" font-size="11" font-family="sans-serif" dominant-baseline="middle" fill="#333">app1</text>
      <g class="pin pin-in">
        <rect x="409.8" y="53.666666666666664" width="8" height="8" fill="#e0e0e0" stroke="#424242" stroke-width="1"/>
        <text x="419.8" y="57.666666666666664" text-anchor="start" font-size="8" font-family="sans-serif" dominant-baseline="middle" fill="#555" stroke="white" stroke-width="2" paint-order="stroke fill">a_val</text>
      </g>
      <g class="pin pin-in">
        <rect x="409.8" y="68.33333333333333" width="8" height="8" fill="#e0e0e0" stroke="#424242" stroke-width="1"/>
        <text x="419.8" y="72.33333333333333" text-anchor="start" font-size="8" font-family="sans-serif" dominant-baseline="middle" fill="#555" stroke="white" stroke-width="2" paint-order="stroke fill">f</text>
      </g>
      <g class="pin pin-out">
        <rect x="529.8" y="61" width="8" height="8" fill="#e0e0e0" stroke="#424242" stroke-width="1"/>
        <text x="527.8" y="65" text-anchor="end" font-size="8" font-family="sans-serif" dominant-baseline="middle" fill="#555" stroke="white" stroke-width="2" paint-order="stroke fill">sub_b</text>
      </g>
    </g>
    <g class="action-node">
      <title>f(a2) — sub-list of b values for the second element (0 or more results)</title>
      <rect x="589.8" y="95" width="120" height="44" rx="12" fill="#e8f5e9" stroke="#388e3c" stroke-width="1.5"/>
      <text class="action-label" x="649.8" y="117" text-anchor="middle" font-size="11" font-family="sans-serif" dominant-baseline="middle" fill="#333">app2</text>
      <g class="pin pin-in">
        <rect x="585.8" y="105.66666666666667" width="8" height="8" fill="#e0e0e0" stroke="#424242" stroke-width="1"/>
        <text x="595.8" y="109.66666666666667" text-anchor="start" font-size="8" font-family="sans-serif" dominant-baseline="middle" fill="#555" stroke="white" stroke-width="2" paint-order="stroke fill">a_val</text>
      </g>
      <g class="pin pin-in">
        <rect x="585.8" y="120.33333333333333" width="8" height="8" fill="#e0e0e0" stroke="#424242" stroke-width="1"/>
        <text x="595.8" y="124.33333333333333" text-anchor="start" font-size="8" font-family="sans-serif" dominant-baseline="middle" fill="#555" stroke="white" stroke-width="2" paint-order="stroke fill">f</text>
      </g>
      <g class="pin pin-out">
        <rect x="705.8" y="113" width="8" height="8" fill="#e0e0e0" stroke="#424242" stroke-width="1"/>
        <text x="703.8" y="117" text-anchor="end" font-size="8" font-family="sans-serif" dominant-baseline="middle" fill="#555" stroke="white" stroke-width="2" paint-order="stroke fill">sub_b</text>
      </g>
    </g>
    <g class="action-node">
      <title>f(a3) — sub-list of b values for the third element (0 or more results)</title>
      <rect x="765.8" y="128" width="120" height="44" rx="12" fill="#e8f5e9" stroke="#388e3c" stroke-width="1.5"/>
      <text class="action-label" x="825.8" y="150" text-anchor="middle" font-size="11" font-family="sans-serif" dominant-baseline="middle" fill="#333">app3</text>
      <g class="pin pin-in">
        <rect x="761.8" y="138.66666666666666" width="8" height="8" fill="#e0e0e0" stroke="#424242" stroke-width="1"/>
        <text x="771.8" y="142.66666666666666" text-anchor="start" font-size="8" font-family="sans-serif" dominant-baseline="middle" fill="#555" stroke="white" stroke-width="2" paint-order="stroke fill">a_val</text>
      </g>
      <g class="pin pin-in">
        <rect x="761.8" y="153.33333333333334" width="8" height="8" fill="#e0e0e0" stroke="#424242" stroke-width="1"/>
        <text x="771.8" y="157.33333333333334" text-anchor="start" font-size="8" font-family="sans-serif" dominant-baseline="middle" fill="#555" stroke="white" stroke-width="2" paint-order="stroke fill">f</text>
      </g>
      <g class="pin pin-out">
        <rect x="881.8" y="146" width="8" height="8" fill="#e0e0e0" stroke="#424242" stroke-width="1"/>
        <text x="879.8" y="150" text-anchor="end" font-size="8" font-family="sans-serif" dominant-baseline="middle" fill="#555" stroke="white" stroke-width="2" paint-order="stroke fill">sub_b</text>
      </g>
    </g>
    <g class="action-node">
      <title>Concatenate: sub1 ++ sub2 ++ sub3. This is the key step: all branches merged into one flat List b.</title>
      <rect x="1095.4" y="70" width="120" height="44" rx="12" fill="#e8f5e9" stroke="#388e3c" stroke-width="1.5"/>
      <text class="action-label" x="1155.4" y="92" text-anchor="middle" font-size="11" font-family="sans-serif" dominant-baseline="middle" fill="#333">flatten</text>
      <g class="pin pin-in">
        <rect x="1091.4" y="77" width="8" height="8" fill="#e0e0e0" stroke="#424242" stroke-width="1"/>
        <text x="1101.4" y="81" text-anchor="start" font-size="8" font-family="sans-serif" dominant-baseline="middle" fill="#555" stroke="white" stroke-width="2" paint-order="stroke fill">sub1</text>
      </g>
      <g class="pin pin-in">
        <rect x="1091.4" y="88" width="8" height="8" fill="#e0e0e0" stroke="#424242" stroke-width="1"/>
        <text x="1101.4" y="92" text-anchor="start" font-size="8" font-family="sans-serif" dominant-baseline="middle" fill="#555" stroke="white" stroke-width="2" paint-order="stroke fill">sub2</text>
      </g>
      <g class="pin pin-in">
        <rect x="1091.4" y="99" width="8" height="8" fill="#e0e0e0" stroke="#424242" stroke-width="1"/>
        <text x="1101.4" y="103" text-anchor="start" font-size="8" font-family="sans-serif" dominant-baseline="middle" fill="#555" stroke="white" stroke-width="2" paint-order="stroke fill">sub3</text>
      </g>
      <g class="pin pin-out">
        <rect x="1211.4" y="88" width="8" height="8" fill="#e0e0e0" stroke="#424242" stroke-width="1"/>
        <text x="1209.4" y="92" text-anchor="end" font-size="8" font-family="sans-serif" dominant-baseline="middle" fill="#555" stroke="white" stroke-width="2" paint-order="stroke fill">flat</text>
      </g>
    </g>
    <g class="object-node">
      <title>List a — every element is independently processed. Empty list short-circuits: no elements, no calls.</title>
      <rect x="36" y="65" width="110" height="38" fill="#f5f5f5" stroke="#616161" stroke-width="1.5"/>
      <text x="91" y="84" text-anchor="middle" font-size="11" font-family="sans-serif" dominant-baseline="middle" fill="#333">la : List a</text>
    </g>
    <g class="object-node hof">
      <title>(a ⟶ List b) — called for EVERY element. Each call may return [], [b], or [b1, b2, ...] — any size.</title>
      <rect x="244.99999999999997" y="136" width="120.8" height="38" fill="#e0f2f1" stroke="#00796b" stroke-width="1.5"/>
      <text x="305.4" y="148" text-anchor="middle" font-size="9" font-style="italic" font-family="sans-serif" dominant-baseline="middle" fill="#00796b">«function»</text>
      <text x="305.4" y="162" text-anchor="middle" font-size="11" font-family="sans-serif" dominant-baseline="middle" fill="#333">f : a ⟶ List b</text>
    </g>
    <g class="object-node">
      <title>First element of List a</title>
      <rect x="250.39999999999998" y="65" width="110" height="38" fill="#f5f5f5" stroke="#616161" stroke-width="1.5"/>
      <text x="305.4" y="84" text-anchor="middle" font-size="11" font-family="sans-serif" dominant-baseline="middle" fill="#333">a1 : a</text>
    </g>
    <g class="object-node">
      <title>Second element of List a</title>
      <rect x="418.8" y="101" width="110" height="38" fill="#f5f5f5" stroke="#616161" stroke-width="1.5"/>
      <text x="473.8" y="120" text-anchor="middle" font-size="11" font-family="sans-serif" dominant-baseline="middle" fill="#333">a2 : a</text>
    </g>
    <g class="object-node">
      <title>Third element of List a</title>
      <rect x="418.8" y="172" width="110" height="38" fill="#f5f5f5" stroke="#616161" stroke-width="1.5"/>
      <text x="473.8" y="191" text-anchor="middle" font-size="11" font-family="sans-serif" dominant-baseline="middle" fill="#333">a3 : a</text>
    </g>
    <g class="object-node">
      <title>List b — all b values produced for a1. May be empty.</title>
      <rect x="933.8" y="40" width="113.60000000000001" height="38" fill="#f5f5f5" stroke="#616161" stroke-width="1.5"/>
      <text x="990.5999999999999" y="59" text-anchor="middle" font-size="11" font-family="sans-serif" dominant-baseline="middle" fill="#333">sub1 : List b</text>
    </g>
    <g class="object-node">
      <title>List b — all b values produced for a2. May be empty.</title>
      <rect x="769" y="76" width="113.60000000000001" height="38" fill="#f5f5f5" stroke="#616161" stroke-width="1.5"/>
      <text x="825.8" y="95" text-anchor="middle" font-size="11" font-family="sans-serif" dominant-baseline="middle" fill="#333">sub2 : List b</text>
    </g>
    <g class="object-node">
      <title>List b — all b values produced for a3. May be empty.</title>
      <rect x="933.8" y="111" width="113.60000000000001" height="38" fill="#f5f5f5" stroke="#616161" stroke-width="1.5"/>
      <text x="990.5999999999999" y="130" text-anchor="middle" font-size="11" font-family="sans-serif" dominant-baseline="middle" fill="#333">sub3 : List b</text>
    </g>
    <g class="object-node">
      <title>List b — the complete output: sub1 ++ sub2 ++ sub3. Non-determinism is preserved as multiple values.</title>
      <rect x="1263.4" y="73" width="110" height="38" fill="#f5f5f5" stroke="#616161" stroke-width="1.5"/>
      <text x="1318.4" y="92" text-anchor="middle" font-size="11" font-family="sans-serif" dominant-baseline="middle" fill="#333">lb : List b</text>
    </g>
  </g>
</svg>
