<?xml version="1.0" encoding="UTF-8"?>
<svg xmlns="http://www.w3.org/2000/svg" viewBox="0 0 1321.4 285" width="1321.4" height="285">
  <defs>
    <marker id="arrowFilled" viewBox="0 0 10 10" refX="0" refY="5" markerWidth="8" markerHeight="8" orient="auto-start-reverse">
      <path d="M0,1.5 L10,5 L0,8.5 L2.5,5 Z" fill="#424242"/>
    </marker>
    <marker id="arrowOpen" viewBox="0 0 10 10" refX="0" refY="5" markerWidth="8" markerHeight="8" orient="auto-start-reverse">
      <path d="M0,1.5 L10,5 L0,8.5" fill="none" stroke="#424242" stroke-width="1.25"/>
    </marker>
    <marker id="arrowHof" viewBox="0 0 10 10" refX="0" refY="5" markerWidth="8" markerHeight="8" orient="auto-start-reverse">
      <path d="M0,1.5 L10,5 L0,8.5 L2.5,5 Z" fill="#00796b"/>
    </marker>
  </defs>
  <rect width="1321.4" height="285" fill="white"/>
  <text x="660.7" y="18" text-anchor="middle" font-size="14" font-weight="bold" font-family="sans-serif" fill="#222">List bind (concatMap): apply f to every element, concatenate all results</text>
  <text x="660.7" y="35" text-anchor="middle" font-size="11" font-weight="normal" font-family="sans-serif" fill="#555">also called: flatMap, SelectMany, List.collect, &gt;&gt;=</text>
  <g transform="translate(0,44) scale(1)">
    <rect x="0" y="0" width="1321.4" height="241" fill="#fafafa" stroke="#9e9e9e" stroke-width="1.5"/>
    <g class="diagram-frame-tab tab-activity">
      <path d="M0,0 L109,0 L109,12 L99,22 L0,22 Z" fill="#e0e0e0" stroke="#9e9e9e" stroke-width="1"/>
      <text x="54.5" y="12" text-anchor="middle" font-size="10" font-family="sans-serif" dominant-baseline="middle" fill="#333">«activity» bind</text>
    </g>
    <g class="edge">
      <path d="M156.8,117.0 L170.8,117.0 Q176.8,117.0 176.8,111.0 L176.8,84.0 Q176.8,78.0 182.8,78.0 L209.8,78.0" fill="none" stroke="#424242" stroke-width="1.5" stroke-linejoin="round" stroke-linecap="round" marker-end="url(#arrowFilled)"/>
      <text x="199.3" y="72" text-anchor="middle" dominant-baseline="middle" font-size="9" font-family="sans-serif" fill="#333">∀ a</text>
    </g>
    <g class="edge">
      <path d="M156.8,117.0 L170.8,117.0 Q176.8,117.0 176.8,123.0 L176.8,162.0 Q176.8,168.0 182.8,168.0 L341.3,168.0 Q341.8,168.0 341.8,168.5 L341.8,168.5 Q341.8,169.0 342.3,169.0 L362.8,169.0" fill="none" stroke="#424242" stroke-width="1.5" stroke-linejoin="round" stroke-linecap="round" marker-end="url(#arrowFilled)"/>
      <text x="259.3" y="162" text-anchor="middle" dominant-baseline="middle" font-size="9" font-family="sans-serif" fill="#333">∀ a</text>
    </g>
    <g class="edge">
      <path d="M156.8,117.0 L362.8,117.0" fill="none" stroke="#424242" stroke-width="1.5" stroke-linejoin="round" stroke-linecap="round" marker-end="url(#arrowFilled)"/>
      <text x="265.8" y="111" text-anchor="middle" dominant-baseline="middle" font-size="9" font-family="sans-serif" fill="#333">∀ a</text>
    </g>
    <g class="edge">
      <path d="M331.8,78.0 L336.8,78.0 Q341.8,78.0 341.8,73.0 L341.8,59.0 Q341.8,53.0 347.8,53.0 L353.8,53.0" fill="none" stroke="#424242" stroke-width="1.5" stroke-linejoin="round" stroke-linecap="round" marker-end="url(#arrowFilled)"/>
    </g>
    <g class="edge hof-edge">
      <path d="M156.8,196.0 L161.8,196.0 Q166.8,196.0 166.8,191.0 L166.8,112.0 Q166.8,106.0 172.8,106.0 L345.8,106.0 Q351.8,106.0 351.8,100.0 L351.8,72.0 Q351.8,71.0 352.8,71.0 L353.8,71.0" fill="none" stroke="#00796b" stroke-width="1.5" stroke-linejoin="round" stroke-linecap="round" marker-end="url(#arrowHof)"/>
    </g>
    <g class="edge">
      <path d="M493.8,56.0 L511.8,56.0 Q517.8,56.0 517.8,62.0 L517.8,84.0 Q517.8,90.0 523.8,90.0 L863.8,90.0 Q869.8,90.0 869.8,96.0 L869.8,149.0 L869.8,149.0" fill="none" stroke="#424242" stroke-width="1.5" stroke-linejoin="round" stroke-linecap="round" marker-end="url(#arrowFilled)"/>
    </g>
    <g class="edge">
      <path d="M484.8,169.0 L504.3,169.0 Q507.8,169.0 507.8,165.5 L507.8,165.5 Q507.8,162.0 511.3,162.0 L519.8,162.0" fill="none" stroke="#424242" stroke-width="1.5" stroke-linejoin="round" stroke-linecap="round" marker-end="url(#arrowFilled)"/>
    </g>
    <g class="edge hof-edge">
      <path d="M156.8,196.0 L501.8,196.0 Q507.8,196.0 507.8,190.0 L507.8,183.0 Q507.8,177.0 513.8,177.0 L519.8,177.0" fill="none" stroke="#00796b" stroke-width="1.5" stroke-linejoin="round" stroke-linecap="round" marker-end="url(#arrowHof)"/>
    </g>
    <g class="edge">
      <path d="M659.8,160.0 L687.8,160.0 Q693.8,160.0 693.8,166.0 L693.8,171.4 Q693.8,176.0 698.4,176.0 L703.0,176.0" fill="none" stroke="#424242" stroke-width="1.5" stroke-linejoin="round" stroke-linecap="round" marker-end="url(#arrowFilled)"/>
    </g>
    <g class="edge">
      <path d="M484.8,117.0 L695.8,117.0" fill="none" stroke="#424242" stroke-width="1.5" stroke-linejoin="round" stroke-linecap="round" marker-end="url(#arrowFilled)"/>
    </g>
    <g class="edge hof-edge">
      <path d="M156.8,196.0 L677.8,196.0 Q683.8,196.0 683.8,190.0 L683.8,138.0 Q683.8,132.0 689.8,132.0 L695.8,132.0" fill="none" stroke="#00796b" stroke-width="1.5" stroke-linejoin="round" stroke-linecap="round" marker-end="url(#arrowHof)"/>
    </g>
    <g class="edge">
      <path d="M835.8,115.0 L843.8,115.0 Q849.8,115.0 849.8,121.0 L849.8,198.0 Q849.8,204.0 855.8,204.0 L867.8,204.0" fill="none" stroke="#424242" stroke-width="1.5" stroke-linejoin="round" stroke-linecap="round" marker-end="url(#arrowFilled)"/>
    </g>
    <g class="edge">
      <path d="M993.4,149.0 L1015.4,149.0" fill="none" stroke="#424242" stroke-width="1.5" stroke-linejoin="round" stroke-linecap="round" marker-end="url(#arrowFilled)"/>
    </g>
    <g class="edge">
      <path d="M828.6,176.0 L997.4,176.0 Q1003.4,176.0 1003.4,170.0 L1003.4,167.0 Q1003.4,161.0 1009.4,161.0 L1015.4,161.0" fill="none" stroke="#424242" stroke-width="1.5" stroke-linejoin="round" stroke-linecap="round" marker-end="url(#arrowFilled)"/>
    </g>
    <g class="edge">
      <path d="M993.4,204.0 L1007.4,204.0 Q1013.4,204.0 1013.4,198.0 L1013.4,174.0 Q1013.4,173.0 1014.4,173.0 L1015.4,173.0" fill="none" stroke="#424242" stroke-width="1.5" stroke-linejoin="round" stroke-linecap="round" marker-end="url(#arrowFilled)"/>
    </g>
    <g class="edge">
      <path d="M1155.4,159.0 L1163.4,159.0" fill="none" stroke="#424242" stroke-width="1.5" stroke-linejoin="round" stroke-linecap="round" marker-end="url(#arrowFilled)"/>
    </g>
    <g class="edge">
      <path d="M489.8,72.0 L501.8,72.0 Q507.8,72.0 507.8,78.0 L507.8,145.0 Q507.8,151.0 513.8,151.0 L523.8,151.0" fill="none" stroke="#424242" stroke-width="1.5" stroke-linejoin="round" stroke-linecap="round" marker-end="url(#arrowOpen)" stroke-dasharray="6,4"/>
    </g>
    <g class="edge">
      <path d="M655.8,176.0 L667.8,176.0 Q673.8,176.0 673.8,170.0 L673.8,112.0 Q673.8,106.0 679.8,106.0 L699.8,106.0" fill="none" stroke="#424242" stroke-width="1.5" stroke-linejoin="round" stroke-linecap="round" marker-end="url(#arrowOpen)" stroke-dasharray="6,4"/>
    </g>
    <g class="edge">
      <path d="M831.8,131.0 L854.8,131.0 Q859.8,131.0 859.8,126.0 L859.8,126.0 Q859.8,121.0 864.8,121.0 L997.4,121.0 Q1003.4,121.0 1003.4,127.0 L1003.4,135.0 Q1003.4,141.0 1009.4,141.0 L1019.4,141.0" fill="none" stroke="#424242" stroke-width="1.5" stroke-linejoin="round" stroke-linecap="round" marker-end="url(#arrowOpen)" stroke-dasharray="6,4"/>
    </g>
    <g class="action-node">
      <title>f(a1) — sub-list of b values for the first element (0 or more results)</title>
      <rect x="369.8" y="40" width="120" height="44" rx="12" fill="#e8f5e9" stroke="#388e3c" stroke-width="1.5"/>
      <text class="action-label" x="429.8" y="62" text-anchor="middle" font-size="11" font-family="sans-serif" dominant-baseline="middle" fill="#333">app1</text>
      <g class="pin pin-in">
        <rect x="365.8" y="50.666666666666664" width="8" height="8" fill="#e0e0e0" stroke="#424242" stroke-width="1"/>
        <text x="375.8" y="54.666666666666664" text-anchor="start" font-size="8" font-family="sans-serif" dominant-baseline="middle" fill="#555">a_val</text>
      </g>
      <g class="pin pin-in">
        <rect x="365.8" y="65.33333333333333" width="8" height="8" fill="#e0e0e0" stroke="#424242" stroke-width="1"/>
        <text x="375.8" y="69.33333333333333" text-anchor="start" font-size="8" font-family="sans-serif" dominant-baseline="middle" fill="#555">f</text>
      </g>
      <g class="pin pin-out">
        <rect x="485.8" y="58" width="8" height="8" fill="#e0e0e0" stroke="#424242" stroke-width="1"/>
        <text x="483.8" y="62" text-anchor="end" font-size="8" font-family="sans-serif" dominant-baseline="middle" fill="#555">sub_b</text>
      </g>
    </g>
    <g class="action-node">
      <title>f(a2) — sub-list of b values for the second element (0 or more results)</title>
      <rect x="535.8" y="144" width="120" height="44" rx="12" fill="#e8f5e9" stroke="#388e3c" stroke-width="1.5"/>
      <text class="action-label" x="595.8" y="166" text-anchor="middle" font-size="11" font-family="sans-serif" dominant-baseline="middle" fill="#333">app2</text>
      <g class="pin pin-in">
        <rect x="531.8" y="154.66666666666666" width="8" height="8" fill="#e0e0e0" stroke="#424242" stroke-width="1"/>
        <text x="541.8" y="158.66666666666666" text-anchor="start" font-size="8" font-family="sans-serif" dominant-baseline="middle" fill="#555">a_val</text>
      </g>
      <g class="pin pin-in">
        <rect x="531.8" y="169.33333333333334" width="8" height="8" fill="#e0e0e0" stroke="#424242" stroke-width="1"/>
        <text x="541.8" y="173.33333333333334" text-anchor="start" font-size="8" font-family="sans-serif" dominant-baseline="middle" fill="#555">f</text>
      </g>
      <g class="pin pin-out">
        <rect x="651.8" y="162" width="8" height="8" fill="#e0e0e0" stroke="#424242" stroke-width="1"/>
        <text x="649.8" y="166" text-anchor="end" font-size="8" font-family="sans-serif" dominant-baseline="middle" fill="#555">sub_b</text>
      </g>
    </g>
    <g class="action-node">
      <title>f(a3) — sub-list of b values for the third element (0 or more results)</title>
      <rect x="711.8" y="99" width="120" height="44" rx="12" fill="#e8f5e9" stroke="#388e3c" stroke-width="1.5"/>
      <text class="action-label" x="771.8" y="121" text-anchor="middle" font-size="11" font-family="sans-serif" dominant-baseline="middle" fill="#333">app3</text>
      <g class="pin pin-in">
        <rect x="707.8" y="109.66666666666667" width="8" height="8" fill="#e0e0e0" stroke="#424242" stroke-width="1"/>
        <text x="717.8" y="113.66666666666667" text-anchor="start" font-size="8" font-family="sans-serif" dominant-baseline="middle" fill="#555">a_val</text>
      </g>
      <g class="pin pin-in">
        <rect x="707.8" y="124.33333333333334" width="8" height="8" fill="#e0e0e0" stroke="#424242" stroke-width="1"/>
        <text x="717.8" y="128.33333333333334" text-anchor="start" font-size="8" font-family="sans-serif" dominant-baseline="middle" fill="#555">f</text>
      </g>
      <g class="pin pin-out">
        <rect x="827.8" y="117" width="8" height="8" fill="#e0e0e0" stroke="#424242" stroke-width="1"/>
        <text x="825.8" y="121" text-anchor="end" font-size="8" font-family="sans-serif" dominant-baseline="middle" fill="#555">sub_b</text>
      </g>
    </g>
    <g class="action-node">
      <title>Concatenate: sub1 ++ sub2 ++ sub3. This is the key step: all branches merged into one flat List b.</title>
      <rect x="1031.4" y="137" width="120" height="44" rx="12" fill="#e8f5e9" stroke="#388e3c" stroke-width="1.5"/>
      <text class="action-label" x="1091.4" y="159" text-anchor="middle" font-size="11" font-family="sans-serif" dominant-baseline="middle" fill="#333">flatten</text>
      <g class="pin pin-in">
        <rect x="1027.4" y="144" width="8" height="8" fill="#e0e0e0" stroke="#424242" stroke-width="1"/>
        <text x="1037.4" y="148" text-anchor="start" font-size="8" font-family="sans-serif" dominant-baseline="middle" fill="#555">sub1</text>
      </g>
      <g class="pin pin-in">
        <rect x="1027.4" y="155" width="8" height="8" fill="#e0e0e0" stroke="#424242" stroke-width="1"/>
        <text x="1037.4" y="159" text-anchor="start" font-size="8" font-family="sans-serif" dominant-baseline="middle" fill="#555">sub2</text>
      </g>
      <g class="pin pin-in">
        <rect x="1027.4" y="166" width="8" height="8" fill="#e0e0e0" stroke="#424242" stroke-width="1"/>
        <text x="1037.4" y="170" text-anchor="start" font-size="8" font-family="sans-serif" dominant-baseline="middle" fill="#555">sub3</text>
      </g>
      <g class="pin pin-out">
        <rect x="1147.4" y="155" width="8" height="8" fill="#e0e0e0" stroke="#424242" stroke-width="1"/>
        <text x="1145.4" y="159" text-anchor="end" font-size="8" font-family="sans-serif" dominant-baseline="middle" fill="#555">flat</text>
      </g>
    </g>
    <g class="object-node">
      <title>List a — every element is independently processed. Empty list short-circuits: no elements, no calls.</title>
      <rect x="46.8" y="98" width="110" height="38" fill="#f5f5f5" stroke="#616161" stroke-width="1.5"/>
      <text x="101.8" y="117" text-anchor="middle" font-size="11" font-family="sans-serif" dominant-baseline="middle" fill="#333">la : List a</text>
    </g>
    <g class="object-node hof">
      <title>(a ⟶ List b) — called for EVERY element. Each call may return [], [b], or [b1, b2, ...] — any size.</title>
      <rect x="36.00000000000001" y="177" width="120.8" height="38" fill="#e0f2f1" stroke="#00796b" stroke-width="1.5"/>
      <text x="96.4" y="189" text-anchor="middle" font-size="9" font-style="italic" font-family="sans-serif" dominant-baseline="middle" fill="#00796b">«function»</text>
      <text x="96.4" y="203" text-anchor="middle" font-size="11" font-family="sans-serif" dominant-baseline="middle" fill="#333">f : a ⟶ List b</text>
    </g>
    <g class="object-node">
      <title>First element of List a</title>
      <rect x="221.8" y="59" width="110" height="38" fill="#f5f5f5" stroke="#616161" stroke-width="1.5"/>
      <text x="276.8" y="78" text-anchor="middle" font-size="11" font-family="sans-serif" dominant-baseline="middle" fill="#333">a1 : a</text>
    </g>
    <g class="object-node">
      <title>Second element of List a</title>
      <rect x="374.8" y="150" width="110" height="38" fill="#f5f5f5" stroke="#616161" stroke-width="1.5"/>
      <text x="429.8" y="169" text-anchor="middle" font-size="11" font-family="sans-serif" dominant-baseline="middle" fill="#333">a2 : a</text>
    </g>
    <g class="object-node">
      <title>Third element of List a</title>
      <rect x="374.8" y="98" width="110" height="38" fill="#f5f5f5" stroke="#616161" stroke-width="1.5"/>
      <text x="429.8" y="117" text-anchor="middle" font-size="11" font-family="sans-serif" dominant-baseline="middle" fill="#333">a3 : a</text>
    </g>
    <g class="object-node">
      <title>List b — all b values produced for a1. May be empty.</title>
      <rect x="879.8" y="130" width="113.60000000000001" height="38" fill="#f5f5f5" stroke="#616161" stroke-width="1.5"/>
      <text x="936.5999999999999" y="149" text-anchor="middle" font-size="11" font-family="sans-serif" dominant-baseline="middle" fill="#333">sub1 : List b</text>
    </g>
    <g class="object-node">
      <title>List b — all b values produced for a2. May be empty.</title>
      <rect x="715" y="157" width="113.60000000000001" height="38" fill="#f5f5f5" stroke="#616161" stroke-width="1.5"/>
      <text x="771.8" y="176" text-anchor="middle" font-size="11" font-family="sans-serif" dominant-baseline="middle" fill="#333">sub2 : List b</text>
    </g>
    <g class="object-node">
      <title>List b — all b values produced for a3. May be empty.</title>
      <rect x="879.8" y="185" width="113.60000000000001" height="38" fill="#f5f5f5" stroke="#616161" stroke-width="1.5"/>
      <text x="936.5999999999999" y="204" text-anchor="middle" font-size="11" font-family="sans-serif" dominant-baseline="middle" fill="#333">sub3 : List b</text>
    </g>
    <g class="object-node">
      <title>List b — the complete output: sub1 ++ sub2 ++ sub3. Non-determinism is preserved as multiple values.</title>
      <rect x="1175.4" y="140" width="110" height="38" fill="#f5f5f5" stroke="#616161" stroke-width="1.5"/>
      <text x="1230.4" y="159" text-anchor="middle" font-size="11" font-family="sans-serif" dominant-baseline="middle" fill="#333">lb : List b</text>
    </g>
  </g>
</svg>
