<?xml version="1.0" encoding="UTF-8"?>
<svg xmlns="http://www.w3.org/2000/svg" viewBox="0 0 1419.4 295" width="1419.4" height="295">
  <defs>
    <marker id="arrowFilled" viewBox="0 0 10 10" refX="0" refY="5" markerWidth="8" markerHeight="8" orient="auto-start-reverse">
      <path d="M0,1.5 L10,5 L0,8.5 L2.5,5 Z" fill="#424242"/>
    </marker>
    <marker id="arrowOpen" viewBox="0 0 10 10" refX="0" refY="5" markerWidth="8" markerHeight="8" orient="auto-start-reverse">
      <path d="M0,1.5 L10,5 L0,8.5" fill="none" stroke="#424242" stroke-width="1.25"/>
    </marker>
    <marker id="arrowHof" viewBox="0 0 10 10" refX="0" refY="5" markerWidth="8" markerHeight="8" orient="auto-start-reverse">
      <path d="M0,1.5 L10,5 L0,8.5 L2.5,5 Z" fill="#00796b"/>
    </marker>
  </defs>
  <rect width="1419.4" height="295" fill="white"/>
  <text x="709.7" y="18" text-anchor="middle" font-size="14" font-weight="bold" font-family="sans-serif" fill="#222">List bind (concatMap): apply f to every element, concatenate all results</text>
  <text x="709.7" y="35" text-anchor="middle" font-size="11" font-weight="normal" font-family="sans-serif" fill="#555">also called: flatMap, SelectMany, List.collect, &gt;&gt;=</text>
  <g transform="translate(0,44)">
    <rect x="0" y="0" width="1419.4" height="251" fill="#fafafa" stroke="#9e9e9e" stroke-width="1.5"/>
    <g class="diagram-frame-tab tab-activity">
      <path d="M0,0 L109,0 L109,12 L99,22 L0,22 Z" fill="#e0e0e0" stroke="#9e9e9e" stroke-width="1"/>
      <text x="54.5" y="12" text-anchor="middle" font-size="10" font-family="sans-serif" dominant-baseline="middle" fill="#333">«activity» bind</text>
    </g>
    <g class="edge">
      <path d="M146.0,64.0 L248.4,64.0" fill="none" stroke="#424242" stroke-width="1.5" stroke-linejoin="round" stroke-linecap="round" marker-end="url(#arrowFilled)"/>
      <text x="203.2" y="58" text-anchor="middle" dominant-baseline="middle" font-size="9" font-family="sans-serif" fill="#333" stroke="white" stroke-width="3" paint-order="stroke fill">∀ a</text>
    </g>
    <g class="edge">
      <path d="M146.0,83.0 L151.0,83.0 Q156.0,83.0 156.0,88.0 L156.0,175.0 Q156.0,181.0 162.0,181.0 L379.8,181.0 Q385.8,181.0 385.8,187.0 L385.8,208.0 Q385.8,214.0 391.8,214.0 L416.8,214.0" fill="none" stroke="#424242" stroke-width="1.5" stroke-linejoin="round" stroke-linecap="round" marker-end="url(#arrowFilled)"/>
      <text x="270.9" y="175" text-anchor="middle" dominant-baseline="middle" font-size="9" font-family="sans-serif" fill="#333" stroke="white" stroke-width="3" paint-order="stroke fill">∀ a</text>
    </g>
    <g class="edge">
      <path d="M146.0,73.0 L160.0,73.0 Q166.0,73.0 166.0,79.0 L166.0,145.0 Q166.0,151.0 172.0,151.0 L380.3,151.0 Q385.8,151.0 385.8,156.5 L385.8,156.5 Q385.8,162.0 391.3,162.0 L416.8,162.0" fill="none" stroke="#424242" stroke-width="1.5" stroke-linejoin="round" stroke-linecap="round" marker-end="url(#arrowFilled)"/>
      <text x="275.9" y="145" text-anchor="middle" dominant-baseline="middle" font-size="9" font-family="sans-serif" fill="#333" stroke="white" stroke-width="3" paint-order="stroke fill">∀ a</text>
    </g>
    <g class="edge">
      <path d="M370.4,64.0 L407.8,64.0" fill="none" stroke="#424242" stroke-width="1.5" stroke-linejoin="round" stroke-linecap="round" marker-end="url(#arrowFilled)"/>
    </g>
    <g class="edge hof-edge">
      <path d="M375.8,107.0 L380.8,107.0 Q385.8,107.0 385.8,102.0 L385.8,88.0 Q385.8,82.0 391.8,82.0 L407.8,82.0" fill="none" stroke="#00796b" stroke-width="1.5" stroke-linejoin="round" stroke-linecap="round" marker-end="url(#arrowHof)"/>
    </g>
    <g class="edge">
      <path d="M547.8,67.0 L557.8,67.0 Q561.8,67.0 561.8,63.0 L561.8,63.0 Q561.8,59.0 565.8,59.0 L931.8,59.0" fill="none" stroke="#424242" stroke-width="1.5" stroke-linejoin="round" stroke-linecap="round" marker-end="url(#arrowFilled)"/>
    </g>
    <g class="edge">
      <path d="M538.8,214.0 L555.8,214.0 Q561.8,214.0 561.8,208.0 L561.8,100.0 Q561.8,94.0 567.8,94.0 L583.8,94.0" fill="none" stroke="#424242" stroke-width="1.5" stroke-linejoin="round" stroke-linecap="round" marker-end="url(#arrowFilled)"/>
    </g>
    <g class="edge hof-edge">
      <path d="M375.8,116.0 L393.3,116.0 Q395.8,116.0 395.8,113.5 L395.8,113.5 Q395.8,111.0 398.3,111.0 L570.8,111.0 Q571.8,111.0 571.8,110.0 L571.8,110.0 Q571.8,109.0 572.8,109.0 L583.8,109.0" fill="none" stroke="#00796b" stroke-width="1.5" stroke-linejoin="round" stroke-linecap="round" marker-end="url(#arrowHof)"/>
    </g>
    <g class="edge">
      <path d="M723.8,92.0 L736.3,92.0 Q737.8,92.0 737.8,93.5 L737.8,93.5 Q737.8,95.0 739.3,95.0 L767.0,95.0" fill="none" stroke="#424242" stroke-width="1.5" stroke-linejoin="round" stroke-linecap="round" marker-end="url(#arrowFilled)"/>
    </g>
    <g class="edge">
      <path d="M538.8,162.0 L565.8,162.0 Q571.8,162.0 571.8,156.0 L571.8,153.0 Q571.8,147.0 577.8,147.0 L747.3,147.0 Q747.8,147.0 747.8,146.5 L747.8,146.5 Q747.8,146.0 748.3,146.0 L759.8,146.0" fill="none" stroke="#424242" stroke-width="1.5" stroke-linejoin="round" stroke-linecap="round" marker-end="url(#arrowFilled)"/>
    </g>
    <g class="edge hof-edge">
      <path d="M375.8,126.0 L566.8,126.0 Q571.8,126.0 571.8,131.0 L571.8,131.0 Q571.8,136.0 576.8,136.0 L731.8,136.0 Q737.8,136.0 737.8,142.0 L737.8,155.0 Q737.8,161.0 743.8,161.0 L759.8,161.0" fill="none" stroke="#00796b" stroke-width="1.5" stroke-linejoin="round" stroke-linecap="round" marker-end="url(#arrowHof)"/>
    </g>
    <g class="edge">
      <path d="M899.8,144.0 L907.8,144.0 Q913.8,144.0 913.8,138.0 L913.8,136.0 Q913.8,130.0 919.8,130.0 L931.8,130.0" fill="none" stroke="#424242" stroke-width="1.5" stroke-linejoin="round" stroke-linecap="round" marker-end="url(#arrowFilled)"/>
    </g>
    <g class="edge">
      <path d="M1057.4,59.0 L1071.4,59.0 Q1077.4,59.0 1077.4,65.0 L1077.4,76.0 Q1077.4,82.0 1083.4,82.0 L1089.4,82.0" fill="none" stroke="#424242" stroke-width="1.5" stroke-linejoin="round" stroke-linecap="round" marker-end="url(#arrowFilled)"/>
    </g>
    <g class="edge">
      <path d="M892.6,95.0 L913.3,95.0 Q913.8,95.0 913.8,94.5 L913.8,94.5 Q913.8,94.0 914.3,94.0 L1089.4,94.0" fill="none" stroke="#424242" stroke-width="1.5" stroke-linejoin="round" stroke-linecap="round" marker-end="url(#arrowFilled)"/>
    </g>
    <g class="edge">
      <path d="M1057.4,130.0 L1071.4,130.0 Q1077.4,130.0 1077.4,124.0 L1077.4,112.0 Q1077.4,106.0 1083.4,106.0 L1089.4,106.0" fill="none" stroke="#424242" stroke-width="1.5" stroke-linejoin="round" stroke-linecap="round" marker-end="url(#arrowFilled)"/>
    </g>
    <g class="edge">
      <path d="M1229.4,92.0 L1261.4,92.0" fill="none" stroke="#424242" stroke-width="1.5" stroke-linejoin="round" stroke-linecap="round" marker-end="url(#arrowFilled)"/>
    </g>
    <g class="edge">
      <path d="M543.8,83.0 L587.8,83.0" fill="none" stroke="#424242" stroke-width="1.5" stroke-linejoin="round" stroke-linecap="round" marker-end="url(#arrowOpen)" stroke-dasharray="6,4"/>
    </g>
    <g class="edge">
      <path d="M719.8,108.0 L741.8,108.0 Q747.8,108.0 747.8,114.0 L747.8,129.0 Q747.8,135.0 753.8,135.0 L763.8,135.0" fill="none" stroke="#424242" stroke-width="1.5" stroke-linejoin="round" stroke-linecap="round" marker-end="url(#arrowOpen)" stroke-dasharray="6,4"/>
    </g>
    <g class="edge">
      <path d="M895.8,160.0 L911.3,160.0 Q913.8,160.0 913.8,162.5 L913.8,162.5 Q913.8,165.0 916.3,165.0 L1061.4,165.0 Q1067.4,165.0 1067.4,159.0 L1067.4,80.0 Q1067.4,74.0 1073.4,74.0 L1093.4,74.0" fill="none" stroke="#424242" stroke-width="1.5" stroke-linejoin="round" stroke-linecap="round" marker-end="url(#arrowOpen)" stroke-dasharray="6,4"/>
    </g>
    <g class="action-node">
      <title>f(a1) — sub-list of b values for the first element (0 or more results)</title>
      <rect x="423.8" y="51" width="120" height="44" rx="12" fill="#e8f5e9" stroke="#388e3c" stroke-width="1.5"/>
      <text class="action-label" x="483.8" y="73" text-anchor="middle" font-size="11" font-family="sans-serif" dominant-baseline="middle" fill="#333">app1</text>
      <g class="pin pin-in">
        <rect x="419.8" y="61.66666666666667" width="8" height="8" fill="#e0e0e0" stroke="#424242" stroke-width="1"/>
        <text x="429.8" y="65.66666666666667" text-anchor="start" font-size="8" font-family="sans-serif" dominant-baseline="middle" fill="#555" stroke="white" stroke-width="2" paint-order="stroke fill">a_val</text>
      </g>
      <g class="pin pin-in">
        <rect x="419.8" y="76.33333333333333" width="8" height="8" fill="#e0e0e0" stroke="#424242" stroke-width="1"/>
        <text x="429.8" y="80.33333333333333" text-anchor="start" font-size="8" font-family="sans-serif" dominant-baseline="middle" fill="#555" stroke="white" stroke-width="2" paint-order="stroke fill">f</text>
      </g>
      <g class="pin pin-out">
        <rect x="539.8" y="69" width="8" height="8" fill="#e0e0e0" stroke="#424242" stroke-width="1"/>
        <text x="537.8" y="73" text-anchor="end" font-size="8" font-family="sans-serif" dominant-baseline="middle" fill="#555" stroke="white" stroke-width="2" paint-order="stroke fill">sub_b</text>
      </g>
    </g>
    <g class="action-node">
      <title>f(a2) — sub-list of b values for the second element (0 or more results)</title>
      <rect x="599.8" y="76" width="120" height="44" rx="12" fill="#e8f5e9" stroke="#388e3c" stroke-width="1.5"/>
      <text class="action-label" x="659.8" y="98" text-anchor="middle" font-size="11" font-family="sans-serif" dominant-baseline="middle" fill="#333">app2</text>
      <g class="pin pin-in">
        <rect x="595.8" y="86.66666666666667" width="8" height="8" fill="#e0e0e0" stroke="#424242" stroke-width="1"/>
        <text x="605.8" y="90.66666666666667" text-anchor="start" font-size="8" font-family="sans-serif" dominant-baseline="middle" fill="#555" stroke="white" stroke-width="2" paint-order="stroke fill">a_val</text>
      </g>
      <g class="pin pin-in">
        <rect x="595.8" y="101.33333333333333" width="8" height="8" fill="#e0e0e0" stroke="#424242" stroke-width="1"/>
        <text x="605.8" y="105.33333333333333" text-anchor="start" font-size="8" font-family="sans-serif" dominant-baseline="middle" fill="#555" stroke="white" stroke-width="2" paint-order="stroke fill">f</text>
      </g>
      <g class="pin pin-out">
        <rect x="715.8" y="94" width="8" height="8" fill="#e0e0e0" stroke="#424242" stroke-width="1"/>
        <text x="713.8" y="98" text-anchor="end" font-size="8" font-family="sans-serif" dominant-baseline="middle" fill="#555" stroke="white" stroke-width="2" paint-order="stroke fill">sub_b</text>
      </g>
    </g>
    <g class="action-node">
      <title>f(a3) — sub-list of b values for the third element (0 or more results)</title>
      <rect x="775.8" y="128" width="120" height="44" rx="12" fill="#e8f5e9" stroke="#388e3c" stroke-width="1.5"/>
      <text class="action-label" x="835.8" y="150" text-anchor="middle" font-size="11" font-family="sans-serif" dominant-baseline="middle" fill="#333">app3</text>
      <g class="pin pin-in">
        <rect x="771.8" y="138.66666666666666" width="8" height="8" fill="#e0e0e0" stroke="#424242" stroke-width="1"/>
        <text x="781.8" y="142.66666666666666" text-anchor="start" font-size="8" font-family="sans-serif" dominant-baseline="middle" fill="#555" stroke="white" stroke-width="2" paint-order="stroke fill">a_val</text>
      </g>
      <g class="pin pin-in">
        <rect x="771.8" y="153.33333333333334" width="8" height="8" fill="#e0e0e0" stroke="#424242" stroke-width="1"/>
        <text x="781.8" y="157.33333333333334" text-anchor="start" font-size="8" font-family="sans-serif" dominant-baseline="middle" fill="#555" stroke="white" stroke-width="2" paint-order="stroke fill">f</text>
      </g>
      <g class="pin pin-out">
        <rect x="891.8" y="146" width="8" height="8" fill="#e0e0e0" stroke="#424242" stroke-width="1"/>
        <text x="889.8" y="150" text-anchor="end" font-size="8" font-family="sans-serif" dominant-baseline="middle" fill="#555" stroke="white" stroke-width="2" paint-order="stroke fill">sub_b</text>
      </g>
    </g>
    <g class="action-node">
      <title>Concatenate: sub1 ++ sub2 ++ sub3. This is the key step: all branches merged into one flat List b.</title>
      <rect x="1105.4" y="70" width="120" height="44" rx="12" fill="#e8f5e9" stroke="#388e3c" stroke-width="1.5"/>
      <text class="action-label" x="1165.4" y="92" text-anchor="middle" font-size="11" font-family="sans-serif" dominant-baseline="middle" fill="#333">flatten</text>
      <g class="pin pin-in">
        <rect x="1101.4" y="77" width="8" height="8" fill="#e0e0e0" stroke="#424242" stroke-width="1"/>
        <text x="1111.4" y="81" text-anchor="start" font-size="8" font-family="sans-serif" dominant-baseline="middle" fill="#555" stroke="white" stroke-width="2" paint-order="stroke fill">sub1</text>
      </g>
      <g class="pin pin-in">
        <rect x="1101.4" y="88" width="8" height="8" fill="#e0e0e0" stroke="#424242" stroke-width="1"/>
        <text x="1111.4" y="92" text-anchor="start" font-size="8" font-family="sans-serif" dominant-baseline="middle" fill="#555" stroke="white" stroke-width="2" paint-order="stroke fill">sub2</text>
      </g>
      <g class="pin pin-in">
        <rect x="1101.4" y="99" width="8" height="8" fill="#e0e0e0" stroke="#424242" stroke-width="1"/>
        <text x="1111.4" y="103" text-anchor="start" font-size="8" font-family="sans-serif" dominant-baseline="middle" fill="#555" stroke="white" stroke-width="2" paint-order="stroke fill">sub3</text>
      </g>
      <g class="pin pin-out">
        <rect x="1221.4" y="88" width="8" height="8" fill="#e0e0e0" stroke="#424242" stroke-width="1"/>
        <text x="1219.4" y="92" text-anchor="end" font-size="8" font-family="sans-serif" dominant-baseline="middle" fill="#555" stroke="white" stroke-width="2" paint-order="stroke fill">flat</text>
      </g>
    </g>
    <g class="object-node">
      <title>List a — every element is independently processed. Empty list short-circuits: no elements, no calls.</title>
      <rect x="36" y="54" width="110" height="38" fill="#f5f5f5" stroke="#616161" stroke-width="1.5"/>
      <text x="91" y="73" text-anchor="middle" font-size="11" font-family="sans-serif" dominant-baseline="middle" fill="#333">la : List a</text>
    </g>
    <g class="object-node hof">
      <title>(a ⟶ List b) — called for EVERY element. Each call may return [], [b], or [b1, b2, ...] — any size.</title>
      <rect x="254.99999999999997" y="97" width="120.8" height="38" fill="#e0f2f1" stroke="#00796b" stroke-width="1.5"/>
      <text x="315.4" y="109" text-anchor="middle" font-size="9" font-style="italic" font-family="sans-serif" dominant-baseline="middle" fill="#00796b">«function»</text>
      <text x="315.4" y="123" text-anchor="middle" font-size="11" font-family="sans-serif" dominant-baseline="middle" fill="#333">f : a ⟶ List b</text>
    </g>
    <g class="object-node">
      <title>First element of List a</title>
      <rect x="260.4" y="45" width="110" height="38" fill="#f5f5f5" stroke="#616161" stroke-width="1.5"/>
      <text x="315.4" y="64" text-anchor="middle" font-size="11" font-family="sans-serif" dominant-baseline="middle" fill="#333">a1 : a</text>
    </g>
    <g class="object-node">
      <title>Second element of List a</title>
      <rect x="428.8" y="195" width="110" height="38" fill="#f5f5f5" stroke="#616161" stroke-width="1.5"/>
      <text x="483.8" y="214" text-anchor="middle" font-size="11" font-family="sans-serif" dominant-baseline="middle" fill="#333">a2 : a</text>
    </g>
    <g class="object-node">
      <title>Third element of List a</title>
      <rect x="428.8" y="143" width="110" height="38" fill="#f5f5f5" stroke="#616161" stroke-width="1.5"/>
      <text x="483.8" y="162" text-anchor="middle" font-size="11" font-family="sans-serif" dominant-baseline="middle" fill="#333">a3 : a</text>
    </g>
    <g class="object-node">
      <title>List b — all b values produced for a1. May be empty.</title>
      <rect x="943.8" y="40" width="113.60000000000001" height="38" fill="#f5f5f5" stroke="#616161" stroke-width="1.5"/>
      <text x="1000.5999999999999" y="59" text-anchor="middle" font-size="11" font-family="sans-serif" dominant-baseline="middle" fill="#333">sub1 : List b</text>
    </g>
    <g class="object-node">
      <title>List b — all b values produced for a2. May be empty.</title>
      <rect x="779" y="76" width="113.60000000000001" height="38" fill="#f5f5f5" stroke="#616161" stroke-width="1.5"/>
      <text x="835.8" y="95" text-anchor="middle" font-size="11" font-family="sans-serif" dominant-baseline="middle" fill="#333">sub2 : List b</text>
    </g>
    <g class="object-node">
      <title>List b — all b values produced for a3. May be empty.</title>
      <rect x="943.8" y="111" width="113.60000000000001" height="38" fill="#f5f5f5" stroke="#616161" stroke-width="1.5"/>
      <text x="1000.5999999999999" y="130" text-anchor="middle" font-size="11" font-family="sans-serif" dominant-baseline="middle" fill="#333">sub3 : List b</text>
    </g>
    <g class="object-node">
      <title>List b — the complete output: sub1 ++ sub2 ++ sub3. Non-determinism is preserved as multiple values.</title>
      <rect x="1273.4" y="73" width="110" height="38" fill="#f5f5f5" stroke="#616161" stroke-width="1.5"/>
      <text x="1328.4" y="92" text-anchor="middle" font-size="11" font-family="sans-serif" dominant-baseline="middle" fill="#333">lb : List b</text>
    </g>
  </g>
</svg>
