<?xml version="1.0" encoding="UTF-8"?>
<svg xmlns="http://www.w3.org/2000/svg" viewBox="0 0 536.6 228" width="536.6" height="228">
  <defs>
    <marker id="arrowFilled" viewBox="0 0 10 10" refX="0" refY="5" markerWidth="8" markerHeight="8" orient="auto-start-reverse">
      <path d="M0,1.5 L10,5 L0,8.5 L2.5,5 Z" fill="#424242"/>
    </marker>
    <marker id="arrowOpen" viewBox="0 0 10 10" refX="0" refY="5" markerWidth="8" markerHeight="8" orient="auto-start-reverse">
      <path d="M0,1.5 L10,5 L0,8.5" fill="none" stroke="#424242" stroke-width="1.25"/>
    </marker>
    <marker id="arrowHof" viewBox="0 0 10 10" refX="0" refY="5" markerWidth="8" markerHeight="8" orient="auto-start-reverse">
      <path d="M0,1.5 L10,5 L0,8.5 L2.5,5 Z" fill="#00796b"/>
    </marker>
  </defs>
  <rect width="536.6" height="228" fill="white"/>
  <text x="268.3" y="18" text-anchor="middle" font-size="14" font-weight="bold" font-family="sans-serif" fill="#222">Partial application and currying</text>
  <g transform="translate(0,28) scale(1)">
    <rect x="0" y="0" width="536.6" height="200" fill="#fafafa" stroke="#9e9e9e" stroke-width="1.5"/>
    <g class="diagram-frame-tab tab-activity">
      <path d="M0,0 L164.8,0 L164.8,12 L154.8,22 L0,22 Z" fill="#e0e0e0" stroke="#9e9e9e" stroke-width="1"/>
      <text x="82.4" y="12" text-anchor="middle" font-size="10" font-family="sans-serif" dominant-baseline="middle" fill="#333">«activity» partial apply</text>
    </g>
    <g class="edge hof-edge">
      <path d="M149.6,59.0 L163.6,59.0 Q169.6,59.0 169.6,65.0 L169.6,111.0 Q169.6,117.0 175.6,117.0 L230.6,117.0" fill="none" stroke="#00796b" stroke-width="1.5" stroke-linejoin="round" stroke-linecap="round" marker-end="url(#arrowHof)"/>
      <text x="204.10000000000002" y="111" text-anchor="middle" dominant-baseline="middle" font-size="9" font-family="sans-serif" fill="#333">apply a</text>
    </g>
    <g class="edge">
      <path d="M149.6,163.0 L222.6,163.0 Q228.6,163.0 228.6,157.0 L228.6,136.0 Q228.6,135.0 229.6,135.0 L230.6,135.0" fill="none" stroke="#424242" stroke-width="1.5" stroke-linejoin="round" stroke-linecap="round" marker-end="url(#arrowFilled)"/>
    </g>
    <g class="edge">
      <path d="M370.6,126.0 L378.6,126.0" fill="none" stroke="#424242" stroke-width="1.5" stroke-linejoin="round" stroke-linecap="round" marker-end="url(#arrowFilled)"/>
    </g>
    <g class="edge hof-edge">
      <path d="M149.6,59.0 L230.6,59.0" fill="none" stroke="#00796b" stroke-width="1.5" stroke-linejoin="round" stroke-linecap="round" marker-end="url(#arrowHof)"/>
      <text x="194.10000000000002" y="53" text-anchor="middle" dominant-baseline="middle" font-size="9" font-family="sans-serif" fill="#333">apply b</text>
    </g>
    <g class="edge">
      <path d="M149.6,111.0 L154.6,111.0 Q159.6,111.0 159.6,106.0 L159.6,104.0 Q159.6,98.0 165.6,98.0 L222.6,98.0 Q228.6,98.0 228.6,92.0 L228.6,78.0 Q228.6,77.0 229.6,77.0 L230.6,77.0" fill="none" stroke="#424242" stroke-width="1.5" stroke-linejoin="round" stroke-linecap="round" marker-end="url(#arrowFilled)"/>
    </g>
    <g class="edge">
      <path d="M370.6,68.0 L378.6,68.0" fill="none" stroke="#424242" stroke-width="1.5" stroke-linejoin="round" stroke-linecap="round" marker-end="url(#arrowFilled)"/>
    </g>
    <g class="action-node">
      <title>Partially apply a — captures a, returns b ⟶ c</title>
      <rect x="246.60000000000002" y="104" width="120" height="44" rx="12" fill="#e8f5e9" stroke="#388e3c" stroke-width="1.5"/>
      <text class="action-label" x="306.6" y="126" text-anchor="middle" font-size="11" font-family="sans-serif" dominant-baseline="middle" fill="#333">applyA</text>
      <g class="pin pin-in">
        <rect x="242.60000000000002" y="114.66666666666667" width="8" height="8" fill="#e0e0e0" stroke="#424242" stroke-width="1"/>
        <text x="252.60000000000002" y="118.66666666666667" text-anchor="start" dominant-baseline="middle" font-size="8" font-family="sans-serif" fill="#555">f</text>
      </g>
      <g class="pin pin-in">
        <rect x="242.60000000000002" y="129.33333333333334" width="8" height="8" fill="#e0e0e0" stroke="#424242" stroke-width="1"/>
        <text x="252.60000000000002" y="133.33333333333334" text-anchor="start" dominant-baseline="middle" font-size="8" font-family="sans-serif" fill="#555">x</text>
      </g>
      <g class="pin pin-out">
        <rect x="362.6" y="122" width="8" height="8" fill="#e0e0e0" stroke="#424242" stroke-width="1"/>
        <text x="360.6" y="126" text-anchor="end" dominant-baseline="middle" font-size="8" font-family="sans-serif" fill="#555">f1</text>
      </g>
    </g>
    <g class="action-node">
      <title>Partially apply b — captures b, returns a ⟶ c</title>
      <rect x="246.60000000000002" y="46" width="120" height="44" rx="12" fill="#e8f5e9" stroke="#388e3c" stroke-width="1.5"/>
      <text class="action-label" x="306.6" y="68" text-anchor="middle" font-size="11" font-family="sans-serif" dominant-baseline="middle" fill="#333">applyB</text>
      <g class="pin pin-in">
        <rect x="242.60000000000002" y="56.666666666666664" width="8" height="8" fill="#e0e0e0" stroke="#424242" stroke-width="1"/>
        <text x="252.60000000000002" y="60.666666666666664" text-anchor="start" dominant-baseline="middle" font-size="8" font-family="sans-serif" fill="#555">f</text>
      </g>
      <g class="pin pin-in">
        <rect x="242.60000000000002" y="71.33333333333333" width="8" height="8" fill="#e0e0e0" stroke="#424242" stroke-width="1"/>
        <text x="252.60000000000002" y="75.33333333333333" text-anchor="start" dominant-baseline="middle" font-size="8" font-family="sans-serif" fill="#555">x</text>
      </g>
      <g class="pin pin-out">
        <rect x="362.6" y="64" width="8" height="8" fill="#e0e0e0" stroke="#424242" stroke-width="1"/>
        <text x="360.6" y="68" text-anchor="end" dominant-baseline="middle" font-size="8" font-family="sans-serif" fill="#555">f1</text>
      </g>
    </g>
    <g class="object-node hof">
      <title>f2 :: (a,b) ⟶ c — original function, flowing in as a data token (HOF)</title>
      <rect x="36.00000000000001" y="40" width="113.60000000000001" height="38" fill="#e0f2f1" stroke="#00796b" stroke-width="1.5"/>
      <text x="92.80000000000001" y="52" text-anchor="middle" font-size="9" font-style="italic" font-family="sans-serif" dominant-baseline="middle" fill="#00796b">«function»</text>
      <text x="92.80000000000001" y="66" text-anchor="middle" font-size="11" font-family="sans-serif" dominant-baseline="middle" fill="#333">f : (a,b) ⟶ c</text>
    </g>
    <g class="object-node">
      <rect x="39.60000000000001" y="144" width="110" height="38" fill="#f5f5f5" stroke="#616161" stroke-width="1.5"/>
      <text x="94.60000000000001" y="163" text-anchor="middle" font-size="11" font-family="sans-serif" dominant-baseline="middle" fill="#333">xa : a</text>
    </g>
    <g class="object-node">
      <rect x="39.60000000000001" y="92" width="110" height="38" fill="#f5f5f5" stroke="#616161" stroke-width="1.5"/>
      <text x="94.60000000000001" y="111" text-anchor="middle" font-size="11" font-family="sans-serif" dominant-baseline="middle" fill="#333">xb : b</text>
    </g>
    <g class="object-node">
      <title>f1a :: b ⟶ c — specialised function</title>
      <rect x="390.6" y="107" width="110" height="38" fill="#f5f5f5" stroke="#616161" stroke-width="1.5"/>
      <text x="445.6" y="126" text-anchor="middle" font-size="11" font-family="sans-serif" dominant-baseline="middle" fill="#333">f1a : b ⟶ c</text>
    </g>
    <g class="object-node">
      <title>f1b :: a ⟶ c — specialised function</title>
      <rect x="390.6" y="49" width="110" height="38" fill="#f5f5f5" stroke="#616161" stroke-width="1.5"/>
      <text x="445.6" y="68" text-anchor="middle" font-size="11" font-family="sans-serif" dominant-baseline="middle" fill="#333">f1b : a ⟶ c</text>
    </g>
  </g>
</svg>
