<?xml version="1.0" encoding="UTF-8"?>
<svg xmlns="http://www.w3.org/2000/svg" viewBox="0 0 533 228" width="533" height="228">
  <defs>
    <marker id="arrowFilled" viewBox="0 0 10 10" refX="0" refY="5" markerWidth="8" markerHeight="8" orient="auto-start-reverse">
      <path d="M0,1.5 L10,5 L0,8.5 L2.5,5 Z" fill="#424242"/>
    </marker>
    <marker id="arrowOpen" viewBox="0 0 10 10" refX="0" refY="5" markerWidth="8" markerHeight="8" orient="auto-start-reverse">
      <path d="M0,1.5 L10,5 L0,8.5" fill="none" stroke="#424242" stroke-width="1.25"/>
    </marker>
    <marker id="arrowHof" viewBox="0 0 10 10" refX="0" refY="5" markerWidth="8" markerHeight="8" orient="auto-start-reverse">
      <path d="M0,1.5 L10,5 L0,8.5 L2.5,5 Z" fill="#00796b"/>
    </marker>
  </defs>
  <rect width="533" height="228" fill="white"/>
  <text x="266.5" y="18" text-anchor="middle" font-size="14" font-weight="bold" font-family="sans-serif" fill="#222">Partial application and currying</text>
  <g transform="translate(0,28) scale(1)">
    <rect x="0" y="0" width="533" height="200" fill="#fafafa" stroke="#9e9e9e" stroke-width="1.5"/>
    <g class="diagram-frame-tab tab-activity">
      <path d="M0,0 L164.8,0 L164.8,12 L154.8,22 L0,22 Z" fill="#e0e0e0" stroke="#9e9e9e" stroke-width="1"/>
      <text x="82.4" y="12" text-anchor="middle" font-size="10" font-family="sans-serif" dominant-baseline="middle" fill="#333">«activity» partial apply</text>
    </g>
    <g class="edge hof-edge">
      <path d="M146.0,59.0 L160.0,59.0 Q166.0,59.0 166.0,65.0 L166.0,111.0 Q166.0,117.0 172.0,117.0 L223.0,117.0" fill="none" stroke="#00796b" stroke-width="1.5" stroke-linejoin="round" stroke-linecap="round" marker-end="url(#arrowHof)"/>
      <text x="200.5" y="111" text-anchor="middle" dominant-baseline="middle" font-size="9" font-family="sans-serif" fill="#333">apply a</text>
    </g>
    <g class="edge">
      <path d="M146.0,163.0 L219.0,163.0 Q225.0,163.0 225.0,157.0 L225.0,135.0 L225.0,135.0" fill="none" stroke="#424242" stroke-width="1.5" stroke-linejoin="round" stroke-linecap="round" marker-end="url(#arrowFilled)"/>
    </g>
    <g class="edge">
      <path d="M367.0,126.0 L375.0,126.0" fill="none" stroke="#424242" stroke-width="1.5" stroke-linejoin="round" stroke-linecap="round" marker-end="url(#arrowFilled)"/>
    </g>
    <g class="edge hof-edge">
      <path d="M146.0,59.0 L223.0,59.0" fill="none" stroke="#00796b" stroke-width="1.5" stroke-linejoin="round" stroke-linecap="round" marker-end="url(#arrowHof)"/>
      <text x="190.5" y="53" text-anchor="middle" dominant-baseline="middle" font-size="9" font-family="sans-serif" fill="#333">apply b</text>
    </g>
    <g class="edge">
      <path d="M146.0,111.0 L151.0,111.0 Q156.0,111.0 156.0,106.0 L156.0,104.0 Q156.0,98.0 162.0,98.0 L219.0,98.0 Q225.0,98.0 225.0,92.0 L225.0,77.0 L225.0,77.0" fill="none" stroke="#424242" stroke-width="1.5" stroke-linejoin="round" stroke-linecap="round" marker-end="url(#arrowFilled)"/>
    </g>
    <g class="edge">
      <path d="M367.0,68.0 L375.0,68.0" fill="none" stroke="#424242" stroke-width="1.5" stroke-linejoin="round" stroke-linecap="round" marker-end="url(#arrowFilled)"/>
    </g>
    <g class="action-node">
      <title>Partially apply a — captures a, returns b ⟶ c</title>
      <rect x="243" y="104" width="120" height="44" rx="12" fill="#e8f5e9" stroke="#388e3c" stroke-width="1.5"/>
      <text class="action-label" x="303" y="126" text-anchor="middle" font-size="11" font-family="sans-serif" dominant-baseline="middle" fill="#333">applyA</text>
      <g class="pin pin-in">
        <rect x="239" y="114.66666666666667" width="8" height="8" fill="#e0e0e0" stroke="#424242" stroke-width="1"/>
        <text x="249" y="118.66666666666667" text-anchor="start" dominant-baseline="middle" font-size="8" font-family="sans-serif" fill="#555">f</text>
      </g>
      <g class="pin pin-in">
        <rect x="239" y="129.33333333333334" width="8" height="8" fill="#e0e0e0" stroke="#424242" stroke-width="1"/>
        <text x="249" y="133.33333333333334" text-anchor="start" dominant-baseline="middle" font-size="8" font-family="sans-serif" fill="#555">x</text>
      </g>
      <g class="pin pin-out">
        <rect x="359" y="122" width="8" height="8" fill="#e0e0e0" stroke="#424242" stroke-width="1"/>
        <text x="357" y="126" text-anchor="end" dominant-baseline="middle" font-size="8" font-family="sans-serif" fill="#555">f1</text>
      </g>
    </g>
    <g class="action-node">
      <title>Partially apply b — captures b, returns a ⟶ c</title>
      <rect x="243" y="46" width="120" height="44" rx="12" fill="#e8f5e9" stroke="#388e3c" stroke-width="1.5"/>
      <text class="action-label" x="303" y="68" text-anchor="middle" font-size="11" font-family="sans-serif" dominant-baseline="middle" fill="#333">applyB</text>
      <g class="pin pin-in">
        <rect x="239" y="56.666666666666664" width="8" height="8" fill="#e0e0e0" stroke="#424242" stroke-width="1"/>
        <text x="249" y="60.666666666666664" text-anchor="start" dominant-baseline="middle" font-size="8" font-family="sans-serif" fill="#555">f</text>
      </g>
      <g class="pin pin-in">
        <rect x="239" y="71.33333333333333" width="8" height="8" fill="#e0e0e0" stroke="#424242" stroke-width="1"/>
        <text x="249" y="75.33333333333333" text-anchor="start" dominant-baseline="middle" font-size="8" font-family="sans-serif" fill="#555">x</text>
      </g>
      <g class="pin pin-out">
        <rect x="359" y="64" width="8" height="8" fill="#e0e0e0" stroke="#424242" stroke-width="1"/>
        <text x="357" y="68" text-anchor="end" dominant-baseline="middle" font-size="8" font-family="sans-serif" fill="#555">f1</text>
      </g>
    </g>
    <g class="object-node hof">
      <title>f2 :: (a,b) ⟶ c — original function, flowing in as a data token (HOF)</title>
      <rect x="36" y="40" width="110" height="38" fill="#e0f2f1" stroke="#00796b" stroke-width="1.5"/>
      <text x="91" y="52" text-anchor="middle" font-size="9" font-style="italic" font-family="sans-serif" dominant-baseline="middle" fill="#00796b">«function»</text>
      <text x="91" y="66" text-anchor="middle" font-size="11" font-family="sans-serif" dominant-baseline="middle" fill="#333">(a,b) ⟶ c</text>
    </g>
    <g class="object-node">
      <rect x="36" y="144" width="110" height="38" fill="#f5f5f5" stroke="#616161" stroke-width="1.5"/>
      <text x="91" y="163" text-anchor="middle" font-size="11" font-family="sans-serif" dominant-baseline="middle" fill="#333">a</text>
    </g>
    <g class="object-node">
      <rect x="36" y="92" width="110" height="38" fill="#f5f5f5" stroke="#616161" stroke-width="1.5"/>
      <text x="91" y="111" text-anchor="middle" font-size="11" font-family="sans-serif" dominant-baseline="middle" fill="#333">b</text>
    </g>
    <g class="object-node">
      <title>f1a :: b ⟶ c — specialised function</title>
      <rect x="387" y="107" width="110" height="38" fill="#f5f5f5" stroke="#616161" stroke-width="1.5"/>
      <text x="442" y="126" text-anchor="middle" font-size="11" font-family="sans-serif" dominant-baseline="middle" fill="#333">b ⟶ c</text>
    </g>
    <g class="object-node">
      <title>f1b :: a ⟶ c — specialised function</title>
      <rect x="387" y="49" width="110" height="38" fill="#f5f5f5" stroke="#616161" stroke-width="1.5"/>
      <text x="442" y="68" text-anchor="middle" font-size="11" font-family="sans-serif" dominant-baseline="middle" fill="#333">a ⟶ c</text>
    </g>
  </g>
</svg>
