<?xml version="1.0" encoding="UTF-8"?>
<svg xmlns="http://www.w3.org/2000/svg" viewBox="0 0 705 197" width="705" height="197">
  <defs>
    <marker id="arrowFilled" viewBox="0 0 10 10" refX="0" refY="5" markerWidth="8" markerHeight="8" orient="auto-start-reverse">
      <path d="M0,1.5 L10,5 L0,8.5 L2.5,5 Z" fill="#424242"/>
    </marker>
    <marker id="arrowOpen" viewBox="0 0 10 10" refX="0" refY="5" markerWidth="8" markerHeight="8" orient="auto-start-reverse">
      <path d="M0,1.5 L10,5 L0,8.5" fill="none" stroke="#424242" stroke-width="1.25"/>
    </marker>
    <marker id="arrowHof" viewBox="0 0 10 10" refX="0" refY="5" markerWidth="8" markerHeight="8" orient="auto-start-reverse">
      <path d="M0,1.5 L10,5 L0,8.5 L2.5,5 Z" fill="#00796b"/>
    </marker>
  </defs>
  <rect width="705" height="197" fill="white"/>
  <text x="352.5" y="18" text-anchor="middle" font-size="14" font-weight="bold" font-family="sans-serif" fill="#222">Without bind: config passed into every function explicitly</text>
  <g transform="translate(0,28) scale(1)">
    <rect x="0" y="0" width="705" height="169" fill="#fafafa" stroke="#9e9e9e" stroke-width="1.5"/>
    <g class="diagram-frame-tab tab-activity">
      <path d="M0,0 L133.8,0 L133.8,12 L123.80000000000001,22 L0,22 Z" fill="#e0e0e0" stroke="#9e9e9e" stroke-width="1"/>
      <text x="66.9" y="12" text-anchor="middle" font-size="10" font-family="sans-serif" dominant-baseline="middle" fill="#333">«activity» buildUrl</text>
    </g>
    <g class="edge">
      <path d="M146.0,71.0 L158.0,71.0" fill="none" stroke="#424242" stroke-width="1.5" stroke-linejoin="round" stroke-linecap="round" marker-end="url(#arrowFilled)"/>
    </g>
    <g class="edge">
      <path d="M146.0,71.0 L151.0,71.0 Q156.0,71.0 156.0,76.0 L156.0,128.0 Q156.0,129.0 157.0,129.0 L158.0,129.0" fill="none" stroke="#424242" stroke-width="1.5" stroke-linejoin="round" stroke-linecap="round" marker-end="url(#arrowFilled)"/>
    </g>
    <g class="edge">
      <path d="M146.0,71.0 L151.0,71.0 Q156.0,71.0 156.0,66.0 L156.0,46.0 Q156.0,40.0 162.0,40.0 L391.0,40.0 Q397.0,40.0 397.0,46.0 L397.0,57.0 Q397.0,58.0 398.0,58.0 L399.0,58.0" fill="none" stroke="#424242" stroke-width="1.5" stroke-linejoin="round" stroke-linecap="round" marker-end="url(#arrowFilled)"/>
    </g>
    <g class="edge">
      <path d="M298.0,71.0 L399.0,71.0" fill="none" stroke="#424242" stroke-width="1.5" stroke-linejoin="round" stroke-linecap="round" marker-end="url(#arrowFilled)"/>
      <text x="354.5" y="65" text-anchor="middle" dominant-baseline="middle" font-size="9" font-family="sans-serif" fill="#333">host : String</text>
    </g>
    <g class="edge">
      <path d="M298.0,129.0 L391.0,129.0 Q397.0,129.0 397.0,123.0 L397.0,85.0 Q397.0,84.0 398.0,84.0 L399.0,84.0" fill="none" stroke="#424242" stroke-width="1.5" stroke-linejoin="round" stroke-linecap="round" marker-end="url(#arrowFilled)"/>
      <text x="349.5" y="123" text-anchor="middle" dominant-baseline="middle" font-size="9" font-family="sans-serif" fill="#333">port : Int</text>
    </g>
    <g class="edge">
      <path d="M539.0,71.0 L547.0,71.0" fill="none" stroke="#424242" stroke-width="1.5" stroke-linejoin="round" stroke-linecap="round" marker-end="url(#arrowFilled)"/>
    </g>
    <g class="action-node">
      <title>getHost(config) — needs only config.host but takes the whole record.</title>
      <rect x="174" y="49" width="120" height="44" rx="12" fill="#e8f5e9" stroke="#388e3c" stroke-width="1.5"/>
      <text class="action-label" x="234" y="71" text-anchor="middle" font-size="11" font-family="sans-serif" dominant-baseline="middle" fill="#333">getHost</text>
      <g class="pin pin-in">
        <rect x="170" y="67" width="8" height="8" fill="#e0e0e0" stroke="#424242" stroke-width="1"/>
        <text x="180" y="71" text-anchor="start" font-size="8" font-family="sans-serif" dominant-baseline="middle" fill="#555">cfg</text>
      </g>
      <g class="pin pin-out">
        <rect x="290" y="67" width="8" height="8" fill="#e0e0e0" stroke="#424242" stroke-width="1"/>
      </g>
    </g>
    <g class="action-node">
      <title>getPort(config) — needs only config.port but still receives the whole record.</title>
      <rect x="174" y="107" width="120" height="44" rx="12" fill="#e8f5e9" stroke="#388e3c" stroke-width="1.5"/>
      <text class="action-label" x="234" y="129" text-anchor="middle" font-size="11" font-family="sans-serif" dominant-baseline="middle" fill="#333">getPort</text>
      <g class="pin pin-in">
        <rect x="170" y="125" width="8" height="8" fill="#e0e0e0" stroke="#424242" stroke-width="1"/>
        <text x="180" y="129" text-anchor="start" font-size="8" font-family="sans-serif" dominant-baseline="middle" fill="#555">cfg</text>
      </g>
      <g class="pin pin-out">
        <rect x="290" y="125" width="8" height="8" fill="#e0e0e0" stroke="#424242" stroke-width="1"/>
      </g>
    </g>
    <g class="action-node">
      <title>buildUrl(config, host, port) — receives config a third time. Adding a new helper repeats the plumbing.</title>
      <rect x="415" y="49" width="120" height="44" rx="12" fill="#e8f5e9" stroke="#388e3c" stroke-width="1.5"/>
      <text class="action-label" x="475" y="71" text-anchor="middle" font-size="11" font-family="sans-serif" dominant-baseline="middle" fill="#333">buildUrl</text>
      <g class="pin pin-in">
        <rect x="411" y="56" width="8" height="8" fill="#e0e0e0" stroke="#424242" stroke-width="1"/>
        <text x="421" y="60" text-anchor="start" font-size="8" font-family="sans-serif" dominant-baseline="middle" fill="#555">cfg</text>
      </g>
      <g class="pin pin-in">
        <rect x="411" y="67" width="8" height="8" fill="#e0e0e0" stroke="#424242" stroke-width="1"/>
        <text x="421" y="71" text-anchor="start" font-size="8" font-family="sans-serif" dominant-baseline="middle" fill="#555">host</text>
      </g>
      <g class="pin pin-in">
        <rect x="411" y="78" width="8" height="8" fill="#e0e0e0" stroke="#424242" stroke-width="1"/>
        <text x="421" y="82" text-anchor="start" font-size="8" font-family="sans-serif" dominant-baseline="middle" fill="#555">portNum</text>
      </g>
      <g class="pin pin-out">
        <rect x="531" y="67" width="8" height="8" fill="#e0e0e0" stroke="#424242" stroke-width="1"/>
      </g>
    </g>
    <g class="object-node">
      <title>Config — the environment record. Every helper requires it as an argument.</title>
      <rect x="36" y="52" width="110" height="38" fill="#f5f5f5" stroke="#616161" stroke-width="1.5"/>
      <text x="91" y="71" text-anchor="middle" font-size="11" font-family="sans-serif" dominant-baseline="middle" fill="#333">cfg : Config</text>
    </g>
    <g class="object-node">
      <title>URL — the result. Most of the signatures involved were boilerplate.</title>
      <rect x="559" y="52" width="110" height="38" fill="#f5f5f5" stroke="#616161" stroke-width="1.5"/>
      <text x="614" y="71" text-anchor="middle" font-size="11" font-family="sans-serif" dominant-baseline="middle" fill="#333">url : URL</text>
    </g>
  </g>
</svg>
