<?xml version="1.0" encoding="UTF-8"?>
<svg xmlns="http://www.w3.org/2000/svg" viewBox="0 0 1111.6 239" width="1111.6" height="239">
  <defs>
    <marker id="arrowFilled" viewBox="0 0 10 10" refX="0" refY="5" markerWidth="8" markerHeight="8" orient="auto-start-reverse">
      <path d="M0,1.5 L10,5 L0,8.5 L2.5,5 Z" fill="#424242"/>
    </marker>
    <marker id="arrowOpen" viewBox="0 0 10 10" refX="0" refY="5" markerWidth="8" markerHeight="8" orient="auto-start-reverse">
      <path d="M0,1.5 L10,5 L0,8.5" fill="none" stroke="#424242" stroke-width="1.25"/>
    </marker>
    <marker id="arrowHof" viewBox="0 0 10 10" refX="0" refY="5" markerWidth="8" markerHeight="8" orient="auto-start-reverse">
      <path d="M0,1.5 L10,5 L0,8.5 L2.5,5 Z" fill="#00796b"/>
    </marker>
  </defs>
  <rect width="1111.6" height="239" fill="white"/>
  <text x="555.8" y="18" text-anchor="middle" font-size="14" font-weight="bold" font-family="sans-serif" fill="#222">Reader bind: same env r supplied to ra(r) and to f(a)(r)</text>
  <text x="555.8" y="35" text-anchor="middle" font-size="11" font-weight="normal" font-family="sans-serif" fill="#555">never modified</text>
  <text x="555.8" y="51" text-anchor="middle" font-size="11" font-weight="normal" font-family="sans-serif" fill="#555">also called: flatMap, &gt;&gt;=</text>
  <g transform="translate(0,60) scale(1)">
    <rect x="0" y="0" width="1111.6" height="179" fill="#fafafa" stroke="#9e9e9e" stroke-width="1.5"/>
    <g class="diagram-frame-tab tab-activity">
      <path d="M0,0 L109,0 L109,12 L99,22 L0,22 Z" fill="#e0e0e0" stroke="#9e9e9e" stroke-width="1"/>
      <text x="54.5" y="12" text-anchor="middle" font-size="10" font-family="sans-serif" dominant-baseline="middle" fill="#333">«activity» bind</text>
    </g>
    <g class="edge">
      <path d="M164.0,59.0 L176.0,59.0" fill="none" stroke="#424242" stroke-width="1.5" stroke-linejoin="round" stroke-linecap="round" marker-end="url(#arrowFilled)"/>
    </g>
    <g class="edge">
      <path d="M164.0,142.0 L169.0,142.0 Q174.0,142.0 174.0,137.0 L174.0,78.0 Q174.0,77.0 175.0,77.0 L176.0,77.0" fill="none" stroke="#424242" stroke-width="1.5" stroke-linejoin="round" stroke-linecap="round" marker-end="url(#arrowFilled)"/>
    </g>
    <g class="edge">
      <path d="M316.0,62.0 L498.6,62.0 Q499.6,62.0 499.6,63.0 L499.6,63.0 Q499.6,64.0 500.6,64.0 L501.6,64.0" fill="none" stroke="#424242" stroke-width="1.5" stroke-linejoin="round" stroke-linecap="round" marker-end="url(#arrowFilled)"/>
      <text x="409.8" y="56" text-anchor="middle" dominant-baseline="middle" font-size="9" font-family="sans-serif" fill="#333">a</text>
    </g>
    <g class="edge hof-edge">
      <path d="M489.6,115.0 L494.6,115.0 Q499.6,115.0 499.6,110.0 L499.6,80.0 Q499.6,79.0 500.6,79.0 L501.6,79.0" fill="none" stroke="#00796b" stroke-width="1.5" stroke-linejoin="round" stroke-linecap="round" marker-end="url(#arrowHof)"/>
    </g>
    <g class="edge">
      <path d="M641.6,62.0 L649.6,62.0 Q655.6,62.0 655.6,68.0 L655.6,106.0 L655.6,106.0" fill="none" stroke="#424242" stroke-width="1.5" stroke-linejoin="round" stroke-linecap="round" marker-end="url(#arrowFilled)"/>
    </g>
    <g class="edge">
      <path d="M793.6,106.0 L805.6,106.0" fill="none" stroke="#424242" stroke-width="1.5" stroke-linejoin="round" stroke-linecap="round" marker-end="url(#arrowFilled)"/>
    </g>
    <g class="edge">
      <path d="M164.0,142.0 L797.6,142.0 Q803.6,142.0 803.6,136.0 L803.6,122.0 Q803.6,121.0 804.6,121.0 L805.6,121.0" fill="none" stroke="#424242" stroke-width="1.5" stroke-linejoin="round" stroke-linecap="round" marker-end="url(#arrowFilled)"/>
    </g>
    <g class="edge">
      <path d="M945.6,110.0 L953.6,110.0" fill="none" stroke="#424242" stroke-width="1.5" stroke-linejoin="round" stroke-linecap="round" marker-end="url(#arrowFilled)"/>
    </g>
    <g class="edge">
      <path d="M312.0,78.0 L324.0,78.0 Q330.0,78.0 330.0,72.0 L330.0,59.0 Q330.0,53.0 336.0,53.0 L505.6,53.0" fill="none" stroke="#424242" stroke-width="1.5" stroke-linejoin="round" stroke-linecap="round" marker-end="url(#arrowOpen)" stroke-dasharray="6,4"/>
    </g>
    <g class="edge">
      <path d="M637.6,78.0 L797.6,78.0 Q803.6,78.0 803.6,84.0 L803.6,92.0 Q803.6,95.0 806.6,95.0 L809.6,95.0" fill="none" stroke="#424242" stroke-width="1.5" stroke-linejoin="round" stroke-linecap="round" marker-end="url(#arrowOpen)" stroke-dasharray="6,4"/>
    </g>
    <g class="action-node">
      <title>Run ra(env): supply env to ra, get result a</title>
      <rect x="192" y="46" width="120" height="44" rx="12" fill="#e8f5e9" stroke="#388e3c" stroke-width="1.5"/>
      <text class="action-label" x="252" y="68" text-anchor="middle" font-size="11" font-family="sans-serif" dominant-baseline="middle" fill="#333">run_ra</text>
      <g class="pin pin-in">
        <rect x="188" y="56.666666666666664" width="8" height="8" fill="#e0e0e0" stroke="#424242" stroke-width="1"/>
        <text x="198" y="60.666666666666664" text-anchor="start" dominant-baseline="middle" font-size="8" font-family="sans-serif" fill="#555">ra</text>
      </g>
      <g class="pin pin-in">
        <rect x="188" y="71.33333333333333" width="8" height="8" fill="#e0e0e0" stroke="#424242" stroke-width="1"/>
        <text x="198" y="75.33333333333333" text-anchor="start" dominant-baseline="middle" font-size="8" font-family="sans-serif" fill="#555">env</text>
      </g>
      <g class="pin pin-out">
        <rect x="308" y="64" width="8" height="8" fill="#e0e0e0" stroke="#424242" stroke-width="1"/>
        <text x="306" y="68" text-anchor="end" dominant-baseline="middle" font-size="8" font-family="sans-serif" fill="#555">a</text>
      </g>
    </g>
    <g class="action-node">
      <title>Apply f(a): build the next computation Reader r b from result a</title>
      <rect x="517.6" y="46" width="120" height="44" rx="12" fill="#e8f5e9" stroke="#388e3c" stroke-width="1.5"/>
      <text class="action-label" x="577.6" y="68" text-anchor="middle" font-size="11" font-family="sans-serif" dominant-baseline="middle" fill="#333">apply_f</text>
      <g class="pin pin-in">
        <rect x="513.6" y="56.666666666666664" width="8" height="8" fill="#e0e0e0" stroke="#424242" stroke-width="1"/>
        <text x="523.6" y="60.666666666666664" text-anchor="start" dominant-baseline="middle" font-size="8" font-family="sans-serif" fill="#555">a</text>
      </g>
      <g class="pin pin-in">
        <rect x="513.6" y="71.33333333333333" width="8" height="8" fill="#e0e0e0" stroke="#424242" stroke-width="1"/>
        <text x="523.6" y="75.33333333333333" text-anchor="start" dominant-baseline="middle" font-size="8" font-family="sans-serif" fill="#555">f</text>
      </g>
      <g class="pin pin-out">
        <rect x="633.6" y="64" width="8" height="8" fill="#e0e0e0" stroke="#424242" stroke-width="1"/>
        <text x="631.6" y="68" text-anchor="end" dominant-baseline="middle" font-size="8" font-family="sans-serif" fill="#555">rb</text>
      </g>
    </g>
    <g class="action-node">
      <title>Run rb(env): supply THE SAME env to f(a) — env is unchanged from step 1. Key difference from State.</title>
      <rect x="821.6" y="88" width="120" height="44" rx="12" fill="#e8f5e9" stroke="#388e3c" stroke-width="1.5"/>
      <text class="action-label" x="881.6" y="110" text-anchor="middle" font-size="11" font-family="sans-serif" dominant-baseline="middle" fill="#333">run_rb</text>
      <g class="pin pin-in">
        <rect x="817.6" y="98.66666666666667" width="8" height="8" fill="#e0e0e0" stroke="#424242" stroke-width="1"/>
        <text x="827.6" y="102.66666666666667" text-anchor="start" dominant-baseline="middle" font-size="8" font-family="sans-serif" fill="#555">rb</text>
      </g>
      <g class="pin pin-in">
        <rect x="817.6" y="113.33333333333333" width="8" height="8" fill="#e0e0e0" stroke="#424242" stroke-width="1"/>
        <text x="827.6" y="117.33333333333333" text-anchor="start" dominant-baseline="middle" font-size="8" font-family="sans-serif" fill="#555">env</text>
      </g>
      <g class="pin pin-out">
        <rect x="937.6" y="106" width="8" height="8" fill="#e0e0e0" stroke="#424242" stroke-width="1"/>
        <text x="935.6" y="110" text-anchor="end" dominant-baseline="middle" font-size="8" font-family="sans-serif" fill="#555">b</text>
      </g>
    </g>
    <g class="object-node">
      <title>Reader r a — a suspended computation: a function r ⟶ a, not yet executed</title>
      <rect x="36" y="40" width="128" height="38" fill="#f5f5f5" stroke="#616161" stroke-width="1.5"/>
      <text x="100" y="59" text-anchor="middle" font-size="11" font-family="sans-serif" dominant-baseline="middle" fill="#333">ra : Reader r a</text>
    </g>
    <g class="object-node hof">
      <title>(a ⟶ Reader r b) — given result a, builds the next computation r ⟶ b</title>
      <rect x="340" y="96" width="149.6" height="38" fill="#e0f2f1" stroke="#00796b" stroke-width="1.5"/>
      <text x="414.8" y="108" text-anchor="middle" font-size="9" font-style="italic" font-family="sans-serif" dominant-baseline="middle" fill="#00796b">«function»</text>
      <text x="414.8" y="122" text-anchor="middle" font-size="11" font-family="sans-serif" dominant-baseline="middle" fill="#333">f : a ⟶ Reader r b</text>
    </g>
    <g class="object-node">
      <title>r — the shared read-only environment. The SAME instance flows to both run_ra and run_rb. It is NEVER modified.</title>
      <rect x="54" y="123" width="110" height="38" fill="#f5f5f5" stroke="#616161" stroke-width="1.5"/>
      <text x="109" y="142" text-anchor="middle" font-size="11" font-family="sans-serif" dominant-baseline="middle" fill="#333">env : r</text>
    </g>
    <g class="object-node">
      <title>Reader r b — the second computation (not yet run)</title>
      <rect x="665.6" y="87" width="128" height="38" fill="#f5f5f5" stroke="#616161" stroke-width="1.5"/>
      <text x="729.6" y="106" text-anchor="middle" font-size="11" font-family="sans-serif" dominant-baseline="middle" fill="#333">rb : Reader r b</text>
    </g>
    <g class="object-node">
      <title>b — the final result. The environment was never modified throughout.</title>
      <rect x="965.6" y="91" width="110" height="38" fill="#f5f5f5" stroke="#616161" stroke-width="1.5"/>
      <text x="1020.6" y="110" text-anchor="middle" font-size="11" font-family="sans-serif" dominant-baseline="middle" fill="#333">b : b</text>
    </g>
  </g>
</svg>
