<?xml version="1.0" encoding="UTF-8"?>
<svg xmlns="http://www.w3.org/2000/svg" viewBox="0 0 1121.6 282" width="1121.6" height="282">
  <defs>
    <marker id="arrowFilled" viewBox="0 0 10 10" refX="0" refY="5" markerWidth="8" markerHeight="8" orient="auto-start-reverse">
      <path d="M0,1.5 L10,5 L0,8.5 L2.5,5 Z" fill="#424242"/>
    </marker>
    <marker id="arrowOpen" viewBox="0 0 10 10" refX="0" refY="5" markerWidth="8" markerHeight="8" orient="auto-start-reverse">
      <path d="M0,1.5 L10,5 L0,8.5" fill="none" stroke="#424242" stroke-width="1.25"/>
    </marker>
    <marker id="arrowHof" viewBox="0 0 10 10" refX="0" refY="5" markerWidth="8" markerHeight="8" orient="auto-start-reverse">
      <path d="M0,1.5 L10,5 L0,8.5 L2.5,5 Z" fill="#00796b"/>
    </marker>
  </defs>
  <rect width="1121.6" height="282" fill="white"/>
  <text x="560.8" y="18" text-anchor="middle" font-size="14" font-weight="bold" font-family="sans-serif" fill="#222">Reader bind: same env r supplied to ra(r) and to f(a)(r)</text>
  <text x="560.8" y="35" text-anchor="middle" font-size="11" font-weight="normal" font-family="sans-serif" fill="#555">never modified</text>
  <text x="560.8" y="51" text-anchor="middle" font-size="11" font-weight="normal" font-family="sans-serif" fill="#555">also called: flatMap, &gt;&gt;=</text>
  <g transform="translate(0,60)">
    <rect x="0" y="0" width="1121.6" height="222" fill="#fafafa" stroke="#9e9e9e" stroke-width="1.5"/>
    <g class="diagram-frame-tab tab-activity">
      <path d="M0,0 L109,0 L109,12 L99,22 L0,22 Z" fill="#e0e0e0" stroke="#9e9e9e" stroke-width="1"/>
      <text x="54.5" y="12" text-anchor="middle" font-size="10" font-family="sans-serif" dominant-baseline="middle" fill="#333">«activity» bind</text>
    </g>
    <g class="edge">
      <path d="M164.0,59.0 L176.0,59.0" fill="none" stroke="#424242" stroke-width="1.5" stroke-linejoin="round" stroke-linecap="round" marker-end="url(#arrowFilled)"/>
    </g>
    <g class="edge">
      <path d="M164.0,185.0 L169.0,185.0 Q174.0,185.0 174.0,180.0 L174.0,78.0 Q174.0,77.0 175.0,77.0 L176.0,77.0" fill="none" stroke="#424242" stroke-width="1.5" stroke-linejoin="round" stroke-linecap="round" marker-end="url(#arrowFilled)"/>
    </g>
    <g class="edge">
      <path d="M316.0,62.0 L324.0,62.0 Q330.0,62.0 330.0,68.0 L330.0,100.0 Q330.0,106.0 336.0,106.0 L347.8,106.0" fill="none" stroke="#424242" stroke-width="1.5" stroke-linejoin="round" stroke-linecap="round" marker-end="url(#arrowFilled)"/>
    </g>
    <g class="edge">
      <path d="M469.8,106.0 L494.6,106.0 Q499.6,106.0 499.6,111.0 L499.6,111.0 Q499.6,116.0 504.6,116.0 L511.6,116.0" fill="none" stroke="#424242" stroke-width="1.5" stroke-linejoin="round" stroke-linecap="round" marker-end="url(#arrowFilled)"/>
    </g>
    <g class="edge hof-edge">
      <path d="M489.6,158.0 L494.6,158.0 Q499.6,158.0 499.6,153.0 L499.6,137.0 Q499.6,131.0 505.6,131.0 L511.6,131.0" fill="none" stroke="#00796b" stroke-width="1.5" stroke-linejoin="round" stroke-linecap="round" marker-end="url(#arrowHof)"/>
    </g>
    <g class="edge">
      <path d="M651.6,114.0 L659.6,114.0 Q665.6,114.0 665.6,120.0 L665.6,158.0 L665.6,158.0" fill="none" stroke="#424242" stroke-width="1.5" stroke-linejoin="round" stroke-linecap="round" marker-end="url(#arrowFilled)"/>
    </g>
    <g class="edge">
      <path d="M803.6,158.0 L815.6,158.0" fill="none" stroke="#424242" stroke-width="1.5" stroke-linejoin="round" stroke-linecap="round" marker-end="url(#arrowFilled)"/>
    </g>
    <g class="edge">
      <path d="M164.0,185.0 L807.6,185.0 Q813.6,185.0 813.6,179.0 L813.6,174.0 Q813.6,173.0 814.6,173.0 L815.6,173.0" fill="none" stroke="#424242" stroke-width="1.5" stroke-linejoin="round" stroke-linecap="round" marker-end="url(#arrowFilled)"/>
    </g>
    <g class="edge">
      <path d="M955.6,162.0 L963.6,162.0" fill="none" stroke="#424242" stroke-width="1.5" stroke-linejoin="round" stroke-linecap="round" marker-end="url(#arrowFilled)"/>
    </g>
    <g class="edge">
      <path d="M312.0,78.0 L503.6,78.0 Q509.6,78.0 509.6,84.0 L509.6,102.0 Q509.6,105.0 512.6,105.0 L515.6,105.0" fill="none" stroke="#424242" stroke-width="1.5" stroke-linejoin="round" stroke-linecap="round" marker-end="url(#arrowOpen)" stroke-dasharray="6,4"/>
    </g>
    <g class="edge">
      <path d="M647.6,130.0 L807.6,130.0 Q813.6,130.0 813.6,136.0 L813.6,144.0 Q813.6,147.0 816.6,147.0 L819.6,147.0" fill="none" stroke="#424242" stroke-width="1.5" stroke-linejoin="round" stroke-linecap="round" marker-end="url(#arrowOpen)" stroke-dasharray="6,4"/>
    </g>
    <g class="action-node">
      <title>Run ra(env): supply env to ra, get result a</title>
      <rect x="192" y="46" width="120" height="44" rx="12" fill="#e8f5e9" stroke="#388e3c" stroke-width="1.5"/>
      <text class="action-label" x="252" y="68" text-anchor="middle" font-size="11" font-family="sans-serif" dominant-baseline="middle" fill="#333">run_ra</text>
      <g class="pin pin-in">
        <rect x="188" y="56.666666666666664" width="8" height="8" fill="#e0e0e0" stroke="#424242" stroke-width="1"/>
        <text x="198" y="60.666666666666664" text-anchor="start" font-size="8" font-family="sans-serif" dominant-baseline="middle" fill="#555">ra</text>
      </g>
      <g class="pin pin-in">
        <rect x="188" y="71.33333333333333" width="8" height="8" fill="#e0e0e0" stroke="#424242" stroke-width="1"/>
        <text x="198" y="75.33333333333333" text-anchor="start" font-size="8" font-family="sans-serif" dominant-baseline="middle" fill="#555">env</text>
      </g>
      <g class="pin pin-out">
        <rect x="308" y="64" width="8" height="8" fill="#e0e0e0" stroke="#424242" stroke-width="1"/>
        <text x="306" y="68" text-anchor="end" font-size="8" font-family="sans-serif" dominant-baseline="middle" fill="#555">a</text>
      </g>
    </g>
    <g class="action-node">
      <title>Apply f(a): build the next computation Reader r b from result a</title>
      <rect x="527.6" y="98" width="120" height="44" rx="12" fill="#e8f5e9" stroke="#388e3c" stroke-width="1.5"/>
      <text class="action-label" x="587.6" y="120" text-anchor="middle" font-size="11" font-family="sans-serif" dominant-baseline="middle" fill="#333">apply_f</text>
      <g class="pin pin-in">
        <rect x="523.6" y="108.66666666666667" width="8" height="8" fill="#e0e0e0" stroke="#424242" stroke-width="1"/>
        <text x="533.6" y="112.66666666666667" text-anchor="start" font-size="8" font-family="sans-serif" dominant-baseline="middle" fill="#555">a</text>
      </g>
      <g class="pin pin-in">
        <rect x="523.6" y="123.33333333333333" width="8" height="8" fill="#e0e0e0" stroke="#424242" stroke-width="1"/>
        <text x="533.6" y="127.33333333333333" text-anchor="start" font-size="8" font-family="sans-serif" dominant-baseline="middle" fill="#555">f</text>
      </g>
      <g class="pin pin-out">
        <rect x="643.6" y="116" width="8" height="8" fill="#e0e0e0" stroke="#424242" stroke-width="1"/>
        <text x="641.6" y="120" text-anchor="end" font-size="8" font-family="sans-serif" dominant-baseline="middle" fill="#555">rb</text>
      </g>
    </g>
    <g class="action-node">
      <title>Run rb(env): supply THE SAME env to f(a) — env is unchanged from step 1. Key difference from State.</title>
      <rect x="831.6" y="140" width="120" height="44" rx="12" fill="#e8f5e9" stroke="#388e3c" stroke-width="1.5"/>
      <text class="action-label" x="891.6" y="162" text-anchor="middle" font-size="11" font-family="sans-serif" dominant-baseline="middle" fill="#333">run_rb</text>
      <g class="pin pin-in">
        <rect x="827.6" y="150.66666666666666" width="8" height="8" fill="#e0e0e0" stroke="#424242" stroke-width="1"/>
        <text x="837.6" y="154.66666666666666" text-anchor="start" font-size="8" font-family="sans-serif" dominant-baseline="middle" fill="#555">rb</text>
      </g>
      <g class="pin pin-in">
        <rect x="827.6" y="165.33333333333334" width="8" height="8" fill="#e0e0e0" stroke="#424242" stroke-width="1"/>
        <text x="837.6" y="169.33333333333334" text-anchor="start" font-size="8" font-family="sans-serif" dominant-baseline="middle" fill="#555">env</text>
      </g>
      <g class="pin pin-out">
        <rect x="947.6" y="158" width="8" height="8" fill="#e0e0e0" stroke="#424242" stroke-width="1"/>
        <text x="945.6" y="162" text-anchor="end" font-size="8" font-family="sans-serif" dominant-baseline="middle" fill="#555">b</text>
      </g>
    </g>
    <g class="object-node">
      <title>Reader r a — a suspended computation: a function r ⟶ a, not yet executed</title>
      <rect x="36" y="40" width="128" height="38" fill="#f5f5f5" stroke="#616161" stroke-width="1.5"/>
      <text x="100" y="59" text-anchor="middle" font-size="11" font-family="sans-serif" dominant-baseline="middle" fill="#333">ra : Reader r a</text>
    </g>
    <g class="object-node hof">
      <title>(a ⟶ Reader r b) — given result a, builds the next computation r ⟶ b</title>
      <rect x="340" y="139" width="149.6" height="38" fill="#e0f2f1" stroke="#00796b" stroke-width="1.5"/>
      <text x="414.8" y="151" text-anchor="middle" font-size="9" font-style="italic" font-family="sans-serif" dominant-baseline="middle" fill="#00796b">«function»</text>
      <text x="414.8" y="165" text-anchor="middle" font-size="11" font-family="sans-serif" dominant-baseline="middle" fill="#333">f : a ⟶ Reader r b</text>
    </g>
    <g class="object-node">
      <title>r — the shared read-only environment. The SAME instance flows to both run_ra and run_rb. It is NEVER modified.</title>
      <rect x="54" y="166" width="110" height="38" fill="#f5f5f5" stroke="#616161" stroke-width="1.5"/>
      <text x="109" y="185" text-anchor="middle" font-size="11" font-family="sans-serif" dominant-baseline="middle" fill="#333">env : r</text>
    </g>
    <g class="object-node">
      <title>a — the result of running ra with the environment</title>
      <rect x="359.8" y="87" width="110" height="38" fill="#f5f5f5" stroke="#616161" stroke-width="1.5"/>
      <text x="414.8" y="106" text-anchor="middle" font-size="11" font-family="sans-serif" dominant-baseline="middle" fill="#333">a : a</text>
    </g>
    <g class="object-node">
      <title>Reader r b — the second computation (not yet run)</title>
      <rect x="675.6" y="139" width="128" height="38" fill="#f5f5f5" stroke="#616161" stroke-width="1.5"/>
      <text x="739.6" y="158" text-anchor="middle" font-size="11" font-family="sans-serif" dominant-baseline="middle" fill="#333">rb : Reader r b</text>
    </g>
    <g class="object-node">
      <title>b — the final result. The environment was never modified throughout.</title>
      <rect x="975.5999999999999" y="143" width="110" height="38" fill="#f5f5f5" stroke="#616161" stroke-width="1.5"/>
      <text x="1030.6" y="162" text-anchor="middle" font-size="11" font-family="sans-serif" dominant-baseline="middle" fill="#333">b : b</text>
    </g>
  </g>
</svg>
