<?xml version="1.0" encoding="UTF-8"?>
<svg xmlns="http://www.w3.org/2000/svg" viewBox="0 0 1306.4 399.5" width="1306.4" height="399.5">
<defs>
  <marker id="arrowFilled" viewBox="0 0 10 10" refX="9" refY="5" markerWidth="7" markerHeight="7" orient="auto-start-reverse">
    <path d="M0,0 L10,5 L0,10 z" fill="#424242"/>
  </marker>
  <marker id="arrowOpen" viewBox="0 0 10 10" refX="9" refY="5" markerWidth="7" markerHeight="7" orient="auto-start-reverse">
    <path d="M0,0 L10,5 L0,10" fill="none" stroke="#424242" stroke-width="1.5"/>
  </marker>
  <marker id="arrowHof" viewBox="0 0 10 10" refX="9" refY="5" markerWidth="7" markerHeight="7" orient="auto-start-reverse">
    <path d="M0,0 L10,5 L0,10 z" fill="#00796b"/>
  </marker>
</defs>
<rect width="1306.4" height="399.5" fill="white"/>
<text x="653.2" y="20" text-anchor="middle" font-size="14" font-weight="bold" font-family="sans-serif" fill="#222">List bind (concatMap): apply f to every element, concatenate all results</text>
<g transform="translate(0,28)">
  <rect x="0" y="0" width="1306.4" height="371.5" rx="8" fill="#fafafa" stroke="#9e9e9e" stroke-width="1.5"/>
  <g class="activity-frame-tab">
    <path d="M0,0 L92.8,0 L102.8,22 L0,22 Z" fill="#e0e0e0" stroke="#9e9e9e" stroke-width="1"/>
    <text x="51.4" y="12.0" text-anchor="middle" font-size="10" font-family="sans-serif" dominant-baseline="middle" fill="#333">«activity» &gt;&gt;=</text>
  </g>
  <g class="edge">
    <path d="M156.0,245.4 C171.9,245.4 185.5,260.6 201.4,260.6" fill="none" stroke="#424242" stroke-width="1.5" marker-end="url(#arrowFilled)"/>
    <text x="182.8" y="240.7" text-anchor="middle" dominant-baseline="middle" font-size="9" font-family="sans-serif" fill="#333" stroke="white" stroke-width="3" paint-order="stroke fill">∀ a</text>
  </g>
  <g class="edge">
    <path d="M156.0,240.8 C228.0,240.8 289.8,292.7 361.8,292.7" fill="none" stroke="#424242" stroke-width="1.5" marker-end="url(#arrowFilled)"/>
    <text x="262.1" y="254.1" text-anchor="middle" dominant-baseline="middle" font-size="9" font-family="sans-serif" fill="#333" stroke="white" stroke-width="3" paint-order="stroke fill">∀ a</text>
  </g>
  <g class="edge">
    <path d="M156.0,215.2 C284.0,215.2 393.8,136.8 521.8,136.8" fill="none" stroke="#424242" stroke-width="1.5" marker-end="url(#arrowFilled)"/>
    <text x="336.2" y="163.3" text-anchor="middle" dominant-baseline="middle" font-size="9" font-family="sans-serif" fill="#333" stroke="white" stroke-width="3" paint-order="stroke fill">∀ a</text>
  </g>
  <g class="edge">
    <path d="M311.4,263.4 C327.3,263.4 340.9,240.8 356.8,240.8" fill="none" stroke="#424242" stroke-width="1.5" marker-end="url(#arrowFilled)"/>
    
  </g>
  <g class="edge hof-edge">
    <path d="M277.2,106.0 C305.1,106.0 328.9,226.2 356.8,226.2" fill="none" stroke="#00796b" stroke-width="1.5" marker-end="url(#arrowHof)"/>
    
  </g>
  <g class="edge">
    <path d="M476.8,233.5 C602.8,233.5 710.8,264.8 836.8,264.8" fill="none" stroke="#424242" stroke-width="1.5" marker-end="url(#arrowFilled)"/>
    
  </g>
  <g class="edge">
    <path d="M442.6,287.5 C468.5,287.5 490.8,195.8 516.8,195.8" fill="none" stroke="#424242" stroke-width="1.5" marker-end="url(#arrowFilled)"/>
    
  </g>
  <g class="edge hof-edge">
    <path d="M316.4,106.0 C386.5,106.0 446.7,181.2 516.8,181.2" fill="none" stroke="#00796b" stroke-width="1.5" marker-end="url(#arrowHof)"/>
    
  </g>
  <g class="edge">
    <path d="M636.8,188.5 C706.8,188.5 766.8,211.9 836.8,211.9" fill="none" stroke="#424242" stroke-width="1.5" marker-end="url(#arrowFilled)"/>
    
  </g>
  <g class="edge">
    <path d="M631.8,125.9 C631.8,125.9 676.8,134.8 676.8,134.8" fill="none" stroke="#424242" stroke-width="1.5" marker-end="url(#arrowFilled)"/>
    
  </g>
  <g class="edge hof-edge">
    <path d="M316.8,92.1 C442.8,92.1 550.8,120.2 676.8,120.2" fill="none" stroke="#00796b" stroke-width="1.5" marker-end="url(#arrowHof)"/>
    
  </g>
  <g class="edge">
    <path d="M796.8,127.5 C810.8,127.5 822.8,151.4 836.8,151.4" fill="none" stroke="#424242" stroke-width="1.5" marker-end="url(#arrowFilled)"/>
    
  </g>
  <g class="edge">
    <path d="M924.6,250.0 C947.7,250.0 967.4,184.0 990.4,184.0" fill="none" stroke="#424242" stroke-width="1.5" marker-end="url(#arrowFilled)"/>
    
  </g>
  <g class="edge">
    <path d="M950.4,201.1 C964.4,201.1 976.4,173.0 990.4,173.0" fill="none" stroke="#424242" stroke-width="1.5" marker-end="url(#arrowFilled)"/>
    
  </g>
  <g class="edge">
    <path d="M950.4,167.9 C950.4,167.9 990.4,162.0 990.4,162.0" fill="none" stroke="#424242" stroke-width="1.5" marker-end="url(#arrowFilled)"/>
    
  </g>
  <g class="edge">
    <path d="M1110.4,173.0 C1110.4,173.0 1150.4,173.0 1150.4,173.0" fill="none" stroke="#424242" stroke-width="1.5" marker-end="url(#arrowFilled)"/>
    
  </g>
  <g class="edge">
    <path d="M476.8,233.5 C490.8,233.5 502.8,188.5 516.8,188.5" fill="none" stroke="#424242" stroke-width="1.5" stroke-dasharray="6,4" marker-end="url(#arrowOpen)"/>
    
  </g>
  <g class="edge">
    <path d="M636.8,188.5 C650.8,188.5 662.8,127.5 676.8,127.5" fill="none" stroke="#424242" stroke-width="1.5" stroke-dasharray="6,4" marker-end="url(#arrowOpen)"/>
    
  </g>
  <g class="edge">
    <path d="M796.8,127.5 C864.6,127.5 922.6,173.0 990.4,173.0" fill="none" stroke="#424242" stroke-width="1.5" stroke-dasharray="6,4" marker-end="url(#arrowOpen)"/>
    
  </g>
  <g class="action-node"><title>f(a1) — sub-list of b values for the first element (0 or more results)</title>
    <rect x="356.8" y="211.5" width="120" height="44" rx="12" fill="#e8f5e9" stroke="#388e3c" stroke-width="1.5"/>
    <text x="416.8" y="233.5" text-anchor="middle" font-size="11" font-family="sans-serif" dominant-baseline="middle" fill="#333">app1</text>
    <rect x="352.8" y="222.2" width="8" height="8" fill="#e0e0e0" stroke="#424242" stroke-width="1"/>
    <text x="362.8" y="226.2" text-anchor="start" font-size="8" font-family="sans-serif" dominant-baseline="middle" fill="#555" stroke="white" stroke-width="2" paint-order="stroke fill">a_val</text>
    <rect x="352.8" y="236.8" width="8" height="8" fill="#e0e0e0" stroke="#424242" stroke-width="1"/>
    <text x="362.8" y="240.8" text-anchor="start" font-size="8" font-family="sans-serif" dominant-baseline="middle" fill="#555" stroke="white" stroke-width="2" paint-order="stroke fill">f</text>
    <rect x="472.8" y="229.5" width="8" height="8" fill="#e0e0e0" stroke="#424242" stroke-width="1"/>
    <text x="470.8" y="233.5" text-anchor="end" font-size="8" font-family="sans-serif" dominant-baseline="middle" fill="#555" stroke="white" stroke-width="2" paint-order="stroke fill">sub_b</text>
  </g>
  <g class="action-node"><title>f(a2) — sub-list of b values for the second element (0 or more results)</title>
    <rect x="516.8" y="166.5" width="120" height="44" rx="12" fill="#e8f5e9" stroke="#388e3c" stroke-width="1.5"/>
    <text x="576.8" y="188.5" text-anchor="middle" font-size="11" font-family="sans-serif" dominant-baseline="middle" fill="#333">app2</text>
    <rect x="512.8" y="177.2" width="8" height="8" fill="#e0e0e0" stroke="#424242" stroke-width="1"/>
    <text x="522.8" y="181.2" text-anchor="start" font-size="8" font-family="sans-serif" dominant-baseline="middle" fill="#555" stroke="white" stroke-width="2" paint-order="stroke fill">a_val</text>
    <rect x="512.8" y="191.8" width="8" height="8" fill="#e0e0e0" stroke="#424242" stroke-width="1"/>
    <text x="522.8" y="195.8" text-anchor="start" font-size="8" font-family="sans-serif" dominant-baseline="middle" fill="#555" stroke="white" stroke-width="2" paint-order="stroke fill">f</text>
    <rect x="632.8" y="184.5" width="8" height="8" fill="#e0e0e0" stroke="#424242" stroke-width="1"/>
    <text x="630.8" y="188.5" text-anchor="end" font-size="8" font-family="sans-serif" dominant-baseline="middle" fill="#555" stroke="white" stroke-width="2" paint-order="stroke fill">sub_b</text>
  </g>
  <g class="action-node"><title>f(a3) — sub-list of b values for the third element (0 or more results)</title>
    <rect x="676.8" y="105.5" width="120" height="44" rx="12" fill="#e8f5e9" stroke="#388e3c" stroke-width="1.5"/>
    <text x="736.8" y="127.5" text-anchor="middle" font-size="11" font-family="sans-serif" dominant-baseline="middle" fill="#333">app3</text>
    <rect x="672.8" y="116.2" width="8" height="8" fill="#e0e0e0" stroke="#424242" stroke-width="1"/>
    <text x="682.8" y="120.2" text-anchor="start" font-size="8" font-family="sans-serif" dominant-baseline="middle" fill="#555" stroke="white" stroke-width="2" paint-order="stroke fill">a_val</text>
    <rect x="672.8" y="130.8" width="8" height="8" fill="#e0e0e0" stroke="#424242" stroke-width="1"/>
    <text x="682.8" y="134.8" text-anchor="start" font-size="8" font-family="sans-serif" dominant-baseline="middle" fill="#555" stroke="white" stroke-width="2" paint-order="stroke fill">f</text>
    <rect x="792.8" y="123.5" width="8" height="8" fill="#e0e0e0" stroke="#424242" stroke-width="1"/>
    <text x="790.8" y="127.5" text-anchor="end" font-size="8" font-family="sans-serif" dominant-baseline="middle" fill="#555" stroke="white" stroke-width="2" paint-order="stroke fill">sub_b</text>
  </g>
  <g class="action-node"><title>Concatenate: sub1 ++ sub2 ++ sub3. This is the key step: all branches merged into one flat List b.</title>
    <rect x="990.4" y="151.0" width="120" height="44" rx="12" fill="#e8f5e9" stroke="#388e3c" stroke-width="1.5"/>
    <text x="1050.4" y="173.0" text-anchor="middle" font-size="11" font-family="sans-serif" dominant-baseline="middle" fill="#333">flatten</text>
    <rect x="986.4" y="158.0" width="8" height="8" fill="#e0e0e0" stroke="#424242" stroke-width="1"/>
    <text x="996.4" y="162.0" text-anchor="start" font-size="8" font-family="sans-serif" dominant-baseline="middle" fill="#555" stroke="white" stroke-width="2" paint-order="stroke fill">sub3</text>
    <rect x="986.4" y="169.0" width="8" height="8" fill="#e0e0e0" stroke="#424242" stroke-width="1"/>
    <text x="996.4" y="173.0" text-anchor="start" font-size="8" font-family="sans-serif" dominant-baseline="middle" fill="#555" stroke="white" stroke-width="2" paint-order="stroke fill">sub2</text>
    <rect x="986.4" y="180.0" width="8" height="8" fill="#e0e0e0" stroke="#424242" stroke-width="1"/>
    <text x="996.4" y="184.0" text-anchor="start" font-size="8" font-family="sans-serif" dominant-baseline="middle" fill="#555" stroke="white" stroke-width="2" paint-order="stroke fill">sub1</text>
    <rect x="1106.4" y="169.0" width="8" height="8" fill="#e0e0e0" stroke="#424242" stroke-width="1"/>
    <text x="1104.4" y="173.0" text-anchor="end" font-size="8" font-family="sans-serif" dominant-baseline="middle" fill="#555" stroke="white" stroke-width="2" paint-order="stroke fill">flat</text>
  </g>
  <g class="object-node"><title>List a — every element is independently processed. Empty list short-circuits: no elements, no calls.</title>
    <rect x="46.0" y="208.0" width="110" height="38" fill="#f5f5f5" stroke="#616161" stroke-width="1.5"/>
    <text x="101.0" y="227.0" text-anchor="middle" font-size="11" font-family="sans-serif" dominant-baseline="middle" fill="#333">la : List a</text>
  </g>
  <g class="object-node hof"><title>(a ⟶ List b) — called for EVERY element. Each call may return [], [b], or [b1, b2, ...] — any size.</title>
    <rect x="196.0" y="68.0" width="120.8" height="38" fill="#e0f2f1" stroke="#00796b" stroke-width="1.5"/>
    <text x="256.4" y="80.0" text-anchor="middle" font-size="9" font-style="italic" font-family="sans-serif" dominant-baseline="middle" fill="#00796b">«function»</text>
    <text x="256.4" y="94.0" text-anchor="middle" font-size="11" font-family="sans-serif" dominant-baseline="middle" fill="#333">f : a ⟶ List b</text>
  </g>
  <g class="object-node"><title>First element of List a</title>
    <rect x="201.4" y="260.0" width="110" height="38" fill="#f5f5f5" stroke="#616161" stroke-width="1.5"/>
    <text x="256.4" y="279.0" text-anchor="middle" font-size="11" font-family="sans-serif" dominant-baseline="middle" fill="#333">a1 : a</text>
  </g>
  <g class="object-node"><title>Second element of List a</title>
    <rect x="361.8" y="287.5" width="110" height="38" fill="#f5f5f5" stroke="#616161" stroke-width="1.5"/>
    <text x="416.8" y="306.5" text-anchor="middle" font-size="11" font-family="sans-serif" dominant-baseline="middle" fill="#333">a2 : a</text>
  </g>
  <g class="object-node"><title>Third element of List a</title>
    <rect x="521.8" y="106.0" width="110" height="38" fill="#f5f5f5" stroke="#616161" stroke-width="1.5"/>
    <text x="576.8" y="125.0" text-anchor="middle" font-size="11" font-family="sans-serif" dominant-baseline="middle" fill="#333">a3 : a</text>
  </g>
  <g class="object-node"><title>List b — all b values produced for a1. May be empty.</title>
    <rect x="836.8" y="250.0" width="113.60000000000001" height="38" fill="#f5f5f5" stroke="#616161" stroke-width="1.5"/>
    <text x="893.6" y="269.0" text-anchor="middle" font-size="11" font-family="sans-serif" dominant-baseline="middle" fill="#333">sub1 : List b</text>
  </g>
  <g class="object-node"><title>List b — all b values produced for a2. May be empty.</title>
    <rect x="836.8" y="198.0" width="113.60000000000001" height="38" fill="#f5f5f5" stroke="#616161" stroke-width="1.5"/>
    <text x="893.6" y="217.0" text-anchor="middle" font-size="11" font-family="sans-serif" dominant-baseline="middle" fill="#333">sub2 : List b</text>
  </g>
  <g class="object-node"><title>List b — all b values produced for a3. May be empty.</title>
    <rect x="836.8" y="146.0" width="113.60000000000001" height="38" fill="#f5f5f5" stroke="#616161" stroke-width="1.5"/>
    <text x="893.6" y="165.0" text-anchor="middle" font-size="11" font-family="sans-serif" dominant-baseline="middle" fill="#333">sub3 : List b</text>
  </g>
  <g class="object-node"><title>List b — the complete output: sub1 ++ sub2 ++ sub3. Non-determinism is preserved as multiple values.</title>
    <rect x="1150.4" y="154.0" width="110" height="38" fill="#f5f5f5" stroke="#616161" stroke-width="1.5"/>
    <text x="1205.4" y="173.0" text-anchor="middle" font-size="11" font-family="sans-serif" dominant-baseline="middle" fill="#333">lb : List b</text>
  </g>
</g>
</svg>