<?xml version="1.0" encoding="UTF-8"?>
<svg xmlns="http://www.w3.org/2000/svg" viewBox="0 0 1306.4 399.5" width="1306.4" height="399.5">
<defs>
  <marker id="arrowFilled" viewBox="0 0 10 10" refX="0" refY="5" markerWidth="7" markerHeight="7" orient="auto-start-reverse">
    <path d="M0,0 L10,5 L0,10 z" fill="#424242"/>
  </marker>
  <marker id="arrowOpen" viewBox="0 0 10 10" refX="0" refY="5" markerWidth="7" markerHeight="7" orient="auto-start-reverse">
    <path d="M0,0 L10,5 L0,10" fill="none" stroke="#424242" stroke-width="1.5"/>
  </marker>
  <marker id="arrowHof" viewBox="0 0 10 10" refX="0" refY="5" markerWidth="7" markerHeight="7" orient="auto-start-reverse">
    <path d="M0,0 L10,5 L0,10 z" fill="#00796b"/>
  </marker>
</defs>
<rect width="1306.4" height="399.5" fill="white"/>
<text x="653.2" y="20" text-anchor="middle" font-size="14" font-weight="bold" font-family="sans-serif" fill="#222">List bind (concatMap): apply f to every element, concatenate all results</text>
<g transform="translate(0,28)">
  <rect x="0" y="0" width="1306.4" height="371.5" rx="8" fill="#fafafa" stroke="#9e9e9e" stroke-width="1.5"/>
  <g class="activity-frame-tab">
    <path d="M0,0 L102.8,0 L102.8,12 L92.8,22 L0,22 Z" fill="#e0e0e0" stroke="#9e9e9e" stroke-width="1"/>
    <text x="51.4" y="12.0" text-anchor="middle" font-size="10" font-family="sans-serif" dominant-baseline="middle" fill="#333">«activity» &gt;&gt;=</text>
  </g>
  <g class="edge">
    <path d="M156.0,245.4 C168.2,245.4 178.7,260.6 190.9,260.6" fill="none" stroke="#424242" stroke-width="1.5" marker-end="url(#arrowFilled)"/>
    <text x="178.6" y="241.1" text-anchor="middle" dominant-baseline="middle" font-size="9" font-family="sans-serif" fill="#333" stroke="white" stroke-width="3" paint-order="stroke fill">∀ a</text>
  </g>
  <g class="edge">
    <path d="M156.0,240.8 C224.4,240.8 282.9,292.7 351.3,292.7" fill="none" stroke="#424242" stroke-width="1.5" marker-end="url(#arrowFilled)"/>
    <text x="257.0" y="254.2" text-anchor="middle" dominant-baseline="middle" font-size="9" font-family="sans-serif" fill="#333" stroke="white" stroke-width="3" paint-order="stroke fill">∀ a</text>
  </g>
  <g class="edge">
    <path d="M156.0,215.2 C280.4,215.2 386.9,136.8 511.3,136.8" fill="none" stroke="#424242" stroke-width="1.5" marker-end="url(#arrowFilled)"/>
    <text x="330.8" y="163.3" text-anchor="middle" dominant-baseline="middle" font-size="9" font-family="sans-serif" fill="#333" stroke="white" stroke-width="3" paint-order="stroke fill">∀ a</text>
  </g>
  <g class="edge">
    <path d="M287.3,260.0 C306.5,260.0 323.0,226.2 342.3,226.2" fill="none" stroke="#424242" stroke-width="1.5" marker-end="url(#arrowFilled)"/>
    
  </g>
  <g class="edge hof-edge">
    <path d="M267.0,106.0 C293.4,106.0 315.9,240.8 342.3,240.8" fill="none" stroke="#00796b" stroke-width="1.5" marker-end="url(#arrowHof)"/>
    
  </g>
  <g class="edge">
    <path d="M480.8,233.5 C601.7,233.5 705.4,264.1 826.3,264.1" fill="none" stroke="#424242" stroke-width="1.5" marker-end="url(#arrowFilled)"/>
    
  </g>
  <g class="edge">
    <path d="M429.8,287.5 C455.1,287.5 476.9,181.2 502.3,181.2" fill="none" stroke="#424242" stroke-width="1.5" marker-end="url(#arrowFilled)"/>
    
  </g>
  <g class="edge hof-edge">
    <path d="M299.3,106.0 C370.4,106.0 431.3,195.8 502.3,195.8" fill="none" stroke="#00796b" stroke-width="1.5" marker-end="url(#arrowHof)"/>
    
  </g>
  <g class="edge">
    <path d="M640.8,188.5 C705.7,188.5 761.4,210.6 826.3,210.6" fill="none" stroke="#424242" stroke-width="1.5" marker-end="url(#arrowFilled)"/>
    
  </g>
  <g class="edge">
    <path d="M631.8,121.9 C631.8,121.9 662.3,120.2 662.3,120.2" fill="none" stroke="#424242" stroke-width="1.5" marker-end="url(#arrowFilled)"/>
    
  </g>
  <g class="edge hof-edge">
    <path d="M316.8,94.1 C437.7,94.1 541.4,134.8 662.3,134.8" fill="none" stroke="#00796b" stroke-width="1.5" marker-end="url(#arrowHof)"/>
    
  </g>
  <g class="edge">
    <path d="M800.8,127.5 C813.1,127.5 823.7,146.0 836.1,146.0" fill="none" stroke="#424242" stroke-width="1.5" marker-end="url(#arrowFilled)"/>
    
  </g>
  <g class="edge">
    <path d="M908.2,250.0 C931.9,250.0 952.2,162.0 975.9,162.0" fill="none" stroke="#424242" stroke-width="1.5" marker-end="url(#arrowFilled)"/>
    
  </g>
  <g class="edge">
    <path d="M929.1,198.0 C945.5,198.0 959.5,173.0 975.9,173.0" fill="none" stroke="#424242" stroke-width="1.5" marker-end="url(#arrowFilled)"/>
    
  </g>
  <g class="edge">
    <path d="M950.4,178.1 C950.4,178.1 975.9,184.0 975.9,184.0" fill="none" stroke="#424242" stroke-width="1.5" marker-end="url(#arrowFilled)"/>
    
  </g>
  <g class="edge">
    <path d="M1114.4,173.0 C1114.4,173.0 1139.9,173.0 1139.9,173.0" fill="none" stroke="#424242" stroke-width="1.5" marker-end="url(#arrowFilled)"/>
    
  </g>
  <g class="edge">
    <path d="M476.8,233.5 C487.1,233.5 496.0,188.5 506.3,188.5" fill="none" stroke="#424242" stroke-width="1.5" stroke-dasharray="6,4" marker-end="url(#arrowOpen)"/>
    
  </g>
  <g class="edge">
    <path d="M636.8,188.5 C647.1,188.5 656.0,127.5 666.3,127.5" fill="none" stroke="#424242" stroke-width="1.5" stroke-dasharray="6,4" marker-end="url(#arrowOpen)"/>
    
  </g>
  <g class="edge">
    <path d="M796.8,127.5 C860.9,127.5 915.8,173.0 979.9,173.0" fill="none" stroke="#424242" stroke-width="1.5" stroke-dasharray="6,4" marker-end="url(#arrowOpen)"/>
    
  </g>
  <g class="action-node"><title>f(a1) — sub-list of b values for the first element (0 or more results)</title>
    <rect x="356.8" y="211.5" width="120" height="44" rx="12" fill="#e8f5e9" stroke="#388e3c" stroke-width="1.5"/>
    <text x="416.8" y="233.5" text-anchor="middle" font-size="11" font-family="sans-serif" dominant-baseline="middle" fill="#333">app1</text>
    <rect x="352.8" y="222.2" width="8" height="8" fill="#e0e0e0" stroke="#424242" stroke-width="1"/>
    <text x="362.8" y="226.2" text-anchor="start" font-size="8" font-family="sans-serif" dominant-baseline="middle" fill="#555" stroke="white" stroke-width="2" paint-order="stroke fill">a_val</text>
    <rect x="352.8" y="236.8" width="8" height="8" fill="#e0e0e0" stroke="#424242" stroke-width="1"/>
    <text x="362.8" y="240.8" text-anchor="start" font-size="8" font-family="sans-serif" dominant-baseline="middle" fill="#555" stroke="white" stroke-width="2" paint-order="stroke fill">f</text>
    <rect x="472.8" y="229.5" width="8" height="8" fill="#e0e0e0" stroke="#424242" stroke-width="1"/>
    <text x="470.8" y="233.5" text-anchor="end" font-size="8" font-family="sans-serif" dominant-baseline="middle" fill="#555" stroke="white" stroke-width="2" paint-order="stroke fill">sub_b</text>
  </g>
  <g class="action-node"><title>f(a2) — sub-list of b values for the second element (0 or more results)</title>
    <rect x="516.8" y="166.5" width="120" height="44" rx="12" fill="#e8f5e9" stroke="#388e3c" stroke-width="1.5"/>
    <text x="576.8" y="188.5" text-anchor="middle" font-size="11" font-family="sans-serif" dominant-baseline="middle" fill="#333">app2</text>
    <rect x="512.8" y="177.2" width="8" height="8" fill="#e0e0e0" stroke="#424242" stroke-width="1"/>
    <text x="522.8" y="181.2" text-anchor="start" font-size="8" font-family="sans-serif" dominant-baseline="middle" fill="#555" stroke="white" stroke-width="2" paint-order="stroke fill">a_val</text>
    <rect x="512.8" y="191.8" width="8" height="8" fill="#e0e0e0" stroke="#424242" stroke-width="1"/>
    <text x="522.8" y="195.8" text-anchor="start" font-size="8" font-family="sans-serif" dominant-baseline="middle" fill="#555" stroke="white" stroke-width="2" paint-order="stroke fill">f</text>
    <rect x="632.8" y="184.5" width="8" height="8" fill="#e0e0e0" stroke="#424242" stroke-width="1"/>
    <text x="630.8" y="188.5" text-anchor="end" font-size="8" font-family="sans-serif" dominant-baseline="middle" fill="#555" stroke="white" stroke-width="2" paint-order="stroke fill">sub_b</text>
  </g>
  <g class="action-node"><title>f(a3) — sub-list of b values for the third element (0 or more results)</title>
    <rect x="676.8" y="105.5" width="120" height="44" rx="12" fill="#e8f5e9" stroke="#388e3c" stroke-width="1.5"/>
    <text x="736.8" y="127.5" text-anchor="middle" font-size="11" font-family="sans-serif" dominant-baseline="middle" fill="#333">app3</text>
    <rect x="672.8" y="116.2" width="8" height="8" fill="#e0e0e0" stroke="#424242" stroke-width="1"/>
    <text x="682.8" y="120.2" text-anchor="start" font-size="8" font-family="sans-serif" dominant-baseline="middle" fill="#555" stroke="white" stroke-width="2" paint-order="stroke fill">a_val</text>
    <rect x="672.8" y="130.8" width="8" height="8" fill="#e0e0e0" stroke="#424242" stroke-width="1"/>
    <text x="682.8" y="134.8" text-anchor="start" font-size="8" font-family="sans-serif" dominant-baseline="middle" fill="#555" stroke="white" stroke-width="2" paint-order="stroke fill">f</text>
    <rect x="792.8" y="123.5" width="8" height="8" fill="#e0e0e0" stroke="#424242" stroke-width="1"/>
    <text x="790.8" y="127.5" text-anchor="end" font-size="8" font-family="sans-serif" dominant-baseline="middle" fill="#555" stroke="white" stroke-width="2" paint-order="stroke fill">sub_b</text>
  </g>
  <g class="action-node"><title>Concatenate: sub1 ++ sub2 ++ sub3. This is the key step: all branches merged into one flat List b.</title>
    <rect x="990.4" y="151.0" width="120" height="44" rx="12" fill="#e8f5e9" stroke="#388e3c" stroke-width="1.5"/>
    <text x="1050.4" y="173.0" text-anchor="middle" font-size="11" font-family="sans-serif" dominant-baseline="middle" fill="#333">flatten</text>
    <rect x="986.4" y="158.0" width="8" height="8" fill="#e0e0e0" stroke="#424242" stroke-width="1"/>
    <text x="996.4" y="162.0" text-anchor="start" font-size="8" font-family="sans-serif" dominant-baseline="middle" fill="#555" stroke="white" stroke-width="2" paint-order="stroke fill">sub1</text>
    <rect x="986.4" y="169.0" width="8" height="8" fill="#e0e0e0" stroke="#424242" stroke-width="1"/>
    <text x="996.4" y="173.0" text-anchor="start" font-size="8" font-family="sans-serif" dominant-baseline="middle" fill="#555" stroke="white" stroke-width="2" paint-order="stroke fill">sub2</text>
    <rect x="986.4" y="180.0" width="8" height="8" fill="#e0e0e0" stroke="#424242" stroke-width="1"/>
    <text x="996.4" y="184.0" text-anchor="start" font-size="8" font-family="sans-serif" dominant-baseline="middle" fill="#555" stroke="white" stroke-width="2" paint-order="stroke fill">sub3</text>
    <rect x="1106.4" y="169.0" width="8" height="8" fill="#e0e0e0" stroke="#424242" stroke-width="1"/>
    <text x="1104.4" y="173.0" text-anchor="end" font-size="8" font-family="sans-serif" dominant-baseline="middle" fill="#555" stroke="white" stroke-width="2" paint-order="stroke fill">flat</text>
  </g>
  <g class="object-node"><title>List a — every element is independently processed. Empty list short-circuits: no elements, no calls.</title>
    <rect x="46.0" y="208.0" width="110" height="38" fill="#f5f5f5" stroke="#616161" stroke-width="1.5"/>
    <text x="101.0" y="227.0" text-anchor="middle" font-size="11" font-family="sans-serif" dominant-baseline="middle" fill="#333">la : List a</text>
  </g>
  <g class="object-node hof"><title>(a ⟶ List b) — called for EVERY element. Each call may return [], [b], or [b1, b2, ...] — any size.</title>
    <rect x="196.0" y="68.0" width="120.8" height="38" fill="#e0f2f1" stroke="#00796b" stroke-width="1.5"/>
    <text x="256.4" y="80.0" text-anchor="middle" font-size="9" font-style="italic" font-family="sans-serif" dominant-baseline="middle" fill="#00796b">«function»</text>
    <text x="256.4" y="94.0" text-anchor="middle" font-size="11" font-family="sans-serif" dominant-baseline="middle" fill="#333">f : a ⟶ List b</text>
  </g>
  <g class="object-node"><title>First element of List a</title>
    <rect x="201.4" y="260.0" width="110" height="38" fill="#f5f5f5" stroke="#616161" stroke-width="1.5"/>
    <text x="256.4" y="279.0" text-anchor="middle" font-size="11" font-family="sans-serif" dominant-baseline="middle" fill="#333">a1 : a</text>
  </g>
  <g class="object-node"><title>Second element of List a</title>
    <rect x="361.8" y="287.5" width="110" height="38" fill="#f5f5f5" stroke="#616161" stroke-width="1.5"/>
    <text x="416.8" y="306.5" text-anchor="middle" font-size="11" font-family="sans-serif" dominant-baseline="middle" fill="#333">a2 : a</text>
  </g>
  <g class="object-node"><title>Third element of List a</title>
    <rect x="521.8" y="106.0" width="110" height="38" fill="#f5f5f5" stroke="#616161" stroke-width="1.5"/>
    <text x="576.8" y="125.0" text-anchor="middle" font-size="11" font-family="sans-serif" dominant-baseline="middle" fill="#333">a3 : a</text>
  </g>
  <g class="object-node"><title>List b — all b values produced for a1. May be empty.</title>
    <rect x="836.8" y="250.0" width="113.60000000000001" height="38" fill="#f5f5f5" stroke="#616161" stroke-width="1.5"/>
    <text x="893.6" y="269.0" text-anchor="middle" font-size="11" font-family="sans-serif" dominant-baseline="middle" fill="#333">sub1 : List b</text>
  </g>
  <g class="object-node"><title>List b — all b values produced for a2. May be empty.</title>
    <rect x="836.8" y="198.0" width="113.60000000000001" height="38" fill="#f5f5f5" stroke="#616161" stroke-width="1.5"/>
    <text x="893.6" y="217.0" text-anchor="middle" font-size="11" font-family="sans-serif" dominant-baseline="middle" fill="#333">sub2 : List b</text>
  </g>
  <g class="object-node"><title>List b — all b values produced for a3. May be empty.</title>
    <rect x="836.8" y="146.0" width="113.60000000000001" height="38" fill="#f5f5f5" stroke="#616161" stroke-width="1.5"/>
    <text x="893.6" y="165.0" text-anchor="middle" font-size="11" font-family="sans-serif" dominant-baseline="middle" fill="#333">sub3 : List b</text>
  </g>
  <g class="object-node"><title>List b — the complete output: sub1 ++ sub2 ++ sub3. Non-determinism is preserved as multiple values.</title>
    <rect x="1150.4" y="154.0" width="110" height="38" fill="#f5f5f5" stroke="#616161" stroke-width="1.5"/>
    <text x="1205.4" y="173.0" text-anchor="middle" font-size="11" font-family="sans-serif" dominant-baseline="middle" fill="#333">lb : List b</text>
  </g>
</g>
</svg>