<?xml version="1.0" encoding="UTF-8"?>
<svg xmlns="http://www.w3.org/2000/svg" viewBox="0 0 1350.4 269" width="1350.4" height="269">
  <defs>
    <marker id="arrowFilled" viewBox="0 0 10 10" refX="0" refY="5" markerWidth="8" markerHeight="8" orient="auto-start-reverse">
      <path d="M0,1.5 L10,5 L0,8.5 L2.5,5 Z" fill="#424242"/>
    </marker>
    <marker id="arrowOpen" viewBox="0 0 10 10" refX="0" refY="5" markerWidth="8" markerHeight="8" orient="auto-start-reverse">
      <path d="M0,1.5 L10,5 L0,8.5" fill="none" stroke="#424242" stroke-width="1.25"/>
    </marker>
    <marker id="arrowHof" viewBox="0 0 10 10" refX="0" refY="5" markerWidth="8" markerHeight="8" orient="auto-start-reverse">
      <path d="M0,1.5 L10,5 L0,8.5 L2.5,5 Z" fill="#00796b"/>
    </marker>
  </defs>
  <rect width="1350.4" height="269" fill="white"/>
  <text x="675.2" y="20" text-anchor="middle" font-size="14" font-weight="bold" font-family="sans-serif" fill="#222">List bind (concatMap): apply f to every element, concatenate all results</text>
  <g transform="translate(0,28)">
    <rect x="0" y="0" width="1350.4" height="241" rx="8" fill="#fafafa" stroke="#9e9e9e" stroke-width="1.5"/>
    <g class="diagram-frame-tab tab-activity">
      <path d="M0,0 L102.8,0 L102.8,12 L92.8,22 L0,22 Z" fill="#e0e0e0" stroke="#9e9e9e" stroke-width="1"/>
      <text x="51.4" y="12" text-anchor="middle" font-size="10" font-family="sans-serif" dominant-baseline="middle" fill="#333">«activity» &gt;&gt;=</text>
    </g>
    <g class="edge">
      <path d="M146.0,105.0 L179.4,105.0" fill="none" stroke="#424242" stroke-width="1.5" stroke-linejoin="round" stroke-linecap="round" marker-end="url(#arrowFilled)"/>
      <text x="168.7" y="99" text-anchor="middle" dominant-baseline="middle" font-size="9" font-family="sans-serif" fill="#333" stroke="white" stroke-width="3" paint-order="stroke fill">∀ a</text>
    </g>
    <g class="edge">
      <path d="M146.0,115.0 L151.0,115.0 Q156.0,115.0 156.0,120.0 L156.0,162.0 Q156.0,168.0 162.0,168.0 L326.3,168.0 Q326.8,168.0 326.8,168.5 L326.8,168.5 Q326.8,169.0 327.3,169.0 L347.8,169.0" fill="none" stroke="#424242" stroke-width="1.5" stroke-linejoin="round" stroke-linecap="round" marker-end="url(#arrowFilled)"/>
      <text x="241.4" y="162" text-anchor="middle" dominant-baseline="middle" font-size="9" font-family="sans-serif" fill="#333" stroke="white" stroke-width="3" paint-order="stroke fill">∀ a</text>
    </g>
    <g class="edge">
      <path d="M146.0,96.0 L151.0,96.0 Q156.0,96.0 156.0,91.0 L156.0,75.0 Q156.0,69.0 162.0,69.0 L311.8,69.0 Q316.8,69.0 316.8,64.0 L316.8,64.0 Q316.8,59.0 321.8,59.0 L347.8,59.0" fill="none" stroke="#424242" stroke-width="1.5" stroke-linejoin="round" stroke-linecap="round" marker-end="url(#arrowFilled)"/>
      <text x="236.4" y="63" text-anchor="middle" dominant-baseline="middle" font-size="9" font-family="sans-serif" fill="#333" stroke="white" stroke-width="3" paint-order="stroke fill">∀ a</text>
    </g>
    <g class="edge">
      <path d="M301.4,105.0 L338.8,105.0" fill="none" stroke="#424242" stroke-width="1.5" stroke-linejoin="round" stroke-linecap="round" marker-end="url(#arrowFilled)"/>
    </g>
    <g class="edge hof-edge">
      <path d="M306.8,195.0 L311.8,195.0 Q316.8,195.0 316.8,190.0 L316.8,129.0 Q316.8,123.0 322.8,123.0 L338.8,123.0" fill="none" stroke="#00796b" stroke-width="1.5" stroke-linejoin="round" stroke-linecap="round" marker-end="url(#arrowHof)"/>
    </g>
    <g class="edge">
      <path d="M478.8,108.0 L862.8,108.0" fill="none" stroke="#424242" stroke-width="1.5" stroke-linejoin="round" stroke-linecap="round" marker-end="url(#arrowFilled)"/>
    </g>
    <g class="edge">
      <path d="M469.8,169.0 L514.8,169.0" fill="none" stroke="#424242" stroke-width="1.5" stroke-linejoin="round" stroke-linecap="round" marker-end="url(#arrowFilled)"/>
    </g>
    <g class="edge hof-edge">
      <path d="M306.8,204.0 L486.8,204.0 Q492.8,204.0 492.8,198.0 L492.8,190.0 Q492.8,184.0 498.8,184.0 L514.8,184.0" fill="none" stroke="#00796b" stroke-width="1.5" stroke-linejoin="round" stroke-linecap="round" marker-end="url(#arrowHof)"/>
    </g>
    <g class="edge">
      <path d="M654.8,167.0 L662.8,167.0 Q668.8,167.0 668.8,161.0 L668.8,150.0 Q668.8,144.0 674.8,144.0 L698.0,144.0" fill="none" stroke="#424242" stroke-width="1.5" stroke-linejoin="round" stroke-linecap="round" marker-end="url(#arrowFilled)"/>
    </g>
    <g class="edge">
      <path d="M469.8,59.0 L486.8,59.0 Q492.8,59.0 492.8,65.0 L492.8,91.0 Q492.8,97.0 498.8,97.0 L672.8,97.0 Q678.8,97.0 678.8,103.0 L678.8,189.0 Q678.8,195.0 684.8,195.0 L690.8,195.0" fill="none" stroke="#424242" stroke-width="1.5" stroke-linejoin="round" stroke-linecap="round" marker-end="url(#arrowFilled)"/>
    </g>
    <g class="edge hof-edge">
      <path d="M306.8,214.0 L316.3,214.0 Q316.8,214.0 316.8,214.5 L316.8,214.5 Q316.8,215.0 317.3,215.0 L666.3,215.0 Q668.8,215.0 668.8,212.5 L668.8,212.5 Q668.8,210.0 671.3,210.0 L690.8,210.0" fill="none" stroke="#00796b" stroke-width="1.5" stroke-linejoin="round" stroke-linecap="round" marker-end="url(#arrowHof)"/>
    </g>
    <g class="edge">
      <path d="M830.8,193.0 L838.8,193.0 Q844.8,193.0 844.8,187.0 L844.8,185.0 Q844.8,179.0 850.8,179.0 L862.8,179.0" fill="none" stroke="#424242" stroke-width="1.5" stroke-linejoin="round" stroke-linecap="round" marker-end="url(#arrowFilled)"/>
    </g>
    <g class="edge">
      <path d="M988.4,108.0 L1002.4,108.0 Q1008.4,108.0 1008.4,114.0 L1008.4,125.0 Q1008.4,131.0 1014.4,131.0 L1020.4,131.0" fill="none" stroke="#424242" stroke-width="1.5" stroke-linejoin="round" stroke-linecap="round" marker-end="url(#arrowFilled)"/>
    </g>
    <g class="edge">
      <path d="M823.6,144.0 L844.3,144.0 Q844.8,144.0 844.8,143.5 L844.8,143.5 Q844.8,143.0 845.3,143.0 L1020.4,143.0" fill="none" stroke="#424242" stroke-width="1.5" stroke-linejoin="round" stroke-linecap="round" marker-end="url(#arrowFilled)"/>
    </g>
    <g class="edge">
      <path d="M988.4,179.0 L1002.4,179.0 Q1008.4,179.0 1008.4,173.0 L1008.4,161.0 Q1008.4,155.0 1014.4,155.0 L1020.4,155.0" fill="none" stroke="#424242" stroke-width="1.5" stroke-linejoin="round" stroke-linecap="round" marker-end="url(#arrowFilled)"/>
    </g>
    <g class="edge">
      <path d="M1160.4,141.0 L1192.4,141.0" fill="none" stroke="#424242" stroke-width="1.5" stroke-linejoin="round" stroke-linecap="round" marker-end="url(#arrowFilled)"/>
    </g>
    <g class="edge">
      <path d="M474.8,124.0 L486.8,124.0 Q492.8,124.0 492.8,130.0 L492.8,152.0 Q492.8,158.0 498.8,158.0 L518.8,158.0" fill="none" stroke="#424242" stroke-width="1.5" stroke-linejoin="round" stroke-linecap="round" marker-end="url(#arrowOpen)" stroke-dasharray="6,4"/>
    </g>
    <g class="edge">
      <path d="M650.8,183.0 L668.3,183.0 Q668.8,183.0 668.8,183.5 L668.8,183.5 Q668.8,184.0 669.3,184.0 L694.8,184.0" fill="none" stroke="#424242" stroke-width="1.5" stroke-linejoin="round" stroke-linecap="round" marker-end="url(#arrowOpen)" stroke-dasharray="6,4"/>
    </g>
    <g class="edge">
      <path d="M826.8,209.0 L842.3,209.0 Q844.8,209.0 844.8,211.5 L844.8,211.5 Q844.8,214.0 847.3,214.0 L992.4,214.0 Q998.4,214.0 998.4,208.0 L998.4,129.0 Q998.4,123.0 1004.4,123.0 L1024.4,123.0" fill="none" stroke="#424242" stroke-width="1.5" stroke-linejoin="round" stroke-linecap="round" marker-end="url(#arrowOpen)" stroke-dasharray="6,4"/>
    </g>
    <g class="action-node">
      <title>f(a1) — sub-list of b values for the first element (0 or more results)</title>
      <rect x="354.8" y="92" width="120" height="44" rx="12" fill="#e8f5e9" stroke="#388e3c" stroke-width="1.5"/>
      <text class="action-label" x="414.8" y="114" text-anchor="middle" font-size="11" font-family="sans-serif" dominant-baseline="middle" fill="#333">app1</text>
      <g class="pin pin-in">
        <rect x="350.8" y="102.66666666666667" width="8" height="8" fill="#e0e0e0" stroke="#424242" stroke-width="1"/>
        <text x="360.8" y="106.66666666666667" text-anchor="start" font-size="8" font-family="sans-serif" dominant-baseline="middle" fill="#555" stroke="white" stroke-width="2" paint-order="stroke fill">a_val</text>
      </g>
      <g class="pin pin-in">
        <rect x="350.8" y="117.33333333333333" width="8" height="8" fill="#e0e0e0" stroke="#424242" stroke-width="1"/>
        <text x="360.8" y="121.33333333333333" text-anchor="start" font-size="8" font-family="sans-serif" dominant-baseline="middle" fill="#555" stroke="white" stroke-width="2" paint-order="stroke fill">f</text>
      </g>
      <g class="pin pin-out">
        <rect x="470.8" y="110" width="8" height="8" fill="#e0e0e0" stroke="#424242" stroke-width="1"/>
        <text x="468.8" y="114" text-anchor="end" font-size="8" font-family="sans-serif" dominant-baseline="middle" fill="#555" stroke="white" stroke-width="2" paint-order="stroke fill">sub_b</text>
      </g>
    </g>
    <g class="action-node">
      <title>f(a2) — sub-list of b values for the second element (0 or more results)</title>
      <rect x="530.8" y="151" width="120" height="44" rx="12" fill="#e8f5e9" stroke="#388e3c" stroke-width="1.5"/>
      <text class="action-label" x="590.8" y="173" text-anchor="middle" font-size="11" font-family="sans-serif" dominant-baseline="middle" fill="#333">app2</text>
      <g class="pin pin-in">
        <rect x="526.8" y="161.66666666666666" width="8" height="8" fill="#e0e0e0" stroke="#424242" stroke-width="1"/>
        <text x="536.8" y="165.66666666666666" text-anchor="start" font-size="8" font-family="sans-serif" dominant-baseline="middle" fill="#555" stroke="white" stroke-width="2" paint-order="stroke fill">a_val</text>
      </g>
      <g class="pin pin-in">
        <rect x="526.8" y="176.33333333333334" width="8" height="8" fill="#e0e0e0" stroke="#424242" stroke-width="1"/>
        <text x="536.8" y="180.33333333333334" text-anchor="start" font-size="8" font-family="sans-serif" dominant-baseline="middle" fill="#555" stroke="white" stroke-width="2" paint-order="stroke fill">f</text>
      </g>
      <g class="pin pin-out">
        <rect x="646.8" y="169" width="8" height="8" fill="#e0e0e0" stroke="#424242" stroke-width="1"/>
        <text x="644.8" y="173" text-anchor="end" font-size="8" font-family="sans-serif" dominant-baseline="middle" fill="#555" stroke="white" stroke-width="2" paint-order="stroke fill">sub_b</text>
      </g>
    </g>
    <g class="action-node">
      <title>f(a3) — sub-list of b values for the third element (0 or more results)</title>
      <rect x="706.8" y="177" width="120" height="44" rx="12" fill="#e8f5e9" stroke="#388e3c" stroke-width="1.5"/>
      <text class="action-label" x="766.8" y="199" text-anchor="middle" font-size="11" font-family="sans-serif" dominant-baseline="middle" fill="#333">app3</text>
      <g class="pin pin-in">
        <rect x="702.8" y="187.66666666666666" width="8" height="8" fill="#e0e0e0" stroke="#424242" stroke-width="1"/>
        <text x="712.8" y="191.66666666666666" text-anchor="start" font-size="8" font-family="sans-serif" dominant-baseline="middle" fill="#555" stroke="white" stroke-width="2" paint-order="stroke fill">a_val</text>
      </g>
      <g class="pin pin-in">
        <rect x="702.8" y="202.33333333333334" width="8" height="8" fill="#e0e0e0" stroke="#424242" stroke-width="1"/>
        <text x="712.8" y="206.33333333333334" text-anchor="start" font-size="8" font-family="sans-serif" dominant-baseline="middle" fill="#555" stroke="white" stroke-width="2" paint-order="stroke fill">f</text>
      </g>
      <g class="pin pin-out">
        <rect x="822.8" y="195" width="8" height="8" fill="#e0e0e0" stroke="#424242" stroke-width="1"/>
        <text x="820.8" y="199" text-anchor="end" font-size="8" font-family="sans-serif" dominant-baseline="middle" fill="#555" stroke="white" stroke-width="2" paint-order="stroke fill">sub_b</text>
      </g>
    </g>
    <g class="action-node">
      <title>Concatenate: sub1 ++ sub2 ++ sub3. This is the key step: all branches merged into one flat List b.</title>
      <rect x="1036.4" y="119" width="120" height="44" rx="12" fill="#e8f5e9" stroke="#388e3c" stroke-width="1.5"/>
      <text class="action-label" x="1096.4" y="141" text-anchor="middle" font-size="11" font-family="sans-serif" dominant-baseline="middle" fill="#333">flatten</text>
      <g class="pin pin-in">
        <rect x="1032.4" y="126" width="8" height="8" fill="#e0e0e0" stroke="#424242" stroke-width="1"/>
        <text x="1042.4" y="130" text-anchor="start" font-size="8" font-family="sans-serif" dominant-baseline="middle" fill="#555" stroke="white" stroke-width="2" paint-order="stroke fill">sub1</text>
      </g>
      <g class="pin pin-in">
        <rect x="1032.4" y="137" width="8" height="8" fill="#e0e0e0" stroke="#424242" stroke-width="1"/>
        <text x="1042.4" y="141" text-anchor="start" font-size="8" font-family="sans-serif" dominant-baseline="middle" fill="#555" stroke="white" stroke-width="2" paint-order="stroke fill">sub2</text>
      </g>
      <g class="pin pin-in">
        <rect x="1032.4" y="148" width="8" height="8" fill="#e0e0e0" stroke="#424242" stroke-width="1"/>
        <text x="1042.4" y="152" text-anchor="start" font-size="8" font-family="sans-serif" dominant-baseline="middle" fill="#555" stroke="white" stroke-width="2" paint-order="stroke fill">sub3</text>
      </g>
      <g class="pin pin-out">
        <rect x="1152.4" y="137" width="8" height="8" fill="#e0e0e0" stroke="#424242" stroke-width="1"/>
        <text x="1150.4" y="141" text-anchor="end" font-size="8" font-family="sans-serif" dominant-baseline="middle" fill="#555" stroke="white" stroke-width="2" paint-order="stroke fill">flat</text>
      </g>
    </g>
    <g class="object-node">
      <title>List a — every element is independently processed. Empty list short-circuits: no elements, no calls.</title>
      <rect x="36" y="86" width="110" height="38" fill="#f5f5f5" stroke="#616161" stroke-width="1.5"/>
      <text x="91" y="105" text-anchor="middle" font-size="11" font-family="sans-serif" dominant-baseline="middle" fill="#333">la : List a</text>
    </g>
    <g class="object-node hof">
      <title>(a ⟶ List b) — called for EVERY element. Each call may return [], [b], or [b1, b2, ...] — any size.</title>
      <rect x="186" y="185" width="120.8" height="38" fill="#e0f2f1" stroke="#00796b" stroke-width="1.5"/>
      <text x="246.4" y="197" text-anchor="middle" font-size="9" font-style="italic" font-family="sans-serif" dominant-baseline="middle" fill="#00796b">«function»</text>
      <text x="246.4" y="211" text-anchor="middle" font-size="11" font-family="sans-serif" dominant-baseline="middle" fill="#333">f : a ⟶ List b</text>
    </g>
    <g class="object-node">
      <title>First element of List a</title>
      <rect x="191.4" y="86" width="110" height="38" fill="#f5f5f5" stroke="#616161" stroke-width="1.5"/>
      <text x="246.4" y="105" text-anchor="middle" font-size="11" font-family="sans-serif" dominant-baseline="middle" fill="#333">a1 : a</text>
    </g>
    <g class="object-node">
      <title>Second element of List a</title>
      <rect x="359.8" y="150" width="110" height="38" fill="#f5f5f5" stroke="#616161" stroke-width="1.5"/>
      <text x="414.8" y="169" text-anchor="middle" font-size="11" font-family="sans-serif" dominant-baseline="middle" fill="#333">a2 : a</text>
    </g>
    <g class="object-node">
      <title>Third element of List a</title>
      <rect x="359.8" y="40" width="110" height="38" fill="#f5f5f5" stroke="#616161" stroke-width="1.5"/>
      <text x="414.8" y="59" text-anchor="middle" font-size="11" font-family="sans-serif" dominant-baseline="middle" fill="#333">a3 : a</text>
    </g>
    <g class="object-node">
      <title>List b — all b values produced for a1. May be empty.</title>
      <rect x="874.8" y="89" width="113.60000000000001" height="38" fill="#f5f5f5" stroke="#616161" stroke-width="1.5"/>
      <text x="931.5999999999999" y="108" text-anchor="middle" font-size="11" font-family="sans-serif" dominant-baseline="middle" fill="#333">sub1 : List b</text>
    </g>
    <g class="object-node">
      <title>List b — all b values produced for a2. May be empty.</title>
      <rect x="710" y="125" width="113.60000000000001" height="38" fill="#f5f5f5" stroke="#616161" stroke-width="1.5"/>
      <text x="766.8" y="144" text-anchor="middle" font-size="11" font-family="sans-serif" dominant-baseline="middle" fill="#333">sub2 : List b</text>
    </g>
    <g class="object-node">
      <title>List b — all b values produced for a3. May be empty.</title>
      <rect x="874.8" y="160" width="113.60000000000001" height="38" fill="#f5f5f5" stroke="#616161" stroke-width="1.5"/>
      <text x="931.5999999999999" y="179" text-anchor="middle" font-size="11" font-family="sans-serif" dominant-baseline="middle" fill="#333">sub3 : List b</text>
    </g>
    <g class="object-node">
      <title>List b — the complete output: sub1 ++ sub2 ++ sub3. Non-determinism is preserved as multiple values.</title>
      <rect x="1204.4" y="122" width="110" height="38" fill="#f5f5f5" stroke="#616161" stroke-width="1.5"/>
      <text x="1259.4" y="141" text-anchor="middle" font-size="11" font-family="sans-serif" dominant-baseline="middle" fill="#333">lb : List b</text>
    </g>
  </g>
</svg>
