<?xml version="1.0" encoding="UTF-8"?>
<svg xmlns="http://www.w3.org/2000/svg" viewBox="0 0 838.4 283.5" width="838.4" height="283.5">
<defs>
  <marker id="arrowFilled" viewBox="0 0 10 10" refX="9" refY="5" markerWidth="7" markerHeight="7" orient="auto-start-reverse">
    <path d="M0,0 L10,5 L0,10 z" fill="#424242"/>
  </marker>
  <marker id="arrowOpen" viewBox="0 0 10 10" refX="9" refY="5" markerWidth="7" markerHeight="7" orient="auto-start-reverse">
    <path d="M0,0 L10,5 L0,10" fill="none" stroke="#424242" stroke-width="1.5"/>
  </marker>
  <marker id="arrowHof" viewBox="0 0 10 10" refX="9" refY="5" markerWidth="7" markerHeight="7" orient="auto-start-reverse">
    <path d="M0,0 L10,5 L0,10 z" fill="#00796b"/>
  </marker>
</defs>
<rect width="838.4" height="283.5" fill="white"/>
<text x="419.2" y="20" text-anchor="middle" font-size="14" font-weight="bold" font-family="sans-serif" fill="#222">Maybe &gt;&gt;= : pattern match on ma determines the path</text>
<g transform="translate(0,28)">
  <rect x="0" y="0" width="838.4" height="255.5" rx="8" fill="#fafafa" stroke="#9e9e9e" stroke-width="1.5"/>
  <g class="activity-frame-tab">
    <path d="M0,0 L92.8,0 L102.8,22 L0,22 Z" fill="#e0e0e0" stroke="#9e9e9e" stroke-width="1"/>
    <text x="51.4" y="12.0" text-anchor="middle" font-size="10" font-family="sans-serif" dominant-baseline="middle" fill="#333">«activity» &gt;&gt;=</text>
  </g>
  <g class="edge">
    <path d="M156.0,132.5 C156.0,132.5 196.0,132.5 196.0,132.5" fill="none" stroke="#424242" stroke-width="1.5" marker-end="url(#arrowFilled)"/>
    
  </g>
  <g class="edge">
    <path d="M219.5,137.0 C236.5,137.0 251.0,187.5 268.0,187.5" fill="none" stroke="#424242" stroke-width="1.5" marker-end="url(#arrowFilled)"/>
    <text x="253.2" y="153.2" text-anchor="middle" dominant-baseline="middle" font-size="9" font-family="sans-serif" fill="#333" stroke="white" stroke-width="3" paint-order="stroke fill">Just a</text>
  </g>
  <g class="edge">
    <path d="M388.0,187.5 C407.3,187.5 423.9,167.3 443.2,167.3" fill="none" stroke="#424242" stroke-width="1.5" marker-end="url(#arrowFilled)"/>
    
  </g>
  <g class="edge hof-edge">
    <path d="M392.0,142.5 C392.0,142.5 443.2,152.7 443.2,152.7" fill="none" stroke="#00796b" stroke-width="1.5" marker-end="url(#arrowHof)"/>
    
  </g>
  <g class="edge">
    <path d="M563.2,160.0 C582.0,160.0 598.1,135.0 616.9,135.0" fill="none" stroke="#424242" stroke-width="1.5" marker-end="url(#arrowFilled)"/>
    
  </g>
  <g class="edge">
    <path d="M222.1,130.6 C295.6,130.6 358.5,98.0 432.0,98.0" fill="none" stroke="#424242" stroke-width="1.5" marker-end="url(#arrowFilled)"/>
    <text x="325.1" y="101.5" text-anchor="middle" dominant-baseline="middle" font-size="9" font-family="sans-serif" fill="#333" stroke="white" stroke-width="3" paint-order="stroke fill">Nothing</text>
  </g>
  <g class="edge">
    <path d="M555.5,106.0 C577.4,106.0 596.2,128.8 618.1,128.8" fill="none" stroke="#424242" stroke-width="1.5" marker-end="url(#arrowFilled)"/>
    
  </g>
  <g class="edge">
    <path d="M642.4,132.5 C642.4,132.5 682.4,132.5 682.4,132.5" fill="none" stroke="#424242" stroke-width="1.5" marker-end="url(#arrowFilled)"/>
    
  </g>
  <g class="action-node"><title>Unwrap: extract the a from Just a.</title>
    <rect x="268.0" y="165.5" width="120" height="44" rx="12" fill="#e8f5e9" stroke="#388e3c" stroke-width="1.5"/>
    <text x="328.0" y="187.5" text-anchor="middle" font-size="11" font-family="sans-serif" dominant-baseline="middle" fill="#333">unwrap</text>
    <rect x="264.0" y="183.5" width="8" height="8" fill="#e0e0e0" stroke="#424242" stroke-width="1"/>
    <text x="274.0" y="187.5" text-anchor="start" font-size="8" font-family="sans-serif" dominant-baseline="middle" fill="#555" stroke="white" stroke-width="2" paint-order="stroke fill">ma</text>
    <rect x="384.0" y="183.5" width="8" height="8" fill="#e0e0e0" stroke="#424242" stroke-width="1"/>
    <text x="382.0" y="187.5" text-anchor="end" font-size="8" font-family="sans-serif" dominant-baseline="middle" fill="#555" stroke="white" stroke-width="2" paint-order="stroke fill">a</text>
  </g>
  <g class="action-node"><title>Apply f(a). Returns Maybe b — may itself be Just b or Nothing.</title>
    <rect x="443.2" y="138.0" width="120" height="44" rx="12" fill="#e8f5e9" stroke="#388e3c" stroke-width="1.5"/>
    <text x="503.2" y="160.0" text-anchor="middle" font-size="11" font-family="sans-serif" dominant-baseline="middle" fill="#333">apply_f</text>
    <rect x="439.2" y="148.7" width="8" height="8" fill="#e0e0e0" stroke="#424242" stroke-width="1"/>
    <text x="449.2" y="152.7" text-anchor="start" font-size="8" font-family="sans-serif" dominant-baseline="middle" fill="#555" stroke="white" stroke-width="2" paint-order="stroke fill">a</text>
    <rect x="439.2" y="163.3" width="8" height="8" fill="#e0e0e0" stroke="#424242" stroke-width="1"/>
    <text x="449.2" y="167.3" text-anchor="start" font-size="8" font-family="sans-serif" dominant-baseline="middle" fill="#555" stroke="white" stroke-width="2" paint-order="stroke fill">f</text>
    <rect x="559.2" y="156.0" width="8" height="8" fill="#e0e0e0" stroke="#424242" stroke-width="1"/>
    <text x="557.2" y="160.0" text-anchor="end" font-size="8" font-family="sans-serif" dominant-baseline="middle" fill="#555" stroke="white" stroke-width="2" paint-order="stroke fill">mb</text>
  </g>
  <g class="object-node"><title>Maybe a — the input value. Either Just a or Nothing.</title>
    <rect x="46.0" y="113.5" width="110" height="38" fill="#f5f5f5" stroke="#616161" stroke-width="1.5"/>
    <text x="101.0" y="132.5" text-anchor="middle" font-size="11" font-family="sans-serif" dominant-baseline="middle" fill="#333">ma : Maybe a</text>
  </g>
  <g class="object-node hof"><title>(a ⟶ Maybe b) — the continuation. Only called when ma is Just a.</title>
    <rect x="264.0" y="113.5" width="128" height="38" fill="#e0f2f1" stroke="#00796b" stroke-width="1.5"/>
    <text x="328.0" y="125.5" text-anchor="middle" font-size="9" font-style="italic" font-family="sans-serif" dominant-baseline="middle" fill="#00796b">«function»</text>
    <text x="328.0" y="139.5" text-anchor="middle" font-size="11" font-family="sans-serif" dominant-baseline="middle" fill="#333">f : a ⟶ Maybe b</text>
  </g>
  <g class="object-node"><title>Nothing — propagated unchanged. f is never called.</title>
    <rect x="432.0" y="68.0" width="142.4" height="38" fill="#f5f5f5" stroke="#616161" stroke-width="1.5"/>
    <text x="503.2" y="87.0" text-anchor="middle" font-size="11" font-family="sans-serif" dominant-baseline="middle" fill="#333">nothing : Nothing</text>
  </g>
  <g class="object-node"><title>Maybe b — the single result of bind.</title>
    <rect x="682.4" y="113.5" width="110" height="38" fill="#f5f5f5" stroke="#616161" stroke-width="1.5"/>
    <text x="737.4" y="132.5" text-anchor="middle" font-size="11" font-family="sans-serif" dominant-baseline="middle" fill="#333">mb : Maybe b</text>
  </g>
  <g class="decision-node"><title>Pattern match: is ma = Just a  or  Nothing?</title>
    <polygon points="210.0,118.5 224.0,132.5 210.0,146.5 196.0,132.5" fill="#fff9c4" stroke="#f9a825" stroke-width="1.5"/>
  </g>
  <g class="merge-node"><title>Merge: both paths produce Maybe b (Just-path result or Nothing).</title>
    <polygon points="628.4,118.5 642.4,132.5 628.4,146.5 614.4,132.5" fill="#fff9c4" stroke="#f9a825" stroke-width="1.5"/>
  </g>
</g>
</svg>