<?xml version="1.0" encoding="UTF-8"?>
<svg xmlns="http://www.w3.org/2000/svg" viewBox="0 0 1230.4 352" width="1230.4" height="352">
  <defs>
    <marker id="arrowFilled" viewBox="0 0 10 10" refX="0" refY="5" markerWidth="8" markerHeight="8" orient="auto-start-reverse">
      <path d="M0,1.5 L10,5 L0,8.5 L2.5,5 Z" fill="#424242"/>
    </marker>
    <marker id="arrowOpen" viewBox="0 0 10 10" refX="0" refY="5" markerWidth="8" markerHeight="8" orient="auto-start-reverse">
      <path d="M0,1.5 L10,5 L0,8.5" fill="none" stroke="#424242" stroke-width="1.25"/>
    </marker>
    <marker id="arrowHof" viewBox="0 0 10 10" refX="0" refY="5" markerWidth="8" markerHeight="8" orient="auto-start-reverse">
      <path d="M0,1.5 L10,5 L0,8.5 L2.5,5 Z" fill="#00796b"/>
    </marker>
  </defs>
  <rect width="1230.4" height="352" fill="white"/>
  <text x="615.2" y="20" text-anchor="middle" font-size="14" font-weight="bold" font-family="sans-serif" fill="#222">Parser bind: thread rest to f(a)  |  Nothing → Nothing  (f skipped)</text>
  <g transform="translate(0,28)">
    <rect x="0" y="0" width="1230.4" height="324" rx="8" fill="#fafafa" stroke="#9e9e9e" stroke-width="1.5"/>
    <g class="activity-frame-tab">
      <path d="M0,0 L102.8,0 L102.8,12 L92.8,22 L0,22 Z" fill="#e0e0e0" stroke="#9e9e9e" stroke-width="1"/>
      <text x="51.4" y="12" text-anchor="middle" font-size="10" font-family="sans-serif" dominant-baseline="middle" fill="#333">«activity» &gt;&gt;=</text>
    </g>
    <g class="edge">
      <path d="M166.8,167.0 L194.8,167.0" fill="none" stroke="#424242" stroke-width="1.5" stroke-linejoin="round" stroke-linecap="round" marker-end="url(#arrowFilled)"/>
    </g>
    <g class="edge">
      <path d="M166.8,219.0 L171.8,219.0 Q176.8,219.0 176.8,214.0 L176.8,191.0 Q176.8,185.0 182.8,185.0 L194.8,185.0" fill="none" stroke="#424242" stroke-width="1.5" stroke-linejoin="round" stroke-linecap="round" marker-end="url(#arrowFilled)"/>
    </g>
    <g class="edge">
      <path d="M342.8,162.0 L383.4,162.0" fill="none" stroke="#424242" stroke-width="1.5" stroke-linejoin="round" stroke-linecap="round" marker-end="url(#arrowFilled)"/>
    </g>
    <g class="edge">
      <path d="M342.8,174.0 L356.8,174.0 Q362.8,174.0 362.8,180.0 L362.8,243.0 Q362.8,249.0 368.8,249.0 L527.0,249.0 Q528.0,249.0 528.0,248.0 L528.0,248.0 Q528.0,247.0 529.0,247.0 L557.2,247.0" fill="none" stroke="#424242" stroke-width="1.5" stroke-linejoin="round" stroke-linecap="round" marker-end="url(#arrowFilled)"/>
    </g>
    <g class="edge">
      <path d="M505.4,162.0 L546.0,162.0" fill="none" stroke="#424242" stroke-width="1.5" stroke-linejoin="round" stroke-linecap="round" marker-end="url(#arrowFilled)"/>
    </g>
    <g class="edge hof-edge">
      <path d="M518.0,214.0 L523.0,214.0 Q528.0,214.0 528.0,209.0 L528.0,183.0 Q528.0,177.0 534.0,177.0 L546.0,177.0" fill="none" stroke="#00796b" stroke-width="1.5" stroke-linejoin="round" stroke-linecap="round" marker-end="url(#arrowHof)"/>
    </g>
    <g class="edge">
      <path d="M694.0,160.0 L699.0,160.0 Q704.0,160.0 704.0,165.0 L704.0,206.0 Q704.0,212.0 710.0,212.0 L722.0,212.0" fill="none" stroke="#424242" stroke-width="1.5" stroke-linejoin="round" stroke-linecap="round" marker-end="url(#arrowFilled)"/>
    </g>
    <g class="edge">
      <path d="M847.6,212.0 L875.6,212.0" fill="none" stroke="#424242" stroke-width="1.5" stroke-linejoin="round" stroke-linecap="round" marker-end="url(#arrowFilled)"/>
    </g>
    <g class="edge">
      <path d="M682.8,247.0 L851.6,247.0 Q857.6,247.0 857.6,241.0 L857.6,233.0 Q857.6,227.0 863.6,227.0 L875.6,227.0" fill="none" stroke="#424242" stroke-width="1.5" stroke-linejoin="round" stroke-linecap="round" marker-end="url(#arrowFilled)"/>
    </g>
    <g class="edge">
      <path d="M1023.6,207.0 L1051.6,207.0" fill="none" stroke="#424242" stroke-width="1.5" stroke-linejoin="round" stroke-linecap="round" marker-end="url(#arrowFilled)"/>
    </g>
    <g class="edge">
      <path d="M1023.6,225.0 L1028.6,225.0 Q1033.6,225.0 1033.6,230.0 L1033.6,253.0 Q1033.6,259.0 1039.6,259.0 L1051.6,259.0" fill="none" stroke="#424242" stroke-width="1.5" stroke-linejoin="round" stroke-linecap="round" marker-end="url(#arrowFilled)"/>
    </g>
    <g class="edge">
      <path d="M188.4,87.0 L216.4,87.0" fill="none" stroke="#424242" stroke-width="1.5" stroke-linejoin="round" stroke-linecap="round" marker-end="url(#arrowFilled)"/>
      <text x="208.4" y="81" text-anchor="middle" dominant-baseline="middle" font-size="9" font-family="sans-serif" fill="#333" stroke="white" stroke-width="3" paint-order="stroke fill">f skipped</text>
    </g>
    <g class="edge">
      <path d="M334.8,194.0 L346.8,194.0 Q352.8,194.0 352.8,188.0 L352.8,132.0 Q352.8,126.0 358.8,126.0 L522.0,126.0 Q528.0,126.0 528.0,132.0 L528.0,145.0 Q528.0,151.0 534.0,151.0 L554.0,151.0" fill="none" stroke="#424242" stroke-width="1.5" stroke-linejoin="round" stroke-linecap="round" marker-end="url(#arrowOpen)" stroke-dasharray="6,4"/>
    </g>
    <g class="edge">
      <path d="M686.0,176.0 L851.6,176.0 Q857.6,176.0 857.6,182.0 L857.6,195.0 Q857.6,201.0 863.6,201.0 L883.6,201.0" fill="none" stroke="#424242" stroke-width="1.5" stroke-linejoin="round" stroke-linecap="round" marker-end="url(#arrowOpen)" stroke-dasharray="6,4"/>
    </g>
    <g class="action-node">
      <title>Run pa(input): on success produces (a, rest); on failure produces Nothing</title>
      <rect x="214.8" y="154" width="120" height="44" rx="12" fill="#e8f5e9" stroke="#388e3c" stroke-width="1.5"/>
      <text class="action-label" x="274.8" y="176" text-anchor="middle" font-size="11" font-family="sans-serif" dominant-baseline="middle" fill="#333">run_pa</text>
      <g class="pin pin-in">
        <rect x="210.8" y="164.66666666666666" width="8" height="8" fill="#e0e0e0" stroke="#424242" stroke-width="1"/>
        <text x="220.8" y="168.66666666666666" text-anchor="start" font-size="8" font-family="sans-serif" dominant-baseline="middle" fill="#555" stroke="white" stroke-width="2" paint-order="stroke fill">pa</text>
      </g>
      <g class="pin pin-in">
        <rect x="210.8" y="179.33333333333334" width="8" height="8" fill="#e0e0e0" stroke="#424242" stroke-width="1"/>
        <text x="220.8" y="183.33333333333334" text-anchor="start" font-size="8" font-family="sans-serif" dominant-baseline="middle" fill="#555" stroke="white" stroke-width="2" paint-order="stroke fill">input</text>
      </g>
      <g class="pin pin-out">
        <rect x="330.8" y="161" width="8" height="8" fill="#e0e0e0" stroke="#424242" stroke-width="1"/>
        <text x="328.8" y="165" text-anchor="end" font-size="8" font-family="sans-serif" dominant-baseline="middle" fill="#555" stroke="white" stroke-width="2" paint-order="stroke fill">a_val</text>
      </g>
      <g class="pin pin-out">
        <rect x="330.8" y="172" width="8" height="8" fill="#e0e0e0" stroke="#424242" stroke-width="1"/>
        <text x="328.8" y="176" text-anchor="end" font-size="8" font-family="sans-serif" dominant-baseline="middle" fill="#555" stroke="white" stroke-width="2" paint-order="stroke fill">rest</text>
      </g>
      <g class="pin pin-out">
        <rect x="330.8" y="183" width="8" height="8" fill="#e0e0e0" stroke="#424242" stroke-width="1"/>
        <text x="328.8" y="187" text-anchor="end" font-size="8" font-family="sans-serif" dominant-baseline="middle" fill="#555" stroke="white" stroke-width="2" paint-order="stroke fill">fail</text>
      </g>
    </g>
    <g class="action-node">
      <title>Apply f(a): build Parser b from the parsed value a</title>
      <rect x="566" y="144" width="120" height="44" rx="12" fill="#e8f5e9" stroke="#388e3c" stroke-width="1.5"/>
      <text class="action-label" x="626" y="166" text-anchor="middle" font-size="11" font-family="sans-serif" dominant-baseline="middle" fill="#333">apply_f</text>
      <g class="pin pin-in">
        <rect x="562" y="154.66666666666666" width="8" height="8" fill="#e0e0e0" stroke="#424242" stroke-width="1"/>
        <text x="572" y="158.66666666666666" text-anchor="start" font-size="8" font-family="sans-serif" dominant-baseline="middle" fill="#555" stroke="white" stroke-width="2" paint-order="stroke fill">a_val</text>
      </g>
      <g class="pin pin-in">
        <rect x="562" y="169.33333333333334" width="8" height="8" fill="#e0e0e0" stroke="#424242" stroke-width="1"/>
        <text x="572" y="173.33333333333334" text-anchor="start" font-size="8" font-family="sans-serif" dominant-baseline="middle" fill="#555" stroke="white" stroke-width="2" paint-order="stroke fill">f</text>
      </g>
      <g class="pin pin-out">
        <rect x="682" y="162" width="8" height="8" fill="#e0e0e0" stroke="#424242" stroke-width="1"/>
        <text x="680" y="166" text-anchor="end" font-size="8" font-family="sans-serif" dominant-baseline="middle" fill="#555" stroke="white" stroke-width="2" paint-order="stroke fill">pb</text>
      </g>
    </g>
    <g class="action-node">
      <title>Run pb(rest): parse b from the REMAINING input, not from the original input</title>
      <rect x="895.6" y="194" width="120" height="44" rx="12" fill="#e8f5e9" stroke="#388e3c" stroke-width="1.5"/>
      <text class="action-label" x="955.6" y="216" text-anchor="middle" font-size="11" font-family="sans-serif" dominant-baseline="middle" fill="#333">run_pb</text>
      <g class="pin pin-in">
        <rect x="891.6" y="204.66666666666666" width="8" height="8" fill="#e0e0e0" stroke="#424242" stroke-width="1"/>
        <text x="901.6" y="208.66666666666666" text-anchor="start" font-size="8" font-family="sans-serif" dominant-baseline="middle" fill="#555" stroke="white" stroke-width="2" paint-order="stroke fill">pb</text>
      </g>
      <g class="pin pin-in">
        <rect x="891.6" y="219.33333333333334" width="8" height="8" fill="#e0e0e0" stroke="#424242" stroke-width="1"/>
        <text x="901.6" y="223.33333333333334" text-anchor="start" font-size="8" font-family="sans-serif" dominant-baseline="middle" fill="#555" stroke="white" stroke-width="2" paint-order="stroke fill">rest</text>
      </g>
      <g class="pin pin-out">
        <rect x="1011.6" y="204.66666666666666" width="8" height="8" fill="#e0e0e0" stroke="#424242" stroke-width="1"/>
        <text x="1009.6" y="208.66666666666666" text-anchor="end" font-size="8" font-family="sans-serif" dominant-baseline="middle" fill="#555" stroke="white" stroke-width="2" paint-order="stroke fill">b</text>
      </g>
      <g class="pin pin-out">
        <rect x="1011.6" y="219.33333333333334" width="8" height="8" fill="#e0e0e0" stroke="#424242" stroke-width="1"/>
        <text x="1009.6" y="223.33333333333334" text-anchor="end" font-size="8" font-family="sans-serif" dominant-baseline="middle" fill="#555" stroke="white" stroke-width="2" paint-order="stroke fill">rest2</text>
      </g>
    </g>
    <g class="object-node">
      <title>Parser a — a function String ⟶ Maybe (a, String): consumes a prefix, returns (a, rest) or Nothing</title>
      <rect x="53.199999999999996" y="148" width="113.60000000000001" height="38" fill="#f5f5f5" stroke="#616161" stroke-width="1.5"/>
      <text x="110" y="167" text-anchor="middle" font-size="11" font-family="sans-serif" dominant-baseline="middle" fill="#333">pa : Parser a</text>
    </g>
    <g class="object-node hof">
      <title>(a ⟶ Parser b) — the next parser, built from the parsed value a</title>
      <rect x="382.79999999999995" y="195" width="135.2" height="38" fill="#e0f2f1" stroke="#00796b" stroke-width="1.5"/>
      <text x="450.4" y="207" text-anchor="middle" font-size="9" font-style="italic" font-family="sans-serif" dominant-baseline="middle" fill="#00796b">«function»</text>
      <text x="450.4" y="221" text-anchor="middle" font-size="11" font-family="sans-serif" dominant-baseline="middle" fill="#333">f : a ⟶ Parser b</text>
    </g>
    <g class="object-node">
      <title>String — the full input. pa consumes a prefix; rest is passed forward (like State monad).</title>
      <rect x="46.00000000000001" y="200" width="120.8" height="38" fill="#f5f5f5" stroke="#616161" stroke-width="1.5"/>
      <text x="106.4" y="219" text-anchor="middle" font-size="11" font-family="sans-serif" dominant-baseline="middle" fill="#333">input : String</text>
    </g>
    <g class="object-node">
      <title>a — the parsed value. Passed to f to build the next parser.</title>
      <rect x="395.4" y="143" width="110" height="38" fill="#f5f5f5" stroke="#616161" stroke-width="1.5"/>
      <text x="450.4" y="162" text-anchor="middle" font-size="11" font-family="sans-serif" dominant-baseline="middle" fill="#333">a_val : a</text>
    </g>
    <g class="object-node">
      <title>String — unconsumed input after pa ran. Flows to run_pb (not input). This is the State-like threading.</title>
      <rect x="569.2" y="228" width="113.60000000000001" height="38" fill="#f5f5f5" stroke="#616161" stroke-width="1.5"/>
      <text x="626" y="247" text-anchor="middle" font-size="11" font-family="sans-serif" dominant-baseline="middle" fill="#333">rest : String</text>
    </g>
    <g class="object-node">
      <title>Parser b — the second parser</title>
      <rect x="734" y="193" width="113.60000000000001" height="38" fill="#f5f5f5" stroke="#616161" stroke-width="1.5"/>
      <text x="790.8" y="212" text-anchor="middle" font-size="11" font-family="sans-serif" dominant-baseline="middle" fill="#333">pb : Parser b</text>
    </g>
    <g class="object-node">
      <title>b — the final parsed value</title>
      <rect x="1063.6" y="188" width="110" height="38" fill="#f5f5f5" stroke="#616161" stroke-width="1.5"/>
      <text x="1118.6" y="207" text-anchor="middle" font-size="11" font-family="sans-serif" dominant-baseline="middle" fill="#333">b : b</text>
    </g>
    <g class="object-node">
      <title>String — input still unconsumed after both parsers ran</title>
      <rect x="1063.6" y="240" width="120.8" height="38" fill="#f5f5f5" stroke="#616161" stroke-width="1.5"/>
      <text x="1124" y="259" text-anchor="middle" font-size="11" font-family="sans-serif" dominant-baseline="middle" fill="#333">rest2 : String</text>
    </g>
    <g class="object-node">
      <title>Nothing — pa failed. No (a, rest) was produced.</title>
      <rect x="46" y="68" width="142.4" height="38" fill="#f5f5f5" stroke="#616161" stroke-width="1.5"/>
      <text x="117.2" y="87" text-anchor="middle" font-size="11" font-family="sans-serif" dominant-baseline="middle" fill="#333">fail_in : Nothing</text>
    </g>
    <g class="object-node">
      <title>Nothing — propagated unchanged. f is never called. (Same short-circuit as Maybe bind.)</title>
      <rect x="228.39999999999998" y="68" width="149.6" height="38" fill="#f5f5f5" stroke="#616161" stroke-width="1.5"/>
      <text x="303.2" y="87" text-anchor="middle" font-size="11" font-family="sans-serif" dominant-baseline="middle" fill="#333">fail_out : Nothing</text>
    </g>
  </g>
</svg>
