<?xml version="1.0" encoding="UTF-8"?>
<svg xmlns="http://www.w3.org/2000/svg" viewBox="0 0 1410 364" width="1410" height="364">
  <defs>
    <marker id="arrowFilled" viewBox="0 0 10 10" refX="0" refY="5" markerWidth="8" markerHeight="8" orient="auto-start-reverse">
      <path d="M0,1.5 L10,5 L0,8.5 L2.5,5 Z" fill="#424242"/>
    </marker>
    <marker id="arrowOpen" viewBox="0 0 10 10" refX="0" refY="5" markerWidth="8" markerHeight="8" orient="auto-start-reverse">
      <path d="M0,1.5 L10,5 L0,8.5" fill="none" stroke="#424242" stroke-width="1.25"/>
    </marker>
    <marker id="arrowHof" viewBox="0 0 10 10" refX="0" refY="5" markerWidth="8" markerHeight="8" orient="auto-start-reverse">
      <path d="M0,1.5 L10,5 L0,8.5 L2.5,5 Z" fill="#00796b"/>
    </marker>
  </defs>
  <rect width="1410" height="364" fill="white"/>
  <text x="705" y="18" text-anchor="middle" font-size="14" font-weight="bold" font-family="sans-serif" fill="#222">Prob bind: apply f per outcome, weight by pa, merge</text>
  <text x="705" y="35" text-anchor="middle" font-size="11" font-weight="normal" font-family="sans-serif" fill="#555">law of total probability</text>
  <text x="705" y="51" text-anchor="middle" font-size="11" font-weight="normal" font-family="sans-serif" fill="#555">also called: flatMap, SelectMany, &gt;&gt;=</text>
  <g transform="translate(0,60)">
    <rect x="0" y="0" width="1410" height="304" rx="8" fill="#fafafa" stroke="#9e9e9e" stroke-width="1.5"/>
    <g class="diagram-frame-tab tab-activity">
      <path d="M0,0 L109,0 L109,12 L99,22 L0,22 Z" fill="#e0e0e0" stroke="#9e9e9e" stroke-width="1"/>
      <text x="54.5" y="12" text-anchor="middle" font-size="10" font-family="sans-serif" dominant-baseline="middle" fill="#333">«activity» bind</text>
    </g>
    <g class="edge">
      <path d="M164.0,104.0 L169.0,104.0 Q174.0,104.0 174.0,99.0 L174.0,65.0 Q174.0,59.0 180.0,59.0 L197.4,59.0" fill="none" stroke="#424242" stroke-width="1.5" stroke-linejoin="round" stroke-linecap="round" marker-end="url(#arrowFilled)"/>
      <text x="174" y="75.5" text-anchor="middle" dominant-baseline="middle" font-size="9" font-family="sans-serif" fill="#333" stroke="white" stroke-width="3" paint-order="stroke fill">∀ a</text>
    </g>
    <g class="edge">
      <path d="M164.0,111.0 L199.2,111.0" fill="none" stroke="#424242" stroke-width="1.5" stroke-linejoin="round" stroke-linecap="round" marker-end="url(#arrowFilled)"/>
      <text x="187.6" y="105" text-anchor="middle" dominant-baseline="middle" font-size="9" font-family="sans-serif" fill="#333" stroke="white" stroke-width="3" paint-order="stroke fill">∀ a</text>
    </g>
    <g class="edge">
      <path d="M164.0,119.0 L178.0,119.0 Q184.0,119.0 184.0,125.0 L184.0,157.0 Q184.0,163.0 190.0,163.0 L197.4,163.0" fill="none" stroke="#424242" stroke-width="1.5" stroke-linejoin="round" stroke-linecap="round" marker-end="url(#arrowFilled)"/>
      <text x="184" y="135" text-anchor="middle" dominant-baseline="middle" font-size="9" font-family="sans-serif" fill="#333" stroke="white" stroke-width="3" paint-order="stroke fill">∀ a</text>
    </g>
    <g class="edge">
      <path d="M164.0,126.0 L169.0,126.0 Q174.0,126.0 174.0,131.0 L174.0,261.0 Q174.0,267.0 180.0,267.0 L199.2,267.0" fill="none" stroke="#424242" stroke-width="1.5" stroke-linejoin="round" stroke-linecap="round" marker-end="url(#arrowFilled)"/>
      <text x="174" y="190.5" text-anchor="middle" dominant-baseline="middle" font-size="9" font-family="sans-serif" fill="#333" stroke="white" stroke-width="3" paint-order="stroke fill">∀ a</text>
    </g>
    <g class="edge">
      <path d="M319.4,59.0 L366.8,59.0" fill="none" stroke="#424242" stroke-width="1.5" stroke-linejoin="round" stroke-linecap="round" marker-end="url(#arrowFilled)"/>
    </g>
    <g class="edge">
      <path d="M321.2,105.0 L328.8,105.0 Q334.8,105.0 334.8,99.0 L334.8,78.0 Q334.8,72.0 340.8,72.0 L366.8,72.0" fill="none" stroke="#424242" stroke-width="1.5" stroke-linejoin="round" stroke-linecap="round" marker-end="url(#arrowFilled)"/>
    </g>
    <g class="edge hof-edge">
      <path d="M324.8,209.0 L338.8,209.0 Q344.8,209.0 344.8,203.0 L344.8,91.0 Q344.8,85.0 350.8,85.0 L366.8,85.0" fill="none" stroke="#00796b" stroke-width="1.5" stroke-linejoin="round" stroke-linecap="round" marker-end="url(#arrowHof)"/>
    </g>
    <g class="edge">
      <path d="M506.8,66.0 L524.8,66.0 Q530.8,66.0 530.8,72.0 L530.8,85.0 Q530.8,89.0 534.8,89.0 L538.8,89.0" fill="none" stroke="#424242" stroke-width="1.5" stroke-linejoin="round" stroke-linecap="round" marker-end="url(#arrowFilled)"/>
    </g>
    <g class="edge">
      <path d="M664.4,89.0 L669.4,89.0 Q674.4,89.0 674.4,94.0 L674.4,103.0 Q674.4,109.0 680.4,109.0 L696.4,109.0" fill="none" stroke="#424242" stroke-width="1.5" stroke-linejoin="round" stroke-linecap="round" marker-end="url(#arrowFilled)"/>
    </g>
    <g class="edge">
      <path d="M321.2,117.0 L351.3,117.0 Q354.8,117.0 354.8,120.5 L354.8,120.5 Q354.8,124.0 358.3,124.0 L696.4,124.0" fill="none" stroke="#424242" stroke-width="1.5" stroke-linejoin="round" stroke-linecap="round" marker-end="url(#arrowFilled)"/>
    </g>
    <g class="edge">
      <path d="M836.4,107.0 L854.4,107.0 Q860.4,107.0 860.4,113.0 L860.4,155.0 Q860.4,159.0 864.4,159.0 L868.4,159.0" fill="none" stroke="#424242" stroke-width="1.5" stroke-linejoin="round" stroke-linecap="round" marker-end="url(#arrowFilled)"/>
    </g>
    <g class="edge">
      <path d="M319.4,163.0 L348.8,163.0 Q354.8,163.0 354.8,169.0 L354.8,173.0 Q354.8,179.0 360.8,179.0 L366.8,179.0" fill="none" stroke="#424242" stroke-width="1.5" stroke-linejoin="round" stroke-linecap="round" marker-end="url(#arrowFilled)"/>
    </g>
    <g class="edge">
      <path d="M321.2,261.0 L348.8,261.0 Q354.8,261.0 354.8,255.0 L354.8,198.0 Q354.8,192.0 360.8,192.0 L366.8,192.0" fill="none" stroke="#424242" stroke-width="1.5" stroke-linejoin="round" stroke-linecap="round" marker-end="url(#arrowFilled)"/>
    </g>
    <g class="edge hof-edge">
      <path d="M324.8,221.0 L358.8,221.0 Q364.8,221.0 364.8,215.0 L364.8,206.0 Q364.8,205.0 365.8,205.0 L366.8,205.0" fill="none" stroke="#00796b" stroke-width="1.5" stroke-linejoin="round" stroke-linecap="round" marker-end="url(#arrowHof)"/>
    </g>
    <g class="edge">
      <path d="M506.8,186.0 L514.8,186.0 Q520.8,186.0 520.8,192.0 L520.8,232.0 Q520.8,238.0 526.8,238.0 L538.8,238.0" fill="none" stroke="#424242" stroke-width="1.5" stroke-linejoin="round" stroke-linecap="round" marker-end="url(#arrowFilled)"/>
    </g>
    <g class="edge">
      <path d="M664.4,238.0 L669.4,238.0 Q674.4,238.0 674.4,233.0 L674.4,219.0 Q674.4,213.0 680.4,213.0 L696.4,213.0" fill="none" stroke="#424242" stroke-width="1.5" stroke-linejoin="round" stroke-linecap="round" marker-end="url(#arrowFilled)"/>
    </g>
    <g class="edge">
      <path d="M321.2,273.0 L678.4,273.0 Q684.4,273.0 684.4,267.0 L684.4,234.0 Q684.4,228.0 690.4,228.0 L696.4,228.0" fill="none" stroke="#424242" stroke-width="1.5" stroke-linejoin="round" stroke-linecap="round" marker-end="url(#arrowFilled)"/>
    </g>
    <g class="edge">
      <path d="M836.4,211.0 L868.4,211.0" fill="none" stroke="#424242" stroke-width="1.5" stroke-linejoin="round" stroke-linecap="round" marker-end="url(#arrowFilled)"/>
    </g>
    <g class="edge">
      <path d="M1030.0,159.0 L1035.0,159.0 Q1040.0,159.0 1040.0,154.0 L1040.0,139.0 Q1040.0,133.0 1046.0,133.0 L1062.0,133.0" fill="none" stroke="#424242" stroke-width="1.5" stroke-linejoin="round" stroke-linecap="round" marker-end="url(#arrowFilled)"/>
    </g>
    <g class="edge">
      <path d="M1030.0,211.0 L1044.0,211.0 Q1050.0,211.0 1050.0,205.0 L1050.0,152.0 Q1050.0,146.0 1056.0,146.0 L1062.0,146.0" fill="none" stroke="#424242" stroke-width="1.5" stroke-linejoin="round" stroke-linecap="round" marker-end="url(#arrowFilled)"/>
    </g>
    <g class="edge">
      <path d="M1202.0,134.0 L1234.0,134.0" fill="none" stroke="#424242" stroke-width="1.5" stroke-linejoin="round" stroke-linecap="round" marker-end="url(#arrowFilled)"/>
    </g>
    <g class="edge">
      <path d="M502.8,82.0 L514.8,82.0 Q520.8,82.0 520.8,76.0 L520.8,59.0 Q520.8,53.0 526.8,53.0 L678.4,53.0 Q684.4,53.0 684.4,59.0 L684.4,92.0 Q684.4,98.0 690.4,98.0 L700.4,98.0" fill="none" stroke="#424242" stroke-width="1.5" stroke-linejoin="round" stroke-linecap="round" marker-end="url(#arrowOpen)" stroke-dasharray="6,4"/>
    </g>
    <g class="edge">
      <path d="M502.8,202.0 L700.4,202.0" fill="none" stroke="#424242" stroke-width="1.5" stroke-linejoin="round" stroke-linecap="round" marker-end="url(#arrowOpen)" stroke-dasharray="6,4"/>
    </g>
    <g class="edge">
      <path d="M832.4,123.0 L1066.0,123.0" fill="none" stroke="#424242" stroke-width="1.5" stroke-linejoin="round" stroke-linecap="round" marker-end="url(#arrowOpen)" stroke-dasharray="6,4"/>
    </g>
    <g class="edge">
      <path d="M832.4,227.0 L844.4,227.0 Q850.4,227.0 850.4,221.0 L850.4,118.0 Q850.4,112.0 856.4,112.0 L1037.0,112.0 Q1040.0,112.0 1040.0,115.0 L1040.0,115.0 Q1040.0,118.0 1043.0,118.0 L1066.0,118.0" fill="none" stroke="#424242" stroke-width="1.5" stroke-linejoin="round" stroke-linecap="round" marker-end="url(#arrowOpen)" stroke-dasharray="6,4"/>
    </g>
    <g class="action-node">
      <title>Apply f(a1): get the conditional distribution Prob b given A = a1</title>
      <rect x="382.8" y="50" width="120" height="44" rx="12" fill="#e8f5e9" stroke="#388e3c" stroke-width="1.5"/>
      <text class="action-label" x="442.8" y="72" text-anchor="middle" font-size="11" font-family="sans-serif" dominant-baseline="middle" fill="#333">branch1</text>
      <g class="pin pin-in">
        <rect x="378.8" y="57" width="8" height="8" fill="#e0e0e0" stroke="#424242" stroke-width="1"/>
        <text x="388.8" y="61" text-anchor="start" font-size="8" font-family="sans-serif" dominant-baseline="middle" fill="#555" stroke="white" stroke-width="2" paint-order="stroke fill">a_val</text>
      </g>
      <g class="pin pin-in">
        <rect x="378.8" y="68" width="8" height="8" fill="#e0e0e0" stroke="#424242" stroke-width="1"/>
        <text x="388.8" y="72" text-anchor="start" font-size="8" font-family="sans-serif" dominant-baseline="middle" fill="#555" stroke="white" stroke-width="2" paint-order="stroke fill">pa</text>
      </g>
      <g class="pin pin-in">
        <rect x="378.8" y="79" width="8" height="8" fill="#e0e0e0" stroke="#424242" stroke-width="1"/>
        <text x="388.8" y="83" text-anchor="start" font-size="8" font-family="sans-serif" dominant-baseline="middle" fill="#555" stroke="white" stroke-width="2" paint-order="stroke fill">f</text>
      </g>
      <g class="pin pin-out">
        <rect x="498.8" y="68" width="8" height="8" fill="#e0e0e0" stroke="#424242" stroke-width="1"/>
        <text x="496.8" y="72" text-anchor="end" font-size="8" font-family="sans-serif" dominant-baseline="middle" fill="#555" stroke="white" stroke-width="2" paint-order="stroke fill">sub_b</text>
      </g>
    </g>
    <g class="action-node">
      <title>Apply f(a2): get the conditional distribution Prob b given A = a2</title>
      <rect x="382.8" y="170" width="120" height="44" rx="12" fill="#e8f5e9" stroke="#388e3c" stroke-width="1.5"/>
      <text class="action-label" x="442.8" y="192" text-anchor="middle" font-size="11" font-family="sans-serif" dominant-baseline="middle" fill="#333">branch2</text>
      <g class="pin pin-in">
        <rect x="378.8" y="177" width="8" height="8" fill="#e0e0e0" stroke="#424242" stroke-width="1"/>
        <text x="388.8" y="181" text-anchor="start" font-size="8" font-family="sans-serif" dominant-baseline="middle" fill="#555" stroke="white" stroke-width="2" paint-order="stroke fill">a_val</text>
      </g>
      <g class="pin pin-in">
        <rect x="378.8" y="188" width="8" height="8" fill="#e0e0e0" stroke="#424242" stroke-width="1"/>
        <text x="388.8" y="192" text-anchor="start" font-size="8" font-family="sans-serif" dominant-baseline="middle" fill="#555" stroke="white" stroke-width="2" paint-order="stroke fill">pa</text>
      </g>
      <g class="pin pin-in">
        <rect x="378.8" y="199" width="8" height="8" fill="#e0e0e0" stroke="#424242" stroke-width="1"/>
        <text x="388.8" y="203" text-anchor="start" font-size="8" font-family="sans-serif" dominant-baseline="middle" fill="#555" stroke="white" stroke-width="2" paint-order="stroke fill">f</text>
      </g>
      <g class="pin pin-out">
        <rect x="498.8" y="188" width="8" height="8" fill="#e0e0e0" stroke="#424242" stroke-width="1"/>
        <text x="496.8" y="192" text-anchor="end" font-size="8" font-family="sans-serif" dominant-baseline="middle" fill="#555" stroke="white" stroke-width="2" paint-order="stroke fill">sub_b</text>
      </g>
    </g>
    <g class="action-node">
      <title>Scale: each (b, pb) in sub1 gets weight pa1 * pb — P(B=b | A=a1) * P(A=a1)</title>
      <rect x="712.4" y="91" width="120" height="44" rx="12" fill="#e8f5e9" stroke="#388e3c" stroke-width="1.5"/>
      <text class="action-label" x="772.4" y="113" text-anchor="middle" font-size="11" font-family="sans-serif" dominant-baseline="middle" fill="#333">weight1</text>
      <g class="pin pin-in">
        <rect x="708.4" y="101.66666666666667" width="8" height="8" fill="#e0e0e0" stroke="#424242" stroke-width="1"/>
        <text x="718.4" y="105.66666666666667" text-anchor="start" font-size="8" font-family="sans-serif" dominant-baseline="middle" fill="#555" stroke="white" stroke-width="2" paint-order="stroke fill">sub_b</text>
      </g>
      <g class="pin pin-in">
        <rect x="708.4" y="116.33333333333333" width="8" height="8" fill="#e0e0e0" stroke="#424242" stroke-width="1"/>
        <text x="718.4" y="120.33333333333333" text-anchor="start" font-size="8" font-family="sans-serif" dominant-baseline="middle" fill="#555" stroke="white" stroke-width="2" paint-order="stroke fill">pa</text>
      </g>
      <g class="pin pin-out">
        <rect x="828.4" y="109" width="8" height="8" fill="#e0e0e0" stroke="#424242" stroke-width="1"/>
        <text x="826.4" y="113" text-anchor="end" font-size="8" font-family="sans-serif" dominant-baseline="middle" fill="#555" stroke="white" stroke-width="2" paint-order="stroke fill">weighted</text>
      </g>
    </g>
    <g class="action-node">
      <title>Scale: each (b, pb) in sub2 gets weight pa2 * pb — P(B=b | A=a2) * P(A=a2)</title>
      <rect x="712.4" y="195" width="120" height="44" rx="12" fill="#e8f5e9" stroke="#388e3c" stroke-width="1.5"/>
      <text class="action-label" x="772.4" y="217" text-anchor="middle" font-size="11" font-family="sans-serif" dominant-baseline="middle" fill="#333">weight2</text>
      <g class="pin pin-in">
        <rect x="708.4" y="205.66666666666666" width="8" height="8" fill="#e0e0e0" stroke="#424242" stroke-width="1"/>
        <text x="718.4" y="209.66666666666666" text-anchor="start" font-size="8" font-family="sans-serif" dominant-baseline="middle" fill="#555" stroke="white" stroke-width="2" paint-order="stroke fill">sub_b</text>
      </g>
      <g class="pin pin-in">
        <rect x="708.4" y="220.33333333333334" width="8" height="8" fill="#e0e0e0" stroke="#424242" stroke-width="1"/>
        <text x="718.4" y="224.33333333333334" text-anchor="start" font-size="8" font-family="sans-serif" dominant-baseline="middle" fill="#555" stroke="white" stroke-width="2" paint-order="stroke fill">pa</text>
      </g>
      <g class="pin pin-out">
        <rect x="828.4" y="213" width="8" height="8" fill="#e0e0e0" stroke="#424242" stroke-width="1"/>
        <text x="826.4" y="217" text-anchor="end" font-size="8" font-family="sans-serif" dominant-baseline="middle" fill="#555" stroke="white" stroke-width="2" paint-order="stroke fill">weighted</text>
      </g>
    </g>
    <g class="action-node">
      <title>Concatenate: w1 ++ w2 (and repeat for all other branches). Result is the marginal distribution P(B).</title>
      <rect x="1078" y="112" width="120" height="44" rx="12" fill="#e8f5e9" stroke="#388e3c" stroke-width="1.5"/>
      <text class="action-label" x="1138" y="134" text-anchor="middle" font-size="11" font-family="sans-serif" dominant-baseline="middle" fill="#333">merge</text>
      <g class="pin pin-in">
        <rect x="1074" y="122.66666666666667" width="8" height="8" fill="#e0e0e0" stroke="#424242" stroke-width="1"/>
        <text x="1084" y="126.66666666666667" text-anchor="start" font-size="8" font-family="sans-serif" dominant-baseline="middle" fill="#555" stroke="white" stroke-width="2" paint-order="stroke fill">w1</text>
      </g>
      <g class="pin pin-in">
        <rect x="1074" y="137.33333333333334" width="8" height="8" fill="#e0e0e0" stroke="#424242" stroke-width="1"/>
        <text x="1084" y="141.33333333333334" text-anchor="start" font-size="8" font-family="sans-serif" dominant-baseline="middle" fill="#555" stroke="white" stroke-width="2" paint-order="stroke fill">w2</text>
      </g>
      <g class="pin pin-out">
        <rect x="1194" y="130" width="8" height="8" fill="#e0e0e0" stroke="#424242" stroke-width="1"/>
        <text x="1192" y="134" text-anchor="end" font-size="8" font-family="sans-serif" dominant-baseline="middle" fill="#555" stroke="white" stroke-width="2" paint-order="stroke fill">dist_b</text>
      </g>
    </g>
    <g class="object-node">
      <title>Prob a = [(a, p)] — each (a, pa) is an outcome with probability pa. Repeats for every element (∀ a).</title>
      <rect x="36" y="96" width="128" height="38" fill="#f5f5f5" stroke="#616161" stroke-width="1.5"/>
      <text x="100" y="115" text-anchor="middle" font-size="11" font-family="sans-serif" dominant-baseline="middle" fill="#333">dist_a : Prob a</text>
    </g>
    <g class="object-node hof">
      <title>(a ⟶ Prob b) — conditional distribution: given each outcome a, returns a distribution over b</title>
      <rect x="203.99999999999997" y="196" width="120.8" height="38" fill="#e0f2f1" stroke="#00796b" stroke-width="1.5"/>
      <text x="264.4" y="208" text-anchor="middle" font-size="9" font-style="italic" font-family="sans-serif" dominant-baseline="middle" fill="#00796b">«function»</text>
      <text x="264.4" y="222" text-anchor="middle" font-size="11" font-family="sans-serif" dominant-baseline="middle" fill="#333">f : a ⟶ Prob b</text>
    </g>
    <g class="object-node">
      <title>Outcome a1 from Prob a</title>
      <rect x="209.39999999999998" y="40" width="110" height="38" fill="#f5f5f5" stroke="#616161" stroke-width="1.5"/>
      <text x="264.4" y="59" text-anchor="middle" font-size="11" font-family="sans-serif" dominant-baseline="middle" fill="#333">a1 : a</text>
    </g>
    <g class="object-node">
      <title>P(A = a1) — probability of outcome a1</title>
      <rect x="211.2" y="92" width="110" height="38" fill="#f5f5f5" stroke="#616161" stroke-width="1.5"/>
      <text x="266.2" y="111" text-anchor="middle" font-size="11" font-family="sans-serif" dominant-baseline="middle" fill="#333">pa1 : Double</text>
    </g>
    <g class="object-node">
      <title>Outcome a2 from Prob a</title>
      <rect x="209.39999999999998" y="144" width="110" height="38" fill="#f5f5f5" stroke="#616161" stroke-width="1.5"/>
      <text x="264.4" y="163" text-anchor="middle" font-size="11" font-family="sans-serif" dominant-baseline="middle" fill="#333">a2 : a</text>
    </g>
    <g class="object-node">
      <title>P(A = a2) — probability of outcome a2</title>
      <rect x="211.2" y="248" width="110" height="38" fill="#f5f5f5" stroke="#616161" stroke-width="1.5"/>
      <text x="266.2" y="267" text-anchor="middle" font-size="11" font-family="sans-serif" dominant-baseline="middle" fill="#333">pa2 : Double</text>
    </g>
    <g class="object-node">
      <title>Prob b — conditional distribution for branch a1</title>
      <rect x="550.8" y="70" width="113.60000000000001" height="38" fill="#f5f5f5" stroke="#616161" stroke-width="1.5"/>
      <text x="607.5999999999999" y="89" text-anchor="middle" font-size="11" font-family="sans-serif" dominant-baseline="middle" fill="#333">sub1 : Prob b</text>
    </g>
    <g class="object-node">
      <title>Prob b — conditional distribution for branch a2</title>
      <rect x="550.8" y="219" width="113.60000000000001" height="38" fill="#f5f5f5" stroke="#616161" stroke-width="1.5"/>
      <text x="607.5999999999999" y="238" text-anchor="middle" font-size="11" font-family="sans-serif" dominant-baseline="middle" fill="#333">sub2 : Prob b</text>
    </g>
    <g class="object-node">
      <title>[(b, pa1·pb)] — weighted outcomes for branch a1</title>
      <rect x="880.4" y="140" width="149.6" height="38" fill="#f5f5f5" stroke="#616161" stroke-width="1.5"/>
      <text x="955.1999999999999" y="159" text-anchor="middle" font-size="11" font-family="sans-serif" dominant-baseline="middle" fill="#333">w1 : [(b, pa1·pb)]</text>
    </g>
    <g class="object-node">
      <title>[(b, pa2·pb)] — weighted outcomes for branch a2</title>
      <rect x="880.4" y="192" width="149.6" height="38" fill="#f5f5f5" stroke="#616161" stroke-width="1.5"/>
      <text x="955.1999999999999" y="211" text-anchor="middle" font-size="11" font-family="sans-serif" dominant-baseline="middle" fill="#333">w2 : [(b, pa2·pb)]</text>
    </g>
    <g class="object-node">
      <title>Prob b — the marginal distribution: P(B=b) = Σ_a P(B=b|A=a)·P(A=a)</title>
      <rect x="1246" y="115" width="128" height="38" fill="#f5f5f5" stroke="#616161" stroke-width="1.5"/>
      <text x="1310" y="134" text-anchor="middle" font-size="11" font-family="sans-serif" dominant-baseline="middle" fill="#333">dist_b : Prob b</text>
    </g>
  </g>
</svg>
