<?xml version="1.0" encoding="UTF-8"?>
<svg xmlns="http://www.w3.org/2000/svg" viewBox="0 0 1372 463" width="1372" height="463">
<defs>
  <marker id="arrowFilled" viewBox="0 0 10 10" refX="9" refY="5" markerWidth="7" markerHeight="7" orient="auto-start-reverse">
    <path d="M0,0 L10,5 L0,10 z" fill="#424242"/>
  </marker>
  <marker id="arrowOpen" viewBox="0 0 10 10" refX="9" refY="5" markerWidth="7" markerHeight="7" orient="auto-start-reverse">
    <path d="M0,0 L10,5 L0,10" fill="none" stroke="#424242" stroke-width="1.5"/>
  </marker>
  <marker id="arrowHof" viewBox="0 0 10 10" refX="9" refY="5" markerWidth="7" markerHeight="7" orient="auto-start-reverse">
    <path d="M0,0 L10,5 L0,10 z" fill="#00796b"/>
  </marker>
</defs>
<rect width="1372" height="463" fill="white"/>
<text x="686.0" y="20" text-anchor="middle" font-size="14" font-weight="bold" font-family="sans-serif" fill="#222">Prob bind: apply f per outcome, weight by pa, merge — law of total probability</text>
<g transform="translate(0,28)">
  <rect x="0" y="0" width="1372" height="435" rx="8" fill="#fafafa" stroke="#9e9e9e" stroke-width="1.5"/>
  <g class="activity-frame-tab">
    <path d="M0,0 L92.8,0 L102.8,22 L0,22 Z" fill="#e0e0e0" stroke="#9e9e9e" stroke-width="1"/>
    <text x="51.4" y="12.0" text-anchor="middle" font-size="10" font-family="sans-serif" dominant-baseline="middle" fill="#333">«activity» &gt;&gt;=</text>
  </g>
  <g class="edge">
    <path d="M150.0,311.0 C179.6,311.0 204.8,351.0 234.4,351.0" fill="none" stroke="#424242" stroke-width="1.5" marker-end="url(#arrowFilled)"/>
    <text x="197.8" y="319.3" text-anchor="middle" dominant-baseline="middle" font-size="9" font-family="sans-serif" fill="#333" stroke="white" stroke-width="3" paint-order="stroke fill">∀ a</text>
  </g>
  <g class="edge">
    <path d="M174.0,302.1 C174.0,302.1 219.4,309.3 219.4,309.3" fill="none" stroke="#424242" stroke-width="1.5" marker-end="url(#arrowFilled)"/>
    <text x="198.7" y="292.9" text-anchor="middle" dominant-baseline="middle" font-size="9" font-family="sans-serif" fill="#333" stroke="white" stroke-width="3" paint-order="stroke fill">∀ a</text>
  </g>
  <g class="edge">
    <path d="M174.0,276.6 C174.0,276.6 219.4,265.7 219.4,265.7" fill="none" stroke="#424242" stroke-width="1.5" marker-end="url(#arrowFilled)"/>
    <text x="193.7" y="258.5" text-anchor="middle" dominant-baseline="middle" font-size="9" font-family="sans-serif" fill="#333" stroke="white" stroke-width="3" paint-order="stroke fill">∀ a</text>
  </g>
  <g class="edge">
    <path d="M130.4,273.0 C173.7,273.0 210.7,158.0 254.0,158.0" fill="none" stroke="#424242" stroke-width="1.5" marker-end="url(#arrowFilled)"/>
    <text x="183.3" y="206.0" text-anchor="middle" dominant-baseline="middle" font-size="9" font-family="sans-serif" fill="#333" stroke="white" stroke-width="3" paint-order="stroke fill">∀ a</text>
  </g>
  <g class="edge">
    <path d="M300.3,351.0 C326.4,351.0 348.7,263.5 374.8,263.5" fill="none" stroke="#424242" stroke-width="1.5" marker-end="url(#arrowFilled)"/>
    
  </g>
  <g class="edge">
    <path d="M320.9,299.0 C339.8,299.0 355.9,252.5 374.8,252.5" fill="none" stroke="#424242" stroke-width="1.5" marker-end="url(#arrowFilled)"/>
    
  </g>
  <g class="edge hof-edge">
    <path d="M292.8,106.0 C321.5,106.0 346.1,241.5 374.8,241.5" fill="none" stroke="#00796b" stroke-width="1.5" marker-end="url(#arrowHof)"/>
    
  </g>
  <g class="edge">
    <path d="M494.8,252.5 C494.8,252.5 534.8,264.0 534.8,264.0" fill="none" stroke="#424242" stroke-width="1.5" marker-end="url(#arrowFilled)"/>
    
  </g>
  <g class="edge">
    <path d="M648.4,270.5 C648.4,270.5 688.4,263.2 688.4,263.2" fill="none" stroke="#424242" stroke-width="1.5" marker-end="url(#arrowFilled)"/>
    
  </g>
  <g class="edge">
    <path d="M329.4,312.5 C455.1,312.5 562.8,277.8 688.4,277.8" fill="none" stroke="#424242" stroke-width="1.5" marker-end="url(#arrowFilled)"/>
    
  </g>
  <g class="edge">
    <path d="M808.4,270.5 C808.4,270.5 848.4,281.7 848.4,281.7" fill="none" stroke="#424242" stroke-width="1.5" marker-end="url(#arrowFilled)"/>
    
  </g>
  <g class="edge">
    <path d="M316.7,233.5 C337.1,233.5 354.5,191.5 374.8,191.5" fill="none" stroke="#424242" stroke-width="1.5" marker-end="url(#arrowFilled)"/>
    
  </g>
  <g class="edge">
    <path d="M329.4,153.2 C345.3,153.2 358.9,180.5 374.8,180.5" fill="none" stroke="#424242" stroke-width="1.5" marker-end="url(#arrowFilled)"/>
    
  </g>
  <g class="edge hof-edge">
    <path d="M307.0,106.0 C330.7,106.0 351.1,169.5 374.8,169.5" fill="none" stroke="#00796b" stroke-width="1.5" marker-end="url(#arrowHof)"/>
    
  </g>
  <g class="edge">
    <path d="M494.8,180.5 C494.8,180.5 534.8,192.0 534.8,192.0" fill="none" stroke="#424242" stroke-width="1.5" marker-end="url(#arrowFilled)"/>
    
  </g>
  <g class="edge">
    <path d="M648.4,185.5 C662.4,185.5 674.4,169.8 688.4,169.8" fill="none" stroke="#424242" stroke-width="1.5" marker-end="url(#arrowFilled)"/>
    
  </g>
  <g class="edge">
    <path d="M329.4,141.7 C329.4,141.7 688.4,155.2 688.4,155.2" fill="none" stroke="#424242" stroke-width="1.5" marker-end="url(#arrowFilled)"/>
    
  </g>
  <g class="edge">
    <path d="M808.4,162.5 C822.4,162.5 834.4,183.1 848.4,183.1" fill="none" stroke="#424242" stroke-width="1.5" marker-end="url(#arrowFilled)"/>
    
  </g>
  <g class="edge">
    <path d="M968.4,271.0 C992.8,271.0 1013.6,223.8 1038.0,223.8" fill="none" stroke="#424242" stroke-width="1.5" marker-end="url(#arrowFilled)"/>
    
  </g>
  <g class="edge">
    <path d="M998.0,206.2 C998.0,206.2 1038.0,209.2 1038.0,209.2" fill="none" stroke="#424242" stroke-width="1.5" marker-end="url(#arrowFilled)"/>
    
  </g>
  <g class="edge">
    <path d="M1158.0,216.5 C1158.0,216.5 1198.0,216.5 1198.0,216.5" fill="none" stroke="#424242" stroke-width="1.5" marker-end="url(#arrowFilled)"/>
    
  </g>
  <g class="edge">
    <path d="M494.8,252.5 C562.6,252.5 620.6,270.5 688.4,270.5" fill="none" stroke="#424242" stroke-width="1.5" stroke-dasharray="6,4" marker-end="url(#arrowOpen)"/>
    
  </g>
  <g class="edge">
    <path d="M494.8,180.5 C562.6,180.5 620.6,162.5 688.4,162.5" fill="none" stroke="#424242" stroke-width="1.5" stroke-dasharray="6,4" marker-end="url(#arrowOpen)"/>
    
  </g>
  <g class="edge">
    <path d="M808.4,270.5 C888.8,270.5 957.6,216.5 1038.0,216.5" fill="none" stroke="#424242" stroke-width="1.5" stroke-dasharray="6,4" marker-end="url(#arrowOpen)"/>
    
  </g>
  <g class="edge">
    <path d="M808.4,162.5 C888.8,162.5 957.6,216.5 1038.0,216.5" fill="none" stroke="#424242" stroke-width="1.5" stroke-dasharray="6,4" marker-end="url(#arrowOpen)"/>
    
  </g>
  <g class="action-node"><title>Apply f(a1): get the conditional distribution Prob b given A = a1</title>
    <rect x="374.8" y="230.5" width="120" height="44" rx="12" fill="#e8f5e9" stroke="#388e3c" stroke-width="1.5"/>
    <text x="434.8" y="252.5" text-anchor="middle" font-size="11" font-family="sans-serif" dominant-baseline="middle" fill="#333">branch1</text>
    <rect x="370.8" y="237.5" width="8" height="8" fill="#e0e0e0" stroke="#424242" stroke-width="1"/>
    <text x="380.8" y="241.5" text-anchor="start" font-size="8" font-family="sans-serif" dominant-baseline="middle" fill="#555" stroke="white" stroke-width="2" paint-order="stroke fill">f</text>
    <rect x="370.8" y="248.5" width="8" height="8" fill="#e0e0e0" stroke="#424242" stroke-width="1"/>
    <text x="380.8" y="252.5" text-anchor="start" font-size="8" font-family="sans-serif" dominant-baseline="middle" fill="#555" stroke="white" stroke-width="2" paint-order="stroke fill">pa1</text>
    <rect x="370.8" y="259.5" width="8" height="8" fill="#e0e0e0" stroke="#424242" stroke-width="1"/>
    <text x="380.8" y="263.5" text-anchor="start" font-size="8" font-family="sans-serif" dominant-baseline="middle" fill="#555" stroke="white" stroke-width="2" paint-order="stroke fill">a1</text>
    <rect x="490.8" y="248.5" width="8" height="8" fill="#e0e0e0" stroke="#424242" stroke-width="1"/>
    <text x="488.8" y="252.5" text-anchor="end" font-size="8" font-family="sans-serif" dominant-baseline="middle" fill="#555" stroke="white" stroke-width="2" paint-order="stroke fill">sub1</text>
  </g>
  <g class="action-node"><title>Apply f(a2): get the conditional distribution Prob b given A = a2</title>
    <rect x="374.8" y="158.5" width="120" height="44" rx="12" fill="#e8f5e9" stroke="#388e3c" stroke-width="1.5"/>
    <text x="434.8" y="180.5" text-anchor="middle" font-size="11" font-family="sans-serif" dominant-baseline="middle" fill="#333">branch2</text>
    <rect x="370.8" y="165.5" width="8" height="8" fill="#e0e0e0" stroke="#424242" stroke-width="1"/>
    <text x="380.8" y="169.5" text-anchor="start" font-size="8" font-family="sans-serif" dominant-baseline="middle" fill="#555" stroke="white" stroke-width="2" paint-order="stroke fill">f</text>
    <rect x="370.8" y="176.5" width="8" height="8" fill="#e0e0e0" stroke="#424242" stroke-width="1"/>
    <text x="380.8" y="180.5" text-anchor="start" font-size="8" font-family="sans-serif" dominant-baseline="middle" fill="#555" stroke="white" stroke-width="2" paint-order="stroke fill">pa2</text>
    <rect x="370.8" y="187.5" width="8" height="8" fill="#e0e0e0" stroke="#424242" stroke-width="1"/>
    <text x="380.8" y="191.5" text-anchor="start" font-size="8" font-family="sans-serif" dominant-baseline="middle" fill="#555" stroke="white" stroke-width="2" paint-order="stroke fill">a2</text>
    <rect x="490.8" y="176.5" width="8" height="8" fill="#e0e0e0" stroke="#424242" stroke-width="1"/>
    <text x="488.8" y="180.5" text-anchor="end" font-size="8" font-family="sans-serif" dominant-baseline="middle" fill="#555" stroke="white" stroke-width="2" paint-order="stroke fill">sub2</text>
  </g>
  <g class="action-node"><title>Scale: each (b, pb) in sub1 gets weight pa1 * pb — P(B=b | A=a1) * P(A=a1)</title>
    <rect x="688.4" y="248.5" width="120" height="44" rx="12" fill="#e8f5e9" stroke="#388e3c" stroke-width="1.5"/>
    <text x="748.4" y="270.5" text-anchor="middle" font-size="11" font-family="sans-serif" dominant-baseline="middle" fill="#333">weight1</text>
    <rect x="684.4" y="259.2" width="8" height="8" fill="#e0e0e0" stroke="#424242" stroke-width="1"/>
    <text x="694.4" y="263.2" text-anchor="start" font-size="8" font-family="sans-serif" dominant-baseline="middle" fill="#555" stroke="white" stroke-width="2" paint-order="stroke fill">sub1</text>
    <rect x="684.4" y="273.8" width="8" height="8" fill="#e0e0e0" stroke="#424242" stroke-width="1"/>
    <text x="694.4" y="277.8" text-anchor="start" font-size="8" font-family="sans-serif" dominant-baseline="middle" fill="#555" stroke="white" stroke-width="2" paint-order="stroke fill">pa1</text>
    <rect x="804.4" y="266.5" width="8" height="8" fill="#e0e0e0" stroke="#424242" stroke-width="1"/>
    <text x="802.4" y="270.5" text-anchor="end" font-size="8" font-family="sans-serif" dominant-baseline="middle" fill="#555" stroke="white" stroke-width="2" paint-order="stroke fill">w1</text>
  </g>
  <g class="action-node"><title>Scale: each (b, pb) in sub2 gets weight pa2 * pb — P(B=b | A=a2) * P(A=a2)</title>
    <rect x="688.4" y="140.5" width="120" height="44" rx="12" fill="#e8f5e9" stroke="#388e3c" stroke-width="1.5"/>
    <text x="748.4" y="162.5" text-anchor="middle" font-size="11" font-family="sans-serif" dominant-baseline="middle" fill="#333">weight2</text>
    <rect x="684.4" y="151.2" width="8" height="8" fill="#e0e0e0" stroke="#424242" stroke-width="1"/>
    <text x="694.4" y="155.2" text-anchor="start" font-size="8" font-family="sans-serif" dominant-baseline="middle" fill="#555" stroke="white" stroke-width="2" paint-order="stroke fill">pa2</text>
    <rect x="684.4" y="165.8" width="8" height="8" fill="#e0e0e0" stroke="#424242" stroke-width="1"/>
    <text x="694.4" y="169.8" text-anchor="start" font-size="8" font-family="sans-serif" dominant-baseline="middle" fill="#555" stroke="white" stroke-width="2" paint-order="stroke fill">sub2</text>
    <rect x="804.4" y="158.5" width="8" height="8" fill="#e0e0e0" stroke="#424242" stroke-width="1"/>
    <text x="802.4" y="162.5" text-anchor="end" font-size="8" font-family="sans-serif" dominant-baseline="middle" fill="#555" stroke="white" stroke-width="2" paint-order="stroke fill">w2</text>
  </g>
  <g class="action-node"><title>Concatenate: w1 ++ w2 (and repeat for all other branches). Result is the marginal distribution P(B).</title>
    <rect x="1038.0" y="194.5" width="120" height="44" rx="12" fill="#e8f5e9" stroke="#388e3c" stroke-width="1.5"/>
    <text x="1098.0" y="216.5" text-anchor="middle" font-size="11" font-family="sans-serif" dominant-baseline="middle" fill="#333">merge</text>
    <rect x="1034.0" y="205.2" width="8" height="8" fill="#e0e0e0" stroke="#424242" stroke-width="1"/>
    <text x="1044.0" y="209.2" text-anchor="start" font-size="8" font-family="sans-serif" dominant-baseline="middle" fill="#555" stroke="white" stroke-width="2" paint-order="stroke fill">w2</text>
    <rect x="1034.0" y="219.8" width="8" height="8" fill="#e0e0e0" stroke="#424242" stroke-width="1"/>
    <text x="1044.0" y="223.8" text-anchor="start" font-size="8" font-family="sans-serif" dominant-baseline="middle" fill="#555" stroke="white" stroke-width="2" paint-order="stroke fill">w1</text>
    <rect x="1154.0" y="212.5" width="8" height="8" fill="#e0e0e0" stroke="#424242" stroke-width="1"/>
    <text x="1152.0" y="216.5" text-anchor="end" font-size="8" font-family="sans-serif" dominant-baseline="middle" fill="#555" stroke="white" stroke-width="2" paint-order="stroke fill">dist_b</text>
  </g>
  <g class="object-node"><title>Prob a = [(a, p)] — each (a, pa) is an outcome with probability pa. Repeats for every element (∀ a).</title>
    <rect x="46.0" y="273.0" width="128" height="38" fill="#f5f5f5" stroke="#616161" stroke-width="1.5"/>
    <text x="110.0" y="292.0" text-anchor="middle" font-size="11" font-family="sans-serif" dominant-baseline="middle" fill="#333">dist_a : Prob a</text>
  </g>
  <g class="object-node hof"><title>(a ⟶ Prob b) — conditional distribution: given each outcome a, returns a distribution over b</title>
    <rect x="214.0" y="68.0" width="120.8" height="38" fill="#e0f2f1" stroke="#00796b" stroke-width="1.5"/>
    <text x="274.4" y="80.0" text-anchor="middle" font-size="9" font-style="italic" font-family="sans-serif" dominant-baseline="middle" fill="#00796b">«function»</text>
    <text x="274.4" y="94.0" text-anchor="middle" font-size="11" font-family="sans-serif" dominant-baseline="middle" fill="#333">f : a ⟶ Prob b</text>
  </g>
  <g class="object-node"><title>Outcome a1 from Prob a</title>
    <rect x="219.4" y="351.0" width="110" height="38" fill="#f5f5f5" stroke="#616161" stroke-width="1.5"/>
    <text x="274.4" y="370.0" text-anchor="middle" font-size="11" font-family="sans-serif" dominant-baseline="middle" fill="#333">a1 : a</text>
  </g>
  <g class="object-node"><title>P(A = a1) — probability of outcome a1</title>
    <rect x="219.4" y="299.0" width="110" height="38" fill="#f5f5f5" stroke="#616161" stroke-width="1.5"/>
    <text x="274.4" y="318.0" text-anchor="middle" font-size="11" font-family="sans-serif" dominant-baseline="middle" fill="#333">pa1 : Double</text>
  </g>
  <g class="object-node"><title>Outcome a2 from Prob a</title>
    <rect x="219.4" y="233.5" width="110" height="38" fill="#f5f5f5" stroke="#616161" stroke-width="1.5"/>
    <text x="274.4" y="252.5" text-anchor="middle" font-size="11" font-family="sans-serif" dominant-baseline="middle" fill="#333">a2 : a</text>
  </g>
  <g class="object-node"><title>P(A = a2) — probability of outcome a2</title>
    <rect x="219.4" y="120.0" width="110" height="38" fill="#f5f5f5" stroke="#616161" stroke-width="1.5"/>
    <text x="274.4" y="139.0" text-anchor="middle" font-size="11" font-family="sans-serif" dominant-baseline="middle" fill="#333">pa2 : Double</text>
  </g>
  <g class="object-node"><title>Prob b — conditional distribution for branch a1</title>
    <rect x="534.8" y="251.5" width="113.60000000000001" height="38" fill="#f5f5f5" stroke="#616161" stroke-width="1.5"/>
    <text x="591.6" y="270.5" text-anchor="middle" font-size="11" font-family="sans-serif" dominant-baseline="middle" fill="#333">sub1 : Prob b</text>
  </g>
  <g class="object-node"><title>Prob b — conditional distribution for branch a2</title>
    <rect x="534.8" y="179.5" width="113.60000000000001" height="38" fill="#f5f5f5" stroke="#616161" stroke-width="1.5"/>
    <text x="591.6" y="198.5" text-anchor="middle" font-size="11" font-family="sans-serif" dominant-baseline="middle" fill="#333">sub2 : Prob b</text>
  </g>
  <g class="object-node"><title>[(b, pa1·pb)] — weighted outcomes for branch a1</title>
    <rect x="848.4" y="271.0" width="149.6" height="38" fill="#f5f5f5" stroke="#616161" stroke-width="1.5"/>
    <text x="923.2" y="290.0" text-anchor="middle" font-size="11" font-family="sans-serif" dominant-baseline="middle" fill="#333">w1 : [(b, pa1·pb)]</text>
  </g>
  <g class="object-node"><title>[(b, pa2·pb)] — weighted outcomes for branch a2</title>
    <rect x="848.4" y="179.5" width="149.6" height="38" fill="#f5f5f5" stroke="#616161" stroke-width="1.5"/>
    <text x="923.2" y="198.5" text-anchor="middle" font-size="11" font-family="sans-serif" dominant-baseline="middle" fill="#333">w2 : [(b, pa2·pb)]</text>
  </g>
  <g class="object-node"><title>Prob b — the marginal distribution: P(B=b) = Σ_a P(B=b|A=a)·P(A=a)</title>
    <rect x="1198.0" y="197.5" width="128" height="38" fill="#f5f5f5" stroke="#616161" stroke-width="1.5"/>
    <text x="1262.0" y="216.5" text-anchor="middle" font-size="11" font-family="sans-serif" dominant-baseline="middle" fill="#333">dist_b : Prob b</text>
  </g>
</g>
</svg>