<?xml version="1.0" encoding="UTF-8"?>
<svg xmlns="http://www.w3.org/2000/svg" viewBox="0 0 1207.6 295.5" width="1207.6" height="295.5">
<defs>
  <marker id="arrowFilled" viewBox="0 0 10 10" refX="9" refY="5" markerWidth="7" markerHeight="7" orient="auto-start-reverse">
    <path d="M0,0 L10,5 L0,10 z" fill="#424242"/>
  </marker>
  <marker id="arrowOpen" viewBox="0 0 10 10" refX="9" refY="5" markerWidth="7" markerHeight="7" orient="auto-start-reverse">
    <path d="M0,0 L10,5 L0,10" fill="none" stroke="#424242" stroke-width="1.5"/>
  </marker>
  <marker id="arrowHof" viewBox="0 0 10 10" refX="9" refY="5" markerWidth="7" markerHeight="7" orient="auto-start-reverse">
    <path d="M0,0 L10,5 L0,10 z" fill="#00796b"/>
  </marker>
</defs>
<rect width="1207.6" height="295.5" fill="white"/>
<text x="603.8" y="20" text-anchor="middle" font-size="14" font-weight="bold" font-family="sans-serif" fill="#222">Reader bind: same env r supplied to ra(r) and to f(a)(r) — never modified</text>
<g transform="translate(0,28)">
  <rect x="0" y="0" width="1207.6" height="267.5" rx="8" fill="#fafafa" stroke="#9e9e9e" stroke-width="1.5"/>
  <g class="activity-frame-tab">
    <path d="M0,0 L92.8,0 L102.8,22 L0,22 Z" fill="#e0e0e0" stroke="#9e9e9e" stroke-width="1"/>
    <text x="51.4" y="12.0" text-anchor="middle" font-size="10" font-family="sans-serif" dominant-baseline="middle" fill="#333">«activity» &gt;&gt;=</text>
  </g>
  <g class="edge">
    <path d="M174.0,150.9 C174.0,150.9 214.0,149.7 214.0,149.7" fill="none" stroke="#424242" stroke-width="1.5" marker-end="url(#arrowFilled)"/>
    
  </g>
  <g class="edge">
    <path d="M165.0,187.2 C182.2,187.2 196.8,164.3 214.0,164.3" fill="none" stroke="#424242" stroke-width="1.5" marker-end="url(#arrowFilled)"/>
    
  </g>
  <g class="edge">
    <path d="M334.0,157.0 C334.0,157.0 393.8,144.7 393.8,144.7" fill="none" stroke="#424242" stroke-width="1.5" marker-end="url(#arrowFilled)"/>
    
  </g>
  <g class="edge">
    <path d="M503.8,139.0 C503.8,139.0 563.6,146.3 563.6,146.3" fill="none" stroke="#424242" stroke-width="1.5" marker-end="url(#arrowFilled)"/>
    
  </g>
  <g class="edge hof-edge">
    <path d="M512.7,106.0 C530.5,106.0 545.8,131.7 563.6,131.7" fill="none" stroke="#00796b" stroke-width="1.5" marker-end="url(#arrowHof)"/>
    
  </g>
  <g class="edge">
    <path d="M683.6,139.0 C683.6,139.0 723.6,127.1 723.6,127.1" fill="none" stroke="#424242" stroke-width="1.5" marker-end="url(#arrowFilled)"/>
    
  </g>
  <g class="edge">
    <path d="M851.6,137.3 C865.6,137.3 877.6,157.7 891.6,157.7" fill="none" stroke="#424242" stroke-width="1.5" marker-end="url(#arrowFilled)"/>
    
  </g>
  <g class="edge">
    <path d="M165.0,200.0 C419.3,200.0 637.3,172.3 891.6,172.3" fill="none" stroke="#424242" stroke-width="1.5" marker-end="url(#arrowFilled)"/>
    
  </g>
  <g class="edge">
    <path d="M1011.6,165.0 C1011.6,165.0 1051.6,165.0 1051.6,165.0" fill="none" stroke="#424242" stroke-width="1.5" marker-end="url(#arrowFilled)"/>
    
  </g>
  <g class="edge">
    <path d="M334.0,157.0 C414.4,157.0 483.2,139.0 563.6,139.0" fill="none" stroke="#424242" stroke-width="1.5" stroke-dasharray="6,4" marker-end="url(#arrowOpen)"/>
    
  </g>
  <g class="edge">
    <path d="M683.6,139.0 C756.4,139.0 818.8,165.0 891.6,165.0" fill="none" stroke="#424242" stroke-width="1.5" stroke-dasharray="6,4" marker-end="url(#arrowOpen)"/>
    
  </g>
  <g class="action-node"><title>Run ra(env): supply env to ra, get result a</title>
    <rect x="214.0" y="135.0" width="120" height="44" rx="12" fill="#e8f5e9" stroke="#388e3c" stroke-width="1.5"/>
    <text x="274.0" y="157.0" text-anchor="middle" font-size="11" font-family="sans-serif" dominant-baseline="middle" fill="#333">run_ra</text>
    <rect x="210.0" y="145.7" width="8" height="8" fill="#e0e0e0" stroke="#424242" stroke-width="1"/>
    <text x="220.0" y="149.7" text-anchor="start" font-size="8" font-family="sans-serif" dominant-baseline="middle" fill="#555" stroke="white" stroke-width="2" paint-order="stroke fill">ra</text>
    <rect x="210.0" y="160.3" width="8" height="8" fill="#e0e0e0" stroke="#424242" stroke-width="1"/>
    <text x="220.0" y="164.3" text-anchor="start" font-size="8" font-family="sans-serif" dominant-baseline="middle" fill="#555" stroke="white" stroke-width="2" paint-order="stroke fill">env</text>
    <rect x="330.0" y="153.0" width="8" height="8" fill="#e0e0e0" stroke="#424242" stroke-width="1"/>
    <text x="328.0" y="157.0" text-anchor="end" font-size="8" font-family="sans-serif" dominant-baseline="middle" fill="#555" stroke="white" stroke-width="2" paint-order="stroke fill">a</text>
  </g>
  <g class="action-node"><title>Apply f(a): build the next computation Reader r b from result a</title>
    <rect x="563.6" y="117.0" width="120" height="44" rx="12" fill="#e8f5e9" stroke="#388e3c" stroke-width="1.5"/>
    <text x="623.6" y="139.0" text-anchor="middle" font-size="11" font-family="sans-serif" dominant-baseline="middle" fill="#333">apply_f</text>
    <rect x="559.6" y="127.7" width="8" height="8" fill="#e0e0e0" stroke="#424242" stroke-width="1"/>
    <text x="569.6" y="131.7" text-anchor="start" font-size="8" font-family="sans-serif" dominant-baseline="middle" fill="#555" stroke="white" stroke-width="2" paint-order="stroke fill">f</text>
    <rect x="559.6" y="142.3" width="8" height="8" fill="#e0e0e0" stroke="#424242" stroke-width="1"/>
    <text x="569.6" y="146.3" text-anchor="start" font-size="8" font-family="sans-serif" dominant-baseline="middle" fill="#555" stroke="white" stroke-width="2" paint-order="stroke fill">a</text>
    <rect x="679.6" y="135.0" width="8" height="8" fill="#e0e0e0" stroke="#424242" stroke-width="1"/>
    <text x="677.6" y="139.0" text-anchor="end" font-size="8" font-family="sans-serif" dominant-baseline="middle" fill="#555" stroke="white" stroke-width="2" paint-order="stroke fill">rb</text>
  </g>
  <g class="action-node"><title>Run rb(env): supply THE SAME env to f(a) — env is unchanged from step 1. Key difference from State.</title>
    <rect x="891.6" y="143.0" width="120" height="44" rx="12" fill="#e8f5e9" stroke="#388e3c" stroke-width="1.5"/>
    <text x="951.6" y="165.0" text-anchor="middle" font-size="11" font-family="sans-serif" dominant-baseline="middle" fill="#333">run_rb</text>
    <rect x="887.6" y="153.7" width="8" height="8" fill="#e0e0e0" stroke="#424242" stroke-width="1"/>
    <text x="897.6" y="157.7" text-anchor="start" font-size="8" font-family="sans-serif" dominant-baseline="middle" fill="#555" stroke="white" stroke-width="2" paint-order="stroke fill">rb</text>
    <rect x="887.6" y="168.3" width="8" height="8" fill="#e0e0e0" stroke="#424242" stroke-width="1"/>
    <text x="897.6" y="172.3" text-anchor="start" font-size="8" font-family="sans-serif" dominant-baseline="middle" fill="#555" stroke="white" stroke-width="2" paint-order="stroke fill">env</text>
    <rect x="1007.6" y="161.0" width="8" height="8" fill="#e0e0e0" stroke="#424242" stroke-width="1"/>
    <text x="1005.6" y="165.0" text-anchor="end" font-size="8" font-family="sans-serif" dominant-baseline="middle" fill="#555" stroke="white" stroke-width="2" paint-order="stroke fill">b</text>
  </g>
  <g class="object-node"><title>Reader r a — a suspended computation: a function r ⟶ a, not yet executed</title>
    <rect x="46.0" y="128.0" width="128" height="38" fill="#f5f5f5" stroke="#616161" stroke-width="1.5"/>
    <text x="110.0" y="147.0" text-anchor="middle" font-size="11" font-family="sans-serif" dominant-baseline="middle" fill="#333">ra : Reader r a</text>
  </g>
  <g class="object-node hof"><title>(a ⟶ Reader r b) — given result a, builds the next computation r ⟶ b</title>
    <rect x="374.0" y="68.0" width="149.6" height="38" fill="#e0f2f1" stroke="#00796b" stroke-width="1.5"/>
    <text x="448.8" y="80.0" text-anchor="middle" font-size="9" font-style="italic" font-family="sans-serif" dominant-baseline="middle" fill="#00796b">«function»</text>
    <text x="448.8" y="94.0" text-anchor="middle" font-size="11" font-family="sans-serif" dominant-baseline="middle" fill="#333">f : a ⟶ Reader r b</text>
  </g>
  <g class="object-node"><title>r — the shared read-only environment. The SAME instance flows to both run_ra and run_rb. It is NEVER modified.</title>
    <rect x="55.0" y="183.5" width="110" height="38" fill="#f5f5f5" stroke="#616161" stroke-width="1.5"/>
    <text x="110.0" y="202.5" text-anchor="middle" font-size="11" font-family="sans-serif" dominant-baseline="middle" fill="#333">env : r</text>
  </g>
  <g class="object-node"><title>a — the result of running ra with the environment</title>
    <rect x="393.8" y="120.0" width="110" height="38" fill="#f5f5f5" stroke="#616161" stroke-width="1.5"/>
    <text x="448.8" y="139.0" text-anchor="middle" font-size="11" font-family="sans-serif" dominant-baseline="middle" fill="#333">a : a</text>
  </g>
  <g class="object-node"><title>Reader r b — the second computation (not yet run)</title>
    <rect x="723.6" y="100.5" width="128" height="38" fill="#f5f5f5" stroke="#616161" stroke-width="1.5"/>
    <text x="787.6" y="119.5" text-anchor="middle" font-size="11" font-family="sans-serif" dominant-baseline="middle" fill="#333">rb : Reader r b</text>
  </g>
  <g class="object-node"><title>b — the final result. The environment was never modified throughout.</title>
    <rect x="1051.6" y="146.0" width="110" height="38" fill="#f5f5f5" stroke="#616161" stroke-width="1.5"/>
    <text x="1106.6" y="165.0" text-anchor="middle" font-size="11" font-family="sans-serif" dominant-baseline="middle" fill="#333">b : b</text>
  </g>
</g>
</svg>