<?xml version="1.0" encoding="UTF-8"?>
<svg xmlns="http://www.w3.org/2000/svg" viewBox="0 0 1234 294" width="1234" height="294">
  <defs>
    <marker id="arrowFilled" viewBox="0 0 10 10" refX="0" refY="5" markerWidth="8" markerHeight="8" orient="auto-start-reverse">
      <path d="M0,1.5 L10,5 L0,8.5 L2.5,5 Z" fill="#424242"/>
    </marker>
    <marker id="arrowOpen" viewBox="0 0 10 10" refX="0" refY="5" markerWidth="8" markerHeight="8" orient="auto-start-reverse">
      <path d="M0,1.5 L10,5 L0,8.5" fill="none" stroke="#424242" stroke-width="1.25"/>
    </marker>
    <marker id="arrowHof" viewBox="0 0 10 10" refX="0" refY="5" markerWidth="8" markerHeight="8" orient="auto-start-reverse">
      <path d="M0,1.5 L10,5 L0,8.5 L2.5,5 Z" fill="#00796b"/>
    </marker>
  </defs>
  <rect width="1234" height="294" fill="white"/>
  <text x="617" y="20" text-anchor="middle" font-size="14" font-weight="bold" font-family="sans-serif" fill="#222">State bind: s0 → run sa → (a, s1) → run f(a)(s1) → (b, s2)</text>
  <g transform="translate(0,28)">
    <rect x="0" y="0" width="1234" height="266" rx="8" fill="#fafafa" stroke="#9e9e9e" stroke-width="1.5"/>
    <g class="activity-frame-tab">
      <path d="M0,0 L102.8,0 L102.8,12 L92.8,22 L0,22 Z" fill="#e0e0e0" stroke="#9e9e9e" stroke-width="1"/>
      <text x="51.4" y="12" text-anchor="middle" font-size="10" font-family="sans-serif" dominant-baseline="middle" fill="#333">«activity» &gt;&gt;=</text>
    </g>
    <g class="edge">
      <path d="M166.8,106.0 L194.8,106.0" fill="none" stroke="#424242" stroke-width="1.5" stroke-linejoin="round" stroke-linecap="round" marker-end="url(#arrowFilled)"/>
    </g>
    <g class="edge">
      <path d="M166.8,158.0 L171.8,158.0 Q176.8,158.0 176.8,153.0 L176.8,130.0 Q176.8,124.0 182.8,124.0 L194.8,124.0" fill="none" stroke="#424242" stroke-width="1.5" stroke-linejoin="round" stroke-linecap="round" marker-end="url(#arrowFilled)"/>
    </g>
    <g class="edge">
      <path d="M342.8,104.0 L387.0,104.0" fill="none" stroke="#424242" stroke-width="1.5" stroke-linejoin="round" stroke-linecap="round" marker-end="url(#arrowFilled)"/>
    </g>
    <g class="edge">
      <path d="M342.8,119.0 L356.8,119.0 Q362.8,119.0 362.8,125.0 L362.8,185.0 Q362.8,191.0 368.8,191.0 L534.2,191.0 Q535.2,191.0 535.2,190.0 L535.2,190.0 Q535.2,189.0 536.2,189.0 L566.2,189.0" fill="none" stroke="#424242" stroke-width="1.5" stroke-linejoin="round" stroke-linecap="round" marker-end="url(#arrowFilled)"/>
    </g>
    <g class="edge">
      <path d="M509.0,104.0 L553.2,104.0" fill="none" stroke="#424242" stroke-width="1.5" stroke-linejoin="round" stroke-linecap="round" marker-end="url(#arrowFilled)"/>
    </g>
    <g class="edge hof-edge">
      <path d="M525.2,156.0 L530.2,156.0 Q535.2,156.0 535.2,151.0 L535.2,125.0 Q535.2,119.0 541.2,119.0 L553.2,119.0" fill="none" stroke="#00796b" stroke-width="1.5" stroke-linejoin="round" stroke-linecap="round" marker-end="url(#arrowHof)"/>
    </g>
    <g class="edge">
      <path d="M701.2,102.0 L706.2,102.0 Q711.2,102.0 711.2,107.0 L711.2,148.0 Q711.2,154.0 717.2,154.0 L729.2,154.0" fill="none" stroke="#424242" stroke-width="1.5" stroke-linejoin="round" stroke-linecap="round" marker-end="url(#arrowFilled)"/>
    </g>
    <g class="edge">
      <path d="M862.0,154.0 L890.0,154.0" fill="none" stroke="#424242" stroke-width="1.5" stroke-linejoin="round" stroke-linecap="round" marker-end="url(#arrowFilled)"/>
    </g>
    <g class="edge">
      <path d="M688.2,189.0 L866.0,189.0 Q872.0,189.0 872.0,183.0 L872.0,175.0 Q872.0,169.0 878.0,169.0 L890.0,169.0" fill="none" stroke="#424242" stroke-width="1.5" stroke-linejoin="round" stroke-linecap="round" marker-end="url(#arrowFilled)"/>
    </g>
    <g class="edge">
      <path d="M1038.0,149.0 L1066.0,149.0" fill="none" stroke="#424242" stroke-width="1.5" stroke-linejoin="round" stroke-linecap="round" marker-end="url(#arrowFilled)"/>
    </g>
    <g class="edge">
      <path d="M1038.0,167.0 L1043.0,167.0 Q1048.0,167.0 1048.0,172.0 L1048.0,195.0 Q1048.0,201.0 1054.0,201.0 L1066.0,201.0" fill="none" stroke="#424242" stroke-width="1.5" stroke-linejoin="round" stroke-linecap="round" marker-end="url(#arrowFilled)"/>
    </g>
    <g class="edge">
      <path d="M334.8,130.0 L346.8,130.0 Q352.8,130.0 352.8,124.0 L352.8,74.0 Q352.8,68.0 358.8,68.0 L529.2,68.0 Q535.2,68.0 535.2,74.0 L535.2,87.0 Q535.2,93.0 541.2,93.0 L561.2,93.0" fill="none" stroke="#424242" stroke-width="1.5" stroke-linejoin="round" stroke-linecap="round" marker-end="url(#arrowOpen)" stroke-dasharray="6,4"/>
    </g>
    <g class="edge">
      <path d="M693.2,118.0 L866.0,118.0 Q872.0,118.0 872.0,124.0 L872.0,137.0 Q872.0,143.0 878.0,143.0 L898.0,143.0" fill="none" stroke="#424242" stroke-width="1.5" stroke-linejoin="round" stroke-linecap="round" marker-end="url(#arrowOpen)" stroke-dasharray="6,4"/>
    </g>
    <g class="action-node">
      <title>Run sa(s0): execute the first computation. Produces BOTH result a AND new state s1.</title>
      <rect x="214.8" y="93" width="120" height="44" rx="12" fill="#e8f5e9" stroke="#388e3c" stroke-width="1.5"/>
      <text class="action-label" x="274.8" y="115" text-anchor="middle" font-size="11" font-family="sans-serif" dominant-baseline="middle" fill="#333">run_sa</text>
      <g class="pin pin-in">
        <rect x="210.8" y="103.66666666666667" width="8" height="8" fill="#e0e0e0" stroke="#424242" stroke-width="1"/>
        <text x="220.8" y="107.66666666666667" text-anchor="start" font-size="8" font-family="sans-serif" dominant-baseline="middle" fill="#555" stroke="white" stroke-width="2" paint-order="stroke fill">sa</text>
      </g>
      <g class="pin pin-in">
        <rect x="210.8" y="118.33333333333333" width="8" height="8" fill="#e0e0e0" stroke="#424242" stroke-width="1"/>
        <text x="220.8" y="122.33333333333333" text-anchor="start" font-size="8" font-family="sans-serif" dominant-baseline="middle" fill="#555" stroke="white" stroke-width="2" paint-order="stroke fill">s0</text>
      </g>
      <g class="pin pin-out">
        <rect x="330.8" y="103.66666666666667" width="8" height="8" fill="#e0e0e0" stroke="#424242" stroke-width="1"/>
        <text x="328.8" y="107.66666666666667" text-anchor="end" font-size="8" font-family="sans-serif" dominant-baseline="middle" fill="#555" stroke="white" stroke-width="2" paint-order="stroke fill">a</text>
      </g>
      <g class="pin pin-out">
        <rect x="330.8" y="118.33333333333333" width="8" height="8" fill="#e0e0e0" stroke="#424242" stroke-width="1"/>
        <text x="328.8" y="122.33333333333333" text-anchor="end" font-size="8" font-family="sans-serif" dominant-baseline="middle" fill="#555" stroke="white" stroke-width="2" paint-order="stroke fill">s1</text>
      </g>
    </g>
    <g class="action-node">
      <title>Apply f(a): build the next computation State s b from result a</title>
      <rect x="573.2" y="86" width="120" height="44" rx="12" fill="#e8f5e9" stroke="#388e3c" stroke-width="1.5"/>
      <text class="action-label" x="633.2" y="108" text-anchor="middle" font-size="11" font-family="sans-serif" dominant-baseline="middle" fill="#333">apply_f</text>
      <g class="pin pin-in">
        <rect x="569.2" y="96.66666666666667" width="8" height="8" fill="#e0e0e0" stroke="#424242" stroke-width="1"/>
        <text x="579.2" y="100.66666666666667" text-anchor="start" font-size="8" font-family="sans-serif" dominant-baseline="middle" fill="#555" stroke="white" stroke-width="2" paint-order="stroke fill">a</text>
      </g>
      <g class="pin pin-in">
        <rect x="569.2" y="111.33333333333333" width="8" height="8" fill="#e0e0e0" stroke="#424242" stroke-width="1"/>
        <text x="579.2" y="115.33333333333333" text-anchor="start" font-size="8" font-family="sans-serif" dominant-baseline="middle" fill="#555" stroke="white" stroke-width="2" paint-order="stroke fill">f</text>
      </g>
      <g class="pin pin-out">
        <rect x="689.2" y="104" width="8" height="8" fill="#e0e0e0" stroke="#424242" stroke-width="1"/>
        <text x="687.2" y="108" text-anchor="end" font-size="8" font-family="sans-serif" dominant-baseline="middle" fill="#555" stroke="white" stroke-width="2" paint-order="stroke fill">sb</text>
      </g>
    </g>
    <g class="action-node">
      <title>Run f(a)(s1): execute the second computation with the UPDATED state s1. s0 is not used here.</title>
      <rect x="910" y="136" width="120" height="44" rx="12" fill="#e8f5e9" stroke="#388e3c" stroke-width="1.5"/>
      <text class="action-label" x="970" y="158" text-anchor="middle" font-size="11" font-family="sans-serif" dominant-baseline="middle" fill="#333">run_sb</text>
      <g class="pin pin-in">
        <rect x="906" y="146.66666666666666" width="8" height="8" fill="#e0e0e0" stroke="#424242" stroke-width="1"/>
        <text x="916" y="150.66666666666666" text-anchor="start" font-size="8" font-family="sans-serif" dominant-baseline="middle" fill="#555" stroke="white" stroke-width="2" paint-order="stroke fill">sb</text>
      </g>
      <g class="pin pin-in">
        <rect x="906" y="161.33333333333334" width="8" height="8" fill="#e0e0e0" stroke="#424242" stroke-width="1"/>
        <text x="916" y="165.33333333333334" text-anchor="start" font-size="8" font-family="sans-serif" dominant-baseline="middle" fill="#555" stroke="white" stroke-width="2" paint-order="stroke fill">s1</text>
      </g>
      <g class="pin pin-out">
        <rect x="1026" y="146.66666666666666" width="8" height="8" fill="#e0e0e0" stroke="#424242" stroke-width="1"/>
        <text x="1024" y="150.66666666666666" text-anchor="end" font-size="8" font-family="sans-serif" dominant-baseline="middle" fill="#555" stroke="white" stroke-width="2" paint-order="stroke fill">b</text>
      </g>
      <g class="pin pin-out">
        <rect x="1026" y="161.33333333333334" width="8" height="8" fill="#e0e0e0" stroke="#424242" stroke-width="1"/>
        <text x="1024" y="165.33333333333334" text-anchor="end" font-size="8" font-family="sans-serif" dominant-baseline="middle" fill="#555" stroke="white" stroke-width="2" paint-order="stroke fill">s2</text>
      </g>
    </g>
    <g class="object-node">
      <title>State s a — a computation: given state s returns (a, s')</title>
      <rect x="46.00000000000001" y="87" width="120.8" height="38" fill="#f5f5f5" stroke="#616161" stroke-width="1.5"/>
      <text x="106.4" y="106" text-anchor="middle" font-size="11" font-family="sans-serif" dominant-baseline="middle" fill="#333">sa : State s a</text>
    </g>
    <g class="object-node hof">
      <title>(a ⟶ State s b) — the continuation; given result a, builds the next state computation</title>
      <rect x="382.8" y="137" width="142.4" height="38" fill="#e0f2f1" stroke="#00796b" stroke-width="1.5"/>
      <text x="454" y="149" text-anchor="middle" font-size="9" font-style="italic" font-family="sans-serif" dominant-baseline="middle" fill="#00796b">«function»</text>
      <text x="454" y="163" text-anchor="middle" font-size="11" font-family="sans-serif" dominant-baseline="middle" fill="#333">f : a ⟶ State s b</text>
    </g>
    <g class="object-node">
      <title>s — the initial state entering the bind. Flows into run_sa.</title>
      <rect x="56.8" y="139" width="110" height="38" fill="#f5f5f5" stroke="#616161" stroke-width="1.5"/>
      <text x="111.8" y="158" text-anchor="middle" font-size="11" font-family="sans-serif" dominant-baseline="middle" fill="#333">s0 : s</text>
    </g>
    <g class="object-node">
      <title>a — the value result of sa(s0). Passed to f.</title>
      <rect x="399" y="85" width="110" height="38" fill="#f5f5f5" stroke="#616161" stroke-width="1.5"/>
      <text x="454" y="104" text-anchor="middle" font-size="11" font-family="sans-serif" dominant-baseline="middle" fill="#333">a : a</text>
    </g>
    <g class="object-node">
      <title>s — the state AFTER running sa. This is s1 ≠ s0. It is s1 (not s0) that flows to run_sb. Critical difference from Reader.</title>
      <rect x="578.2" y="170" width="110" height="38" fill="#f5f5f5" stroke="#616161" stroke-width="1.5"/>
      <text x="633.2" y="189" text-anchor="middle" font-size="11" font-family="sans-serif" dominant-baseline="middle" fill="#333">s1 : s</text>
    </g>
    <g class="object-node">
      <title>State s b — the second computation, not yet run</title>
      <rect x="741.2" y="135" width="120.8" height="38" fill="#f5f5f5" stroke="#616161" stroke-width="1.5"/>
      <text x="801.6" y="154" text-anchor="middle" font-size="11" font-family="sans-serif" dominant-baseline="middle" fill="#333">sb : State s b</text>
    </g>
    <g class="object-node">
      <title>b — the final value result</title>
      <rect x="1078" y="130" width="110" height="38" fill="#f5f5f5" stroke="#616161" stroke-width="1.5"/>
      <text x="1133" y="149" text-anchor="middle" font-size="11" font-family="sans-serif" dominant-baseline="middle" fill="#333">b : b</text>
    </g>
    <g class="object-node">
      <title>s — the final state after both steps. s0 ≠ s1 ≠ s2 in general; each step transforms the state.</title>
      <rect x="1078" y="182" width="110" height="38" fill="#f5f5f5" stroke="#616161" stroke-width="1.5"/>
      <text x="1133" y="201" text-anchor="middle" font-size="11" font-family="sans-serif" dominant-baseline="middle" fill="#333">s2 : s</text>
    </g>
  </g>
</svg>
