<?xml version="1.0" encoding="UTF-8"?>
<svg xmlns="http://www.w3.org/2000/svg" viewBox="0 0 1232 264" width="1232" height="264">
  <defs>
    <marker id="arrowFilled" viewBox="0 0 10 10" refX="0" refY="5" markerWidth="8" markerHeight="8" orient="auto-start-reverse">
      <path d="M0,1.5 L10,5 L0,8.5 L2.5,5 Z" fill="#424242"/>
    </marker>
    <marker id="arrowOpen" viewBox="0 0 10 10" refX="0" refY="5" markerWidth="8" markerHeight="8" orient="auto-start-reverse">
      <path d="M0,1.5 L10,5 L0,8.5" fill="none" stroke="#424242" stroke-width="1.25"/>
    </marker>
    <marker id="arrowHof" viewBox="0 0 10 10" refX="0" refY="5" markerWidth="8" markerHeight="8" orient="auto-start-reverse">
      <path d="M0,1.5 L10,5 L0,8.5 L2.5,5 Z" fill="#00796b"/>
    </marker>
  </defs>
  <rect width="1232" height="264" fill="white"/>
  <text x="616" y="20" text-anchor="middle" font-size="14" font-weight="bold" font-family="sans-serif" fill="#222">Writer bind: extract a+w1, apply f→(b,w2), combine logs w1&lt;&gt;w2 — also called: flatMap, &gt;&gt;=</text>
  <g transform="translate(0,28)">
    <rect x="0" y="0" width="1232" height="236" rx="8" fill="#fafafa" stroke="#9e9e9e" stroke-width="1.5"/>
    <g class="diagram-frame-tab tab-activity">
      <path d="M0,0 L109,0 L109,12 L99,22 L0,22 Z" fill="#e0e0e0" stroke="#9e9e9e" stroke-width="1"/>
      <text x="54.5" y="12" text-anchor="middle" font-size="10" font-family="sans-serif" dominant-baseline="middle" fill="#333">«activity» bind</text>
    </g>
    <g class="edge">
      <path d="M146.0,87.0 L178.0,87.0" fill="none" stroke="#424242" stroke-width="1.5" stroke-linejoin="round" stroke-linecap="round" marker-end="url(#arrowFilled)"/>
    </g>
    <g class="edge">
      <path d="M318.0,76.0 L359.0,76.0" fill="none" stroke="#424242" stroke-width="1.5" stroke-linejoin="round" stroke-linecap="round" marker-end="url(#arrowFilled)"/>
    </g>
    <g class="edge">
      <path d="M318.0,91.0 L336.0,91.0 Q342.0,91.0 342.0,97.0 L342.0,157.0 Q342.0,163.0 348.0,163.0 L531.0,163.0" fill="none" stroke="#424242" stroke-width="1.5" stroke-linejoin="round" stroke-linecap="round" marker-end="url(#arrowFilled)"/>
    </g>
    <g class="edge">
      <path d="M481.0,76.0 L522.0,76.0" fill="none" stroke="#424242" stroke-width="1.5" stroke-linejoin="round" stroke-linecap="round" marker-end="url(#arrowFilled)"/>
    </g>
    <g class="edge hof-edge">
      <path d="M490.0,128.0 L495.0,128.0 Q500.0,128.0 500.0,123.0 L500.0,97.0 Q500.0,91.0 506.0,91.0 L522.0,91.0" fill="none" stroke="#00796b" stroke-width="1.5" stroke-linejoin="round" stroke-linecap="round" marker-end="url(#arrowHof)"/>
    </g>
    <g class="edge">
      <path d="M662.0,69.0 L690.0,69.0 Q696.0,69.0 696.0,75.0 L696.0,128.0 L696.0,128.0" fill="none" stroke="#424242" stroke-width="1.5" stroke-linejoin="round" stroke-linecap="round" marker-end="url(#arrowFilled)"/>
    </g>
    <g class="edge">
      <path d="M662.0,84.0 L670.0,84.0 Q676.0,84.0 676.0,90.0 L676.0,193.0 Q676.0,199.0 682.0,199.0 L694.0,199.0" fill="none" stroke="#424242" stroke-width="1.5" stroke-linejoin="round" stroke-linecap="round" marker-end="url(#arrowFilled)"/>
    </g>
    <g class="edge">
      <path d="M816.0,128.0 L848.0,128.0" fill="none" stroke="#424242" stroke-width="1.5" stroke-linejoin="round" stroke-linecap="round" marker-end="url(#arrowFilled)"/>
    </g>
    <g class="edge">
      <path d="M653.0,163.0 L820.0,163.0 Q826.0,163.0 826.0,157.0 L826.0,146.0 Q826.0,140.0 832.0,140.0 L848.0,140.0" fill="none" stroke="#424242" stroke-width="1.5" stroke-linejoin="round" stroke-linecap="round" marker-end="url(#arrowFilled)"/>
    </g>
    <g class="edge">
      <path d="M816.0,199.0 L830.0,199.0 Q836.0,199.0 836.0,193.0 L836.0,158.0 Q836.0,152.0 842.0,152.0 L848.0,152.0" fill="none" stroke="#424242" stroke-width="1.5" stroke-linejoin="round" stroke-linecap="round" marker-end="url(#arrowFilled)"/>
    </g>
    <g class="edge">
      <path d="M988.0,138.0 L1020.0,138.0" fill="none" stroke="#424242" stroke-width="1.5" stroke-linejoin="round" stroke-linecap="round" marker-end="url(#arrowFilled)"/>
    </g>
    <g class="edge">
      <path d="M314.0,102.0 L326.0,102.0 Q332.0,102.0 332.0,96.0 L332.0,46.0 Q332.0,40.0 338.0,40.0 L494.0,40.0 Q500.0,40.0 500.0,46.0 L500.0,59.0 Q500.0,65.0 506.0,65.0 L526.0,65.0" fill="none" stroke="#424242" stroke-width="1.5" stroke-linejoin="round" stroke-linecap="round" marker-end="url(#arrowOpen)" stroke-dasharray="6,4"/>
    </g>
    <g class="edge">
      <path d="M658.0,95.0 L684.5,95.0 Q686.0,95.0 686.0,93.5 L686.0,93.5 Q686.0,92.0 687.5,92.0 L820.0,92.0 Q826.0,92.0 826.0,98.0 L826.0,114.0 Q826.0,120.0 832.0,120.0 L852.0,120.0" fill="none" stroke="#424242" stroke-width="1.5" stroke-linejoin="round" stroke-linecap="round" marker-end="url(#arrowOpen)" stroke-dasharray="6,4"/>
    </g>
    <g class="action-node">
      <title>Pattern-match the pair: extract a (for f) and w1 (for the log combiner)</title>
      <rect x="194" y="65" width="120" height="44" rx="12" fill="#e8f5e9" stroke="#388e3c" stroke-width="1.5"/>
      <text class="action-label" x="254" y="87" text-anchor="middle" font-size="11" font-family="sans-serif" dominant-baseline="middle" fill="#333">extract</text>
      <g class="pin pin-in">
        <rect x="190" y="83" width="8" height="8" fill="#e0e0e0" stroke="#424242" stroke-width="1"/>
        <text x="200" y="87" text-anchor="start" font-size="8" font-family="sans-serif" dominant-baseline="middle" fill="#555" stroke="white" stroke-width="2" paint-order="stroke fill">wa</text>
      </g>
      <g class="pin pin-out">
        <rect x="310" y="75.66666666666667" width="8" height="8" fill="#e0e0e0" stroke="#424242" stroke-width="1"/>
        <text x="308" y="79.66666666666667" text-anchor="end" font-size="8" font-family="sans-serif" dominant-baseline="middle" fill="#555" stroke="white" stroke-width="2" paint-order="stroke fill">a_val</text>
      </g>
      <g class="pin pin-out">
        <rect x="310" y="90.33333333333333" width="8" height="8" fill="#e0e0e0" stroke="#424242" stroke-width="1"/>
        <text x="308" y="94.33333333333333" text-anchor="end" font-size="8" font-family="sans-serif" dominant-baseline="middle" fill="#555" stroke="white" stroke-width="2" paint-order="stroke fill">w1</text>
      </g>
    </g>
    <g class="action-node">
      <title>Apply f(a): produces (b, w2) — the result value b and a new log fragment w2</title>
      <rect x="538" y="58" width="120" height="44" rx="12" fill="#e8f5e9" stroke="#388e3c" stroke-width="1.5"/>
      <text class="action-label" x="598" y="80" text-anchor="middle" font-size="11" font-family="sans-serif" dominant-baseline="middle" fill="#333">apply</text>
      <g class="pin pin-in">
        <rect x="534" y="68.66666666666667" width="8" height="8" fill="#e0e0e0" stroke="#424242" stroke-width="1"/>
        <text x="544" y="72.66666666666667" text-anchor="start" font-size="8" font-family="sans-serif" dominant-baseline="middle" fill="#555" stroke="white" stroke-width="2" paint-order="stroke fill">a_val</text>
      </g>
      <g class="pin pin-in">
        <rect x="534" y="83.33333333333333" width="8" height="8" fill="#e0e0e0" stroke="#424242" stroke-width="1"/>
        <text x="544" y="87.33333333333333" text-anchor="start" font-size="8" font-family="sans-serif" dominant-baseline="middle" fill="#555" stroke="white" stroke-width="2" paint-order="stroke fill">f</text>
      </g>
      <g class="pin pin-out">
        <rect x="654" y="68.66666666666667" width="8" height="8" fill="#e0e0e0" stroke="#424242" stroke-width="1"/>
        <text x="652" y="72.66666666666667" text-anchor="end" font-size="8" font-family="sans-serif" dominant-baseline="middle" fill="#555" stroke="white" stroke-width="2" paint-order="stroke fill">b_val</text>
      </g>
      <g class="pin pin-out">
        <rect x="654" y="83.33333333333333" width="8" height="8" fill="#e0e0e0" stroke="#424242" stroke-width="1"/>
        <text x="652" y="87.33333333333333" text-anchor="end" font-size="8" font-family="sans-serif" dominant-baseline="middle" fill="#555" stroke="white" stroke-width="2" paint-order="stroke fill">w2</text>
      </g>
    </g>
    <g class="action-node">
      <title>Return (b, w1 &lt;&gt; w2) — result b with both log fragments combined using monoid append</title>
      <rect x="864" y="116" width="120" height="44" rx="12" fill="#e8f5e9" stroke="#388e3c" stroke-width="1.5"/>
      <text class="action-label" x="924" y="138" text-anchor="middle" font-size="11" font-family="sans-serif" dominant-baseline="middle" fill="#333">combine</text>
      <g class="pin pin-in">
        <rect x="860" y="123" width="8" height="8" fill="#e0e0e0" stroke="#424242" stroke-width="1"/>
        <text x="870" y="127" text-anchor="start" font-size="8" font-family="sans-serif" dominant-baseline="middle" fill="#555" stroke="white" stroke-width="2" paint-order="stroke fill">b_val</text>
      </g>
      <g class="pin pin-in">
        <rect x="860" y="134" width="8" height="8" fill="#e0e0e0" stroke="#424242" stroke-width="1"/>
        <text x="870" y="138" text-anchor="start" font-size="8" font-family="sans-serif" dominant-baseline="middle" fill="#555" stroke="white" stroke-width="2" paint-order="stroke fill">w1</text>
      </g>
      <g class="pin pin-in">
        <rect x="860" y="145" width="8" height="8" fill="#e0e0e0" stroke="#424242" stroke-width="1"/>
        <text x="870" y="149" text-anchor="start" font-size="8" font-family="sans-serif" dominant-baseline="middle" fill="#555" stroke="white" stroke-width="2" paint-order="stroke fill">w2</text>
      </g>
      <g class="pin pin-out">
        <rect x="980" y="134" width="8" height="8" fill="#e0e0e0" stroke="#424242" stroke-width="1"/>
        <text x="978" y="138" text-anchor="end" font-size="8" font-family="sans-serif" dominant-baseline="middle" fill="#555" stroke="white" stroke-width="2" paint-order="stroke fill">result</text>
      </g>
    </g>
    <g class="object-node">
      <title>(a, w1) — result a paired with the first log fragment w1</title>
      <rect x="36" y="68" width="110" height="38" fill="#f5f5f5" stroke="#616161" stroke-width="1.5"/>
      <text x="91" y="87" text-anchor="middle" font-size="11" font-family="sans-serif" dominant-baseline="middle" fill="#333">wa : (a, w1)</text>
    </g>
    <g class="object-node hof">
      <title>(a ⟶ (b, w2)) — the continuation; produces result b AND a new log fragment w2</title>
      <rect x="362" y="109" width="128" height="38" fill="#e0f2f1" stroke="#00796b" stroke-width="1.5"/>
      <text x="426" y="121" text-anchor="middle" font-size="9" font-style="italic" font-family="sans-serif" dominant-baseline="middle" fill="#00796b">«function»</text>
      <text x="426" y="135" text-anchor="middle" font-size="11" font-family="sans-serif" dominant-baseline="middle" fill="#333">f : a ⟶ (b, w2)</text>
    </g>
    <g class="object-node">
      <title>a — the value to pass to f</title>
      <rect x="371" y="57" width="110" height="38" fill="#f5f5f5" stroke="#616161" stroke-width="1.5"/>
      <text x="426" y="76" text-anchor="middle" font-size="11" font-family="sans-serif" dominant-baseline="middle" fill="#333">a_val : a</text>
    </g>
    <g class="object-node">
      <title>w — the first log fragment. Flows DIRECTLY to combine, bypassing apply. It must not be dropped.</title>
      <rect x="543" y="144" width="110" height="38" fill="#f5f5f5" stroke="#616161" stroke-width="1.5"/>
      <text x="598" y="163" text-anchor="middle" font-size="11" font-family="sans-serif" dominant-baseline="middle" fill="#333">w1 : w</text>
    </g>
    <g class="object-node">
      <title>b — the result value from f(a)</title>
      <rect x="706" y="109" width="110" height="38" fill="#f5f5f5" stroke="#616161" stroke-width="1.5"/>
      <text x="761" y="128" text-anchor="middle" font-size="11" font-family="sans-serif" dominant-baseline="middle" fill="#333">b_val : b</text>
    </g>
    <g class="object-node">
      <title>w — the second log fragment, produced by f(a). Combined with w1 from the first step.</title>
      <rect x="706" y="180" width="110" height="38" fill="#f5f5f5" stroke="#616161" stroke-width="1.5"/>
      <text x="761" y="199" text-anchor="middle" font-size="11" font-family="sans-serif" dominant-baseline="middle" fill="#333">w2 : w</text>
    </g>
    <g class="object-node">
      <title>(b, w1&lt;&gt;w2) — the final result: value b and the complete accumulated log</title>
      <rect x="1032" y="119" width="164" height="38" fill="#f5f5f5" stroke="#616161" stroke-width="1.5"/>
      <text x="1114" y="138" text-anchor="middle" font-size="11" font-family="sans-serif" dominant-baseline="middle" fill="#333">result : (b, w1&lt;&gt;w2)</text>
    </g>
  </g>
</svg>
